<?xml version="1.0" encoding="UTF-8"?><svg xmlns="http://www.w3.org/2000/svg" xmlns:xlink="http://www.w3.org/1999/xlink" contentScriptType="text/ecmascript" width="375" zoomAndPan="magnify" contentStyleType="text/css" viewBox="0 0 375 374.999991" height="374.999991" preserveAspectRatio="xMidYMid meet" version="1.0"><defs><filter x="0%" y="0%" width="100%" xmlns:xlink="http://www.w3.org/1999/xlink" xlink:type="simple" xlink:actuate="onLoad" height="100%" id="filter-remove-color" xlink:show="other"><feColorMatrix values="0 0 0 0 1 0 0 0 0 1 0 0 0 0 1 0 0 0 1 0" color-interpolation-filters="sRGB"/></filter><mask id="mask-0"><g filter="url(#filter-remove-color)"><rect x="-37.5" width="450" fill="rgb(0%, 0%, 0%)" y="-37.499999" height="449.999989" fill-opacity="0.1098"/></g></mask><clipPath id="clip-0"><path d="M 0 0.828125 L 375 0.828125 L 375 276.078125 L 0 276.078125 Z M 0 0.828125 " clip-rule="nonzero"/></clipPath><clipPath id="clip-1"><rect x="0" width="375" y="0" height="277"/></clipPath></defs><g mask="url(#mask-0)"><g transform="matrix(1, 0, 0, 1, 0, 49)"><g id="source-5" clip-path="url(#clip-1)"><path stroke-linecap="butt" transform="matrix(0.000000000000000766, -12.504257, 12.499999, 0.000000000000000765, -24.999993, 401.04251)" fill="none" stroke-linejoin="miter" d="M 20.999999 18.000001 L 20.999999 3 L 10.999967 3 L 10.999967 29.000002 L 19.000055 29.000002 " stroke="rgb(0%, 0%, 0%)" stroke-width="2" stroke-opacity="1" stroke-miterlimit="10"/><g clip-path="url(#clip-0)"><path stroke-linecap="butt" transform="matrix(0.000000000000000766, -12.504257, 12.499999, 0.000000000000000765, -24.999993, 401.04251)" fill="none" stroke-linejoin="miter" d="M 31.000031 24.000002 C 31.000031 24.114689 30.99722 24.229064 30.991596 24.343439 C 30.985973 24.457814 30.977539 24.572189 30.966293 24.686252 C 30.955046 24.800002 30.940989 24.913752 30.924119 25.027189 C 30.907563 25.140314 30.887882 25.253127 30.865389 25.365627 C 30.84321 25.478127 30.817906 25.589689 30.790103 25.700939 C 30.7623 25.811877 30.731685 25.922502 30.698571 26.031877 C 30.665458 26.141564 30.629532 26.250314 30.590795 26.358127 C 30.552059 26.465939 30.511135 26.572814 30.467088 26.678752 C 30.423353 26.784689 30.376806 26.889377 30.328072 26.992814 C 30.279027 27.096564 30.227482 27.198752 30.173438 27.299689 C 30.119394 27.400939 30.06285 27.500314 30.00412 27.598752 C 29.945078 27.696877 29.883849 27.793752 29.820433 27.889065 C 29.756705 27.984377 29.690789 28.077815 29.622375 28.170002 C 29.554273 28.261877 29.483673 28.35219 29.411197 28.440627 C 29.338409 28.529377 29.263747 28.61594 29.186586 28.70094 C 29.109737 28.78594 29.030702 28.868752 28.949792 28.94969 C 28.868882 29.030627 28.785785 29.10969 28.700814 29.186565 C 28.616155 29.26344 28.52931 29.33844 28.440903 29.41094 C 28.352183 29.483752 28.261901 29.554065 28.169745 29.622502 C 28.077901 29.690627 27.984183 29.756565 27.888903 29.820315 C 27.793623 29.884065 27.697093 29.945315 27.598689 30.004065 C 27.500598 30.063127 27.400944 30.119377 27.299729 30.17344 C 27.198826 30.227502 27.096361 30.279065 26.992958 30.327815 C 26.889244 30.376877 26.784592 30.42344 26.67869 30.46719 C 26.572789 30.51094 26.46595 30.55219 26.358174 30.59094 C 26.250399 30.629377 26.141686 30.665315 26.032035 30.69844 C 25.922385 30.731877 25.81211 30.762502 25.700898 30.790315 C 25.589686 30.818127 25.477849 30.843127 25.3657 30.865627 C 25.253238 30.887815 25.140464 30.907502 25.027065 30.924377 C 24.913666 30.94094 24.800267 30.955002 24.686244 30.966252 C 24.57222 30.977502 24.457884 30.98594 24.343548 30.991565 C 24.2289 30.99719 24.114563 31.000002 23.999915 31.000002 C 23.885579 31.000002 23.770931 30.99719 23.656594 30.991565 C 23.542258 30.98594 23.427922 30.977502 23.313899 30.966252 C 23.199875 30.955002 23.086164 30.94094 22.972765 30.924377 C 22.859678 30.907502 22.746592 30.887815 22.634443 30.865627 C 22.521981 30.843127 22.410144 30.818127 22.299244 30.790315 C 22.188032 30.762502 22.077757 30.731877 21.968107 30.69844 C 21.858457 30.665315 21.749744 30.629377 21.641656 30.59094 C 21.53388 30.55219 21.427041 30.51094 21.32114 30.46719 C 21.215238 30.42344 21.110587 30.376877 21.007184 30.327815 C 20.90347 30.279065 20.801317 30.227502 20.700101 30.17344 C 20.599198 30.119377 20.499545 30.063127 20.401141 30.004065 C 20.303049 29.945315 20.206207 29.884065 20.110927 29.820315 C 20.015647 29.756565 19.922241 29.690627 19.830085 29.622502 C 19.737929 29.554065 19.647647 29.483752 19.55924 29.41094 C 19.470832 29.33844 19.383987 29.26344 19.299016 29.186565 C 19.214045 29.10969 19.131261 29.030627 19.050351 28.94969 C 18.969128 28.868752 18.890405 28.78594 18.813244 28.70094 C 18.736395 28.61594 18.661733 28.529377 18.588945 28.440627 C 18.516158 28.35219 18.445869 28.261877 18.377455 28.170002 C 18.309353 28.077815 18.243438 27.984377 18.17971 27.889065 C 18.115981 27.793752 18.054752 27.696877 17.996022 27.598752 C 17.93698 27.500314 17.880437 27.400939 17.826392 27.299689 C 17.772661 27.198752 17.721116 27.096564 17.67207 26.992814 C 17.623024 26.889377 17.57679 26.784689 17.532742 26.678752 C 17.489007 26.572814 17.447771 26.465939 17.409035 26.358127 C 17.37061 26.250314 17.334685 26.141564 17.301571 26.031877 C 17.268145 25.922502 17.237531 25.811877 17.209727 25.700939 C 17.181924 25.589689 17.156933 25.478127 17.134441 25.365627 C 17.112261 25.253127 17.09258 25.140314 17.075711 25.027189 C 17.058841 24.913752 17.044784 24.800002 17.03385 24.686252 C 17.022604 24.572189 17.014169 24.457814 17.008546 24.343439 C 17.002923 24.229064 17.000111 24.114689 17.000111 24.000002 C 17.000111 23.885314 17.002923 23.770939 17.008546 23.656564 C 17.014169 23.542189 17.022604 23.427814 17.03385 23.313752 C 17.044784 23.200002 17.058841 23.086252 17.075711 22.972814 C 17.09258 22.859689 17.112261 22.746877 17.134441 22.634377 C 17.156933 22.521877 17.181924 22.410314 17.209727 22.299064 C 17.237531 22.188126 17.268145 22.077501 17.301259 21.968126 C 17.334685 21.858439 17.37061 21.749689 17.409035 21.641876 C 17.447771 21.533751 17.489007 21.427189 17.532742 21.321251 C 17.57679 21.215314 17.623024 21.110626 17.67207 21.007189 C 17.721116 20.903439 17.772661 20.801251 17.826705 20.700314 C 17.880437 20.599064 17.93698 20.499689 17.996022 20.401251 C 18.054752 20.303126 18.115981 20.206251 18.17971 20.110939 C 18.243438 20.015626 18.309353 19.922189 18.377455 19.830001 C 18.445869 19.738126 18.516158 19.647814 18.588945 19.559376 C 18.661733 19.470626 18.736395 19.384064 18.813244 19.299064 C 18.890405 19.214064 18.969128 19.131251 19.050351 19.050314 C 19.131261 18.969376 19.214045 18.890314 19.299016 18.813439 C 19.383987 18.736251 19.470832 18.661564 19.55924 18.589064 C 19.647647 18.516251 19.737929 18.445939 19.830085 18.377501 C 19.922241 18.309376 20.015647 18.243439 20.110927 18.179689 C 20.206207 18.115939 20.303049 18.054689 20.401141 17.995939 C 20.499545 17.936876 20.599198 17.880626 20.700101 17.826564 C 20.801317 17.772501 20.90347 17.720939 21.007184 17.672189 C 21.110587 17.623126 21.215238 17.576564 21.32114 17.532814 C 21.427041 17.489064 21.53388 17.447814 21.641656 17.409064 C 21.749744 17.370626 21.858457 17.334689 21.968107 17.301564 C 22.077757 17.268126 22.188032 17.237501 22.299244 17.209689 C 22.410144 17.181876 22.521981 17.156876 22.634443 17.134376 C 22.746592 17.112189 22.859678 17.092501 22.972765 17.075626 C 23.086164 17.059064 23.199875 17.045001 23.313899 17.033751 C 23.427922 17.022501 23.542258 17.014064 23.656594 17.008439 C 23.770931 17.002814 23.885579 17.000001 23.999915 17.000001 C 24.114563 17.000001 24.2289 17.002814 24.343548 17.008439 C 24.457884 17.014064 24.57222 17.022501 24.686244 17.033751 C 24.800267 17.045001 24.913666 17.059064 25.027065 17.075626 C 25.140464 17.092501 25.253238 17.112189 25.3657 17.134376 C 25.477849 17.156876 25.589686 17.181876 25.700898 17.209689 C 25.81211 17.237501 25.922385 17.268126 26.032035 17.301564 C 26.141686 17.334689 26.250399 17.370626 26.358174 17.409064 C 26.46595 17.447814 26.572789 17.489064 26.67869 17.532814 C 26.784592 17.576564 26.889244 17.623126 26.992958 17.672189 C 27.096361 17.720939 27.198826 17.772501 27.299729 17.826564 C 27.400944 17.880626 27.500598 17.936876 27.598689 17.995939 C 27.697093 18.054689 27.793623 18.115939 27.888903 18.179689 C 27.984183 18.243439 28.077901 18.309376 28.169745 18.377501 C 28.261901 18.445939 28.352183 18.516251 28.440903 18.589064 C 28.52931 18.661564 28.616155 18.736251 28.700814 18.813439 C 28.785785 18.890314 28.868882 18.969376 28.949792 19.050314 C 29.030702 19.131251 29.109737 19.214064 29.186586 19.299064 C 29.263747 19.384064 29.338409 19.470626 29.411197 19.559376 C 29.483673 19.647814 29.554273 19.738126 29.622375 19.830001 C 29.690789 19.922189 29.756705 20.015626 29.820433 20.110939 C 29.883849 20.206251 29.945078 20.303126 30.00412 20.401251 C 30.06285 20.499689 30.119394 20.599064 30.173438 20.700314 C 30.227482 20.801251 30.279027 20.903439 30.328072 21.007189 C 30.376806 21.110626 30.423353 21.215314 30.467088 21.321251 C 30.511135 21.427189 30.552059 21.533751 30.590795 21.641876 C 30.629532 21.749689 30.665458 21.858439 30.698571 21.968126 C 30.731685 22.077501 30.7623 22.188126 30.790103 22.299064 C 30.817906 22.410314 30.84321 22.521877 30.865389 22.634377 C 30.887882 22.746877 30.907563 22.859689 30.924119 22.972814 C 30.940989 23.086252 30.955046 23.200002 30.966293 23.313752 C 30.977539 23.427814 30.985973 23.542189 30.991596 23.656564 C 30.99722 23.770939 31.000031 23.885314 31.000031 24.000002 Z M 31.000031 24.000002 " stroke="rgb(0%, 0%, 0%)" stroke-width="2" stroke-opacity="1" stroke-miterlimit="10"/></g><path stroke-linecap="butt" transform="matrix(0.000000000000000766, -12.504257, 12.499999, 0.000000000000000765, -24.999993, 401.04251)" fill="none" stroke-linejoin="miter" d="M 23.999915 28.000002 L 23.999915 20.000001 " stroke="rgb(0%, 0%, 0%)" stroke-width="2" stroke-opacity="1" stroke-miterlimit="10"/><path stroke-linecap="butt" transform="matrix(0.000000000000000766, -12.504257, 12.499999, 0.000000000000000765, -24.999993, 401.04251)" fill="none" stroke-linejoin="miter" d="M 20.000027 24.000002 L 28.000115 24.000002 " stroke="rgb(0%, 0%, 0%)" stroke-width="2" stroke-opacity="1" stroke-miterlimit="10"/></g></g></g></svg>