<?xml version="1.0" encoding="UTF-8"?><svg xmlns="http://www.w3.org/2000/svg" xmlns:xlink="http://www.w3.org/1999/xlink" contentScriptType="text/ecmascript" width="375" zoomAndPan="magnify" contentStyleType="text/css" viewBox="0 0 375 374.999991" height="374.999991" preserveAspectRatio="xMidYMid meet" version="1.0"><defs><clipPath id="clip-0"><path d="M 31.457031 176.261719 L 212.207031 176.261719 L 212.207031 357.011719 L 31.457031 357.011719 Z M 31.457031 176.261719 " clip-rule="nonzero"/></clipPath><clipPath id="clip-1"><path d="M 160 77 L 306 77 L 306 169 L 160 169 Z M 160 77 " clip-rule="nonzero"/></clipPath><clipPath id="clip-2"><path d="M 158.605469 155.066406 L 267.621094 41.394531 L 316.339844 88.113281 L 207.324219 201.789062 Z M 158.605469 155.066406 " clip-rule="nonzero"/></clipPath><clipPath id="clip-3"><path d="M 158.605469 155.066406 L 267.621094 41.394531 L 316.339844 88.113281 L 207.324219 201.789062 Z M 158.605469 155.066406 " clip-rule="nonzero"/></clipPath><clipPath id="clip-4"><path d="M 187 144 L 344 144 L 344 197 L 187 197 Z M 187 144 " clip-rule="nonzero"/></clipPath><clipPath id="clip-5"><path d="M 184.644531 178.683594 L 322.03125 101.667969 L 355.035156 160.546875 L 217.652344 237.5625 Z M 184.644531 178.683594 " clip-rule="nonzero"/></clipPath><clipPath id="clip-6"><path d="M 184.644531 178.683594 L 322.03125 101.667969 L 355.035156 160.546875 L 217.652344 237.5625 Z M 184.644531 178.683594 " clip-rule="nonzero"/></clipPath><clipPath id="clip-7"><path d="M 123 17 L 242 17 L 242 145 L 123 145 Z M 123 17 " clip-rule="nonzero"/></clipPath><clipPath id="clip-8"><path d="M 122 138.585938 L 185.828125 -5.398438 L 247.539062 21.957031 L 183.707031 165.941406 Z M 122 138.585938 " clip-rule="nonzero"/></clipPath><clipPath id="clip-9"><path d="M 122 138.585938 L 185.828125 -5.398438 L 247.539062 21.957031 L 183.707031 165.941406 Z M 122 138.585938 " clip-rule="nonzero"/></clipPath></defs><g clip-path="url(#clip-0)"><path fill="rgb(0%, 0%, 0%)" d="M 195.261719 249.691406 L 138.777344 249.691406 L 138.777344 193.207031 C 138.777344 183.847656 131.191406 176.261719 121.832031 176.261719 C 112.472656 176.261719 104.886719 183.847656 104.886719 193.207031 L 104.886719 249.691406 L 48.402344 249.691406 C 39.042969 249.691406 31.457031 257.277344 31.457031 266.636719 C 31.457031 275.996094 39.042969 283.582031 48.402344 283.582031 L 104.886719 283.582031 L 104.886719 340.066406 C 104.886719 349.425781 112.472656 357.011719 121.832031 357.011719 C 131.191406 357.011719 138.777344 349.425781 138.777344 340.066406 L 138.777344 283.582031 L 195.261719 283.582031 C 204.621094 283.582031 212.207031 275.996094 212.207031 266.636719 C 212.207031 257.277344 204.621094 249.691406 195.261719 249.691406 Z M 195.261719 249.691406 " fill-opacity="1" fill-rule="nonzero"/></g><g clip-path="url(#clip-1)"><g clip-path="url(#clip-2)"><g clip-path="url(#clip-3)"><path fill="rgb(97.24884%, 35.289001%, 25.099182%)" d="M 160.6875 152.894531 L 176.925781 168.46875 C 212.480469 131.394531 258.277344 108.46875 305.128906 99.964844 L 301.070312 77.847656 C 249.777344 87.160156 199.695312 112.222656 160.6875 152.894531 Z M 160.6875 152.894531 " fill-opacity="1" fill-rule="nonzero"/></g></g></g><g clip-path="url(#clip-4)"><g clip-path="url(#clip-5)"><g clip-path="url(#clip-6)"><path fill="rgb(97.24884%, 35.289001%, 25.099182%)" d="M 187.269531 177.210938 L 198.269531 196.839844 C 243.078125 171.71875 293.5625 163.117188 340.863281 168.617188 L 343.414062 146.28125 C 291.636719 140.257812 236.425781 149.65625 187.269531 177.210938 Z M 187.269531 177.210938 " fill-opacity="1" fill-rule="nonzero"/></g></g></g><g clip-path="url(#clip-7)"><g clip-path="url(#clip-8)"><g clip-path="url(#clip-9)"><path fill="rgb(97.24884%, 35.289001%, 25.099182%)" d="M 123.21875 135.835938 L 143.789062 144.953125 C 164.605469 97.996094 199.867188 60.855469 241.027344 36.914062 L 229.683594 17.5 C 184.625 43.707031 146.058594 84.316406 123.21875 135.835938 Z M 123.21875 135.835938 " fill-opacity="1" fill-rule="nonzero"/></g></g></g></svg>