<?xml version="1.0" encoding="UTF-8"?><svg xmlns="http://www.w3.org/2000/svg" xmlns:xlink="http://www.w3.org/1999/xlink" contentScriptType="text/ecmascript" width="375" zoomAndPan="magnify" contentStyleType="text/css" viewBox="0 0 375 374.999991" height="374.999991" preserveAspectRatio="xMidYMid meet" version="1.0"><defs><filter x="0%" y="0%" width="100%" xmlns:xlink="http://www.w3.org/1999/xlink" xlink:type="simple" xlink:actuate="onLoad" height="100%" id="filter-remove-color" xlink:show="other"><feColorMatrix values="0 0 0 0 1 0 0 0 0 1 0 0 0 0 1 0 0 0 1 0" color-interpolation-filters="sRGB"/></filter><mask id="mask-0"><g filter="url(#filter-remove-color)"><rect x="-37.5" width="450" fill="rgb(0%, 0%, 0%)" y="-37.499999" height="449.999989" fill-opacity="0.698"/></g></mask><clipPath id="clip-0"><rect x="0" width="375" y="0" height="375"/></clipPath></defs><g mask="url(#mask-0)"><g transform="matrix(1, 0, 0, 1, 0, 0)"><g id="source-5" clip-path="url(#clip-0)"><path fill="rgb(0%, 0%, 0%)" d="M 375 187.5 C 375 83.910156 291.089844 0 187.5 0 C 83.910156 0 0 83.910156 0 187.5 C 0 291.089844 83.910156 375 187.5 375 C 291.089844 375 375 291.089844 375 187.5 Z M 295.671875 158.730469 L 172.25 158.730469 L 199.59375 131.460938 C 202.375 128.605469 202.375 124.023438 199.59375 121.246094 L 169.019531 90.671875 C 166.164062 87.890625 161.582031 87.890625 158.804688 90.671875 L 67.007812 182.46875 C 64.226562 185.246094 64.226562 189.828125 67.007812 192.683594 L 158.804688 284.480469 C 161.582031 287.261719 166.164062 287.261719 169.019531 284.480469 L 199.59375 253.90625 C 202.375 251.050781 202.375 246.542969 199.59375 243.691406 L 172.25 216.421875 L 295.671875 216.421875 C 299.65625 216.421875 302.882812 213.191406 302.882812 209.210938 L 302.882812 165.941406 C 302.882812 161.882812 299.65625 158.730469 295.671875 158.730469 Z M 295.671875 158.730469 " fill-opacity="1" fill-rule="evenodd"/></g></g></g></svg>