<?xml version="1.0" encoding="UTF-8"?><svg xmlns="http://www.w3.org/2000/svg" xmlns:xlink="http://www.w3.org/1999/xlink" contentScriptType="text/ecmascript" width="375" zoomAndPan="magnify" contentStyleType="text/css" viewBox="0 0 375 374.999991" height="374.999991" preserveAspectRatio="xMidYMid meet" version="1.0"><path fill="rgb(100%, 100%, 100%)" d="M 265.527344 71.234375 C 230.34375 75.28125 225.449219 88.523438 191.492188 84.527344 C 168.882812 81.875 172.433594 18.929688 122.429688 23.898438 C 44.699219 31.617188 -0.0078125 82.953125 -0.0078125 170.027344 C -0.0078125 272.492188 83.941406 355.539062 187.496094 355.539062 C 291.054688 355.539062 375.003906 272.492188 375.003906 170.027344 C 375.007812 98.976562 332.179688 63.570312 265.527344 71.234375 Z M 117.863281 124.894531 C 115.039062 141.542969 97.488281 152.460938 78.660156 149.265625 C 59.828125 146.074219 46.863281 129.980469 49.683594 113.324219 C 52.507812 96.671875 70.058594 85.753906 88.886719 88.953125 C 107.714844 92.144531 120.6875 108.238281 117.863281 124.894531 Z M 196.339844 318.234375 C 191.820312 324.996094 183.5625 329.027344 174.253906 329.027344 C 162.839844 329.027344 152.976562 322.882812 148.511719 312.988281 C 141.917969 298.363281 134.984375 277.675781 150.832031 266.933594 C 160.253906 260.546875 167.636719 257.570312 174.054688 257.570312 C 184.085938 257.570312 190.324219 264.714844 196.925781 272.28125 C 207.941406 284.898438 207.730469 301.222656 196.339844 318.234375 Z M 280.027344 297.507812 C 276.320312 306.867188 265.730469 313.40625 254.273438 313.40625 C 245.367188 313.40625 237.308594 309.421875 232.171875 302.460938 C 222.644531 289.554688 211.5 270.796875 224.722656 256.957031 C 234.300781 246.925781 241.976562 242.453125 249.613281 242.453125 C 257.496094 242.453125 264.007812 247.3125 270.910156 252.464844 C 284.335938 262.476562 287.570312 278.472656 280.027344 297.507812 Z M 337.574219 242.960938 C 332.042969 250.1875 323.648438 254.496094 315.128906 254.496094 C 312.515625 254.496094 309.882812 254.101562 307.316406 253.324219 C 291.964844 248.679688 271.816406 240.308594 274.144531 221.300781 C 277.703125 192.183594 289.492188 190.085938 308.484375 190.085938 C 325.226562 190.085938 337.382812 200.96875 342.71875 220.738281 C 344.652344 227.921875 342.730469 236.230469 337.574219 242.960938 Z M 328.664062 177.394531 C 328.246094 177.394531 327.824219 177.386719 327.402344 177.363281 C 311.375 176.632812 289.792969 173.464844 287.375 154.476562 C 283.667969 125.375 294.582031 120.441406 312.992188 115.773438 C 328.988281 111.703125 343.847656 119.527344 353.710938 137.074219 C 357.96875 144.652344 357.488281 154.699219 352.457031 163.285156 C 347.289062 172.121094 338.394531 177.394531 328.664062 177.394531 Z M 328.664062 177.394531 " fill-opacity="1" fill-rule="nonzero"/><path fill="rgb(100%, 100%, 100%)" d="M 311.378906 125.109375 C 298.34375 130.804688 290.503906 134.550781 297.191406 156.929688 C 300.902344 169.359375 316.054688 169.828125 330.179688 168.140625 C 346.214844 166.238281 352.476562 146.4375 344.367188 136.316406 C 335.929688 125.789062 324.402344 119.421875 311.378906 125.109375 Z M 311.378906 125.109375 " fill-opacity="1" fill-rule="nonzero"/><path fill="rgb(100%, 100%, 100%)" d="M 304.621094 198.746094 C 290.589844 201.0625 282.070312 202.769531 283.054688 226.101562 C 283.597656 239.054688 298.179688 243.234375 312.277344 245.070312 C 328.285156 247.167969 339.222656 229.519531 333.851562 217.707031 C 328.257812 205.429688 318.648438 196.429688 304.621094 198.746094 Z M 304.621094 198.746094 " fill-opacity="1" fill-rule="nonzero"/><path fill="rgb(100%, 100%, 100%)" d="M 262.644531 257.097656 C 250.015625 250.574219 242.160156 246.847656 229 266.125 C 221.6875 276.84375 230.882812 288.902344 241.085938 298.8125 C 252.667969 310.066406 271.988281 302.449219 274.734375 289.777344 C 277.59375 276.585938 275.277344 263.628906 262.644531 257.097656 Z M 262.644531 257.097656 " fill-opacity="1" fill-rule="nonzero"/><path fill="rgb(100%, 100%, 100%)" d="M 187.871094 275.070312 C 176.902344 266.019531 170.015625 260.71875 153.078125 276.796875 C 143.667969 285.726562 150.117188 299.460938 157.996094 311.296875 C 166.941406 324.742188 187.433594 321.371094 192.796875 309.5625 C 198.375 297.277344 198.839844 284.117188 187.871094 275.070312 Z M 187.871094 275.070312 " fill-opacity="1" fill-rule="nonzero"/></svg>