<?xml version="1.0" encoding="UTF-8"?><svg xmlns="http://www.w3.org/2000/svg" xmlns:xlink="http://www.w3.org/1999/xlink" contentScriptType="text/ecmascript" width="375" zoomAndPan="magnify" contentStyleType="text/css" viewBox="0 0 375 374.999991" height="374.999991" preserveAspectRatio="xMidYMid meet" version="1.0"><defs><filter x="0%" y="0%" width="100%" xmlns:xlink="http://www.w3.org/1999/xlink" xlink:type="simple" xlink:actuate="onLoad" height="100%" id="filter-remove-color" xlink:show="other"><feColorMatrix values="0 0 0 0 1 0 0 0 0 1 0 0 0 0 1 0 0 0 1 0" color-interpolation-filters="sRGB"/></filter><mask id="mask-0"><g filter="url(#filter-remove-color)"><rect x="-37.5" width="450" fill="rgb(0%, 0%, 0%)" y="-37.499999" height="449.999989" fill-opacity="0.7294"/></g></mask><clipPath id="clip-0"><path d="M 113.144531 115 L 372.21875 115 L 372.21875 373.582031 L 113.144531 373.582031 Z M 113.144531 115 " clip-rule="nonzero"/></clipPath><clipPath id="clip-1"><path d="M 0.398438 1 L 364 1 L 364 365 L 0.398438 365 Z M 0.398438 1 " clip-rule="nonzero"/></clipPath><clipPath id="clip-2"><rect x="0" width="373" y="0" height="374"/></clipPath></defs><g mask="url(#mask-0)"><g transform="matrix(1, 0, 0, 1, 2, 1)"><g id="source-5" clip-path="url(#clip-2)"><g clip-path="url(#clip-0)"><path fill="rgb(0%, 0%, 0%)" d="M 335.9375 337.324219 C 332.3125 340.945312 325.996094 340.945312 322.367188 337.324219 C 318.628906 333.585938 318.628906 327.5 322.367188 323.765625 C 324.183594 321.953125 326.59375 320.953125 329.152344 320.953125 C 331.71875 320.953125 334.125 321.953125 335.9375 323.765625 C 339.679688 327.5 339.679688 333.585938 335.9375 337.324219 Z M 361.074219 308.617188 L 255.460938 203.050781 C 260.929688 179.082031 253.71875 153.726562 236.3125 136.335938 C 215.769531 115.800781 185.128906 109.679688 158.261719 120.730469 C 156.890625 121.292969 155.894531 122.5 155.605469 123.953125 C 155.3125 125.402344 155.769531 126.902344 156.8125 127.949219 L 192.199219 163.308594 L 190.265625 191.722656 L 161.835938 193.652344 L 126.453125 158.289062 C 125.40625 157.242188 123.914062 156.804688 122.457031 157.078125 C 121.003906 157.367188 119.792969 158.363281 119.234375 159.734375 C 108.179688 186.601562 114.308594 217.222656 134.847656 237.75 C 152.25 255.148438 177.613281 262.355469 201.59375 256.886719 L 307.210938 362.449219 C 314.640625 369.871094 324.394531 373.582031 334.148438 373.582031 C 343.898438 373.582031 353.652344 369.871094 361.074219 362.449219 C 375.925781 347.609375 375.925781 323.457031 361.074219 308.617188 " fill-opacity="1" fill-rule="nonzero"/></g><g clip-path="url(#clip-1)"><path fill="rgb(0%, 0%, 0%)" d="M 258.335938 326.109375 C 257.375 325.152344 255.941406 324.855469 254.683594 325.359375 L 226.46875 336.632812 L 210.125 304.4375 C 206.738281 297.757812 200.050781 293.347656 192.5625 292.980469 C 191.636719 292.929688 190.6875 292.929688 189.726562 293.003906 C 184.511719 293.382812 179.277344 293.398438 174.183594 293.039062 C 165.6875 292.480469 157.664062 296.925781 153.839844 304.453125 L 137.539062 336.578125 L 105.007812 323.105469 L 116.203125 288.875 C 118.828125 280.84375 116.347656 272.03125 109.898438 266.425781 C 106.039062 263.070312 102.347656 259.371094 98.933594 255.417969 C 93.328125 248.933594 84.503906 246.4375 76.4375 249.070312 L 42.148438 260.28125 L 28.671875 227.757812 L 60.847656 211.441406 C 68.402344 207.609375 72.886719 199.613281 72.265625 191.066406 C 71.886719 185.847656 71.871094 180.621094 72.230469 175.527344 C 72.828125 167 68.339844 159.023438 60.804688 155.195312 L 28.675781 138.90625 L 42.148438 106.390625 L 76.394531 117.582031 C 84.433594 120.210938 93.242188 117.726562 98.859375 111.273438 C 102.210938 107.421875 105.917969 103.730469 109.867188 100.316406 C 116.359375 94.710938 118.855469 85.882812 116.214844 77.835938 L 105.007812 43.558594 L 137.539062 30.089844 L 153.863281 62.253906 C 157.695312 69.804688 165.707031 74.289062 174.25 73.660156 C 179.472656 73.285156 184.707031 73.273438 189.796875 73.628906 C 198.308594 74.226562 206.304688 69.742188 210.140625 62.210938 L 226.441406 30.089844 L 258.972656 43.558594 L 247.777344 77.785156 C 245.148438 85.816406 247.625 94.636719 254.082031 100.242188 C 257.941406 103.59375 261.632812 107.300781 265.046875 111.246094 C 270.652344 117.730469 279.480469 120.21875 287.542969 117.59375 L 321.832031 106.390625 L 335.308594 138.910156 L 303.132812 155.214844 C 295.578125 159.050781 291.097656 167.050781 291.714844 175.597656 C 292.09375 180.820312 292.109375 186.046875 291.75 191.132812 C 291.15625 199.664062 295.640625 207.644531 303.179688 211.46875 L 335.308594 227.761719 L 323.714844 255.808594 C 323.195312 257.074219 323.484375 258.53125 324.453125 259.503906 L 341.207031 276.242188 C 342.148438 277.1875 343.746094 276.867188 344.253906 275.636719 L 361.808594 233.164062 C 365.992188 223.09375 361.644531 211.347656 351.917969 206.417969 L 318.441406 189.449219 C 318.617188 185.40625 318.609375 181.324219 318.414062 177.238281 L 351.917969 160.25 C 361.644531 155.316406 365.992188 143.570312 361.8125 133.507812 L 344.394531 91.472656 C 340.199219 81.34375 328.902344 76.152344 318.476562 79.558594 L 282.773438 91.230469 C 280.019531 88.203125 277.136719 85.308594 274.148438 82.570312 L 285.816406 46.910156 C 289.195312 36.550781 283.960938 25.175781 273.890625 21.007812 L 231.847656 3.597656 C 221.710938 -0.597656 210.054688 3.710938 205.089844 13.492188 L 188.105469 46.949219 C 184.070312 46.773438 179.976562 46.789062 175.886719 46.976562 L 158.890625 13.492188 C 153.929688 3.710938 142.269531 -0.597656 132.132812 3.597656 L 90.085938 21.007812 C 79.953125 25.207031 74.757812 36.492188 78.167969 46.914062 L 89.835938 82.601562 C 86.808594 85.359375 83.914062 88.238281 81.175781 91.222656 L 45.492188 79.554688 C 35.140625 76.1875 23.753906 81.414062 19.585938 91.476562 L 2.167969 133.5 C -2.011719 143.574219 2.339844 155.324219 12.0625 160.246094 L 45.535156 177.21875 C 45.363281 181.257812 45.375 185.34375 45.566406 189.433594 L 12.058594 206.421875 C 2.335938 211.347656 -2.007812 223.101562 2.167969 233.160156 L 19.585938 275.1875 C 23.785156 285.320312 35.082031 290.511719 45.511719 287.105469 L 81.203125 275.4375 C 83.960938 278.460938 86.84375 281.355469 89.828125 284.097656 L 78.167969 319.753906 C 74.757812 330.171875 79.949219 341.460938 90.085938 345.65625 L 132.132812 363.066406 C 142.265625 367.265625 153.929688 362.953125 158.890625 353.171875 L 175.875 319.71875 C 179.914062 319.886719 184.007812 319.882812 188.09375 319.6875 L 205.089844 353.171875 C 208.761719 360.414062 216.226562 364.671875 223.894531 364.671875 C 226.515625 364.671875 229.164062 364.179688 231.6875 363.128906 L 274.558594 346 C 275.800781 345.5 276.128906 343.894531 275.183594 342.949219 L 258.335938 326.109375 " fill-opacity="1" fill-rule="nonzero"/></g></g></g></g></svg>