<?xml version="1.0" encoding="UTF-8"?><svg xmlns="http://www.w3.org/2000/svg" xmlns:xlink="http://www.w3.org/1999/xlink" contentScriptType="text/ecmascript" width="375" zoomAndPan="magnify" contentStyleType="text/css" viewBox="0 0 375 374.999991" height="374.999991" preserveAspectRatio="xMidYMid meet" version="1.0"><path fill="rgb(0%, 29.019165%, 67.83905%)" d="M 323.828125 58.828125 L 271.25 108.515625 C 273.738281 111.15625 276.097656 113.90625 278.324219 116.773438 C 280.550781 119.636719 282.636719 122.597656 284.585938 125.660156 C 286.53125 128.722656 288.328125 131.867188 289.976562 135.101562 C 291.625 138.332031 293.117188 141.636719 294.453125 145.011719 C 295.785156 148.382812 296.957031 151.8125 297.96875 155.296875 C 298.976562 158.78125 299.820312 162.308594 300.496094 165.871094 C 301.171875 169.4375 301.675781 173.027344 302.011719 176.640625 C 302.34375 180.25 302.507812 183.871094 302.5 187.5 L 375 187.5 C 375.007812 181.585938 374.734375 175.683594 374.183594 169.792969 C 373.628906 163.902344 372.800781 158.054688 371.691406 152.242188 C 370.582031 146.433594 369.199219 140.6875 367.542969 135.007812 C 365.890625 129.328125 363.96875 123.742188 361.78125 118.246094 C 359.597656 112.75 357.15625 107.367188 354.457031 102.101562 C 351.761719 96.839844 348.820312 91.714844 345.636719 86.730469 C 342.449219 81.742188 339.039062 76.921875 335.394531 72.261719 C 331.75 67.601562 327.894531 63.121094 323.828125 58.828125 Z M 323.828125 58.828125 " fill-opacity="1" fill-rule="nonzero"/><path fill="rgb(0%, 29.019165%, 67.83905%)" d="M 187.5 54.6875 C 189.671875 54.6875 191.847656 54.742188 194.015625 54.847656 C 196.1875 54.953125 198.355469 55.113281 200.519531 55.328125 C 202.679688 55.539062 204.835938 55.804688 206.988281 56.125 C 209.136719 56.445312 211.277344 56.816406 213.410156 57.238281 C 215.542969 57.664062 217.664062 58.140625 219.769531 58.667969 C 221.878906 59.195312 223.972656 59.777344 226.054688 60.40625 C 228.132812 61.039062 230.195312 61.71875 232.242188 62.449219 C 234.289062 63.183594 236.316406 63.964844 238.324219 64.796875 C 240.332031 65.628906 242.320312 66.507812 244.285156 67.4375 C 246.25 68.367188 248.191406 69.34375 250.105469 70.371094 C 252.023438 71.394531 253.914062 72.464844 255.777344 73.582031 C 257.644531 74.699219 259.480469 75.863281 261.285156 77.070312 C 263.09375 78.277344 264.871094 79.527344 266.617188 80.824219 C 268.363281 82.117188 270.074219 83.457031 271.753906 84.835938 C 273.4375 86.214844 275.082031 87.632812 276.691406 89.09375 C 278.300781 90.550781 279.875 92.050781 281.414062 93.585938 C 282.949219 95.125 284.449219 96.699219 285.90625 98.308594 C 287.367188 99.917969 288.785156 101.566406 290.164062 103.246094 C 291.542969 104.925781 292.882812 106.636719 294.175781 108.382812 C 295.472656 110.128906 296.722656 111.90625 297.929688 113.714844 C 299.136719 115.519531 300.300781 117.355469 301.417969 119.222656 C 302.535156 121.085938 303.605469 122.976562 304.628906 124.894531 C 305.65625 126.808594 306.632812 128.75 307.5625 130.714844 C 308.492188 132.679688 309.371094 134.667969 310.203125 136.675781 C 311.035156 138.683594 311.816406 140.710938 312.546875 142.757812 C 313.28125 144.804688 313.960938 146.867188 314.59375 148.945312 C 315.222656 151.027344 315.804688 153.121094 316.332031 155.230469 C 316.859375 157.335938 317.335938 159.457031 317.761719 161.589844 C 318.183594 163.722656 318.554688 165.863281 318.875 168.011719 C 319.195312 170.164062 319.460938 172.320312 319.671875 174.480469 C 319.886719 176.644531 320.046875 178.8125 320.152344 180.984375 C 320.257812 183.152344 320.3125 185.328125 320.3125 187.5 C 320.3125 189.671875 320.257812 191.847656 320.152344 194.015625 C 320.046875 196.1875 319.886719 198.355469 319.671875 200.519531 C 319.460938 202.679688 319.195312 204.835938 318.875 206.988281 C 318.554688 209.136719 318.183594 211.277344 317.761719 213.410156 C 317.335938 215.542969 316.859375 217.664062 316.332031 219.769531 C 315.804688 221.878906 315.222656 223.972656 314.59375 226.054688 C 313.960938 228.132812 313.28125 230.195312 312.546875 232.242188 C 311.816406 234.289062 311.035156 236.316406 310.203125 238.324219 C 309.371094 240.332031 308.492188 242.320312 307.5625 244.285156 C 306.632812 246.25 305.65625 248.191406 304.628906 250.105469 C 303.605469 252.023438 302.535156 253.914062 301.417969 255.777344 C 300.300781 257.644531 299.136719 259.480469 297.929688 261.285156 C 296.722656 263.09375 295.472656 264.871094 294.175781 266.617188 C 292.882812 268.363281 291.542969 270.074219 290.164062 271.753906 C 288.785156 273.4375 287.367188 275.082031 285.90625 276.691406 C 284.449219 278.300781 282.949219 279.875 281.414062 281.414062 C 279.875 282.949219 278.300781 284.449219 276.691406 285.90625 C 275.082031 287.367188 273.4375 288.785156 271.753906 290.164062 C 270.074219 291.542969 268.363281 292.882812 266.617188 294.175781 C 264.871094 295.472656 263.09375 296.722656 261.285156 297.929688 C 259.480469 299.136719 257.644531 300.300781 255.777344 301.417969 C 253.914062 302.535156 252.023438 303.605469 250.105469 304.628906 C 248.191406 305.65625 246.25 306.632812 244.285156 307.5625 C 242.320312 308.492188 240.332031 309.371094 238.324219 310.203125 C 236.316406 311.035156 234.289062 311.816406 232.242188 312.546875 C 230.195312 313.28125 228.132812 313.960938 226.054688 314.59375 C 223.972656 315.222656 221.878906 315.804688 219.769531 316.332031 C 217.664062 316.859375 215.542969 317.335938 213.410156 317.761719 C 211.277344 318.183594 209.136719 318.554688 206.988281 318.875 C 204.835938 319.195312 202.679688 319.460938 200.519531 319.671875 C 198.355469 319.886719 196.1875 320.046875 194.015625 320.152344 C 191.847656 320.257812 189.671875 320.3125 187.5 320.3125 C 185.328125 320.3125 183.152344 320.257812 180.984375 320.152344 C 178.8125 320.046875 176.644531 319.886719 174.480469 319.671875 C 172.320312 319.460938 170.164062 319.195312 168.011719 318.875 C 165.863281 318.554688 163.722656 318.183594 161.589844 317.761719 C 159.457031 317.335938 157.335938 316.859375 155.230469 316.332031 C 153.121094 315.804688 151.027344 315.222656 148.945312 314.59375 C 146.867188 313.960938 144.804688 313.28125 142.757812 312.546875 C 140.710938 311.816406 138.683594 311.035156 136.675781 310.203125 C 134.667969 309.371094 132.679688 308.492188 130.714844 307.5625 C 128.75 306.632812 126.808594 305.65625 124.894531 304.628906 C 122.976562 303.605469 121.085938 302.535156 119.222656 301.417969 C 117.355469 300.300781 115.519531 299.136719 113.714844 297.929688 C 111.90625 296.722656 110.128906 295.472656 108.382812 294.175781 C 106.636719 292.882812 104.925781 291.542969 103.246094 290.164062 C 101.566406 288.785156 99.917969 287.367188 98.308594 285.90625 C 96.699219 284.449219 95.125 282.949219 93.585938 281.414062 C 92.050781 279.875 90.550781 278.300781 89.09375 276.691406 C 87.632812 275.082031 86.214844 273.4375 84.835938 271.753906 C 83.457031 270.074219 82.117188 268.363281 80.824219 266.617188 C 79.527344 264.871094 78.277344 263.09375 77.070312 261.285156 C 75.863281 259.480469 74.699219 257.644531 73.582031 255.777344 C 72.464844 253.914062 71.394531 252.023438 70.371094 250.105469 C 69.34375 248.191406 68.367188 246.25 67.4375 244.285156 C 66.507812 242.320312 65.628906 240.332031 64.796875 238.324219 C 63.964844 236.316406 63.183594 234.289062 62.453125 232.242188 C 61.71875 230.195312 61.039062 228.132812 60.40625 226.054688 C 59.777344 223.972656 59.195312 221.878906 58.667969 219.769531 C 58.140625 217.664062 57.664062 215.542969 57.238281 213.410156 C 56.816406 211.277344 56.445312 209.136719 56.125 206.988281 C 55.804688 204.835938 55.539062 202.679688 55.328125 200.519531 C 55.113281 198.355469 54.953125 196.1875 54.847656 194.015625 C 54.742188 191.847656 54.6875 189.671875 54.6875 187.5 C 54.6875 185.328125 54.742188 183.152344 54.847656 180.984375 C 54.953125 178.8125 55.113281 176.644531 55.328125 174.480469 C 55.539062 172.320312 55.804688 170.164062 56.125 168.011719 C 56.445312 165.863281 56.816406 163.722656 57.238281 161.589844 C 57.664062 159.457031 58.140625 157.335938 58.667969 155.230469 C 59.195312 153.121094 59.777344 151.027344 60.40625 148.945312 C 61.039062 146.867188 61.71875 144.804688 62.453125 142.757812 C 63.183594 140.710938 63.964844 138.683594 64.796875 136.675781 C 65.628906 134.667969 66.507812 132.679688 67.4375 130.714844 C 68.367188 128.75 69.34375 126.808594 70.371094 124.894531 C 71.394531 122.976562 72.464844 121.085938 73.582031 119.222656 C 74.699219 117.355469 75.863281 115.519531 77.070312 113.714844 C 78.277344 111.90625 79.527344 110.128906 80.824219 108.382812 C 82.117188 106.636719 83.457031 104.925781 84.835938 103.246094 C 86.214844 101.566406 87.632812 99.917969 89.09375 98.308594 C 90.550781 96.699219 92.050781 95.125 93.585938 93.585938 C 95.125 92.050781 96.699219 90.550781 98.308594 89.09375 C 99.917969 87.632812 101.566406 86.214844 103.246094 84.835938 C 104.925781 83.457031 106.636719 82.117188 108.382812 80.824219 C 110.128906 79.527344 111.90625 78.277344 113.714844 77.070312 C 115.519531 75.863281 117.355469 74.699219 119.222656 73.582031 C 121.085938 72.464844 122.976562 71.394531 124.894531 70.371094 C 126.808594 69.34375 128.75 68.367188 130.714844 67.4375 C 132.679688 66.507812 134.667969 65.628906 136.675781 64.796875 C 138.683594 63.964844 140.710938 63.183594 142.757812 62.453125 C 144.804688 61.71875 146.867188 61.039062 148.945312 60.40625 C 151.027344 59.777344 153.121094 59.195312 155.230469 58.667969 C 157.335938 58.140625 159.457031 57.664062 161.589844 57.238281 C 163.722656 56.816406 165.863281 56.445312 168.011719 56.125 C 170.164062 55.804688 172.320312 55.539062 174.480469 55.328125 C 176.644531 55.113281 178.8125 54.953125 180.984375 54.847656 C 183.152344 54.742188 185.328125 54.6875 187.5 54.6875 M 187.5 0 C 184.429688 0 181.363281 0.0742188 178.300781 0.226562 C 175.234375 0.375 172.175781 0.601562 169.121094 0.902344 C 166.066406 1.203125 163.023438 1.578125 159.988281 2.03125 C 156.953125 2.480469 153.929688 3.003906 150.921875 3.601562 C 147.910156 4.203125 144.917969 4.875 141.941406 5.617188 C 138.964844 6.363281 136.007812 7.183594 133.070312 8.074219 C 130.136719 8.964844 127.222656 9.925781 124.332031 10.960938 C 121.445312 11.996094 118.582031 13.097656 115.746094 14.273438 C 112.910156 15.445312 110.105469 16.691406 107.332031 18.003906 C 104.558594 19.3125 101.820312 20.691406 99.113281 22.140625 C 96.40625 23.585938 93.738281 25.097656 91.105469 26.675781 C 88.472656 28.253906 85.882812 29.894531 83.332031 31.597656 C 80.777344 33.304688 78.269531 35.070312 75.804688 36.898438 C 73.339844 38.726562 70.921875 40.613281 68.550781 42.558594 C 66.179688 44.507812 63.855469 46.511719 61.582031 48.570312 C 59.308594 50.632812 57.085938 52.746094 54.917969 54.917969 C 52.746094 57.085938 50.632812 59.308594 48.570312 61.582031 C 46.511719 63.855469 44.507812 66.179688 42.558594 68.550781 C 40.613281 70.921875 38.726562 73.339844 36.898438 75.804688 C 35.070312 78.269531 33.304688 80.777344 31.597656 83.332031 C 29.894531 85.882812 28.253906 88.472656 26.675781 91.105469 C 25.097656 93.738281 23.585938 96.40625 22.140625 99.113281 C 20.691406 101.820312 19.3125 104.558594 18.003906 107.332031 C 16.691406 110.105469 15.445312 112.910156 14.273438 115.746094 C 13.097656 118.582031 11.996094 121.445312 10.960938 124.332031 C 9.925781 127.222656 8.964844 130.136719 8.074219 133.070312 C 7.183594 136.007812 6.363281 138.964844 5.621094 141.941406 C 4.875 144.917969 4.203125 147.910156 3.601562 150.921875 C 3.003906 153.929688 2.480469 156.953125 2.03125 159.988281 C 1.578125 163.023438 1.203125 166.066406 0.902344 169.121094 C 0.601562 172.175781 0.375 175.234375 0.226562 178.300781 C 0.0742188 181.363281 0 184.429688 0 187.5 C 0 190.570312 0.0742188 193.636719 0.226562 196.699219 C 0.375 199.765625 0.601562 202.824219 0.902344 205.878906 C 1.203125 208.933594 1.578125 211.976562 2.03125 215.011719 C 2.480469 218.046875 3.003906 221.070312 3.601562 224.078125 C 4.203125 227.089844 4.875 230.082031 5.621094 233.058594 C 6.363281 236.035156 7.183594 238.992188 8.074219 241.929688 C 8.964844 244.863281 9.925781 247.777344 10.960938 250.667969 C 11.996094 253.554688 13.097656 256.417969 14.273438 259.253906 C 15.445312 262.089844 16.691406 264.894531 18.003906 267.667969 C 19.3125 270.441406 20.691406 273.179688 22.140625 275.886719 C 23.585938 278.59375 25.097656 281.261719 26.675781 283.894531 C 28.253906 286.527344 29.894531 289.117188 31.597656 291.667969 C 33.304688 294.222656 35.070312 296.730469 36.898438 299.195312 C 38.726562 301.660156 40.613281 304.078125 42.558594 306.449219 C 44.507812 308.820312 46.511719 311.144531 48.570312 313.417969 C 50.632812 315.691406 52.746094 317.914062 54.917969 320.082031 C 57.085938 322.253906 59.308594 324.367188 61.582031 326.429688 C 63.855469 328.488281 66.179688 330.492188 68.550781 332.441406 C 70.921875 334.386719 73.339844 336.273438 75.804688 338.101562 C 78.269531 339.929688 80.777344 341.695312 83.332031 343.402344 C 85.882812 345.105469 88.472656 346.746094 91.105469 348.324219 C 93.738281 349.902344 96.40625 351.414062 99.113281 352.859375 C 101.820312 354.308594 104.558594 355.6875 107.332031 356.996094 C 110.105469 358.308594 112.910156 359.554688 115.746094 360.726562 C 118.582031 361.902344 121.445312 363.003906 124.332031 364.039062 C 127.222656 365.074219 130.136719 366.035156 133.070312 366.925781 C 136.007812 367.816406 138.964844 368.636719 141.941406 369.378906 C 144.917969 370.125 147.910156 370.796875 150.921875 371.398438 C 153.929688 371.996094 156.953125 372.519531 159.988281 372.96875 C 163.023438 373.421875 166.066406 373.796875 169.121094 374.097656 C 172.175781 374.398438 175.234375 374.625 178.300781 374.773438 C 181.363281 374.925781 184.429688 375 187.5 375 C 190.570312 375 193.636719 374.925781 196.699219 374.773438 C 199.765625 374.625 202.824219 374.398438 205.878906 374.097656 C 208.933594 373.796875 211.976562 373.421875 215.011719 372.96875 C 218.046875 372.519531 221.070312 371.996094 224.078125 371.398438 C 227.089844 370.796875 230.082031 370.125 233.058594 369.378906 C 236.035156 368.636719 238.992188 367.816406 241.929688 366.925781 C 244.863281 366.035156 247.777344 365.074219 250.667969 364.039062 C 253.554688 363.003906 256.417969 361.902344 259.253906 360.726562 C 262.089844 359.554688 264.894531 358.308594 267.667969 356.996094 C 270.441406 355.6875 273.179688 354.308594 275.886719 352.859375 C 278.59375 351.414062 281.261719 349.902344 283.894531 348.324219 C 286.527344 346.746094 289.117188 345.105469 291.667969 343.402344 C 294.222656 341.695312 296.730469 339.929688 299.195312 338.101562 C 301.660156 336.273438 304.078125 334.386719 306.449219 332.441406 C 308.820312 330.492188 311.144531 328.488281 313.417969 326.429688 C 315.691406 324.367188 317.914062 322.253906 320.082031 320.082031 C 322.253906 317.914062 324.367188 315.691406 326.429688 313.417969 C 328.488281 311.144531 330.492188 308.820312 332.441406 306.449219 C 334.386719 304.078125 336.273438 301.660156 338.101562 299.195312 C 339.929688 296.730469 341.695312 294.222656 343.402344 291.667969 C 345.105469 289.117188 346.746094 286.527344 348.324219 283.894531 C 349.902344 281.261719 351.414062 278.59375 352.859375 275.886719 C 354.308594 273.179688 355.6875 270.441406 356.996094 267.667969 C 358.308594 264.894531 359.554688 262.089844 360.726562 259.253906 C 361.902344 256.417969 363.003906 253.554688 364.039062 250.667969 C 365.074219 247.777344 366.035156 244.863281 366.925781 241.929688 C 367.816406 238.992188 368.636719 236.035156 369.378906 233.058594 C 370.125 230.082031 370.796875 227.089844 371.398438 224.078125 C 371.996094 221.070312 372.519531 218.046875 372.96875 215.011719 C 373.421875 211.976562 373.796875 208.933594 374.097656 205.878906 C 374.398438 202.824219 374.625 199.765625 374.773438 196.699219 C 374.925781 193.636719 375 190.570312 375 187.5 C 375 184.429688 374.925781 181.363281 374.773438 178.300781 C 374.625 175.234375 374.398438 172.175781 374.097656 169.121094 C 373.796875 166.066406 373.421875 163.023438 372.96875 159.988281 C 372.519531 156.953125 371.996094 153.929688 371.398438 150.921875 C 370.796875 147.910156 370.125 144.917969 369.378906 141.941406 C 368.636719 138.964844 367.816406 136.007812 366.925781 133.070312 C 366.035156 130.136719 365.074219 127.222656 364.039062 124.332031 C 363.003906 121.445312 361.902344 118.582031 360.726562 115.746094 C 359.554688 112.910156 358.308594 110.105469 356.996094 107.332031 C 355.6875 104.558594 354.308594 101.820312 352.859375 99.113281 C 351.414062 96.40625 349.902344 93.738281 348.324219 91.105469 C 346.746094 88.472656 345.105469 85.882812 343.402344 83.332031 C 341.695312 80.777344 339.929688 78.269531 338.101562 75.804688 C 336.273438 73.339844 334.386719 70.921875 332.441406 68.550781 C 330.492188 66.179688 328.488281 63.855469 326.429688 61.582031 C 324.367188 59.308594 322.253906 57.085938 320.082031 54.917969 C 317.914062 52.746094 315.691406 50.632812 313.417969 48.570312 C 311.144531 46.511719 308.820312 44.507812 306.449219 42.558594 C 304.078125 40.613281 301.660156 38.726562 299.195312 36.898438 C 296.730469 35.070312 294.222656 33.304688 291.667969 31.597656 C 289.117188 29.894531 286.527344 28.253906 283.894531 26.675781 C 281.261719 25.097656 278.59375 23.585938 275.886719 22.140625 C 273.179688 20.691406 270.441406 19.3125 267.667969 18.003906 C 264.894531 16.691406 262.089844 15.445312 259.253906 14.273438 C 256.417969 13.097656 253.554688 11.996094 250.667969 10.960938 C 247.777344 9.925781 244.863281 8.964844 241.929688 8.074219 C 238.992188 7.183594 236.035156 6.363281 233.058594 5.617188 C 230.082031 4.875 227.089844 4.203125 224.078125 3.601562 C 221.070312 3.003906 218.046875 2.480469 215.011719 2.03125 C 211.976562 1.578125 208.933594 1.203125 205.878906 0.902344 C 202.824219 0.601562 199.765625 0.375 196.699219 0.226562 C 193.636719 0.0742188 190.570312 0 187.5 0 Z M 187.5 0 " fill-opacity="1" fill-rule="nonzero"/><path fill="rgb(19.999695%, 19.999695%, 19.999695%)" d="M 320.3125 187.5 C 320.3125 191.09375 320.3125 194.6875 319.765625 198.28125 L 374.453125 198.28125 C 374.453125 194.6875 374.453125 191.09375 374.453125 187.5 C 374.453125 183.90625 374.453125 182.265625 374.453125 179.6875 L 320.3125 179.6875 Z M 320.3125 187.5 " fill-opacity="1" fill-rule="nonzero"/><path fill="rgb(97.24884%, 35.289001%, 25.099182%)" d="M 187.5 0 L 187.5 54.6875 C 189.671875 54.6875 191.847656 54.742188 194.015625 54.847656 C 196.1875 54.953125 198.355469 55.113281 200.519531 55.328125 C 202.679688 55.539062 204.835938 55.804688 206.988281 56.125 C 209.136719 56.445312 211.277344 56.816406 213.410156 57.238281 C 215.542969 57.664062 217.664062 58.140625 219.769531 58.667969 C 221.878906 59.195312 223.972656 59.777344 226.054688 60.40625 C 228.132812 61.039062 230.195312 61.71875 232.242188 62.449219 C 234.289062 63.183594 236.316406 63.964844 238.324219 64.796875 C 240.332031 65.628906 242.320312 66.507812 244.285156 67.4375 C 246.25 68.367188 248.191406 69.34375 250.105469 70.371094 C 252.023438 71.394531 253.914062 72.464844 255.777344 73.582031 C 257.644531 74.699219 259.480469 75.863281 261.285156 77.070312 C 263.09375 78.277344 264.871094 79.527344 266.617188 80.824219 C 268.363281 82.117188 270.074219 83.457031 271.753906 84.835938 C 273.4375 86.214844 275.082031 87.632812 276.691406 89.09375 C 278.300781 90.550781 279.875 92.050781 281.414062 93.585938 C 282.949219 95.125 284.449219 96.699219 285.90625 98.308594 C 287.367188 99.917969 288.785156 101.566406 290.164062 103.246094 C 291.542969 104.925781 292.882812 106.636719 294.175781 108.382812 C 295.472656 110.128906 296.722656 111.90625 297.929688 113.714844 C 299.136719 115.519531 300.300781 117.355469 301.417969 119.222656 C 302.535156 121.085938 303.605469 122.976562 304.628906 124.894531 C 305.65625 126.808594 306.632812 128.75 307.5625 130.714844 C 308.492188 132.679688 309.371094 134.667969 310.203125 136.675781 C 311.035156 138.683594 311.816406 140.710938 312.546875 142.757812 C 313.28125 144.804688 313.960938 146.867188 314.59375 148.945312 C 315.222656 151.027344 315.804688 153.121094 316.332031 155.230469 C 316.859375 157.335938 317.335938 159.457031 317.761719 161.589844 C 318.183594 163.722656 318.554688 165.863281 318.875 168.011719 C 319.195312 170.164062 319.460938 172.320312 319.671875 174.480469 C 319.886719 176.644531 320.046875 178.8125 320.152344 180.984375 C 320.257812 183.152344 320.3125 185.328125 320.3125 187.5 L 375 187.5 C 375 184.429688 374.925781 181.363281 374.773438 178.300781 C 374.625 175.234375 374.398438 172.175781 374.097656 169.121094 C 373.796875 166.066406 373.421875 163.023438 372.96875 159.988281 C 372.519531 156.953125 371.996094 153.929688 371.398438 150.921875 C 370.796875 147.910156 370.125 144.917969 369.378906 141.941406 C 368.636719 138.964844 367.816406 136.007812 366.925781 133.070312 C 366.035156 130.136719 365.074219 127.222656 364.039062 124.332031 C 363.003906 121.445312 361.902344 118.582031 360.726562 115.746094 C 359.554688 112.910156 358.308594 110.105469 356.996094 107.332031 C 355.6875 104.558594 354.308594 101.820312 352.859375 99.113281 C 351.414062 96.40625 349.902344 93.738281 348.324219 91.105469 C 346.746094 88.472656 345.105469 85.882812 343.402344 83.332031 C 341.695312 80.777344 339.929688 78.269531 338.101562 75.804688 C 336.273438 73.339844 334.386719 70.921875 332.441406 68.550781 C 330.492188 66.179688 328.488281 63.855469 326.429688 61.582031 C 324.367188 59.308594 322.253906 57.085938 320.082031 54.917969 C 317.914062 52.746094 315.691406 50.632812 313.417969 48.570312 C 311.144531 46.511719 308.820312 44.507812 306.449219 42.558594 C 304.078125 40.613281 301.660156 38.726562 299.195312 36.898438 C 296.730469 35.070312 294.222656 33.304688 291.667969 31.597656 C 289.117188 29.894531 286.527344 28.253906 283.894531 26.675781 C 281.261719 25.097656 278.59375 23.585938 275.886719 22.140625 C 273.179688 20.691406 270.441406 19.3125 267.667969 18.003906 C 264.894531 16.691406 262.089844 15.445312 259.253906 14.273438 C 256.417969 13.097656 253.554688 11.996094 250.667969 10.960938 C 247.777344 9.925781 244.863281 8.964844 241.929688 8.074219 C 238.992188 7.183594 236.035156 6.363281 233.058594 5.617188 C 230.082031 4.875 227.089844 4.203125 224.078125 3.601562 C 221.070312 3.003906 218.046875 2.480469 215.011719 2.03125 C 211.976562 1.578125 208.933594 1.203125 205.878906 0.902344 C 202.824219 0.601562 199.765625 0.375 196.699219 0.226562 C 193.636719 0.0742188 190.570312 0 187.5 0 Z M 187.5 0 " fill-opacity="1" fill-rule="nonzero"/><path fill="rgb(48.239136%, 35.688782%, 30.198669%)" d="M 283.984375 96.484375 C 286.867188 99.519531 289.597656 102.6875 292.179688 105.980469 C 294.757812 109.277344 297.179688 112.6875 299.4375 116.214844 C 301.691406 119.738281 303.777344 123.363281 305.691406 127.085938 C 307.605469 130.808594 309.335938 134.617188 310.890625 138.503906 C 312.441406 142.390625 313.804688 146.34375 314.980469 150.359375 C 316.15625 154.378906 317.140625 158.441406 317.933594 162.554688 C 318.722656 166.664062 319.316406 170.804688 319.714844 174.96875 C 320.113281 179.136719 320.3125 183.3125 320.3125 187.5 L 375 187.5 C 375.007812 181.585938 374.734375 175.683594 374.183594 169.792969 C 373.628906 163.902344 372.800781 158.054688 371.691406 152.242188 C 370.582031 146.433594 369.199219 140.6875 367.542969 135.007812 C 365.890625 129.328125 363.96875 123.742188 361.78125 118.246094 C 359.597656 112.75 357.15625 107.367188 354.457031 102.101562 C 351.761719 96.839844 348.820312 91.714844 345.636719 86.730469 C 342.449219 81.742188 339.039062 76.921875 335.394531 72.261719 C 331.75 67.601562 327.894531 63.121094 323.828125 58.828125 Z M 283.984375 96.484375 " fill-opacity="1" fill-rule="nonzero"/><path fill="rgb(97.24884%, 35.289001%, 25.099182%)" d="M 217.65625 151.171875 L 217.65625 141.171875 C 217.652344 139.855469 217.5625 138.546875 217.386719 137.242188 C 217.210938 135.9375 216.949219 134.648438 216.609375 133.378906 C 216.265625 132.109375 215.839844 130.867188 215.335938 129.652344 C 214.828125 128.433594 214.25 127.257812 213.589844 126.117188 C 212.929688 124.980469 212.203125 123.886719 211.402344 122.84375 C 210.601562 121.796875 209.734375 120.808594 208.804688 119.878906 C 207.875 118.945312 206.890625 118.078125 205.847656 117.273438 C 204.804688 116.472656 203.714844 115.738281 202.578125 115.078125 C 201.433594 114.429688 200.253906 113.855469 199.035156 113.359375 C 197.816406 112.863281 196.570312 112.445312 195.296875 112.109375 C 194.023438 111.773438 192.738281 111.519531 191.429688 111.351562 C 190.125 111.183594 188.816406 111.097656 187.5 111.097656 C 186.183594 111.097656 184.875 111.183594 183.570312 111.351562 C 182.261719 111.519531 180.976562 111.773438 179.703125 112.109375 C 178.429688 112.445312 177.183594 112.863281 175.964844 113.359375 C 174.746094 113.855469 173.566406 114.429688 172.421875 115.078125 C 171.285156 115.738281 170.195312 116.472656 169.152344 117.273438 C 168.109375 118.078125 167.125 118.945312 166.195312 119.878906 C 165.265625 120.808594 164.398438 121.796875 163.597656 122.84375 C 162.796875 123.886719 162.070312 124.980469 161.410156 126.117188 C 160.75 127.257812 160.171875 128.433594 159.664062 129.652344 C 159.160156 130.867188 158.734375 132.109375 158.390625 133.378906 C 158.050781 134.648438 157.789062 135.9375 157.613281 137.242188 C 157.4375 138.546875 157.347656 139.855469 157.34375 141.171875 L 157.34375 151.171875 C 157.347656 152.328125 157.425781 153.480469 157.578125 154.625 C 157.734375 155.769531 157.960938 156.902344 158.261719 158.019531 C 158.5625 159.136719 158.9375 160.226562 159.382812 161.292969 C 159.828125 162.359375 160.339844 163.394531 160.921875 164.394531 C 161.5 165.394531 162.144531 166.351562 162.847656 167.269531 C 163.554688 168.183594 164.316406 169.050781 165.136719 169.867188 C 165.957031 170.683594 166.824219 171.441406 167.742188 172.144531 C 168.664062 172.847656 169.621094 173.484375 170.625 174.0625 C 171.902344 174.796875 173.222656 175.445312 174.585938 176.011719 C 175.949219 176.574219 177.34375 177.042969 178.765625 177.425781 C 180.191406 177.804688 181.632812 178.09375 183.097656 178.285156 C 184.558594 178.476562 186.027344 178.570312 187.5 178.570312 C 188.972656 178.570312 190.441406 178.476562 191.90625 178.285156 C 193.367188 178.09375 194.808594 177.804688 196.234375 177.425781 C 197.65625 177.042969 199.050781 176.574219 200.414062 176.011719 C 201.777344 175.445312 203.097656 174.796875 204.375 174.0625 C 205.378906 173.484375 206.335938 172.847656 207.257812 172.144531 C 208.175781 171.441406 209.042969 170.683594 209.863281 169.867188 C 210.683594 169.050781 211.445312 168.183594 212.152344 167.269531 C 212.855469 166.351562 213.5 165.394531 214.078125 164.394531 C 214.660156 163.394531 215.171875 162.359375 215.617188 161.292969 C 216.0625 160.226562 216.4375 159.136719 216.738281 158.019531 C 217.039062 156.902344 217.265625 155.769531 217.421875 154.625 C 217.574219 153.480469 217.652344 152.328125 217.65625 151.171875 Z M 217.65625 151.171875 " fill-opacity="1" fill-rule="nonzero"/><path fill="rgb(97.24884%, 35.289001%, 25.099182%)" d="M 245.703125 263.90625 L 129.296875 263.90625 C 128.945312 263.90625 128.605469 263.839844 128.28125 263.703125 C 127.953125 263.570312 127.667969 263.378906 127.417969 263.128906 C 127.167969 262.878906 126.976562 262.59375 126.84375 262.265625 C 126.707031 261.941406 126.640625 261.601562 126.640625 261.25 L 126.640625 250.546875 C 126.640625 248.554688 126.738281 246.566406 126.933594 244.582031 C 127.128906 242.597656 127.421875 240.628906 127.808594 238.671875 C 128.199219 236.71875 128.683594 234.789062 129.261719 232.878906 C 129.839844 230.972656 130.511719 229.097656 131.273438 227.257812 C 132.035156 225.414062 132.886719 223.617188 133.828125 221.859375 C 134.765625 220.101562 135.789062 218.390625 136.898438 216.734375 C 138.003906 215.078125 139.191406 213.480469 140.457031 211.9375 C 141.71875 210.398438 143.054688 208.921875 144.464844 207.511719 C 145.875 206.101562 147.351562 204.765625 148.890625 203.5 C 150.433594 202.238281 152.03125 201.050781 153.6875 199.945312 C 155.34375 198.835938 157.054688 197.8125 158.8125 196.875 C 160.570312 195.933594 162.367188 195.082031 164.210938 194.320312 C 166.050781 193.558594 167.925781 192.886719 169.832031 192.308594 C 171.742188 191.730469 173.671875 191.246094 175.625 190.855469 C 177.582031 190.46875 179.550781 190.175781 181.535156 189.980469 C 183.519531 189.785156 185.507812 189.6875 187.5 189.6875 C 189.492188 189.6875 191.480469 189.785156 193.464844 189.980469 C 195.449219 190.175781 197.417969 190.46875 199.375 190.855469 C 201.328125 191.246094 203.257812 191.730469 205.167969 192.308594 C 207.074219 192.886719 208.949219 193.558594 210.789062 194.320312 C 212.632812 195.082031 214.429688 195.933594 216.1875 196.875 C 217.945312 197.8125 219.65625 198.835938 221.3125 199.945312 C 222.96875 201.050781 224.566406 202.238281 226.109375 203.5 C 227.648438 204.765625 229.125 206.101562 230.535156 207.511719 C 231.945312 208.921875 233.28125 210.398438 234.542969 211.9375 C 235.808594 213.480469 236.996094 215.078125 238.101562 216.734375 C 239.210938 218.390625 240.234375 220.101562 241.171875 221.859375 C 242.113281 223.617188 242.964844 225.414062 243.726562 227.257812 C 244.488281 229.097656 245.160156 230.972656 245.738281 232.878906 C 246.316406 234.789062 246.800781 236.71875 247.191406 238.671875 C 247.578125 240.628906 247.871094 242.597656 248.066406 244.582031 C 248.261719 246.566406 248.359375 248.554688 248.359375 250.546875 L 248.359375 261.25 C 248.359375 261.601562 248.292969 261.941406 248.15625 262.265625 C 248.023438 262.59375 247.832031 262.878906 247.582031 263.128906 C 247.332031 263.378906 247.046875 263.570312 246.71875 263.703125 C 246.394531 263.839844 246.054688 263.90625 245.703125 263.90625 Z M 245.703125 263.90625 " fill-opacity="1" fill-rule="nonzero"/></svg>