<?xml version="1.0" encoding="UTF-8"?><svg xmlns="http://www.w3.org/2000/svg" xmlns:xlink="http://www.w3.org/1999/xlink" contentScriptType="text/ecmascript" width="375" zoomAndPan="magnify" contentStyleType="text/css" viewBox="0 0 375 374.999991" height="374.999991" preserveAspectRatio="xMidYMid meet" version="1.0"><defs><filter x="0%" y="0%" width="100%" xmlns:xlink="http://www.w3.org/1999/xlink" xlink:type="simple" xlink:actuate="onLoad" height="100%" id="filter-remove-color" xlink:show="other"><feColorMatrix values="0 0 0 0 1 0 0 0 0 1 0 0 0 0 1 0 0 0 1 0" color-interpolation-filters="sRGB"/></filter><mask id="mask-0"><g filter="url(#filter-remove-color)"><rect x="-37.5" width="450" fill="rgb(0%, 0%, 0%)" y="-37.499999" height="449.999989" fill-opacity="0.7176"/></g></mask><clipPath id="clip-0"><rect x="0" width="345" y="0" height="375"/></clipPath></defs><g mask="url(#mask-0)"><g transform="matrix(1, 0, 0, 1, 0, 0)"><g id="source-5" clip-path="url(#clip-0)"><path fill="rgb(0%, 0%, 0%)" d="M 339.984375 13.855469 C 335.96875 6.246094 328.167969 1.519531 319.59375 1.519531 L 24.65625 1.519531 C 16.097656 1.519531 8.28125 6.246094 4.265625 13.855469 C 0.21875 21.542969 0.761719 30.75 5.660156 37.894531 L 124.226562 211.167969 C 125.125 212.484375 125.605469 214.003906 125.605469 215.582031 L 125.605469 350.246094 C 125.605469 363.066406 136.039062 373.480469 148.863281 373.480469 C 153.035156 373.480469 157.144531 372.332031 160.789062 370.148438 L 207.386719 342.203125 C 214.335938 338.019531 218.644531 330.394531 218.644531 322.304688 L 218.644531 215.582031 C 218.644531 214.003906 219.125 212.484375 220.039062 211.152344 L 338.589844 37.910156 C 343.488281 30.765625 344.03125 21.542969 339.984375 13.855469 Z M 153.160156 186.199219 C 151.84375 187.082031 150.355469 187.5 148.878906 187.5 C 146.367188 187.5 143.917969 186.292969 142.414062 184.042969 L 49.375 44.558594 C 47 40.996094 47.960938 36.191406 51.527344 33.820312 C 55.09375 31.449219 59.917969 32.394531 62.273438 35.972656 L 155.316406 175.457031 C 157.6875 179.023438 156.726562 183.828125 153.160156 186.199219 Z M 153.160156 186.199219 " fill-opacity="1" fill-rule="nonzero"/><path fill="rgb(0%, 0%, 0%)" d="M 284.425781 182.539062 C 280.332031 182.539062 276.191406 181.457031 272.4375 179.207031 L 245.65625 163.152344 C 241.984375 160.953125 240.804688 156.195312 243.007812 152.519531 C 245.222656 148.847656 249.96875 147.667969 253.644531 149.871094 L 280.425781 165.925781 C 283.835938 167.972656 288.222656 167.121094 290.613281 163.925781 L 318.429688 126.855469 C 319.765625 125.089844 320.261719 122.902344 319.828125 120.71875 C 319.394531 118.53125 318.121094 116.703125 316.214844 115.558594 L 292.195312 101.144531 C 288.519531 98.941406 287.339844 94.183594 289.542969 90.511719 C 291.746094 86.839844 296.503906 85.644531 300.179688 87.863281 L 324.199219 102.273438 C 329.828125 105.652344 333.796875 111.292969 335.054688 117.742188 C 336.3125 124.191406 334.777344 130.898438 330.851562 136.152344 L 303.03125 173.226562 C 298.472656 179.285156 291.527344 182.539062 284.425781 182.539062 Z M 284.425781 182.539062 " fill-opacity="1" fill-rule="nonzero"/></g></g></g></svg>