<?xml version="1.0" encoding="UTF-8"?><svg xmlns="http://www.w3.org/2000/svg" xmlns:xlink="http://www.w3.org/1999/xlink" contentScriptType="text/ecmascript" width="375" zoomAndPan="magnify" contentStyleType="text/css" viewBox="0 0 375 374.999991" height="374.999991" preserveAspectRatio="xMidYMid meet" version="1.0"><defs><clipPath id="clip-0"><path d="M 10 124 L 90 124 L 90 356.25 L 10 356.25 Z M 10 124 " clip-rule="nonzero"/></clipPath><clipPath id="clip-1"><path d="M 123 122 L 372 122 L 372 356.25 L 123 356.25 Z M 123 122 " clip-rule="nonzero"/></clipPath><clipPath id="clip-2"><path d="M 1 18.75 L 96 18.75 L 96 105 L 1 105 Z M 1 18.75 " clip-rule="nonzero"/></clipPath></defs><path fill="rgb(97.24884%, 35.289001%, 25.099182%)" d="M 14.820312 128.542969 L 85.308594 128.542969 L 85.308594 351.886719 L 14.820312 351.886719 Z M 14.820312 128.542969 " fill-opacity="1" fill-rule="nonzero"/><path fill="rgb(97.24884%, 35.289001%, 25.099182%)" d="M 14.820312 128.542969 L 85.308594 128.542969 L 85.308594 351.886719 L 14.820312 351.886719 Z M 14.820312 128.542969 " fill-opacity="1" fill-rule="nonzero"/><path fill="rgb(32.939148%, 32.939148%, 32.939148%)" d="M 14.820312 128.542969 L 85.308594 128.542969 L 85.308594 351.886719 L 14.820312 351.886719 Z M 14.820312 128.542969 " fill-opacity="1" fill-rule="nonzero"/><path fill="rgb(97.24884%, 35.289001%, 25.099182%)" d="M 277.902344 126.410156 C 237.511719 126.410156 212.21875 148.265625 207.539062 163.597656 L 207.539062 128.542969 L 128.339844 128.542969 C 129.367188 147.152344 128.339844 351.886719 128.339844 351.886719 L 207.539062 351.886719 L 207.539062 231.027344 C 207.539062 224.316406 207.222656 217.601562 209.25 212.773438 C 214.699219 199.34375 226.390625 185.421875 247.429688 185.421875 C 274.925781 185.421875 287.433594 206.066406 287.433594 236.308594 L 287.433594 351.882812 L 367.359375 351.882812 L 367.359375 227.703125 C 367.355469 158.523438 328 126.410156 277.902344 126.410156 Z M 277.902344 126.410156 " fill-opacity="1" fill-rule="nonzero"/><path fill="rgb(32.939148%, 32.939148%, 32.939148%)" d="M 277.902344 126.410156 C 237.511719 126.410156 212.21875 148.265625 207.539062 163.597656 L 207.539062 128.542969 L 128.339844 128.542969 C 129.367188 147.152344 128.339844 351.886719 128.339844 351.886719 L 207.539062 351.886719 L 207.539062 231.027344 C 207.539062 224.316406 207.222656 217.601562 209.25 212.773438 C 214.699219 199.34375 226.390625 185.421875 247.429688 185.421875 C 274.925781 185.421875 287.433594 206.066406 287.433594 236.308594 L 287.433594 351.882812 L 367.359375 351.882812 L 367.359375 227.703125 C 367.355469 158.523438 328 126.410156 277.902344 126.410156 Z M 277.902344 126.410156 " fill-opacity="1" fill-rule="nonzero"/><path fill="rgb(48.239136%, 35.688782%, 30.198669%)" d="M 48.75 23.113281 C 22.707031 23.113281 5.683594 39.832031 5.683594 61.890625 C 5.683594 83.539062 22.230469 100.605469 47.742188 100.605469 L 48.261719 100.605469 C 74.757812 100.605469 91.253906 83.46875 91.253906 61.835938 C 90.746094 39.789062 74.757812 23.113281 48.75 23.113281 Z M 48.75 23.113281 " fill-opacity="1" fill-rule="nonzero"/><path fill="rgb(0%, 0%, 0%)" d="M 5.683594 61.890625 C 5.683594 83.539062 22.230469 100.605469 47.742188 100.605469 L 48.261719 100.605469 C 74.757812 100.605469 91.253906 83.46875 91.253906 61.835938 " fill-opacity="1" fill-rule="nonzero"/><g clip-path="url(#clip-0)"><path stroke-linecap="round" transform="matrix(2.904566, 0, 0, 2.904475, -16.799416, -15.813251)" fill="none" stroke-linejoin="round" d="M 10.886213 49.701315 L 35.154304 49.701315 L 35.154304 126.597747 L 10.886213 126.597747 Z M 10.886213 49.701315 " stroke="rgb(19.999695%, 21.179199%, 22.749329%)" stroke-width="3" stroke-opacity="1" stroke-miterlimit="10"/><path stroke-linecap="round" transform="matrix(2.904566, 0, 0, 2.904475, -16.799416, -15.813251)" fill="none" stroke-linejoin="round" d="M 10.886213 49.701315 L 35.154304 49.701315 L 35.154304 126.597747 L 10.886213 126.597747 Z M 10.886213 49.701315 " stroke="rgb(19.999695%, 21.179199%, 22.749329%)" stroke-width="3" stroke-opacity="1" stroke-miterlimit="10"/><path stroke-linecap="round" transform="matrix(2.904566, 0, 0, 2.904475, -16.799416, -15.813251)" fill="none" stroke-linejoin="round" d="M 10.886213 49.701315 L 35.154304 49.701315 L 35.154304 126.597747 L 10.886213 126.597747 Z M 10.886213 49.701315 " stroke="rgb(19.999695%, 21.179199%, 22.749329%)" stroke-width="3" stroke-opacity="1" stroke-miterlimit="10"/></g><g clip-path="url(#clip-1)"><path stroke-linecap="round" transform="matrix(2.904566, 0, 0, 2.904475, -16.799416, -15.813251)" fill="none" stroke-linejoin="round" d="M 101.461534 48.966996 C 87.555628 48.966996 78.847627 56.491753 77.236478 61.770515 L 77.236478 49.701315 L 49.969338 49.701315 C 50.323038 56.108455 49.969338 126.597747 49.969338 126.597747 L 77.236478 126.597747 L 77.236478 84.986308 C 77.236478 82.675757 77.127544 80.363861 77.825529 78.701556 C 79.701616 74.077764 83.726797 69.284513 90.970241 69.284513 C 100.436747 69.284513 104.743005 76.39235 104.743005 86.804623 L 104.743005 126.596402 L 132.26029 126.596402 L 132.26029 83.841792 C 132.258945 60.02348 118.709429 48.966996 101.461534 48.966996 Z M 101.461534 48.966996 " stroke="rgb(19.999695%, 21.179199%, 22.749329%)" stroke-width="3" stroke-opacity="1" stroke-miterlimit="10"/><path stroke-linecap="round" transform="matrix(2.904566, 0, 0, 2.904475, -16.799416, -15.813251)" fill="none" stroke-linejoin="round" d="M 101.461534 48.966996 C 87.555628 48.966996 78.847627 56.491753 77.236478 61.770515 L 77.236478 49.701315 L 49.969338 49.701315 C 50.323038 56.108455 49.969338 126.597747 49.969338 126.597747 L 77.236478 126.597747 L 77.236478 84.986308 C 77.236478 82.675757 77.127544 80.363861 77.825529 78.701556 C 79.701616 74.077764 83.726797 69.284513 90.970241 69.284513 C 100.436747 69.284513 104.743005 76.39235 104.743005 86.804623 L 104.743005 126.596402 L 132.26029 126.596402 L 132.26029 83.841792 C 132.258945 60.02348 118.709429 48.966996 101.461534 48.966996 Z M 101.461534 48.966996 " stroke="rgb(19.999695%, 21.179199%, 22.749329%)" stroke-width="3" stroke-opacity="1" stroke-miterlimit="10"/></g><g clip-path="url(#clip-2)"><path stroke-linecap="round" transform="matrix(2.904566, 0, 0, 2.904475, -16.799416, -15.813251)" fill="none" stroke-linejoin="round" d="M 22.567711 13.402262 C 13.601496 13.402262 7.740573 19.158466 7.740573 26.753159 C 7.740573 34.206636 13.437422 40.082537 22.220736 40.082537 L 22.399603 40.082537 C 31.521823 40.082537 37.201189 34.182428 37.201189 26.73433 C 37.026356 19.143672 31.521823 13.402262 22.567711 13.402262 Z M 22.567711 13.402262 " stroke="rgb(19.999695%, 21.179199%, 22.749329%)" stroke-width="3" stroke-opacity="1" stroke-miterlimit="10"/></g><path stroke-linecap="round" transform="matrix(2.904566, 0, 0, 2.904475, -16.799416, -15.813251)" fill="none" stroke-linejoin="round" d="M 91.118176 26.332203 L 91.112797 22.88117 " stroke="rgb(19.999695%, 21.179199%, 22.749329%)" stroke-width="3" stroke-opacity="1" stroke-miterlimit="10"/><path stroke-linecap="round" transform="matrix(2.904566, 0, 0, 2.904475, -16.799416, -15.813251)" fill="none" stroke-linejoin="round" d="M 91.118176 15.383311 L 91.112797 15.54201 " stroke="rgb(19.999695%, 21.179199%, 22.749329%)" stroke-width="3" stroke-opacity="1" stroke-miterlimit="10"/><path stroke-linecap="round" transform="matrix(2.904566, 0, 0, 2.904475, -16.799416, -15.813251)" fill="none" stroke-linejoin="round" d="M 64.394361 31.838254 L 61.954776 29.399937 " stroke="rgb(19.999695%, 21.179199%, 22.749329%)" stroke-width="3" stroke-opacity="1" stroke-miterlimit="10"/><path stroke-linecap="round" transform="matrix(2.904566, 0, 0, 2.904475, -16.799416, -15.813251)" fill="none" stroke-linejoin="round" d="M 56.646593 24.095621 L 56.766286 24.211283 " stroke="rgb(19.999695%, 21.179199%, 22.749329%)" stroke-width="3" stroke-opacity="1" stroke-miterlimit="10"/><path stroke-linecap="round" transform="matrix(2.904566, 0, 0, 2.904475, -16.799416, -15.813251)" fill="none" stroke-linejoin="round" d="M 117.836611 31.839599 L 120.277542 29.397247 " stroke="rgb(19.999695%, 21.179199%, 22.749329%)" stroke-width="3" stroke-opacity="1" stroke-miterlimit="10"/><path stroke-linecap="round" transform="matrix(2.904566, 0, 0, 2.904475, -16.799416, -15.813251)" fill="none" stroke-linejoin="round" d="M 125.580345 24.095621 L 125.467376 24.208594 " stroke="rgb(19.999695%, 21.179199%, 22.749329%)" stroke-width="3" stroke-opacity="1" stroke-miterlimit="10"/></svg>