<?xml version="1.0" encoding="UTF-8"?><svg xmlns="http://www.w3.org/2000/svg" xmlns:xlink="http://www.w3.org/1999/xlink" contentScriptType="text/ecmascript" width="375" zoomAndPan="magnify" contentStyleType="text/css" viewBox="0 0 375 374.999991" height="374.999991" preserveAspectRatio="xMidYMid meet" version="1.0"><defs><clipPath id="clip-0"><path d="M 11 124 L 91 124 L 91 356.25 L 11 356.25 Z M 11 124 " clip-rule="nonzero"/></clipPath><clipPath id="clip-1"><path d="M 125 122 L 373 122 L 373 356.25 L 125 356.25 Z M 125 122 " clip-rule="nonzero"/></clipPath><clipPath id="clip-2"><path d="M 2 18.75 L 97 18.75 L 97 105 L 2 105 Z M 2 18.75 " clip-rule="nonzero"/></clipPath></defs><path fill="rgb(9.408569%, 49.798584%, 72.158813%)" d="M 15.949219 128.542969 L 86.4375 128.542969 L 86.4375 351.886719 L 15.949219 351.886719 Z M 15.949219 128.542969 " fill-opacity="1" fill-rule="nonzero"/><path fill="rgb(9.408569%, 49.798584%, 72.158813%)" d="M 15.949219 128.542969 L 86.4375 128.542969 L 86.4375 351.886719 L 15.949219 351.886719 Z M 15.949219 128.542969 " fill-opacity="1" fill-rule="nonzero"/><path fill="rgb(5.488586%, 47.059631%, 84.709167%)" d="M 15.949219 128.542969 L 86.4375 128.542969 L 86.4375 351.886719 L 15.949219 351.886719 Z M 15.949219 128.542969 " fill-opacity="1" fill-rule="nonzero"/><path fill="rgb(9.408569%, 49.798584%, 72.158813%)" d="M 279.03125 126.410156 C 238.640625 126.410156 213.347656 148.265625 208.667969 163.597656 L 208.667969 128.542969 L 129.46875 128.542969 C 130.496094 147.152344 129.46875 351.886719 129.46875 351.886719 L 208.671875 351.886719 L 208.671875 231.027344 C 208.671875 224.316406 208.351562 217.601562 210.378906 212.773438 C 215.828125 199.34375 227.519531 185.421875 248.558594 185.421875 C 276.054688 185.421875 288.5625 206.066406 288.5625 236.308594 L 288.5625 351.882812 L 368.488281 351.882812 L 368.488281 227.703125 C 368.484375 158.523438 329.128906 126.410156 279.03125 126.410156 Z M 279.03125 126.410156 " fill-opacity="1" fill-rule="nonzero"/><path fill="rgb(5.488586%, 47.059631%, 84.709167%)" d="M 279.03125 126.410156 C 238.640625 126.410156 213.347656 148.265625 208.667969 163.597656 L 208.667969 128.542969 L 129.46875 128.542969 C 130.496094 147.152344 129.46875 351.886719 129.46875 351.886719 L 208.671875 351.886719 L 208.671875 231.027344 C 208.671875 224.316406 208.351562 217.601562 210.378906 212.773438 C 215.828125 199.34375 227.519531 185.421875 248.558594 185.421875 C 276.054688 185.421875 288.5625 206.066406 288.5625 236.308594 L 288.5625 351.882812 L 368.488281 351.882812 L 368.488281 227.703125 C 368.484375 158.523438 329.128906 126.410156 279.03125 126.410156 Z M 279.03125 126.410156 " fill-opacity="1" fill-rule="nonzero"/><path fill="rgb(18.03894%, 82.749939%, 100%)" d="M 49.878906 23.113281 C 23.839844 23.113281 6.8125 39.832031 6.8125 61.890625 C 6.8125 83.539062 23.359375 100.605469 48.871094 100.605469 L 49.390625 100.605469 C 75.886719 100.605469 92.382812 83.46875 92.382812 61.835938 C 91.878906 39.789062 75.886719 23.113281 49.878906 23.113281 Z M 49.878906 23.113281 " fill-opacity="1" fill-rule="nonzero"/><path fill="rgb(0%, 64.309692%, 86.669922%)" d="M 6.8125 61.890625 C 6.8125 83.539062 23.359375 100.605469 48.871094 100.605469 L 49.390625 100.605469 C 75.886719 100.605469 92.382812 83.46875 92.382812 61.835938 " fill-opacity="1" fill-rule="nonzero"/><g clip-path="url(#clip-0)"><path stroke-linecap="round" transform="matrix(2.904566, 0, 0, 2.904475, -15.669897, -15.813251)" fill="none" stroke-linejoin="round" d="M 10.886003 49.701315 L 35.154096 49.701315 L 35.154096 126.597747 L 10.886003 126.597747 Z M 10.886003 49.701315 " stroke="rgb(19.999695%, 21.179199%, 22.749329%)" stroke-width="3" stroke-opacity="1" stroke-miterlimit="10"/><path stroke-linecap="round" transform="matrix(2.904566, 0, 0, 2.904475, -15.669897, -15.813251)" fill="none" stroke-linejoin="round" d="M 10.886003 49.701315 L 35.154096 49.701315 L 35.154096 126.597747 L 10.886003 126.597747 Z M 10.886003 49.701315 " stroke="rgb(19.999695%, 21.179199%, 22.749329%)" stroke-width="3" stroke-opacity="1" stroke-miterlimit="10"/><path stroke-linecap="round" transform="matrix(2.904566, 0, 0, 2.904475, -15.669897, -15.813251)" fill="none" stroke-linejoin="round" d="M 10.886003 49.701315 L 35.154096 49.701315 L 35.154096 126.597747 L 10.886003 126.597747 Z M 10.886003 49.701315 " stroke="rgb(19.999695%, 21.179199%, 22.749329%)" stroke-width="3" stroke-opacity="1" stroke-miterlimit="10"/></g><g clip-path="url(#clip-1)"><path stroke-linecap="round" transform="matrix(2.904566, 0, 0, 2.904475, -15.669897, -15.813251)" fill="none" stroke-linejoin="round" d="M 101.46133 48.966996 C 87.555424 48.966996 78.847422 56.491753 77.236273 61.770515 L 77.236273 49.701315 L 49.969131 49.701315 C 50.322831 56.108455 49.969131 126.597747 49.969131 126.597747 L 77.237618 126.597747 L 77.237618 84.986308 C 77.237618 82.675757 77.127339 80.363861 77.825324 78.701556 C 79.701411 74.077764 83.726593 69.284513 90.970037 69.284513 C 100.436543 69.284513 104.742801 76.39235 104.742801 86.804623 L 104.742801 126.596402 L 132.260089 126.596402 L 132.260089 83.841792 C 132.258744 60.02348 118.709227 48.966996 101.46133 48.966996 Z M 101.46133 48.966996 " stroke="rgb(19.999695%, 21.179199%, 22.749329%)" stroke-width="3" stroke-opacity="1" stroke-miterlimit="10"/><path stroke-linecap="round" transform="matrix(2.904566, 0, 0, 2.904475, -15.669897, -15.813251)" fill="none" stroke-linejoin="round" d="M 101.46133 48.966996 C 87.555424 48.966996 78.847422 56.491753 77.236273 61.770515 L 77.236273 49.701315 L 49.969131 49.701315 C 50.322831 56.108455 49.969131 126.597747 49.969131 126.597747 L 77.237618 126.597747 L 77.237618 84.986308 C 77.237618 82.675757 77.127339 80.363861 77.825324 78.701556 C 79.701411 74.077764 83.726593 69.284513 90.970037 69.284513 C 100.436543 69.284513 104.742801 76.39235 104.742801 86.804623 L 104.742801 126.596402 L 132.260089 126.596402 L 132.260089 83.841792 C 132.258744 60.02348 118.709227 48.966996 101.46133 48.966996 Z M 101.46133 48.966996 " stroke="rgb(19.999695%, 21.179199%, 22.749329%)" stroke-width="3" stroke-opacity="1" stroke-miterlimit="10"/></g><g clip-path="url(#clip-2)"><path stroke-linecap="round" transform="matrix(2.904566, 0, 0, 2.904475, -15.669897, -15.813251)" fill="none" stroke-linejoin="round" d="M 22.567502 13.402262 C 13.602631 13.402262 7.740363 19.158466 7.740363 26.753159 C 7.740363 34.206636 13.437212 40.082537 22.220527 40.082537 L 22.399394 40.082537 C 31.521615 40.082537 37.200981 34.182428 37.200981 26.73433 C 37.027493 19.143672 31.521615 13.402262 22.567502 13.402262 Z M 22.567502 13.402262 " stroke="rgb(19.999695%, 21.179199%, 22.749329%)" stroke-width="3" stroke-opacity="1" stroke-miterlimit="10"/></g><path stroke-linecap="round" transform="matrix(2.904566, 0, 0, 2.904475, -15.669897, -15.813251)" fill="none" stroke-linejoin="round" d="M 91.117972 26.332203 L 91.112593 22.88117 " stroke="rgb(19.999695%, 21.179199%, 22.749329%)" stroke-width="3" stroke-opacity="1" stroke-miterlimit="10"/><path stroke-linecap="round" transform="matrix(2.904566, 0, 0, 2.904475, -15.669897, -15.813251)" fill="none" stroke-linejoin="round" d="M 91.117972 15.383311 L 91.112593 15.54201 " stroke="rgb(19.999695%, 21.179199%, 22.749329%)" stroke-width="3" stroke-opacity="1" stroke-miterlimit="10"/><path stroke-linecap="round" transform="matrix(2.904566, 0, 0, 2.904475, -15.669897, -15.813251)" fill="none" stroke-linejoin="round" d="M 64.3955 31.838254 L 61.95457 29.399937 " stroke="rgb(19.999695%, 21.179199%, 22.749329%)" stroke-width="3" stroke-opacity="1" stroke-miterlimit="10"/><path stroke-linecap="round" transform="matrix(2.904566, 0, 0, 2.904475, -15.669897, -15.813251)" fill="none" stroke-linejoin="round" d="M 56.646387 24.095621 L 56.76608 24.211283 " stroke="rgb(19.999695%, 21.179199%, 22.749329%)" stroke-width="3" stroke-opacity="1" stroke-miterlimit="10"/><path stroke-linecap="round" transform="matrix(2.904566, 0, 0, 2.904475, -15.669897, -15.813251)" fill="none" stroke-linejoin="round" d="M 117.836409 31.839599 L 120.27734 29.397247 " stroke="rgb(19.999695%, 21.179199%, 22.749329%)" stroke-width="3" stroke-opacity="1" stroke-miterlimit="10"/><path stroke-linecap="round" transform="matrix(2.904566, 0, 0, 2.904475, -15.669897, -15.813251)" fill="none" stroke-linejoin="round" d="M 125.581488 24.095621 L 125.467174 24.208594 " stroke="rgb(19.999695%, 21.179199%, 22.749329%)" stroke-width="3" stroke-opacity="1" stroke-miterlimit="10"/></svg>