<?xml version="1.0" encoding="UTF-8"?><svg xmlns="http://www.w3.org/2000/svg" xmlns:xlink="http://www.w3.org/1999/xlink" contentScriptType="text/ecmascript" width="375" zoomAndPan="magnify" contentStyleType="text/css" viewBox="0 0 375 374.999991" height="374.999991" preserveAspectRatio="xMidYMid meet" version="1.0"><defs><filter x="0%" y="0%" width="100%" xmlns:xlink="http://www.w3.org/1999/xlink" xlink:type="simple" xlink:actuate="onLoad" height="100%" id="filter-remove-color" xlink:show="other"><feColorMatrix values="0 0 0 0 1 0 0 0 0 1 0 0 0 0 1 0 0 0 1 0" color-interpolation-filters="sRGB"/></filter><mask id="mask-0"><g filter="url(#filter-remove-color)"><rect x="-37.5" width="450" fill="rgb(0%, 0%, 0%)" y="-37.499999" height="449.999989" fill-opacity="0.8588"/></g></mask><clipPath id="clip-0"><path d="M 0 0.71875 L 83 0.71875 L 83 83 L 0 83 Z M 0 0.71875 " clip-rule="nonzero"/></clipPath><clipPath id="clip-1"><path d="M 0 270 L 83 270 L 83 352.46875 L 0 352.46875 Z M 0 270 " clip-rule="nonzero"/></clipPath><clipPath id="clip-2"><rect x="0" width="375" y="0" height="353"/></clipPath></defs><g mask="url(#mask-0)"><g transform="matrix(1, 0, 0, 1, 0, 11)"><g id="source-5" clip-path="url(#clip-2)"><path fill="rgb(0%, 0%, 0%)" d="M 116.601562 35.894531 L 274.804688 35.894531 C 278.320312 35.894531 280.664062 33.546875 280.664062 30.03125 C 280.664062 26.515625 278.320312 24.167969 274.804688 24.167969 L 116.601562 24.167969 C 113.085938 24.167969 110.742188 26.515625 110.742188 30.03125 C 110.742188 33.546875 113.085938 35.894531 116.601562 35.894531 Z M 116.601562 35.894531 " fill-opacity="1" fill-rule="nonzero"/><path fill="rgb(0%, 0%, 0%)" d="M 116.601562 170.730469 L 274.804688 170.730469 C 278.320312 170.730469 280.664062 168.386719 280.664062 164.867188 C 280.664062 161.351562 278.320312 159.007812 274.804688 159.007812 L 116.601562 159.007812 C 113.085938 159.007812 110.742188 161.351562 110.742188 164.867188 C 110.742188 168.386719 113.085938 170.730469 116.601562 170.730469 Z M 116.601562 170.730469 " fill-opacity="1" fill-rule="nonzero"/><path fill="rgb(0%, 0%, 0%)" d="M 116.601562 305.570312 L 274.804688 305.570312 C 278.320312 305.570312 280.664062 303.222656 280.664062 299.707031 C 280.664062 296.1875 278.320312 293.84375 274.804688 293.84375 L 116.601562 293.84375 C 113.085938 293.84375 110.742188 296.1875 110.742188 299.707031 C 110.742188 303.222656 113.085938 305.570312 116.601562 305.570312 Z M 116.601562 305.570312 " fill-opacity="1" fill-rule="nonzero"/><g clip-path="url(#clip-0)"><path fill="rgb(0%, 0%, 0%)" d="M 41.601562 0.71875 C 18.75 0.71875 0.585938 18.890625 0.585938 41.757812 C 0.585938 64.621094 18.75 82.792969 41.601562 82.792969 C 64.453125 82.792969 82.617188 64.621094 82.617188 41.757812 C 82.617188 19.480469 63.867188 0.71875 41.601562 0.71875 Z M 41.601562 71.070312 C 25.195312 71.070312 12.304688 58.171875 12.304688 41.757812 C 12.304688 25.339844 25.195312 12.445312 41.601562 12.445312 C 58.007812 12.445312 70.898438 25.339844 70.898438 41.757812 C 70.898438 58.171875 57.421875 71.070312 41.601562 71.070312 Z M 41.601562 71.070312 " fill-opacity="1" fill-rule="nonzero"/></g><path fill="rgb(0%, 0%, 0%)" d="M 41.601562 135.554688 C 18.75 135.554688 0.585938 153.730469 0.585938 176.59375 C 0.585938 199.457031 18.75 217.632812 41.601562 217.632812 C 64.453125 217.632812 82.617188 199.457031 82.617188 176.59375 C 82.617188 154.316406 63.867188 135.554688 41.601562 135.554688 Z M 41.601562 205.90625 C 25.195312 205.90625 12.304688 193.007812 12.304688 176.59375 C 12.304688 160.179688 25.195312 147.28125 41.601562 147.28125 C 58.007812 147.28125 70.898438 160.179688 70.898438 176.59375 C 70.898438 193.007812 57.421875 205.90625 41.601562 205.90625 Z M 41.601562 205.90625 " fill-opacity="1" fill-rule="nonzero"/><g clip-path="url(#clip-1)"><path fill="rgb(0%, 0%, 0%)" d="M 41.601562 270.394531 C 18.75 270.394531 0.585938 288.566406 0.585938 311.429688 C 0.585938 334.296875 18.75 352.46875 41.601562 352.46875 C 64.453125 352.46875 82.617188 334.296875 82.617188 311.429688 C 82.617188 288.566406 63.867188 270.394531 41.601562 270.394531 Z M 41.601562 340.742188 C 25.195312 340.742188 12.304688 327.847656 12.304688 311.429688 C 12.304688 295.015625 25.195312 282.117188 41.601562 282.117188 C 58.007812 282.117188 70.898438 295.015625 70.898438 311.429688 C 70.898438 327.261719 57.421875 340.742188 41.601562 340.742188 Z M 41.601562 340.742188 " fill-opacity="1" fill-rule="nonzero"/></g><path fill="rgb(0%, 0%, 0%)" d="M 368.554688 182.457031 L 116.601562 182.457031 C 113.085938 182.457031 110.742188 184.800781 110.742188 188.320312 C 110.742188 191.835938 113.085938 194.179688 116.601562 194.179688 L 368.554688 194.179688 C 372.070312 194.179688 374.414062 191.835938 374.414062 188.320312 C 374.414062 184.800781 372.070312 182.457031 368.554688 182.457031 Z M 368.554688 182.457031 " fill-opacity="1" fill-rule="nonzero"/><path fill="rgb(0%, 0%, 0%)" d="M 368.554688 47.617188 L 116.601562 47.617188 C 113.085938 47.617188 110.742188 49.964844 110.742188 53.480469 C 110.742188 57 113.085938 59.34375 116.601562 59.34375 L 368.554688 59.34375 C 372.070312 59.34375 374.414062 57 374.414062 53.480469 C 374.414062 49.964844 372.070312 47.617188 368.554688 47.617188 Z M 368.554688 47.617188 " fill-opacity="1" fill-rule="nonzero"/><path fill="rgb(0%, 0%, 0%)" d="M 374.414062 323.15625 C 374.414062 319.640625 372.070312 317.292969 368.554688 317.292969 L 116.601562 317.292969 C 113.085938 317.292969 110.742188 319.640625 110.742188 323.15625 C 110.742188 326.671875 113.085938 329.019531 116.601562 329.019531 L 368.554688 329.019531 C 372.070312 329.019531 374.414062 326.671875 374.414062 323.15625 Z M 374.414062 323.15625 " fill-opacity="1" fill-rule="nonzero"/></g></g></g></svg>