<?xml version="1.0" encoding="UTF-8"?><svg xmlns="http://www.w3.org/2000/svg" xmlns:xlink="http://www.w3.org/1999/xlink" contentScriptType="text/ecmascript" width="375" zoomAndPan="magnify" contentStyleType="text/css" viewBox="0 0 375 374.999991" height="374.999991" preserveAspectRatio="xMidYMid meet" version="1.0"><defs><clipPath id="clip-0"><path d="M 0 0 L 375 0 L 375 360.75 L 0 360.75 Z M 0 0 " clip-rule="nonzero"/></clipPath></defs><g clip-path="url(#clip-0)"><path fill="rgb(97.24884%, 35.289001%, 25.099182%)" d="M 286.0625 0.238281 C 237.125 0.238281 197.378906 40.015625 197.378906 88.972656 C 197.378906 97.527344 198.613281 105.765625 200.882812 113.589844 L 112.628906 164.589844 C 100.347656 152.902344 84.074219 146.257812 67.050781 146.257812 C 30.488281 146.257812 0.753906 176 0.753906 212.609375 C 0.753906 249.199219 30.488281 278.9375 67.050781 278.9375 C 83.25 278.9375 98.097656 273.066406 109.628906 263.382812 L 199.382812 304.515625 C 204.238281 336.808594 231.949219 360.957031 264.800781 360.992188 C 301.363281 360.992188 331.097656 331.253906 331.097656 294.664062 C 331.097656 258.074219 301.363281 228.3125 264.800781 228.3125 C 232.324219 228.3125 204.914062 251.917969 199.535156 283.441406 L 122.828125 248.296875 C 129.449219 237.976562 133.328125 225.742188 133.328125 212.609375 C 133.328125 201.085938 130.308594 189.808594 124.648438 179.847656 L 208.25 131.507812 C 223.328125 159.035156 252.539062 177.707031 286.0625 177.707031 C 334.980469 177.707031 374.726562 137.945312 374.726562 88.972656 C 374.726562 40.015625 334.980469 0.238281 286.0625 0.238281 Z M 286.0625 7.910156 C 330.835938 7.910156 367.039062 44.164062 367.039062 88.972656 C 367.039062 110.304688 358.773438 129.632812 345.347656 144.082031 C 340.042969 119.257812 315.421875 100.847656 286.0625 100.847656 C 256.699219 100.847656 232.082031 119.257812 226.777344 144.101562 C 221.546875 138.472656 217.046875 132.148438 213.578125 125.1875 C 213.519531 124.941406 213.425781 124.71875 213.3125 124.492188 C 211.703125 121.132812 210.332031 117.679688 209.1875 114.152344 C 209.078125 113.832031 208.945312 113.535156 208.757812 113.253906 C 206.359375 105.578125 205.0625 97.433594 205.0625 88.972656 C 205.0625 44.164062 241.289062 7.910156 286.0625 7.910156 Z M 287.957031 28.945312 C 269.710938 28.945312 254.804688 43.710938 254.804688 61.859375 C 254.804688 80.019531 269.710938 94.789062 287.957031 94.789062 C 306.199219 94.789062 321.105469 80.019531 321.105469 61.859375 C 321.105469 43.710938 306.199219 28.945312 287.957031 28.945312 Z M 287.957031 36.621094 C 302.074219 36.621094 313.417969 47.898438 313.417969 61.859375 C 313.417969 75.835938 302.074219 87.113281 287.957031 87.113281 C 273.820312 87.113281 262.492188 75.835938 262.492188 61.859375 C 262.492188 47.898438 273.820312 36.621094 287.957031 36.621094 Z M 286.0625 108.542969 C 314.167969 108.542969 336.308594 127.175781 338.464844 150.421875 C 323.84375 162.9375 305.335938 169.976562 286.0625 170.011719 C 266.789062 169.976562 248.28125 162.957031 233.65625 150.460938 C 235.792969 127.195312 257.9375 108.542969 286.0625 108.542969 Z M 203.378906 121.019531 C 203.847656 122.222656 204.332031 123.421875 204.859375 124.605469 L 117.46875 175.117188 L 117.410156 175.15625 L 98.679688 185.980469 L 96.054688 187.484375 L 94.144531 184.160156 L 97.332031 182.304688 L 114 172.679688 L 114.054688 172.640625 Z M 67.03125 153.953125 L 67.050781 153.953125 C 81.300781 153.953125 94.816406 159.394531 105.46875 168.738281 L 95.378906 174.554688 C 92.34375 172.621094 88.929688 171.289062 85.292969 171.289062 C 74.71875 171.289062 66.09375 179.941406 66.09375 190.503906 C 66.09375 201.066406 74.71875 209.71875 85.292969 209.71875 C 95.457031 209.71875 103.648438 201.648438 104.269531 191.628906 L 117.65625 183.878906 C 122.625 192.679688 125.640625 202.457031 125.660156 212.609375 C 125.660156 225.613281 121.40625 237.5625 114.28125 247.285156 C 114.1875 247.378906 114.09375 247.488281 114 247.585938 C 111.730469 250.625 109.179688 253.4375 106.386719 255.992188 C 106.273438 256.085938 106.179688 256.195312 106.085938 256.289062 C 95.71875 265.578125 82.066406 271.265625 67.050781 271.265625 C 34.632812 271.265625 8.4375 245.03125 8.4375 212.609375 C 8.4375 180.164062 34.632812 153.953125 67.03125 153.953125 Z M 85.273438 178.984375 C 86.023438 178.984375 86.753906 179.058594 87.46875 179.207031 C 85.535156 180.710938 84.898438 183.523438 86.15625 185.699219 L 90.730469 193.617188 C 91.667969 195.269531 93.523438 196.132812 95.34375 196.058594 C 93.394531 199.605469 89.660156 202.023438 85.292969 202.023438 C 78.882812 202.023438 73.761719 196.921875 73.761719 190.503906 C 73.761719 184.085938 78.882812 178.984375 85.273438 178.984375 Z M 264.800781 236.007812 C 297.21875 236.007812 323.410156 262.21875 323.410156 294.664062 C 323.410156 327.105469 297.21875 353.320312 264.800781 353.320312 C 237.5 353.28125 214.476562 334.460938 208.15625 308.53125 L 216.820312 312.507812 C 218.863281 320.988281 226.25 327.3125 235.175781 327.332031 C 245.75 327.332031 254.375 318.679688 254.375 308.117188 C 254.375 297.535156 245.75 288.902344 235.175781 288.902344 C 230.46875 288.902344 226.234375 291.003906 222.746094 294.082031 L 206.9375 286.839844 C 210.839844 257.886719 235.324219 236.023438 264.800781 236.007812 Z M 118.273438 254.65625 L 200.996094 292.582031 L 201.015625 292.582031 L 221.601562 302 L 224.152344 303.183594 L 222.539062 306.671875 L 221.640625 306.257812 C 221.601562 306.242188 221.5625 306.222656 221.527344 306.203125 L 115.59375 257.621094 C 116.492188 256.648438 117.429688 255.691406 118.273438 254.65625 Z M 235.175781 296.578125 C 241.589844 296.578125 246.707031 301.699219 246.707031 308.117188 C 246.707031 314.515625 241.589844 319.636719 235.175781 319.636719 C 231.3125 319.636719 227.902344 317.722656 225.800781 314.757812 C 226.925781 314.269531 227.902344 313.445312 228.425781 312.300781 L 232.230469 303.988281 C 233.261719 301.738281 232.402344 298.996094 230.375 297.683594 C 231.855469 296.988281 233.488281 296.597656 235.175781 296.597656 Z M 235.175781 296.578125 " fill-opacity="1" fill-rule="nonzero"/></g></svg>