<?xml version="1.0" encoding="UTF-8"?><svg xmlns="http://www.w3.org/2000/svg" xmlns:xlink="http://www.w3.org/1999/xlink" contentScriptType="text/ecmascript" width="375" zoomAndPan="magnify" contentStyleType="text/css" viewBox="0 0 375 374.999991" height="374.999991" preserveAspectRatio="xMidYMid meet" version="1.0"><defs><filter x="0%" y="0%" width="100%" xmlns:xlink="http://www.w3.org/1999/xlink" xlink:type="simple" xlink:actuate="onLoad" height="100%" id="filter-remove-color" xlink:show="other"><feColorMatrix values="0 0 0 0 1 0 0 0 0 1 0 0 0 0 1 0 0 0 1 0" color-interpolation-filters="sRGB"/></filter><mask id="mask-0"><g filter="url(#filter-remove-color)"><rect x="-37.5" width="450" fill="rgb(0%, 0%, 0%)" y="-37.499999" height="449.999989" fill-opacity="0.7686"/></g></mask><clipPath id="clip-0"><rect x="0" width="359" y="0" height="375"/></clipPath></defs><g mask="url(#mask-0)"><g transform="matrix(1, 0, 0, 1, 0, 0)"><g id="source-5" clip-path="url(#clip-0)"><path fill="rgb(0%, 0%, 0%)" d="M 351.855469 310.089844 L 292.667969 369.214844 C 289.363281 372.515625 285.042969 374.164062 280.710938 374.164062 C 276.382812 374.164062 272.0625 372.515625 268.757812 369.214844 L 209.570312 310.089844 C 202.964844 303.492188 202.964844 292.800781 209.570312 286.203125 C 216.171875 279.605469 226.878906 279.605469 233.480469 286.203125 L 263.800781 316.492188 L 263.800781 120.773438 C 263.800781 111.449219 271.378906 103.882812 280.710938 103.882812 C 290.046875 103.882812 297.621094 111.449219 297.621094 120.773438 L 297.621094 316.492188 L 327.941406 286.203125 C 334.546875 279.605469 345.25 279.605469 351.855469 286.203125 C 358.457031 292.800781 358.457031 303.492188 351.855469 310.089844 Z M 280.710938 36.308594 C 290.054688 36.308594 297.621094 28.75 297.621094 19.417969 C 297.621094 10.085938 290.054688 2.523438 280.710938 2.523438 C 271.371094 2.523438 263.800781 10.085938 263.800781 19.417969 C 263.800781 28.75 271.371094 36.308594 280.710938 36.308594 Z M 280.710938 86.988281 C 290.054688 86.988281 297.621094 79.429688 297.621094 70.097656 C 297.621094 60.761719 290.054688 53.203125 280.710938 53.203125 C 271.371094 53.203125 263.800781 60.761719 263.800781 70.097656 C 263.800781 79.429688 271.371094 86.988281 280.710938 86.988281 Z M 89.742188 7.476562 C 83.148438 0.878906 72.425781 0.878906 65.832031 7.476562 L 6.644531 66.597656 C 0.0429688 73.195312 0.0429688 83.890625 6.644531 90.484375 C 13.242188 97.082031 23.960938 97.082031 30.558594 90.484375 L 60.878906 60.207031 L 60.878906 255.914062 C 60.878906 265.238281 68.453125 272.808594 77.789062 272.808594 C 87.121094 272.808594 94.699219 265.238281 94.699219 255.914062 L 94.699219 60.207031 L 125.019531 90.484375 C 128.316406 93.789062 132.644531 95.433594 136.972656 95.433594 C 141.304688 95.433594 145.632812 93.789062 148.929688 90.484375 C 155.53125 83.890625 155.53125 73.195312 148.929688 66.597656 Z M 77.789062 340.378906 C 68.445312 340.378906 60.878906 347.9375 60.878906 357.273438 C 60.878906 366.605469 68.445312 374.164062 77.789062 374.164062 C 87.128906 374.164062 94.699219 366.605469 94.699219 357.273438 C 94.699219 347.9375 87.128906 340.378906 77.789062 340.378906 Z M 77.789062 289.699219 C 68.445312 289.699219 60.878906 297.261719 60.878906 306.59375 C 60.878906 315.925781 68.445312 323.484375 77.789062 323.484375 C 87.128906 323.484375 94.699219 315.925781 94.699219 306.59375 C 94.699219 297.261719 87.128906 289.699219 77.789062 289.699219 Z M 77.789062 289.699219 " fill-opacity="1" fill-rule="nonzero"/></g></g></g></svg>