<?xml version="1.0" encoding="UTF-8"?><svg xmlns="http://www.w3.org/2000/svg" xmlns:xlink="http://www.w3.org/1999/xlink" contentScriptType="text/ecmascript" width="375" zoomAndPan="magnify" contentStyleType="text/css" viewBox="0 0 375 374.999991" height="374.999991" preserveAspectRatio="xMidYMid meet" version="1.0"><defs><clipPath id="clip-0"><path d="M 0 82.5 L 375 82.5 L 375 292.5 L 0 292.5 Z M 0 82.5 " clip-rule="nonzero"/></clipPath></defs><g clip-path="url(#clip-0)"><path fill="rgb(32.159424%, 33.729553%, 36.859131%)" d="M 105 82.5 L 270 82.5 C 327.890625 82.5 375 129.609375 375 187.5 C 375 245.390625 327.890625 292.5 270 292.5 L 105 292.5 C 47.109375 292.5 0 245.390625 0 187.5 C 0 129.609375 47.109375 82.5 105 82.5 Z M 105 277.5 C 154.628906 277.5 195 237.128906 195 187.5 C 195 137.871094 154.628906 97.5 105 97.5 C 55.371094 97.5 15 137.871094 15 187.5 C 15 237.128906 55.371094 277.5 105 277.5 Z M 105 277.5 " fill-opacity="1" fill-rule="nonzero"/></g></svg>