<svg xmlns="http://www.w3.org/2000/svg" width="810" viewBox="0 0 810 810" height="810" version="1.0"><defs><clipPath id="a"><path d="M 107.832031 0 L 701.832031 0 L 701.832031 810 L 107.832031 810 Z M 107.832031 0"/></clipPath></defs><g clip-path="url(#a)"><path d="M 647.695312 0 L 161.964844 0 C 132.191406 0 107.996094 24.210938 107.996094 54 L 107.996094 756 C 107.996094 785.789062 132.191406 810 161.964844 810 L 647.695312 810 C 677.46875 810 701.667969 785.789062 701.667969 756 L 701.667969 54 C 701.667969 24.210938 677.46875 0 647.695312 0 Z M 665.6875 756 C 665.6875 765.898438 657.589844 774 647.695312 774 L 161.964844 774 C 152.070312 774 143.976562 765.898438 143.976562 756 L 143.976562 54 C 143.976562 44.101562 152.070312 36 161.964844 36 L 647.695312 36 C 657.589844 36 665.6875 44.101562 665.6875 54 Z M 665.6875 756"/></g><path d="M 305.886719 162 L 215.9375 162 C 206.042969 162 197.945312 170.101562 197.945312 180 L 197.945312 270 C 197.945312 279.898438 206.042969 288 215.9375 288 L 305.886719 288 C 315.78125 288 323.875 279.898438 323.875 270 L 323.875 180 C 323.875 170.101562 315.78125 162 305.886719 162 Z M 287.894531 252 L 233.925781 252 L 233.925781 198 L 287.894531 198 Z M 287.894531 252"/><path d="M 386.839844 198 L 458.800781 198 C 468.695312 198 476.792969 189.898438 476.792969 180 C 476.792969 170.101562 468.695312 162 458.800781 162 L 386.839844 162 C 376.945312 162 368.851562 170.101562 368.851562 180 C 368.851562 189.898438 376.945312 198 386.839844 198 Z M 386.839844 198"/><path d="M 593.726562 252 L 386.839844 252 C 376.945312 252 368.851562 260.101562 368.851562 270 C 368.851562 279.898438 376.945312 288 386.839844 288 L 593.726562 288 C 603.621094 288 611.71875 279.898438 611.71875 270 C 611.71875 260.101562 603.621094 252 593.726562 252 Z M 593.726562 252"/><path d="M 305.886719 342 L 215.9375 342 C 206.042969 342 197.945312 350.101562 197.945312 360 L 197.945312 450 C 197.945312 459.898438 206.042969 468 215.9375 468 L 305.886719 468 C 315.78125 468 323.875 459.898438 323.875 450 L 323.875 360 C 323.875 350.101562 315.78125 342 305.886719 342 Z M 287.894531 432 L 233.925781 432 L 233.925781 378 L 287.894531 378 Z M 287.894531 432"/><path d="M 386.839844 378 L 458.800781 378 C 468.695312 378 476.792969 369.898438 476.792969 360 C 476.792969 350.101562 468.695312 342 458.800781 342 L 386.839844 342 C 376.945312 342 368.851562 350.101562 368.851562 360 C 368.851562 369.898438 376.945312 378 386.839844 378 Z M 386.839844 378"/><path d="M 593.726562 432 L 386.839844 432 C 376.945312 432 368.851562 440.101562 368.851562 450 C 368.851562 459.898438 376.945312 468 386.839844 468 L 593.726562 468 C 603.621094 468 611.71875 459.898438 611.71875 450 C 611.71875 440.101562 603.621094 432 593.726562 432 Z M 593.726562 432"/><path d="M 305.886719 522 L 215.9375 522 C 206.042969 522 197.945312 530.101562 197.945312 540 L 197.945312 630 C 197.945312 639.898438 206.042969 648 215.9375 648 L 305.886719 648 C 315.78125 648 323.875 639.898438 323.875 630 L 323.875 540 C 323.875 530.101562 315.78125 522 305.886719 522 Z M 287.894531 612 L 233.925781 612 L 233.925781 558 L 287.894531 558 Z M 287.894531 612"/><path d="M 386.839844 558 L 458.800781 558 C 468.695312 558 476.792969 549.898438 476.792969 540 C 476.792969 530.101562 468.695312 522 458.800781 522 L 386.839844 522 C 376.945312 522 368.851562 530.101562 368.851562 540 C 368.851562 549.898438 376.945312 558 386.839844 558 Z M 386.839844 558"/><path d="M 593.726562 612 L 386.839844 612 C 376.945312 612 368.851562 620.101562 368.851562 630 C 368.851562 639.898438 376.945312 648 386.839844 648 L 593.726562 648 C 603.621094 648 611.71875 639.898438 611.71875 630 C 611.71875 620.101562 603.621094 612 593.726562 612 Z M 593.726562 612"/></svg>