<svg xmlns="http://www.w3.org/2000/svg" width="810" viewBox="0 0 810 810" height="810" version="1.0"><defs><clipPath id="a"><path d="M 0 20.25 L 807 20.25 L 807 789.75 L 0 789.75 Z M 0 20.25"/></clipPath></defs><path fill="#231F20" d="M 339.753906 405.5625 L 356.484375 386.847656 C 360.863281 381.882812 366.746094 378.144531 373.660156 376.472656 C 376.335938 375.824219 378.996094 375.554688 381.628906 375.566406 L 268.726562 275.839844 C 258.332031 266.675781 242.464844 267.65625 233.289062 278.050781 C 224.113281 288.433594 225.09375 304.300781 235.488281 313.476562 L 339.753906 405.5625"/><path fill="#231F20" d="M 213.976562 595.398438 C 217.011719 598.125 220.796875 599.457031 224.574219 599.457031 C 228.910156 599.457031 233.238281 597.691406 236.375 594.203125 L 373.671875 441.433594 L 380.328125 434.011719 L 384.933594 428.890625 C 385.386719 428.808594 385.839844 428.746094 386.285156 428.632812 C 397.15625 426 403.832031 415.058594 401.203125 404.199219 C 398.570312 393.328125 387.628906 386.652344 376.769531 389.285156 C 371.007812 390.675781 366.445312 394.414062 363.804688 399.222656 C 362.378906 401.816406 361.5 404.707031 361.316406 407.730469 L 352.863281 417.132812 L 350.066406 420.242188 L 337.253906 434.503906 L 212.789062 573.011719 C 206.933594 579.523438 207.460938 589.546875 213.976562 595.398438"/><path fill="#231F20" d="M 404.328125 113.65625 C 404.328125 99.792969 393.089844 88.554688 379.226562 88.554688 C 365.363281 88.554688 354.121094 99.792969 354.121094 113.65625 L 354.121094 154.191406 C 354.121094 168.054688 365.363281 179.296875 379.226562 179.296875 C 393.089844 179.296875 404.328125 168.054688 404.328125 154.191406 L 404.328125 113.65625"/><path fill="#231F20" d="M 377.707031 729.21875 C 391.570312 729.21875 402.8125 717.976562 402.8125 704.113281 L 402.8125 663.578125 C 402.8125 649.714844 391.570312 638.476562 377.707031 638.476562 C 363.84375 638.476562 352.605469 649.714844 352.605469 663.578125 L 352.605469 704.113281 C 352.605469 717.976562 363.84375 729.21875 377.707031 729.21875"/><path fill="#231F20" d="M 123.769531 383.019531 L 83.234375 383.019531 C 69.371094 383.019531 58.128906 394.257812 58.128906 408.121094 C 58.128906 421.996094 69.371094 433.226562 83.234375 433.226562 L 123.769531 433.226562 C 137.632812 433.226562 148.871094 421.996094 148.871094 408.121094 C 148.871094 394.257812 137.632812 383.019531 123.769531 383.019531"/><g clip-path="url(#a)"><path fill="#231F20" d="M 605.636719 341.253906 L 485.574219 341.253906 L 622.894531 182.753906 L 655.933594 144.613281 L 726.964844 62.625 L 645.003906 264.457031 L 763.949219 264.457031 L 485.574219 556.503906 Z M 763.949219 222.175781 L 707.804688 222.175781 L 765.703125 79.605469 C 767.984375 74.402344 769.253906 68.664062 769.253906 62.625 C 769.253906 40.523438 752.292969 22.375 730.667969 20.507812 C 729.441406 20.394531 728.210938 20.34375 726.984375 20.34375 C 726.3125 20.34375 725.632812 20.355469 724.949219 20.394531 C 717.652344 20.734375 710.828125 22.925781 704.964844 26.515625 C 701.652344 28.527344 698.585938 31.015625 695.863281 33.980469 C 695.511719 34.359375 695.171875 34.742188 694.839844 35.136719 L 624.9375 115.816406 C 557.007812 59.394531 471.074219 27.910156 381.527344 27.910156 C 171.445312 27.910156 0.539062 198.816406 0.539062 408.886719 C 0.539062 618.964844 171.445312 789.871094 381.527344 789.871094 C 583.484375 789.871094 750.558594 632.066406 761.90625 430.625 C 762.679688 416.78125 752.089844 404.921875 738.246094 404.136719 C 724.363281 403.40625 712.554688 413.953125 711.769531 427.796875 C 701.921875 602.675781 556.871094 739.664062 381.527344 739.664062 C 199.140625 739.664062 50.75 591.28125 50.75 408.886719 C 50.75 226.5 199.140625 78.117188 381.527344 78.117188 C 458.914062 78.117188 533.191406 105.214844 592.050781 153.78125 L 453.617188 313.570312 C 442.78125 326.082031 440.242188 343.761719 447.113281 358.824219 C 453.988281 373.871094 469.019531 383.535156 485.574219 383.535156 L 533.636719 383.535156 L 448.644531 535.914062 C 438.277344 554.503906 443.347656 577.914062 460.480469 590.539062 C 467.996094 596.082031 476.800781 598.785156 485.554688 598.785156 C 496.777344 598.785156 507.921875 594.335938 516.171875 585.675781 L 794.554688 293.625 C 806.226562 281.382812 809.46875 263.363281 802.8125 247.816406 C 796.152344 232.261719 780.867188 222.175781 763.949219 222.175781"/></g></svg>