<svg xmlns="http://www.w3.org/2000/svg" width="810" viewBox="0 0 810 810" height="810" version="1.0"><defs><clipPath id="a"><path d="M 0 32.90625 L 810 32.90625 L 810 776.90625 L 0 776.90625 Z M 0 32.90625"/></clipPath></defs><g clip-path="url(#a)"><path d="M 405 32.90625 C 268.21875 32.90625 156.9375 144.160156 156.9375 280.90625 C 156.9375 345.8125 193.25 394.300781 228.386719 441.207031 C 256.4375 478.683594 282.855469 514.375 287.496094 555.011719 L 287.496094 646.378906 C 287.496094 692.320312 321.617188 730.355469 365.832031 736.730469 L 365.832031 750.800781 C 365.832031 765.179688 377.5625 776.90625 391.945312 776.90625 L 418.054688 776.90625 C 432.4375 776.90625 444.167969 765.179688 444.167969 750.800781 L 444.167969 736.730469 C 488.382812 730.355469 522.503906 692.320312 522.503906 646.378906 L 522.503906 566.738281 C 522.707031 521.105469 551.523438 482.304688 582.070312 441.207031 C 617.003906 394.300781 653.0625 345.8125 653.0625 280.90625 C 653.0625 144.160156 541.78125 32.90625 405 32.90625 Z M 405 59.011719 C 527.398438 59.011719 626.949219 158.539062 626.949219 280.90625 C 626.949219 337.195312 593.496094 382.167969 561.160156 425.65625 C 531.886719 465.019531 501.695312 505.554688 497.003906 554.195312 L 418.054688 554.195312 L 418.054688 515.855469 C 418.054688 508.664062 412.191406 502.800781 405 502.800781 C 397.808594 502.800781 391.945312 508.664062 391.945312 515.855469 L 391.945312 554.246094 L 313.964844 554.246094 C 309.222656 505.605469 278.777344 464.96875 249.296875 425.554688 C 216.710938 382.0625 183.050781 337.144531 183.050781 280.90625 C 183.050781 158.539062 282.601562 59.011719 405 59.011719 Z M 403.214844 98.117188 C 368.332031 98.425781 334.261719 108.671875 304.632812 128.148438 C 298.613281 132.074219 296.984375 140.183594 300.960938 146.199219 C 303.460938 150.023438 307.589844 152.0625 311.824219 152.0625 C 314.324219 152.0625 316.769531 151.398438 319.015625 149.921875 C 352.828125 127.691406 393.472656 119.53125 433.507812 126.875 C 440.648438 128.148438 447.433594 123.457031 448.707031 116.371094 C 450.03125 109.285156 445.339844 102.503906 438.25 101.230469 C 426.574219 99.035156 414.894531 98.015625 403.214844 98.117188 Z M 494.554688 122.644531 C 489.558594 121.929688 484.304688 124.222656 481.5 128.8125 C 477.777344 135.03125 479.765625 143.039062 485.988281 146.761719 C 496.75 153.285156 506.796875 161.136719 515.769531 170.164062 C 518.320312 172.710938 521.6875 173.988281 525.003906 173.988281 C 528.367188 173.988281 531.734375 172.710938 534.285156 170.164062 C 539.382812 165.0625 539.382812 156.804688 534.285156 151.707031 C 523.726562 141.203125 512.046875 132.023438 499.453125 124.425781 C 497.921875 123.511719 496.238281 122.898438 494.554688 122.644531 Z M 65.851562 130.953125 C 60.753906 131.054688 55.957031 134.113281 53.917969 139.113281 C 51.265625 145.792969 54.480469 153.4375 61.160156 156.089844 L 109.609375 175.667969 C 111.191406 176.332031 112.824219 176.636719 114.453125 176.636719 C 119.605469 176.636719 124.550781 173.527344 126.59375 168.480469 C 129.296875 161.75 126.03125 154.152344 119.351562 151.449219 L 70.953125 131.871094 C 69.269531 131.207031 67.535156 130.902344 65.851562 130.953125 Z M 744.148438 130.953125 C 742.464844 130.902344 740.730469 131.207031 739.046875 131.871094 L 690.648438 151.449219 C 683.96875 154.152344 680.703125 161.75 683.40625 168.480469 C 685.445312 173.527344 690.394531 176.636719 695.546875 176.636719 C 697.175781 176.636719 698.808594 176.332031 700.390625 175.667969 L 748.839844 156.089844 C 755.519531 153.4375 758.734375 145.792969 756.082031 139.113281 C 754.042969 134.113281 749.246094 131.054688 744.148438 130.953125 Z M 13.324219 267.855469 C 6.132812 267.855469 0.265625 273.71875 0.265625 280.90625 C 0.265625 288.09375 6.132812 293.957031 13.324219 293.957031 L 91.65625 293.957031 C 98.847656 293.957031 104.714844 288.09375 104.714844 280.90625 C 104.714844 273.71875 98.847656 267.855469 91.65625 267.855469 Z M 718.34375 267.855469 C 711.152344 267.855469 705.285156 273.71875 705.285156 280.90625 C 705.285156 288.09375 711.152344 293.957031 718.34375 293.957031 L 796.675781 293.957031 C 803.867188 293.957031 809.734375 288.09375 809.734375 280.90625 C 809.734375 273.71875 803.867188 267.855469 796.675781 267.855469 Z M 352.777344 320.0625 C 349.460938 320.0625 346.09375 321.339844 343.546875 323.886719 C 338.445312 328.988281 338.445312 337.246094 343.546875 342.34375 L 369.65625 368.449219 C 372.207031 371 375.523438 372.273438 378.886719 372.273438 C 382.253906 372.273438 385.570312 371 388.117188 368.449219 C 393.21875 363.351562 393.21875 355.09375 388.117188 349.992188 L 362.007812 323.886719 C 359.457031 321.339844 356.089844 320.0625 352.777344 320.0625 Z M 457.222656 320.0625 C 453.910156 320.0625 450.542969 321.339844 447.992188 323.886719 L 395.769531 376.097656 C 393.320312 378.546875 391.945312 381.859375 391.945312 385.328125 L 391.945312 463.644531 C 391.945312 470.832031 397.808594 476.695312 405 476.695312 C 412.191406 476.695312 418.054688 470.832031 418.054688 463.644531 L 418.054688 390.730469 L 466.453125 342.34375 C 471.554688 337.246094 471.554688 328.988281 466.453125 323.886719 C 463.90625 321.339844 460.539062 320.0625 457.222656 320.0625 Z M 114.710938 385.175781 C 112.976562 385.175781 111.242188 385.480469 109.609375 386.144531 L 61.160156 405.722656 C 54.480469 408.375 51.265625 416.019531 53.917969 422.699219 C 56.007812 427.800781 60.90625 430.859375 66.054688 430.859375 C 67.6875 430.859375 69.371094 430.550781 70.953125 429.941406 L 119.351562 410.363281 C 126.03125 407.660156 129.296875 400.0625 126.59375 393.332031 C 124.550781 388.335938 119.757812 385.277344 114.710938 385.175781 Z M 695.289062 385.226562 C 690.242188 385.328125 685.445312 388.386719 683.40625 393.382812 C 680.703125 400.0625 683.96875 407.710938 690.648438 410.414062 L 739.046875 429.941406 C 740.628906 430.605469 742.3125 430.859375 743.945312 430.859375 C 749.09375 430.859375 753.992188 427.800781 756.082031 422.699219 C 758.734375 416.019531 755.519531 408.425781 748.839844 405.722656 L 700.390625 386.144531 C 698.757812 385.480469 697.023438 385.175781 695.289062 385.226562 Z M 313.609375 581.117188 L 496.390625 581.117188 L 496.390625 595.699219 L 313.609375 618.542969 Z M 496.390625 622.007812 L 496.390625 646.378906 C 496.390625 646.890625 496.238281 647.398438 496.238281 647.960938 L 363.640625 664.53125 C 356.5 665.398438 351.449219 671.925781 352.367188 679.0625 C 353.183594 685.691406 358.792969 690.484375 365.269531 690.484375 C 365.832031 690.484375 366.34375 690.484375 366.902344 690.382812 L 489.457031 675.085938 C 478.796875 696.652344 456.765625 711.644531 431.113281 711.644531 L 378.886719 711.644531 C 342.882812 711.644531 313.609375 682.375 313.609375 646.378906 L 313.609375 644.851562 Z M 391.945312 737.75 L 418.054688 737.75 L 418.054688 750.800781 L 391.945312 750.800781 Z M 391.945312 737.75"/></g></svg>