<svg xmlns="http://www.w3.org/2000/svg" width="810" viewBox="0 0 810 810" height="810" version="1.0"><path d="M 405 0 C 181.339844 0 0 181.339844 0 405 C 0 628.660156 181.339844 810 405 810 C 628.660156 810 810 628.660156 810 405 C 810 181.339844 628.660156 0 405 0 Z M 252.988281 182.351562 C 281.40625 182.351562 300.339844 201.285156 300.339844 226.53125 C 300.339844 251.773438 281.40625 270.707031 249.851562 270.707031 C 221.433594 270.742188 202.5 251.773438 202.5 226.53125 C 202.5 201.285156 221.433594 182.351562 252.988281 182.351562 Z M 303.75 573.75 L 202.5 573.75 L 202.5 303.75 L 303.75 303.75 Z M 641.25 573.75 L 545.941406 573.75 L 545.941406 426.195312 C 545.941406 385.390625 520.527344 375.976562 511.007812 375.976562 C 501.492188 375.976562 469.699219 382.253906 469.699219 426.195312 C 469.699219 432.472656 469.699219 573.75 469.699219 573.75 L 371.25 573.75 L 371.25 303.75 L 469.734375 303.75 L 469.734375 341.414062 C 482.421875 319.445312 507.835938 303.75 555.492188 303.75 C 603.144531 303.75 641.25 341.414062 641.25 426.195312 Z M 641.25 573.75"/></svg>