<svg xmlns="http://www.w3.org/2000/svg" width="810" viewBox="0 0 810 810" height="810" version="1.0"><path fill="#201E1D" d="M 331.363281 771.207031 C 324.28125 765.273438 319.140625 758.070312 320.617188 750.109375 C 324.632812 728.414062 339.097656 748.507812 339.097656 736.453125 C 339.097656 724.398438 331.855469 721.992188 331.855469 721.992188 C 342.304688 719.582031 347.925781 708.328125 355.160156 702.703125 C 362.398438 697.082031 367.214844 672.980469 367.214844 672.980469 C 400.964844 673.789062 404.171875 626.382812 412.203125 615.9375 C 420.242188 605.488281 457.207031 595.042969 429.890625 582.1875 C 402.570312 569.332031 394.53125 572.546875 372.039062 563.699219 C 349.542969 554.871094 332.664062 555.679688 332.664062 555.679688 C 335.882812 553.261719 339.90625 523.535156 310.972656 520.320312 C 282.054688 517.105469 259.550781 494.609375 259.550781 494.609375 C 231.425781 497.027344 212.957031 480.949219 212.957031 480.949219 C 191.261719 480.148438 181.621094 502.652344 181.621094 502.652344 C 167.960938 493.8125 156.714844 502.652344 156.714844 502.652344 C 146.265625 496.21875 145.457031 484.964844 145.457031 484.964844 C 145.457031 458.453125 138.234375 462.46875 138.234375 462.46875 C 118.140625 462.46875 122.164062 456.039062 122.164062 456.039062 C 121.355469 445.597656 127.789062 425.511719 127.789062 425.511719 C 115.730469 425.511719 109.300781 435.152344 109.300781 435.152344 C 82.792969 468.902344 70.734375 397.386719 83.589844 379.71875 C 96.445312 362.039062 111.726562 374.09375 111.726562 374.09375 C 114.125 368.460938 142.25 360.429688 143.050781 374.09375 C 143.847656 387.75 156.714844 403.820312 156.714844 403.820312 C 159.121094 388.355469 156.105469 359.023438 156.105469 359.023438 C 188.644531 339.140625 183.828125 326.480469 183.828125 326.480469 C 194.074219 287.316406 222.394531 292.132812 222.394531 292.132812 C 218.167969 274.65625 251.320312 266.828125 251.320312 266.828125 C 244.261719 282.484375 274.214844 266.21875 274.214844 266.21875 C 283.25 257.785156 270.597656 259.605469 270.597656 259.605469 C 252.523438 263.214844 259.753906 240.914062 259.753906 240.914062 C 240.757812 239.457031 231.609375 248.613281 228.796875 252.1875 C 241.8125 233.648438 256.140625 231.875 256.140625 231.875 C 288.546875 233.675781 296.402344 229.765625 298.308594 227.664062 C 293.601562 236.582031 282.503906 248.171875 305.550781 248.753906 C 329.652344 249.359375 333.867188 239.105469 318.808594 237.304688 C 303.738281 235.492188 307.964844 228.859375 307.964844 228.859375 C 323.625 204.160156 288.679688 193.914062 289.285156 192.105469 C 289.882812 190.296875 288.679688 153.539062 282.054688 164.382812 C 275.421875 175.226562 261.5625 175.226562 261.5625 175.226562 C 261.5625 175.226562 259.753906 152.933594 238.058594 151.125 C 216.367188 149.324219 219.976562 155.949219 219.976562 169.804688 C 219.976562 183.671875 233.84375 182.464844 214.554688 192.105469 C 195.277344 201.746094 197.683594 211.390625 194.671875 222.234375 C 191.65625 233.085938 187.441406 224.042969 187.441406 224.042969 C 188.644531 190.296875 182.019531 193.914062 182.019531 193.914062 C 145.265625 182.464844 159.71875 169.804688 178.398438 149.324219 C 197.078125 128.839844 215.160156 139.078125 215.160156 139.078125 C 232.636719 141.484375 210.347656 126.417969 215.160156 126.417969 C 219.976562 126.417969 232.636719 115.574219 240.476562 107.734375 C 248.304688 99.90625 238.058594 98.105469 225.40625 105.933594 C 212.753906 113.765625 223.597656 86.050781 223.597656 86.050781 C 217.570312 84.242188 215.769531 105.335938 185.03125 110.757812 C 180.417969 111.566406 176.695312 111.902344 173.671875 111.890625 C 237.320312 61.546875 317.703125 31.441406 404.980469 31.441406 C 481.78125 31.441406 553.246094 54.761719 612.675781 94.671875 C 612.476562 94.742188 612.265625 94.800781 612.0625 94.890625 C 603.820312 98.5 607.054688 102.527344 607.054688 102.527344 C 611.070312 116.585938 616.28125 140.6875 607.851562 146.714844 C 599.417969 152.734375 603.835938 157.960938 603.835938 157.960938 C 626.332031 202.957031 620.707031 157.960938 634.777344 174.03125 C 648.835938 190.09375 635.566406 196.523438 650.433594 196.929688 C 665.300781 197.332031 670.921875 173.628906 658.070312 166.394531 C 645.214844 159.171875 641.996094 130.238281 641.996094 130.238281 C 648.429688 127.03125 649.230469 132.25 649.230469 132.25 C 647.226562 136.671875 655.660156 159.171875 663.296875 161.984375 C 670.921875 164.789062 673.734375 166.800781 676.546875 180.058594 C 679.359375 193.316406 682.574219 191.703125 682.574219 191.703125 C 686.996094 207.375 666.503906 200.953125 644.808594 205.769531 C 623.125 210.582031 629.152344 223.449219 629.152344 223.449219 L 621.910156 223.449219 L 617.894531 233.480469 C 581.738281 251.96875 610.664062 254.375 610.664062 254.375 C 610.664062 254.375 626.726562 278.476562 607.195312 279.285156 C 587.660156 280.085938 582.546875 291.332031 580.929688 306.605469 C 579.324219 321.875 602.632812 325.074219 602.632812 325.074219 L 607.195312 333.914062 C 607.195312 333.914062 586.5625 349.984375 581.738281 367.671875 C 576.925781 385.339844 551.214844 407.035156 547.988281 411.851562 C 544.78125 416.675781 556.03125 441.582031 545.582031 456.039062 C 535.144531 470.5 545.582031 484.964844 545.582031 484.964844 C 556.839844 485.773438 573.699219 540.40625 594.59375 529.960938 C 595.992188 529.265625 597.363281 528.617188 598.707031 528.027344 C 617.457031 519.722656 630.75 521.121094 630.75 521.121094 C 656.460938 509.882812 658.867188 530.769531 658.867188 530.769531 C 675.746094 525.144531 673.339844 542.015625 673.339844 542.015625 C 652.445312 565.316406 671.722656 563.699219 664.5 595.84375 C 657.269531 627.984375 636.375 628.792969 634.777344 653.691406 C 633.167969 678.601562 604.234375 713.152344 604.234375 713.152344 C 604.234375 713.152344 605.726562 716.289062 611.457031 716.09375 C 552.261719 755.503906 481.265625 778.507812 404.980469 778.507812 C 379.789062 778.507812 355.175781 775.984375 331.363281 771.207031 Z M 31.441406 404.980469 C 31.441406 394.777344 31.871094 384.671875 32.679688 374.675781 C 42.320312 398.660156 57.546875 411.753906 57.082031 420.699219 C 56.28125 435.953125 53.066406 443.992188 82.792969 456.039062 C 112.515625 468.09375 127.789062 486.582031 134.21875 493.003906 C 140.632812 499.433594 154.296875 517.105469 163.136719 510.683594 C 171.976562 504.242188 193.667969 529.960938 182.421875 540.40625 C 171.167969 550.855469 176.800781 566.925781 176.800781 566.925781 C 176.800781 566.925781 194.46875 627.183594 233.035156 637.621094 C 271.605469 648.070312 265.175781 661.734375 265.175781 661.734375 C 264.289062 718.589844 293.847656 751.128906 320.460938 768.859375 C 155.070312 730.460938 31.441406 581.890625 31.441406 404.980469 Z M 645.609375 285.710938 C 644.808594 277.265625 658.867188 280.886719 658.867188 280.886719 C 661.679688 271.640625 669.71875 275.261719 669.71875 275.261719 C 670.113281 279.683594 682.980469 292.941406 693.417969 296.957031 C 703.863281 300.972656 707.863281 307.554688 698.636719 312.023438 C 689.417969 316.488281 697.441406 319.855469 697.441406 319.855469 C 703.054688 324.273438 708.6875 310.621094 708.292969 302.183594 C 707.878906 293.75 703.863281 292.132812 697.039062 287.316406 C 690.210938 282.492188 680.957031 267.230469 680.957031 267.230469 C 715.910156 284.503906 718.730469 309.40625 723.949219 316.636719 C 729.160156 323.878906 727.570312 333.515625 732.789062 321.867188 C 738.007812 310.214844 717.519531 306.199219 732.386719 296.957031 C 747.246094 287.722656 741.628906 261.203125 741.628906 261.203125 C 748.035156 271.871094 751.875 271.210938 753.367188 270.269531 C 755.714844 276.324219 757.910156 282.46875 759.949219 288.671875 C 758.148438 287.476562 756.488281 286.710938 755.285156 287.316406 C 752.066406 288.925781 756.902344 292.941406 747.261719 294.953125 C 737.605469 296.957031 742.832031 308.203125 742.832031 308.203125 C 746.453125 329.5 768.542969 330.300781 768.542969 330.300781 L 768.542969 360.429688 C 749.660156 360.824219 732.789062 348.382812 732.789062 348.382812 C 721.542969 345.167969 723.140625 362.839844 723.140625 362.839844 C 691.011719 331.503906 681.765625 365.660156 685.386719 334.757812 C 688.996094 303.871094 641.199219 333.914062 623.519531 334.722656 C 605.839844 335.53125 614.277344 323.070312 614.277344 323.070312 C 634.363281 326.277344 633.96875 291.738281 635.980469 294.144531 C 637.984375 296.550781 646.417969 294.144531 645.609375 285.710938 Z M 404.980469 -0.0507812 C 181.648438 -0.0507812 -0.0507812 181.648438 -0.0507812 404.980469 C -0.0507812 628.308594 181.648438 810 404.980469 810 C 628.308594 810 810 628.308594 810 404.980469 C 810 181.648438 628.308594 -0.0507812 404.980469 -0.0507812"/><path fill="#201E1D" d="M 139.035156 420.699219 C 139.035156 420.699219 150.148438 419.082031 167.890625 431.945312 C 185.628906 444.800781 192.0625 431.945312 192.0625 431.945312 C 192.0625 431.945312 152.6875 407.359375 139.035156 420.699219"/><path fill="#201E1D" d="M 198.492188 440.378906 C 198.492188 440.378906 204.117188 448.816406 214.554688 446.804688 C 225.003906 444.800781 230.222656 445.011719 235.84375 447.109375 C 235.84375 447.109375 208.933594 430.742188 198.492188 440.378906"/><path fill="#201E1D" d="M 582.144531 196.324219 C 582.144531 202.648438 592.082031 202.351562 589.375 215.003906 C 586.660156 227.65625 590.421875 233.324219 593.890625 232.777344 C 593.890625 232.777344 612.871094 230.371094 616.492188 224.949219 C 620.101562 219.527344 624.925781 213.800781 609.25 209.574219 C 593.59375 205.363281 592.996094 183.671875 589.972656 180.359375 C 586.957031 177.046875 577.617188 180.050781 578.820312 173.425781 C 580.035156 166.800781 562.558594 175.226562 569.480469 182.464844 C 576.414062 189.699219 582.144531 189.996094 582.144531 196.324219"/><path fill="#201E1D" d="M 567.855469 224.949219 C 570.386719 223.4375 579.726562 222.234375 580.34375 211.691406 C 580.929688 201.136719 576.589844 197.226562 574.09375 197.226562 C 571.597656 197.226562 562.679688 197.226562 565.265625 211.09375 C 567.855469 224.949219 567.855469 224.949219 567.855469 224.949219"/></svg>