<svg xmlns="http://www.w3.org/2000/svg" width="810" viewBox="0 0 810 810" height="810" version="1.0"><path d="M 751.898438 767.6875 L 68.355469 767.6875 C 49.351562 767.6875 32.84375 759.859375 23.035156 746.289062 C 13.226562 732.71875 11.074219 714.53125 17.089844 696.546875 L 53.042969 588.761719 C 64.320312 554.882812 101.0625 528.390625 136.707031 528.390625 L 683.542969 528.390625 C 719.191406 528.390625 755.964844 554.882812 767.210938 588.761719 L 803.164062 696.546875 C 809.179688 714.53125 806.957031 732.71875 797.21875 746.289062 C 787.441406 759.859375 770.933594 767.6875 751.898438 767.6875 Z M 136.707031 562.574219 C 115.964844 562.574219 92.003906 579.839844 85.441406 599.53125 L 49.488281 707.316406 C 46.960938 714.941406 47.402344 721.605469 50.753906 726.324219 C 54.101562 730.9375 60.355469 733.503906 68.355469 733.503906 L 751.898438 733.503906 C 759.894531 733.503906 766.152344 730.9375 769.535156 726.324219 C 772.917969 721.675781 773.292969 714.941406 770.765625 707.316406 L 734.808594 599.53125 C 728.28125 579.839844 704.289062 562.574219 683.542969 562.574219 Z M 136.707031 562.574219"/><path d="M 683.542969 562.574219 L 136.707031 562.574219 C 99.011719 562.574219 68.355469 531.945312 68.355469 494.203125 L 68.355469 152.351562 C 68.355469 114.609375 99.011719 83.980469 136.707031 83.980469 L 683.542969 83.980469 C 721.277344 83.980469 751.898438 114.609375 751.898438 152.351562 L 751.898438 494.203125 C 751.898438 531.945312 721.277344 562.574219 683.542969 562.574219 Z M 136.707031 118.164062 C 117.878906 118.164062 102.53125 133.511719 102.53125 152.351562 L 102.53125 494.203125 C 102.53125 513.039062 117.878906 528.390625 136.707031 528.390625 L 683.542969 528.390625 C 702.375 528.390625 717.722656 513.039062 717.722656 494.203125 L 717.722656 152.351562 C 717.722656 133.511719 702.375 118.164062 683.542969 118.164062 Z M 136.707031 118.164062"/><path d="M 205.0625 630.945312 L 170.886719 630.945312 C 161.453125 630.945312 153.796875 623.253906 153.796875 613.855469 C 153.796875 604.453125 161.453125 596.761719 170.886719 596.761719 L 205.0625 596.761719 C 214.496094 596.761719 222.152344 604.453125 222.152344 613.855469 C 222.152344 623.253906 214.496094 630.945312 205.0625 630.945312 Z M 205.0625 630.945312"/><path d="M 649.367188 630.945312 L 273.417969 630.945312 C 263.984375 630.945312 256.328125 623.253906 256.328125 613.855469 C 256.328125 604.453125 263.984375 596.761719 273.417969 596.761719 L 649.367188 596.761719 C 658.765625 596.761719 666.457031 604.453125 666.457031 613.855469 C 666.457031 623.253906 658.765625 630.945312 649.367188 630.945312 Z M 649.367188 630.945312"/><path d="M 683.542969 699.316406 L 136.707031 699.316406 C 127.277344 699.316406 119.621094 691.625 119.621094 682.226562 C 119.621094 672.824219 127.277344 665.132812 136.707031 665.132812 L 683.542969 665.132812 C 692.941406 665.132812 700.632812 672.824219 700.632812 682.226562 C 700.632812 691.625 692.941406 699.316406 683.542969 699.316406 Z M 683.542969 699.316406"/></svg>