<svg xmlns="http://www.w3.org/2000/svg" width="810" viewBox="0 0 810 810" height="810" version="1.0"><defs><clipPath id="a"><path d="M 161.492188 0 L 648.242188 0 L 648.242188 810 L 161.492188 810 Z M 161.492188 0"/></clipPath></defs><g clip-path="url(#a)"><path fill="#231F20" d="M 548.117188 -0.015625 L 261.617188 -0.015625 C 206.382812 -0.015625 161.609375 44.785156 161.609375 100.039062 L 161.609375 709.960938 C 161.609375 765.214844 206.382812 810.015625 261.617188 810.015625 L 548.117188 810.015625 C 603.355469 810.015625 648.128906 765.214844 648.128906 709.960938 L 648.128906 100.039062 C 648.128906 44.785156 603.355469 -0.015625 548.117188 -0.015625 Z M 548.117188 19.457031 C 592.535156 19.457031 628.667969 55.605469 628.667969 100.039062 L 628.667969 709.960938 C 628.667969 754.394531 592.535156 790.542969 548.117188 790.542969 L 261.617188 790.542969 C 217.199219 790.542969 181.070312 754.394531 181.070312 709.960938 L 181.070312 100.039062 C 181.070312 55.605469 217.199219 19.457031 261.617188 19.457031 L 548.117188 19.457031"/></g><path fill="#231F20" d="M 564.039062 135.582031 L 248.574219 135.582031 C 227.097656 135.582031 209.683594 153.007812 209.683594 174.496094 L 209.683594 619.875 C 209.683594 641.371094 227.097656 658.785156 248.574219 658.785156 L 564.039062 658.785156 C 585.511719 658.785156 602.929688 641.371094 602.929688 619.875 L 602.929688 174.496094 C 602.929688 153.007812 585.511719 135.582031 564.039062 135.582031 Z M 564.039062 153.964844 C 575.347656 153.964844 584.5625 163.175781 584.5625 174.496094 L 584.5625 619.875 C 584.5625 631.199219 575.347656 640.410156 564.039062 640.410156 L 248.574219 640.410156 C 237.261719 640.410156 228.054688 631.199219 228.054688 619.875 L 228.054688 174.496094 C 228.054688 163.175781 237.261719 153.964844 248.574219 153.964844 L 564.039062 153.964844"/><path fill="#231F20" d="M 404.867188 772.375 C 379.113281 772.375 358.164062 751.402344 358.164062 725.644531 C 358.164062 699.875 379.113281 678.910156 404.867188 678.910156 C 430.625 678.910156 451.574219 699.875 451.574219 725.644531 C 451.574219 751.402344 430.625 772.375 404.867188 772.375"/><path fill="#231F20" d="M 473.953125 86.988281 L 335.78125 86.988281 C 328.828125 86.988281 323.132812 81.292969 323.132812 74.332031 C 323.132812 67.375 328.828125 61.675781 335.78125 61.675781 L 473.953125 61.675781 C 480.910156 61.675781 486.605469 67.375 486.605469 74.332031 C 486.605469 81.292969 480.910156 86.988281 473.953125 86.988281"/><path fill="#231F20" d="M 473.953125 96.722656 L 335.78125 96.722656 C 323.445312 96.722656 313.402344 86.675781 313.402344 74.332031 C 313.402344 61.988281 323.445312 51.941406 335.78125 51.941406 L 473.953125 51.941406 C 486.292969 51.941406 496.335938 61.988281 496.335938 74.332031 C 496.335938 86.675781 486.292969 96.722656 473.953125 96.722656"/></svg>