<svg xmlns="http://www.w3.org/2000/svg" width="810" viewBox="0 0 810 810" height="810" version="1.0"><path fill="#231F20" d="M 419.421875 554.960938 C 412.835938 561.554688 404.753906 565.703125 396.285156 567.636719 C 392.769531 568.445312 389.199219 568.96875 385.601562 568.96875 C 374.363281 568.96875 363.222656 564.832031 354.222656 556.957031 C 353.425781 556.253906 352.542969 555.726562 351.777344 554.960938 L 215.160156 418.355469 C 196.472656 399.667969 196.472656 369.378906 215.160156 350.707031 C 233.847656 332.019531 264.117188 332.027344 282.796875 350.699219 L 385.601562 453.488281 L 705.296875 133.808594 C 631.152344 51.789062 523.996094 0.160156 404.984375 0.160156 C 181.753906 0.160156 0.152344 181.765625 0.152344 405 C 0.152344 628.230469 181.753906 809.832031 404.984375 809.832031 C 628.226562 809.839844 809.832031 628.230469 809.832031 405 C 809.832031 335.585938 792.253906 270.203125 761.34375 213.046875 Z M 419.421875 554.960938"/></svg>