<svg xmlns="http://www.w3.org/2000/svg" width="810" viewBox="0 0 810 810" height="810" version="1.0"><defs><clipPath id="a"><path d="M 87.074219 0 L 723 0 L 723 810 L 87.074219 810 Z M 87.074219 0"/></clipPath></defs><g clip-path="url(#a)"><path d="M 640.5 539.195312 L 612.488281 195.859375 C 611.679688 186.144531 603.582031 178.699219 593.867188 178.699219 L 537.683594 178.699219 L 537.683594 165.75 C 537.683594 74.449219 463.527344 0.3125 372.367188 0.3125 C 281.210938 0.3125 206.890625 74.449219 206.890625 165.75 L 206.890625 178.699219 L 150.707031 178.699219 C 140.992188 178.699219 132.898438 186.144531 132.085938 195.859375 L 87.5625 742.027344 C 87.074219 747.207031 88.855469 752.386719 92.417969 756.269531 C 95.980469 760.15625 101 762.261719 106.179688 762.261719 L 474.699219 762.261719 C 475.023438 762.261719 475.183594 762.261719 475.347656 762.261719 C 501.253906 791.398438 539.140625 809.691406 581.074219 809.691406 C 659.28125 809.691406 722.914062 746.074219 722.914062 667.886719 C 723.074219 610.90625 689.234375 561.695312 640.5 539.195312 Z M 244.292969 165.75 C 244.292969 95.171875 301.773438 37.867188 372.207031 37.867188 C 442.800781 37.867188 500.117188 95.332031 500.117188 165.75 L 500.117188 178.699219 L 244.292969 178.699219 Z M 126.582031 724.867188 L 168.03125 216.09375 L 576.703125 216.09375 L 602.125 527.703125 C 595.324219 526.730469 588.363281 526.082031 581.238281 526.082031 C 503.035156 526.082031 439.402344 589.699219 439.402344 667.886719 C 439.402344 688.121094 443.773438 707.382812 451.382812 724.867188 Z M 581.238281 772.296875 C 523.757812 772.296875 476.804688 725.515625 476.804688 667.886719 C 476.804688 610.421875 523.597656 563.476562 581.238281 563.476562 C 638.71875 563.476562 685.671875 610.257812 685.671875 667.886719 C 685.671875 725.515625 638.878906 772.296875 581.238281 772.296875 Z M 581.238281 772.296875"/></g><path d="M 629.488281 686.828125 L 607.628906 664.972656 L 629.488281 643.121094 C 636.773438 635.835938 636.773438 624.019531 629.488281 616.734375 C 622.203125 609.449219 610.382812 609.449219 603.097656 616.734375 L 581.238281 638.585938 L 559.378906 616.734375 C 552.09375 609.449219 540.273438 609.449219 532.988281 616.734375 C 525.703125 624.019531 525.703125 635.835938 532.988281 643.121094 L 554.847656 664.972656 L 532.988281 686.828125 C 525.703125 694.109375 525.703125 705.929688 532.988281 713.210938 C 540.273438 720.496094 552.09375 720.496094 559.378906 713.210938 L 581.238281 691.359375 L 603.097656 713.210938 C 610.382812 720.496094 622.203125 720.496094 629.488281 713.210938 C 636.773438 705.929688 636.773438 694.109375 629.488281 686.828125 Z M 629.488281 686.828125"/></svg>