<svg xmlns="http://www.w3.org/2000/svg" width="810" viewBox="0 0 810 810" height="810" version="1.0"><path fill="#040606" d="M 108 54 C 108 39.128906 120.128906 27 135 27 L 607.5 27 L 607.5 67.5 C 607.5 97.296875 631.703125 121.5 661.5 121.5 L 702 121.5 L 702 756 C 702 770.871094 689.871094 783 675 783 L 135 783 C 120.128906 783 108 770.871094 108 756 Z M 682.910156 94.5 L 661.5 94.5 C 646.628906 94.5 634.5 82.371094 634.5 67.5 L 634.5 46.089844 Z M 135 810 L 675 810 C 704.792969 810 729 785.796875 729 756 L 729 119.179688 C 729 113.484375 727.785156 108.054688 725.570312 102.992188 C 725.414062 102.675781 725.253906 102.464844 725.148438 102.199219 C 723.144531 97.929688 720.5625 93.972656 717.132812 90.546875 L 638.453125 11.867188 C 635.027344 8.4375 631.019531 5.800781 626.746094 3.796875 C 626.484375 3.691406 626.324219 3.535156 626.0625 3.480469 C 621 1.214844 615.515625 0 609.820312 0 L 135 0 C 105.203125 0 81 24.207031 81 54 L 81 756 C 81 785.796875 105.203125 810 135 810"/><path fill="#040606" d="M 189 189 C 189 181.566406 195.0625 175.5 202.5 175.5 L 283.5 175.5 C 289.300781 175.5 294.152344 179.191406 296.050781 184.359375 L 256.5 223.910156 L 239.042969 206.457031 C 233.769531 201.183594 225.226562 201.183594 219.953125 206.457031 C 214.679688 211.730469 214.679688 220.273438 219.953125 225.546875 L 246.953125 252.546875 C 249.589844 255.183594 253.019531 256.5 256.5 256.5 C 259.980469 256.5 263.40625 255.183594 266.042969 252.546875 L 297 221.589844 L 297 270 C 297 277.4375 290.933594 283.5 283.5 283.5 L 202.5 283.5 C 195.0625 283.5 189 277.4375 189 270 Z M 202.5 310.5 L 283.5 310.5 C 305.859375 310.5 324 292.359375 324 270 L 324 194.589844 L 360.542969 158.046875 C 365.816406 152.773438 365.816406 144.230469 360.542969 138.957031 C 355.269531 133.683594 346.726562 133.683594 341.453125 138.957031 L 315.71875 164.691406 C 308.285156 154.933594 296.683594 148.5 283.5 148.5 L 202.5 148.5 C 180.140625 148.5 162 166.640625 162 189 L 162 270 C 162 292.359375 180.140625 310.5 202.5 310.5"/><path fill="#040606" d="M 189 378 C 189 370.566406 195.0625 364.5 202.5 364.5 L 283.5 364.5 C 290.933594 364.5 297 370.566406 297 378 L 297 459 C 297 466.4375 290.933594 472.5 283.5 472.5 L 202.5 472.5 C 195.0625 472.5 189 466.4375 189 459 Z M 202.5 499.5 L 283.5 499.5 C 305.859375 499.5 324 481.359375 324 459 L 324 378 C 324 355.640625 305.859375 337.5 283.5 337.5 L 202.5 337.5 C 180.140625 337.5 162 355.640625 162 378 L 162 459 C 162 481.359375 180.140625 499.5 202.5 499.5"/><path fill="#040606" d="M 189 567 C 189 559.566406 195.0625 553.5 202.5 553.5 L 283.5 553.5 C 290.933594 553.5 297 559.566406 297 567 L 297 648 C 297 655.4375 290.933594 661.5 283.5 661.5 L 202.5 661.5 C 195.0625 661.5 189 655.4375 189 648 Z M 202.5 688.5 L 283.5 688.5 C 305.859375 688.5 324 670.359375 324 648 L 324 567 C 324 544.640625 305.859375 526.5 283.5 526.5 L 202.5 526.5 C 180.140625 526.5 162 544.640625 162 567 L 162 648 C 162 670.359375 180.140625 688.5 202.5 688.5"/><path fill="#040606" d="M 405 202.5 L 634.5 202.5 C 641.933594 202.5 648 196.4375 648 189 C 648 181.566406 641.933594 175.5 634.5 175.5 L 405 175.5 C 397.5625 175.5 391.5 181.566406 391.5 189 C 391.5 196.4375 397.5625 202.5 405 202.5"/><path fill="#040606" d="M 405 270 L 540 270 C 547.433594 270 553.5 263.9375 553.5 256.5 C 553.5 249.066406 547.433594 243 540 243 L 405 243 C 397.5625 243 391.5 249.066406 391.5 256.5 C 391.5 263.9375 397.5625 270 405 270"/><path fill="#040606" d="M 405 391.5 L 634.5 391.5 C 641.933594 391.5 648 385.4375 648 378 C 648 370.566406 641.933594 364.5 634.5 364.5 L 405 364.5 C 397.5625 364.5 391.5 370.566406 391.5 378 C 391.5 385.4375 397.5625 391.5 405 391.5"/><path fill="#040606" d="M 405 459 L 540 459 C 547.433594 459 553.5 452.9375 553.5 445.5 C 553.5 438.066406 547.433594 432 540 432 L 405 432 C 397.5625 432 391.5 438.066406 391.5 445.5 C 391.5 452.9375 397.5625 459 405 459"/><path fill="#040606" d="M 405 580.5 L 634.5 580.5 C 641.933594 580.5 648 574.4375 648 567 C 648 559.566406 641.933594 553.5 634.5 553.5 L 405 553.5 C 397.5625 553.5 391.5 559.566406 391.5 567 C 391.5 574.4375 397.5625 580.5 405 580.5"/><path fill="#040606" d="M 405 648 L 540 648 C 547.433594 648 553.5 641.9375 553.5 634.5 C 553.5 627.066406 547.433594 621 540 621 L 405 621 C 397.5625 621 391.5 627.066406 391.5 634.5 C 391.5 641.9375 397.5625 648 405 648"/></svg>