<svg xmlns="http://www.w3.org/2000/svg" width="810" viewBox="0 0 810 810" height="810" version="1.0"><defs><clipPath id="a"><path d="M 0 14.679688 L 695 14.679688 L 695 651 L 0 651 Z M 0 14.679688"/></clipPath><clipPath id="b"><path d="M 0 14.679688 L 810 14.679688 L 810 795.429688 L 0 795.429688 Z M 0 14.679688"/></clipPath></defs><g clip-path="url(#a)"><path transform="matrix(28.91233 0 0 28.91666 -115.422 -129.902)" fill="none" d="M 17.125048 25.999947 L 5.00003 25.999947 L 5.00003 5.99999 L 27 5.99999 L 27 17.999992" stroke="#000" stroke-width="2" stroke-miterlimit="10"/></g><path transform="matrix(28.91233 0 0 28.91666 -115.422 -129.902)" fill="none" d="M 5.00003 10.000036 L 27 10.000036" stroke="#000" stroke-width="2" stroke-miterlimit="10"/><path transform="matrix(28.91233 0 0 28.91666 -115.422 -129.902)" fill="none" d="M 12.99997 14.999991 L 23.00003 14.999991" stroke="#000" stroke-width="2" stroke-miterlimit="10"/><path transform="matrix(28.91233 0 0 28.91666 -115.422 -129.902)" fill="none" d="M 9 14.999991 L 10.999985 14.999991" stroke="#000" stroke-width="2" stroke-miterlimit="10"/><path transform="matrix(28.91233 0 0 28.91666 -115.422 -129.902)" fill="none" d="M 12.99997 19.000037 L 19.00006 19.000037" stroke="#000" stroke-width="2" stroke-miterlimit="10"/><path transform="matrix(28.91233 0 0 28.91666 -115.422 -129.902)" fill="none" d="M 9 19.000037 L 10.999985 19.000037" stroke="#000" stroke-width="2" stroke-miterlimit="10"/><g clip-path="url(#b)" fill="none" stroke="#000" stroke-width="2" stroke-miterlimit="10"><path transform="matrix(28.91233 0 0 28.91666 -115.422 -129.902)" d="M 30.999969 23.999992 C 30.999969 24.114545 30.997132 24.229099 30.991593 24.343517 C 30.985918 24.457935 30.977542 24.572083 30.966328 24.686096 C 30.955114 24.800109 30.941063 24.913852 30.924175 25.027054 C 30.907421 25.140392 30.887831 25.253324 30.865538 25.365581 C 30.843111 25.477973 30.818116 25.58969 30.790284 25.700866 C 30.762317 25.812042 30.731783 25.922408 30.698546 26.031963 C 30.66531 26.141653 30.629372 26.250397 30.590866 26.358196 C 30.552226 26.466131 30.511018 26.572984 30.467109 26.678757 C 30.423334 26.784664 30.376857 26.889356 30.327949 26.992833 C 30.278905 27.096444 30.227429 27.198704 30.173386 27.299749 C 30.119479 27.400794 30.063004 27.500488 30.004098 27.598695 C 29.945191 27.697038 29.883988 27.79376 29.820217 27.888996 C 29.756582 27.984232 29.69065 28.077847 29.622421 28.169841 C 29.554192 28.26197 29.483802 28.352208 29.411114 28.440689 C 29.338427 28.529306 29.263578 28.616032 29.186702 28.700866 C 29.109691 28.785835 29.030789 28.868778 28.949725 28.949695 C 28.868796 29.030747 28.78584 29.109773 28.700858 29.186637 C 28.616011 29.263636 28.529273 29.338339 28.440778 29.411016 C 28.352148 29.483692 28.261896 29.554207 28.169889 29.622426 C 28.077881 29.690645 27.984252 29.756702 27.889002 29.820328 C 27.793752 29.883953 27.697015 29.945147 27.598657 30.004045 C 27.500435 30.062943 27.400861 30.119409 27.299801 30.173444 C 27.198742 30.227478 27.096466 30.278946 26.992839 30.327982 C 26.889347 30.376884 26.784639 30.423354 26.678716 30.467122 C 26.572927 30.511025 26.466058 30.552226 26.358243 30.590861 C 26.250427 30.62936 26.141666 30.665293 26.03196 30.698525 C 25.922388 30.731891 25.812006 30.762421 25.700813 30.790248 C 25.589755 30.818076 25.478022 30.843202 25.365613 30.865492 C 25.253205 30.887781 25.14039 30.907368 25.027171 30.924254 C 24.913816 30.941005 24.800192 30.955054 24.686162 30.966266 C 24.572132 30.977478 24.457831 30.985989 24.343531 30.991527 C 24.229096 30.997201 24.114525 31.000038 23.999955 31.000038 C 23.885384 31.000038 23.770949 30.997201 23.656513 30.991527 C 23.542078 30.985989 23.427913 30.977478 23.313883 30.966266 C 23.199852 30.955054 23.086228 30.941005 22.972873 30.924254 C 22.859519 30.907368 22.746704 30.887781 22.634431 30.865492 C 22.522022 30.843202 22.410289 30.818076 22.299096 30.790248 C 22.188038 30.762421 22.077656 30.731891 21.967949 30.698525 C 21.858378 30.665293 21.749617 30.62936 21.641802 30.590861 C 21.533851 30.552226 21.427117 30.511025 21.321193 30.467122 C 21.215405 30.423354 21.110697 30.376884 21.00707 30.327982 C 20.903578 30.278946 20.801303 30.227478 20.700243 30.173444 C 20.599183 30.119409 20.499474 30.062943 20.401252 30.004045 C 20.303029 29.945147 20.206293 29.883953 20.111042 29.820328 C 20.015792 29.756702 19.922163 29.690645 19.830155 29.622426 C 19.738148 29.554207 19.647761 29.483692 19.559266 29.411016 C 19.470636 29.338339 19.384033 29.263636 19.299051 29.186637 C 19.214204 29.109773 19.131248 29.030747 19.050184 28.949695 C 18.969255 28.868778 18.890218 28.785835 18.813342 28.700866 C 18.736466 28.616032 18.661617 28.529306 18.58893 28.440689 C 18.516242 28.352208 18.445852 28.26197 18.377488 28.169841 C 18.309259 28.077847 18.243327 27.984232 18.179692 27.888996 C 18.116056 27.79376 18.054853 27.697038 17.995946 27.598695 C 17.93704 27.500488 17.880565 27.400794 17.826523 27.299749 C 17.77248 27.198704 17.721004 27.096444 17.672096 26.992833 C 17.623052 26.889356 17.57671 26.784664 17.5328 26.678757 C 17.489026 26.572984 17.447818 26.466131 17.409178 26.358196 C 17.370537 26.250397 17.334734 26.141653 17.301363 26.031963 C 17.268126 25.922408 17.237592 25.812042 17.20976 25.700866 C 17.181928 25.58969 17.156798 25.477973 17.134506 25.365581 C 17.112213 25.253324 17.092623 25.140392 17.075734 25.027054 C 17.058981 24.913852 17.04493 24.800109 17.033716 24.686096 C 17.022502 24.572083 17.013991 24.457935 17.008451 24.343517 C 17.002777 24.229099 16.99994 24.114545 16.99994 23.999992 C 16.99994 23.885439 17.002777 23.770885 17.008451 23.656467 C 17.013991 23.542049 17.022502 23.427901 17.033716 23.313888 C 17.04493 23.199875 17.058981 23.086267 17.075734 22.97293 C 17.092623 22.859592 17.112213 22.74666 17.134506 22.634403 C 17.156798 22.522011 17.181928 22.410294 17.20976 22.299118 C 17.237592 22.187942 17.268126 22.077577 17.301363 21.968021 C 17.334734 21.858331 17.370537 21.749587 17.409178 21.641788 C 17.447818 21.533853 17.489026 21.427 17.5328 21.321227 C 17.57671 21.21532 17.623052 21.110628 17.672096 21.007151 C 17.721004 20.90354 17.77248 20.80128 17.826523 20.700235 C 17.880565 20.59919 17.93704 20.499496 17.995946 20.401289 C 18.054853 20.303081 18.116056 20.206224 18.179692 20.110988 C 18.243327 20.015752 18.309259 19.922137 18.377488 19.830143 C 18.445852 19.738149 18.516242 19.647776 18.58893 19.559295 C 18.661617 19.470678 18.736466 19.383952 18.813342 19.299118 C 18.890218 19.214149 18.969255 19.131206 19.050184 19.050289 C 19.131248 18.969237 19.214204 18.890211 19.299051 18.813347 C 19.384033 18.736348 19.470636 18.661645 19.559266 18.588969 C 19.647761 18.516292 19.738148 18.445777 19.830155 18.377558 C 19.922163 18.30934 20.015792 18.243417 20.111042 18.179657 C 20.206293 18.116031 20.303029 18.054837 20.401252 17.995939 C 20.499474 17.937041 20.599183 17.880575 20.700243 17.82654 C 20.801303 17.772506 20.903578 17.721038 21.00707 17.672137 C 21.110697 17.6231 21.215405 17.576631 21.321193 17.532863 C 21.427117 17.488959 21.533851 17.447758 21.641802 17.409258 C 21.749617 17.370624 21.858378 17.334691 21.967949 17.301459 C 22.077656 17.268228 22.188038 17.237563 22.299096 17.209736 C 22.410289 17.181908 22.522022 17.156917 22.634431 17.134493 C 22.746704 17.112203 22.859519 17.092616 22.972873 17.07573 C 23.086228 17.058979 23.199852 17.04493 23.313883 17.033718 C 23.427913 17.022506 23.542078 17.013995 23.656513 17.008457 C 23.770949 17.002783 23.885384 16.999946 23.999955 16.999946 C 24.114525 16.999946 24.229096 17.002783 24.343531 17.008457 C 24.457831 17.013995 24.572132 17.022506 24.686162 17.033718 C 24.800192 17.04493 24.913816 17.058979 25.027171 17.07573 C 25.14039 17.092616 25.253205 17.112203 25.365613 17.134493 C 25.478022 17.156917 25.589755 17.181908 25.700813 17.209736 C 25.812006 17.237563 25.922388 17.268228 26.03196 17.301459 C 26.141666 17.334691 26.250427 17.370624 26.358243 17.409123 C 26.466058 17.447758 26.572927 17.488959 26.678716 17.532863 C 26.784639 17.576631 26.889347 17.6231 26.992839 17.672137 C 27.096466 17.721038 27.198742 17.772506 27.299801 17.82654 C 27.400861 17.880575 27.500435 17.937041 27.598657 17.995939 C 27.697015 18.054837 27.793752 18.116031 27.889002 18.179657 C 27.984252 18.243417 28.077881 18.30934 28.169889 18.377558 C 28.261896 18.445777 28.352148 18.516292 28.440778 18.588969 C 28.529273 18.661645 28.616011 18.736348 28.700858 18.813347 C 28.78584 18.890211 28.868796 18.969237 28.949725 19.050289 C 29.030789 19.131206 29.109691 19.214149 29.186702 19.299118 C 29.263578 19.383952 29.338427 19.470678 29.411114 19.559295 C 29.483802 19.647776 29.554192 19.738149 29.622421 19.830143 C 29.69065 19.922137 29.756582 20.015752 29.820353 20.110988 C 29.883988 20.206224 29.945191 20.303081 30.004098 20.401289 C 30.063004 20.499496 30.119479 20.59919 30.173386 20.700235 C 30.227429 20.80128 30.278905 20.90354 30.327949 21.007151 C 30.376857 21.110628 30.423334 21.21532 30.467109 21.321227 C 30.511018 21.427 30.552226 21.533853 30.590866 21.641788 C 30.629372 21.749587 30.66531 21.858331 30.698546 21.968021 C 30.731783 22.077577 30.762317 22.187942 30.790284 22.299118 C 30.818116 22.410294 30.843111 22.522011 30.865538 22.634403 C 30.887831 22.74666 30.907421 22.859592 30.924175 22.97293 C 30.941063 23.086267 30.955114 23.199875 30.966328 23.313888 C 30.977542 23.427901 30.985918 23.542049 30.991593 23.656467 C 30.997132 23.770885 30.999969 23.885439 30.999969 23.999992 Z M 30.999969 23.999992"/><path transform="matrix(28.91233 0 0 28.91666 -115.422 -129.902)" d="M 21.000045 26.999992 L 27 20.999992"/><path transform="matrix(28.91233 0 0 28.91666 -115.422 -129.902)" d="M 21.000045 20.999992 L 27 26.999992"/></g></svg>