<svg xmlns="http://www.w3.org/2000/svg" width="810" viewBox="0 0 810 810" height="810" version="1.0"><defs><clipPath id="a"><path d="M 89 478 L 172 478 L 172 708.992188 L 89 708.992188 Z M 89 478"/></clipPath></defs><path fill="#100F0D" d="M 0.652344 348.121094 C 0.652344 396.917969 25.5 437.746094 58.414062 447.128906 L 58.414062 249.113281 C 25.5 258.496094 0.652344 299.328125 0.652344 348.121094"/><g clip-path="url(#a)"><path fill="#100F0D" d="M 89.597656 478.035156 L 123.824219 708.992188 L 171.644531 708.992188 L 137.417969 478.035156 L 89.597656 478.035156"/></g><path fill="#100F0D" d="M 549.410156 280.253906 L 549.410156 415.988281 C 566.042969 405.832031 578.292969 378.851562 578.292969 348.121094 C 578.292969 317.390625 566.042969 290.410156 549.410156 280.253906"/><path fill="#100F0D" d="M 87.296875 449.164062 L 231.707031 449.164062 L 231.707031 247.078125 L 87.296875 247.078125 L 87.296875 449.164062"/><path fill="#100F0D" d="M 260.589844 453.832031 L 520.527344 557.757812 L 520.527344 138.484375 L 260.589844 242.410156 L 260.589844 453.832031"/><path fill="#100F0D" d="M 794.914062 333.6875 L 621.621094 333.6875 C 613.648438 333.6875 607.179688 340.148438 607.179688 348.121094 C 607.179688 356.09375 613.648438 362.554688 621.621094 362.554688 L 794.914062 362.554688 C 802.890625 362.554688 809.355469 356.09375 809.355469 348.121094 C 809.355469 340.148438 802.890625 333.6875 794.914062 333.6875"/><path fill="#100F0D" d="M 779.4375 111.800781 C 776.476562 104.398438 768.078125 100.804688 760.667969 103.757812 L 616.257812 161.496094 C 608.851562 164.464844 605.25 172.859375 608.210938 180.265625 C 610.46875 185.914062 615.890625 189.34375 621.621094 189.34375 C 623.40625 189.34375 625.226562 189.007812 626.980469 188.308594 L 771.390625 130.570312 C 778.792969 127.601562 782.398438 119.207031 779.4375 111.800781"/><path fill="#100F0D" d="M 771.390625 565.675781 L 626.980469 507.933594 C 619.578125 504.980469 611.171875 508.582031 608.210938 515.976562 C 605.25 523.382812 608.851562 531.777344 616.257812 534.746094 L 760.667969 592.484375 C 762.421875 593.183594 764.242188 593.523438 766.023438 593.523438 C 771.757812 593.523438 777.179688 590.082031 779.4375 584.445312 C 782.398438 577.035156 778.792969 568.640625 771.390625 565.675781"/><path fill="#100F0D" d="M 690.992188 232.925781 L 618.789062 247.359375 C 610.96875 248.917969 605.890625 256.523438 607.457031 264.34375 C 608.832031 271.203125 614.859375 275.953125 621.601562 275.953125 C 622.546875 275.953125 623.492188 275.855469 624.449219 275.664062 L 696.65625 261.230469 C 704.472656 259.671875 709.550781 252.066406 707.984375 244.242188 C 706.421875 236.425781 698.8125 231.367188 690.992188 232.925781"/><path fill="#100F0D" d="M 618.789062 448.882812 L 690.992188 463.320312 C 691.953125 463.507812 692.894531 463.609375 693.839844 463.609375 C 700.582031 463.609375 706.609375 458.855469 707.984375 452 C 709.550781 444.175781 704.472656 436.570312 696.65625 435.011719 L 624.449219 420.578125 C 616.621094 419.019531 609.019531 424.082031 607.457031 431.898438 C 605.890625 439.722656 610.96875 447.328125 618.789062 448.882812"/></svg>