<svg xmlns="http://www.w3.org/2000/svg" width="810" viewBox="0 0 810 810" height="810" version="1.0"><defs><clipPath id="a"><path d="M 0 272 L 531 272 L 531 680.863281 L 0 680.863281 Z M 0 272"/></clipPath><clipPath id="b"><path d="M 279 128.863281 L 810 128.863281 L 810 538 L 279 538 Z M 279 128.863281"/></clipPath></defs><g clip-path="url(#a)"><path fill="#595959" d="M 437.160156 287.9375 L 437.160156 272.6875 L 94.171875 272.6875 C 68.421875 272.6875 44.957031 283.179688 28.082031 300.042969 C 11.179688 316.910156 0.683594 340.363281 0.714844 366.101562 L 0.714844 508.796875 C 0.714844 530.421875 8.128906 550.457031 20.515625 566.285156 C 32.90625 582.113281 50.296875 593.855469 70.34375 599.132812 L 74.21875 584.371094 L 61.007812 591.996094 L 102.535156 663.847656 C 105.707031 669.335938 110.285156 673.726562 115.410156 676.5625 C 120.566406 679.429688 126.242188 680.804688 131.886719 680.804688 C 137.53125 680.804688 143.238281 679.398438 148.363281 676.5625 C 153.519531 673.726562 158.097656 669.367188 161.238281 663.847656 L 196.847656 602.179688 L 437.160156 602.179688 C 462.910156 602.179688 486.375 591.691406 503.25 574.824219 C 520.152344 557.960938 530.617188 534.507812 530.617188 508.769531 L 530.617188 366.132812 C 530.617188 340.390625 520.121094 316.941406 503.25 300.074219 C 486.375 283.179688 462.910156 272.6875 437.160156 272.71875 L 437.160156 303.1875 C 454.582031 303.1875 470.234375 310.199219 481.675781 321.605469 C 493.089844 333.042969 500.105469 348.6875 500.105469 366.101562 L 500.105469 508.796875 C 500.105469 526.210938 493.089844 541.855469 481.675781 553.292969 C 470.234375 564.699219 454.582031 571.714844 437.160156 571.714844 L 179.242188 571.714844 L 134.816406 648.6875 C 134.386719 649.390625 134.023438 649.695312 133.5625 649.96875 C 133.105469 650.214844 132.496094 650.398438 131.855469 650.398438 C 131.214844 650.398438 130.636719 650.246094 130.148438 649.96875 C 129.6875 649.695312 129.324219 649.390625 128.894531 648.6875 L 84.195312 571.316406 L 78.03125 569.703125 C 64.574219 566.164062 52.828125 558.265625 44.46875 547.558594 C 36.109375 536.855469 31.164062 523.496094 31.136719 508.859375 L 31.136719 366.132812 C 31.136719 348.71875 38.152344 333.074219 49.5625 321.636719 C 61.007812 310.230469 76.660156 303.214844 94.082031 303.214844 L 437.097656 303.214844 L 437.097656 287.9375"/></g><g clip-path="url(#b)"><path d="M 716.191406 128.832031 C 716.191406 128.832031 716.164062 128.832031 716.164062 128.832031 L 373.144531 128.832031 C 347.394531 128.832031 323.898438 139.324219 307.054688 156.1875 C 290.152344 173.054688 279.65625 196.507812 279.6875 222.246094 L 279.6875 272.6875 L 310.199219 272.6875 L 310.199219 222.246094 C 310.199219 204.832031 317.214844 189.1875 328.628906 177.75 C 340.070312 166.34375 355.722656 159.332031 373.144531 159.332031 L 716.164062 159.332031 C 733.585938 159.332031 749.238281 166.34375 760.679688 177.75 C 772.089844 189.1875 779.109375 204.832031 779.109375 222.246094 L 779.109375 364.972656 C 779.109375 379.613281 774.136719 392.96875 765.773438 403.675781 C 757.414062 414.378906 745.667969 422.277344 732.210938 425.816406 L 726.078125 427.433594 L 681.378906 504.804688 C 680.953125 505.503906 680.585938 505.808594 680.128906 506.085938 C 679.671875 506.328125 679.058594 506.511719 678.417969 506.511719 C 677.777344 506.511719 677.167969 506.359375 676.710938 506.085938 C 676.253906 505.808594 675.886719 505.503906 675.460938 504.804688 L 631.035156 427.890625 L 530.617188 427.890625 L 530.617188 458.386719 L 613.398438 458.386719 L 649.003906 520.050781 C 652.179688 525.542969 656.753906 529.933594 661.882812 532.769531 C 667.039062 535.605469 672.714844 537.007812 678.359375 537.007812 C 684.003906 537.007812 689.679688 535.605469 694.835938 532.769531 C 699.992188 529.933594 704.566406 525.570312 707.710938 520.050781 L 746.21875 453.414062 C 763.609375 447.5 778.683594 436.609375 789.726562 422.460938 C 802.117188 406.632812 809.53125 386.597656 809.53125 364.972656 L 809.53125 222.246094 C 809.53125 196.507812 799.035156 173.054688 782.160156 156.1875 C 765.378906 139.324219 741.914062 128.832031 716.191406 128.832031"/></g><path d="M 530.648438 427.917969 L 515.394531 427.917969 C 506.972656 427.917969 500.136719 434.75 500.136719 443.167969 C 500.136719 451.585938 506.972656 458.417969 515.394531 458.417969 L 530.648438 458.417969 L 530.648438 427.917969 M 310.167969 272.71875 L 279.65625 272.71875 L 279.65625 287.96875 C 279.65625 296.386719 286.492188 303.214844 294.914062 303.214844 C 303.332031 303.214844 310.167969 296.386719 310.167969 287.96875 L 310.167969 272.71875"/></svg>