<svg xmlns="http://www.w3.org/2000/svg" width="810" viewBox="0 0 810 810" height="810" version="1.0"><path fill="#100F0D" d="M 769.5 769.96875 C 769.5 777.152344 763.652344 783 756.46875 783 L 53.53125 783 C 46.347656 783 40.5 777.152344 40.5 769.96875 L 40.5 437.875 L 337.5 499.320312 L 337.5 526.5 C 337.5 533.957031 343.542969 540 351 540 L 351 580.5 C 351 587.957031 357.042969 594 364.5 594 L 445.5 594 C 452.957031 594 459 587.957031 459 580.5 L 459 540 C 466.457031 540 472.5 533.957031 472.5 526.5 L 472.5 499.320312 L 769.5 437.875 Z M 378 540 L 432 540 L 432 567 L 378 567 Z M 364.5 513 L 364.5 486 L 445.5 486 L 445.5 513 Z M 27 236.25 C 27 225.460938 33.308594 216 40.5 216 L 769.5 216 C 776.691406 216 783 225.460938 783 236.25 L 783 407.503906 L 472.460938 471.753906 C 472.070312 464.648438 466.203125 459 459 459 L 351 459 C 343.796875 459 337.929688 464.648438 337.539062 471.753906 L 27 407.503906 Z M 229.5 162 L 256.5 162 L 256.5 189 L 229.5 189 Z M 405 27 C 495.175781 27 569.683594 74.335938 579.414062 135 L 552.03125 135 C 542.015625 88.625 481.050781 54 405 54 C 328.949219 54 267.984375 88.625 257.96875 135 L 230.585938 135 C 240.316406 74.335938 314.824219 27 405 27 Z M 283.5 148.5 C 283.5 111.910156 339.140625 81 405 81 C 470.859375 81 526.5 111.910156 526.5 148.5 L 526.5 189 L 283.5 189 Z M 553.5 189 L 553.5 162 L 580.5 162 L 580.5 189 Z M 769.5 189 L 607.5 189 L 607.5 148.5 C 607.5 107.960938 585.832031 70.15625 546.492188 42.054688 C 508.523438 14.9375 458.273438 0 405 0 C 351.726562 0 301.476562 14.9375 263.507812 42.054688 C 224.167969 70.15625 202.5 107.960938 202.5 148.5 L 202.5 189 L 40.5 189 C 18.167969 189 0 210.199219 0 236.25 L 0 418.5 C 0 424.902344 4.496094 430.425781 10.765625 431.722656 L 13.5 432.289062 L 13.5 769.96875 C 13.5 792.042969 31.457031 810 53.53125 810 L 756.46875 810 C 778.542969 810 796.5 792.042969 796.5 769.96875 L 796.5 432.289062 L 799.234375 431.722656 C 805.503906 430.425781 810 424.902344 810 418.5 L 810 236.25 C 810 210.199219 791.832031 189 769.5 189"/></svg>