<svg xmlns="http://www.w3.org/2000/svg" width="810" viewBox="0 0 810 810" height="810" version="1.0"><defs><clipPath id="a"><path d="M 492 366 L 809.636719 366 L 809.636719 807 L 492 807 Z M 492 366"/></clipPath><clipPath id="b"><path d="M 156 400 L 671 400 L 671 807 L 156 807 Z M 156 400"/></clipPath></defs><g clip-path="url(#a)"><path d="M 647.050781 800.75 C 638.234375 788.292969 626.851562 773.425781 614.289062 757.023438 C 562.765625 689.734375 492.027344 597.328125 492.027344 533.683594 C 492.027344 487.816406 509.726562 446.230469 538.339844 416.066406 C 567.109375 385.746094 606.875 366.992188 650.832031 366.992188 C 694.777344 366.992188 734.550781 385.746094 763.3125 416.066406 C 791.933594 446.230469 809.628906 487.816406 809.628906 533.683594 C 809.628906 590.035156 744.199219 687.296875 698.164062 755.734375 C 686.628906 772.871094 676.359375 788.136719 668.480469 800.792969 L 657.792969 794.140625 L 668.5 800.804688 C 664.820312 806.722656 657.046875 808.527344 651.128906 804.847656 C 649.410156 803.777344 648.042969 802.367188 647.050781 800.75 Z M 634.292969 741.75 C 642.535156 752.527344 650.285156 762.644531 657.152344 771.863281 C 663.085938 762.832031 669.933594 752.652344 677.273438 741.742188 C 721.519531 675.976562 784.410156 582.492188 784.410156 533.683594 C 784.410156 494.464844 769.382812 459.003906 745.085938 433.398438 C 720.945312 407.957031 687.613281 392.210938 650.832031 392.210938 C 614.042969 392.210938 580.707031 407.957031 556.566406 433.398438 C 532.269531 459.003906 517.246094 494.464844 517.246094 533.683594 C 517.246094 588.878906 584.964844 677.335938 634.292969 741.75"/></g><path d="M 650.832031 418.878906 C 674.210938 418.878906 695.375 428.355469 710.691406 443.679688 C 726.015625 459.003906 735.492188 480.171875 735.492188 503.554688 C 735.492188 526.9375 726.015625 548.101562 710.691406 563.429688 C 695.375 578.746094 674.203125 588.230469 650.832031 588.230469 C 627.449219 588.230469 606.277344 578.746094 590.960938 563.429688 C 575.644531 548.101562 566.160156 526.9375 566.160156 503.554688 C 566.160156 480.171875 575.644531 459.003906 590.960938 443.679688 C 606.277344 428.355469 627.449219 418.878906 650.832031 418.878906 Z M 692.863281 461.511719 C 682.105469 450.761719 667.242188 444.097656 650.832031 444.097656 C 634.410156 444.097656 619.546875 450.761719 608.789062 461.511719 C 598.03125 472.269531 591.378906 487.132812 591.378906 503.554688 C 591.378906 519.964844 598.03125 534.839844 608.789062 545.589844 C 619.546875 556.355469 634.410156 563 650.832031 563 C 667.242188 563 682.105469 556.347656 692.863281 545.589844 C 703.621094 534.839844 710.273438 519.964844 710.273438 503.554688 C 710.273438 487.132812 703.621094 472.269531 692.863281 461.511719"/><g clip-path="url(#b)"><path d="M 163.835938 407.957031 C 158.515625 410.421875 155.609375 416.132812 156.730469 421.878906 C 158.347656 429.902344 166.898438 434.210938 174.339844 430.894531 C 174.253906 430.929688 174.183594 430.960938 174.339844 430.886719 L 174.320312 430.902344 C 176.921875 429.765625 180 428.894531 182.746094 428.199219 C 197.503906 424.546875 212.691406 424.761719 227.46875 428.261719 C 248.738281 433.453125 266.515625 444.78125 282.328125 459.707031 C 308.601562 484.867188 326.96875 517.820312 341.234375 550.941406 L 343.070312 555.3125 C 345.269531 560.527344 350.675781 563.640625 356.292969 562.921875 C 364.5625 561.863281 369.546875 553.191406 366.316406 545.519531 C 362.03125 535.273438 357.480469 525.3125 352.488281 515.390625 C 347.945312 506.511719 343.183594 497.953125 337.957031 489.460938 C 332.902344 481.371094 327.628906 473.671875 321.820312 466.09375 C 316.585938 459.363281 311.191406 453.078125 305.28125 446.9375 C 299.246094 440.773438 293.085938 435.1875 286.296875 429.867188 C 271.039062 418.125 255.023438 409.574219 236.414062 404.511719 C 218.054688 399.6875 199.601562 398.953125 180.992188 402.730469 C 175.097656 403.972656 169.371094 405.589844 163.835938 407.957031 Z M 658.835938 806.710938 C 663.46875 806.320312 667.386719 803.496094 669.3125 799.28125 C 673.152344 790.4375 666.359375 780.859375 656.765625 781.578125 L 656.75 781.578125 L 656.765625 781.578125 Z M 656.75 781.578125 L 656.78125 781.570312 Z M 656.75 781.578125 L 658.835938 806.710938 L 658.757812 806.710938 L 658.648438 806.730469 L 658.597656 806.730469 L 658.484375 806.738281 L 658.320312 806.746094 L 658.160156 806.765625 L 657.988281 806.773438 L 657.835938 806.78125 L 657.613281 806.796875 L 657.363281 806.808594 L 657.125 806.824219 L 656.867188 806.839844 L 656.59375 806.847656 L 656.285156 806.867188 L 655.953125 806.882812 L 655.628906 806.902344 L 655.277344 806.917969 L 654.910156 806.933594 L 654.523438 806.945312 L 653.6875 806.976562 L 653.25 806.984375 L 652.78125 807.003906 L 652.320312 807.019531 L 651.832031 807.027344 L 651.308594 807.039062 L 650.789062 807.054688 L 650.257812 807.0625 L 649.695312 807.070312 L 649.121094 807.070312 L 648.53125 807.082031 L 647.921875 807.089844 L 645.359375 807.089844 L 644.671875 807.082031 L 643.972656 807.070312 L 643.261719 807.0625 L 642.535156 807.054688 L 641.800781 807.039062 L 641.046875 807.027344 L 640.269531 807.011719 L 639.492188 806.984375 L 638.6875 806.960938 L 638.371094 806.953125 C 628.734375 806.585938 623.054688 796.140625 627.988281 787.847656 C 630.382812 783.914062 634.601562 781.601562 639.21875 781.75 L 639.457031 781.757812 L 640.183594 781.773438 L 640.894531 781.792969 L 641.59375 781.808594 L 642.269531 781.824219 L 642.945312 781.835938 L 643.605469 781.84375 L 644.246094 781.851562 L 644.878906 781.859375 L 645.484375 781.859375 L 646.085938 781.867188 L 647.238281 781.867188 L 647.796875 781.859375 L 648.324219 781.859375 L 648.847656 781.851562 L 649.359375 781.851562 L 650.335938 781.835938 L 650.789062 781.824219 L 651.222656 781.816406 L 651.660156 781.800781 L 652.078125 781.792969 L 652.464844 781.78125 L 652.847656 781.765625 L 653.207031 781.757812 L 653.542969 781.738281 L 653.882812 781.730469 L 654.191406 781.714844 L 654.492188 781.707031 L 654.773438 781.6875 L 655.03125 781.679688 L 655.261719 781.664062 L 655.492188 781.65625 L 655.707031 781.644531 L 655.902344 781.628906 L 656.191406 781.613281 L 656.355469 781.601562 L 656.476562 781.59375 L 656.570312 781.585938 L 656.621094 781.585938 L 656.679688 781.578125 Z M 560.722656 794.671875 C 570.171875 797.375 578.851562 788.890625 576.449219 779.371094 C 575.277344 775.042969 572.085938 771.71875 567.769531 770.453125 C 555.769531 766.996094 544.257812 762.90625 532.78125 757.972656 C 522.769531 753.601562 513.25 748.796875 503.808594 743.296875 C 495.265625 738.261719 487.210938 732.90625 479.257812 726.980469 C 472.375 721.773438 465.890625 716.382812 459.519531 710.550781 C 453.320312 704.804688 447.53125 698.921875 441.871094 692.632812 C 436.867188 687 432.199219 681.304688 427.640625 675.300781 C 423.320312 669.535156 419.292969 663.738281 415.386719 657.691406 C 406.894531 644.332031 399.480469 630.546875 393.058594 616.066406 C 388.875 606.609375 375.773438 605.914062 370.582031 614.851562 C 368.582031 618.394531 368.351562 622.480469 369.96875 626.210938 C 376.261719 640.414062 383.453125 654.003906 391.59375 667.234375 C 395.375 673.289062 399.265625 679.121094 403.414062 684.929688 C 407.433594 690.480469 411.546875 695.808594 415.890625 701.101562 C 421.039062 707.265625 426.296875 713.117188 431.898438 718.882812 C 437.292969 724.355469 442.777344 729.519531 448.558594 734.582031 C 454.644531 739.824219 460.792969 744.726562 467.261719 749.480469 C 472.460938 753.246094 477.691406 756.785156 483.105469 760.222656 C 492.941406 766.378906 502.851562 771.820312 513.3125 776.824219 C 524.96875 782.332031 536.691406 787 548.929688 791.054688 C 552.84375 792.328125 556.761719 793.535156 560.722656 794.671875 Z M 174.363281 430.878906 L 174.371094 430.878906 L 174.363281 430.878906"/></g><path d="M 155.34375 433.757812 C 146.527344 421.300781 135.144531 406.433594 122.582031 390.03125 C 71.066406 322.734375 0.320312 230.335938 0.320312 166.691406 C 0.320312 120.816406 18.019531 79.226562 46.636719 49.074219 C 75.402344 18.753906 115.167969 0 159.125 0 C 203.070312 0 242.847656 18.753906 271.613281 49.074219 C 300.226562 79.226562 317.921875 120.816406 317.921875 166.691406 C 317.921875 223.042969 252.492188 320.304688 206.457031 388.730469 C 194.921875 405.878906 184.652344 421.136719 176.773438 433.800781 L 166.085938 427.148438 L 176.792969 433.8125 C 173.113281 439.730469 165.339844 441.535156 159.425781 437.855469 C 157.714844 436.785156 156.335938 435.375 155.34375 433.757812 Z M 142.578125 374.757812 C 150.828125 385.523438 158.578125 395.640625 165.445312 404.871094 C 171.378906 395.839844 178.230469 385.660156 185.566406 374.742188 C 229.8125 308.984375 292.703125 215.488281 292.703125 166.691406 C 292.703125 127.460938 277.675781 92.011719 253.382812 66.40625 C 229.238281 40.964844 195.914062 25.21875 159.125 25.21875 C 122.335938 25.21875 89.007812 40.964844 64.859375 66.40625 C 40.5625 92.011719 25.539062 127.460938 25.539062 166.691406 C 25.539062 221.886719 93.257812 310.34375 142.578125 374.757812"/><path d="M 159.125 51.886719 C 182.503906 51.886719 203.671875 61.363281 218.996094 76.6875 C 234.3125 92.011719 243.796875 113.179688 243.796875 136.554688 C 243.796875 159.933594 234.3125 181.109375 218.996094 196.425781 C 203.671875 211.753906 182.503906 221.226562 159.125 221.226562 C 135.746094 221.226562 114.578125 211.753906 99.253906 196.425781 C 83.929688 181.109375 74.453125 159.933594 74.453125 136.554688 C 74.453125 113.179688 83.929688 92.011719 99.253906 76.6875 C 114.578125 61.363281 135.746094 51.886719 159.125 51.886719 Z M 201.15625 94.519531 C 190.40625 83.761719 175.535156 77.105469 159.125 77.105469 C 142.707031 77.105469 127.84375 83.761719 117.085938 94.519531 C 106.328125 105.277344 99.671875 120.140625 99.671875 136.554688 C 99.671875 152.972656 106.328125 167.835938 117.085938 178.597656 C 127.84375 189.355469 142.707031 196.007812 159.125 196.007812 C 175.535156 196.007812 190.40625 189.355469 201.15625 178.597656 C 211.914062 167.835938 218.566406 152.972656 218.566406 136.554688 C 218.566406 120.140625 211.914062 105.277344 201.15625 94.519531"/></svg>