<svg xmlns="http://www.w3.org/2000/svg" width="810" viewBox="0 0 810 810" height="810" version="1.0"><path d="M 231.566406 737.671875 C 231.566406 737.671875 227.226562 738.652344 222.667969 738.511719 C 218.203125 738.378906 208.445312 737.09375 210.667969 737.109375 C 212.894531 737.121094 215.695312 733.136719 215.695312 733.136719 L 211.808594 732.558594 L 211.714844 729.445312 L 217.941406 729.375 L 261.285156 635.261719 C 261.285156 635.261719 266.621094 635.179688 266.734375 634.734375 C 261.402344 634.59375 257.839844 634.90625 257.402344 634.238281 C 257.738281 633.351562 304.324219 530.078125 305.597656 527.820312 C 306.15625 526.820312 310.710938 527.402344 310.710938 527.402344 L 314.867188 500.753906 L 311.3125 500.621094 C 311.3125 500.621094 319.527344 444.542969 318.535156 442.980469 C 317.542969 441.417969 257.160156 444.074219 216.265625 441.167969 C 175.371094 438.265625 153.386719 433.582031 145.507812 431.539062 C 138.148438 429.628906 136.503906 431.152344 133.371094 434.691406 C 130.234375 438.226562 76.90625 509.386719 72.316406 515.363281 C 67.804688 521.230469 65.761719 521.328125 63.054688 521.3125 C 59.5 521.292969 36.042969 521.265625 36.042969 521.265625 L 60.847656 421.9375 C 60.847656 421.9375 50.960938 421.320312 49.523438 419.871094 C 48.082031 418.414062 48.65625 415.417969 48.65625 415.417969 C 48.65625 415.417969 28.101562 413.296875 26.777344 412.183594 C 25.449219 411.0625 24.792969 409.171875 24.792969 409.171875 C 24.792969 409.171875 3.609375 404.613281 3.0625 402.570312 L 3.039062 402.570312 C 3.039062 402.554688 3.046875 402.539062 3.050781 402.53125 C 3.046875 402.515625 3.039062 402.5 3.039062 402.488281 L 3.066406 402.488281 C 3.632812 400.453125 24.867188 396.136719 24.867188 396.136719 C 24.867188 396.136719 25.546875 394.25 26.886719 393.148438 C 28.226562 392.042969 48.804688 390.164062 48.804688 390.164062 C 48.804688 390.164062 48.261719 387.160156 49.71875 385.722656 C 51.171875 384.285156 61.066406 383.789062 61.066406 383.789062 L 37.40625 284.179688 C 37.40625 284.179688 60.863281 284.421875 64.421875 284.445312 C 67.125 284.460938 69.167969 284.582031 73.609375 290.496094 C 78.132812 296.523438 130.640625 368.292969 133.730469 371.867188 C 136.824219 375.4375 138.453125 376.984375 145.832031 375.160156 C 153.734375 373.203125 175.773438 368.773438 216.695312 366.34375 C 257.625 363.910156 317.972656 367.257812 318.980469 365.707031 C 319.988281 364.160156 312.421875 307.988281 312.421875 307.988281 L 315.976562 307.898438 L 312.128906 281.203125 C 312.128906 281.203125 307.570312 281.730469 307.019531 280.726562 C 305.773438 278.457031 260.382812 174.648438 260.054688 173.761719 C 260.503906 173.097656 264.058594 173.453125 269.390625 173.371094 C 269.285156 172.925781 263.949219 172.785156 263.949219 172.785156 L 221.695312 78.175781 L 215.46875 78.027344 L 215.597656 74.917969 L 219.488281 74.386719 C 219.488281 74.386719 216.730469 70.371094 214.511719 70.355469 C 212.289062 70.34375 222.058594 69.175781 226.527344 69.09375 C 231.082031 69.007812 235.414062 70.035156 235.414062 70.035156 C 235.414062 70.035156 234.433594 66.804688 238.652344 67.164062 C 241.347656 67.394531 253.609375 75.808594 253.609375 75.808594 C 253.609375 75.808594 255.453125 76.410156 256.757812 76.316406 C 258.273438 76.207031 259.242188 78.058594 260.101562 79.042969 C 260.597656 79.609375 263.351562 79 263.351562 79 C 263.351562 79 289.992188 110.421875 331.695312 164.839844 C 373.332031 219.171875 424.394531 283.480469 424.394531 283.480469 C 424.394531 283.480469 427.359375 283.5 431.515625 282.929688 C 435.664062 282.359375 437.449219 281.929688 437.449219 281.929688 C 437.449219 281.929688 438.503906 278.675781 441.179688 277.800781 C 443.171875 277.148438 457.644531 275.523438 470.6875 275.894531 C 483.730469 276.265625 490.542969 277.046875 492.613281 277.949219 C 494.683594 278.847656 495.585938 281.859375 496.125 285.675781 C 496.695312 289.679688 496.238281 305.203125 495.695312 308.9375 C 495.179688 312.484375 494.625 314.714844 489.582031 315.277344 C 484.539062 315.839844 467.195312 315.886719 460.085938 315.402344 C 455.023438 315.054688 449.273438 313.707031 448.972656 314.449219 C 448.671875 315.1875 461.199219 328.152344 466.195312 335.292969 C 471.195312 342.4375 481.648438 354.648438 484.898438 356.148438 C 488.152344 357.648438 488.59375 357.800781 485.625 358.671875 C 482.65625 359.542969 479.691406 359.378906 477.625 358.179688 C 475.558594 356.984375 472.890625 356.375 471.699219 357.550781 C 471.25 357.996094 474.195312 361.566406 475.972656 362.46875 C 477.742188 363.367188 481.160156 362.496094 482.636719 363.101562 C 484.117188 363.703125 488.402344 366.046875 491.960938 365.96875 C 513.160156 365.5 544.882812 364.960938 614.253906 365.191406 C 688.488281 365.4375 710.65625 366.300781 750.265625 375.902344 C 786.21875 384.617188 793.304688 391.050781 798.476562 394.355469 C 803.261719 397.410156 806.949219 404.261719 807 407.121094 L 807.003906 407.121094 C 807.003906 407.132812 807 407.148438 807 407.164062 C 807 407.171875 807.003906 407.1875 807.003906 407.207031 L 807 407.207031 C 806.917969 410.0625 803.144531 416.867188 798.332031 419.867188 C 793.121094 423.109375 785.960938 429.460938 749.910156 437.765625 C 710.195312 446.90625 688.011719 447.515625 613.78125 446.910156 C 544.414062 446.339844 512.695312 445.4375 491.507812 444.722656 C 487.949219 444.605469 483.636719 446.902344 482.152344 447.484375 C 480.664062 448.070312 477.261719 447.160156 475.476562 448.042969 C 473.695312 448.917969 470.707031 452.457031 471.148438 452.90625 C 472.328125 454.097656 475 453.519531 477.082031 452.34375 C 479.164062 451.167969 482.128906 451.039062 485.089844 451.945312 C 488.046875 452.851562 487.601562 452.996094 484.332031 454.460938 C 481.0625 455.921875 470.46875 468.015625 465.390625 475.101562 C 460.308594 482.183594 447.636719 495.003906 447.929688 495.746094 C 448.21875 496.488281 453.984375 495.207031 459.050781 494.921875 C 466.167969 494.515625 483.507812 494.765625 488.542969 495.386719 C 493.578125 496.007812 494.109375 498.242188 494.585938 501.792969 C 495.085938 505.539062 495.363281 521.0625 494.746094 525.0625 C 494.160156 528.867188 493.226562 531.871094 491.144531 532.746094 C 489.066406 533.625 482.242188 534.328125 469.199219 534.546875 C 456.152344 534.765625 441.699219 532.976562 439.710938 532.300781 C 437.046875 531.398438 436.03125 528.132812 436.03125 528.132812 C 436.03125 528.132812 434.253906 527.675781 430.109375 527.058594 C 425.960938 526.441406 422.996094 526.425781 422.996094 526.425781 C 422.996094 526.425781 371.191406 590.144531 328.933594 643.988281 C 286.609375 697.921875 259.609375 729.039062 259.609375 729.039062 C 259.609375 729.039062 256.863281 728.394531 256.359375 728.960938 C 255.484375 729.933594 254.5 731.773438 252.984375 731.644531 C 251.679688 731.535156 249.828125 732.117188 249.828125 732.117188 C 249.828125 732.117188 237.46875 740.394531 234.773438 740.59375 C 230.546875 740.894531 231.566406 737.675781 231.566406 737.675781 Z M 266.488281 89.636719 L 261.71875 83.34375 L 261.011719 83.882812 L 265.820312 90.230469 Z M 276.046875 102.257812 L 267.023438 90.347656 L 266.355469 90.9375 L 275.339844 102.796875 Z M 285.625 114.902344 L 276.585938 102.964844 L 275.878906 103.507812 L 284.863281 115.367188 L 285.628906 114.902344 Z M 297.695312 130.835938 L 286.164062 115.613281 L 285.398438 116.082031 L 296.972656 131.355469 Z M 308.820312 145.527344 L 298.230469 131.542969 L 297.507812 132.0625 L 308.113281 146.058594 Z M 320.070312 160.378906 L 309.359375 146.238281 L 308.644531 146.773438 L 319.339844 160.886719 Z M 331.707031 175.738281 L 320.609375 161.085938 L 319.878906 161.597656 L 331.046875 176.339844 Z M 343.445312 191.234375 L 332.246094 176.449219 L 331.585938 177.050781 L 342.710938 191.738281 Z M 355.089844 206.605469 L 343.984375 191.945312 L 343.25 192.449219 L 354.316406 207.058594 Z M 366.644531 221.863281 L 355.632812 207.320312 L 354.855469 207.769531 L 365.914062 222.367188 Z M 377.753906 236.53125 L 367.1875 222.574219 L 366.453125 223.078125 L 377.042969 237.058594 Z M 388.851562 251.183594 L 378.292969 237.242188 L 377.578125 237.773438 L 388.082031 251.636719 Z M 401.933594 268.449219 L 389.394531 251.898438 L 388.625 252.351562 L 401.101562 268.828125 Z M 405.351562 272.964844 L 402.484375 269.175781 L 401.652344 269.550781 L 404.5 273.308594 Z M 416.0625 287.105469 L 405.90625 273.699219 L 405.054688 274.046875 L 415.355469 287.644531 Z M 414.707031 522.679688 L 414 522.132812 L 403.546875 535.613281 L 404.394531 535.96875 Z M 403.832031 536.695312 L 402.984375 536.339844 L 400.089844 540.070312 L 400.917969 540.453125 Z M 400.363281 541.171875 L 399.535156 540.785156 L 386.867188 557.117188 L 387.636719 557.578125 Z M 387.082031 558.285156 L 386.316406 557.820312 L 375.652344 571.566406 L 376.359375 572.105469 Z M 375.816406 572.808594 L 375.109375 572.269531 L 364.363281 586.128906 L 365.089844 586.640625 Z M 364.539062 587.347656 L 363.8125 586.835938 L 352.589844 601.304688 L 353.359375 601.765625 Z M 352.808594 602.46875 L 352.039062 602.007812 L 340.800781 616.492188 L 341.53125 617.003906 Z M 340.988281 617.707031 L 340.261719 617.195312 L 328.96875 631.75 L 329.621094 632.363281 Z M 329.070312 633.070312 L 328.421875 632.460938 L 317.082031 647.074219 L 317.804688 647.589844 Z M 317.257812 648.292969 L 316.535156 647.777344 L 305.683594 661.769531 L 306.386719 662.308594 Z M 305.839844 663.011719 L 305.136719 662.472656 L 294.371094 676.347656 L 295.089844 676.871094 Z M 294.542969 677.578125 L 293.828125 677.050781 L 282.082031 692.191406 L 282.84375 692.667969 Z M 282.292969 693.371094 L 281.539062 692.894531 L 272.417969 704.652344 L 273.117188 705.199219 Z M 272.570312 705.90625 L 271.871094 705.355469 L 262.75 717.113281 L 263.410156 717.710938 Z M 262.863281 718.414062 L 262.203125 717.816406 L 257.320312 724.105469 L 258.027344 724.652344 Z M 262.863281 718.414062" fill-rule="evenodd"/></svg>