<svg xmlns="http://www.w3.org/2000/svg" width="810" viewBox="0 0 810 810" height="810" version="1.0"><defs><clipPath id="a"><path d="M 77.316406 3 L 732.816406 3 L 732.816406 617 L 77.316406 617 Z M 77.316406 3"/></clipPath></defs><path fill="#7D8693" d="M 727.207031 746.292969 L 587.921875 712.46875 L 484.613281 809.816406 L 432.792969 619.574219 C 437.742188 620.894531 442.859375 622.378906 447.8125 623.867188 C 469.101562 630.300781 491.214844 636.898438 511.511719 630.464844 C 532.964844 623.699219 546.992188 605.222656 560.691406 587.238281 C 569.769531 575.355469 578.351562 564.136719 588.417969 556.878906 C 598.8125 549.617188 612.511719 544.996094 627.035156 540.046875 C 640.730469 535.429688 654.59375 530.808594 666.3125 523.546875 Z M 727.207031 746.292969"/><path fill="#7D8693" d="M 377.507812 619.574219 L 325.6875 809.816406 L 222.378906 712.46875 L 83.09375 746.292969 L 144.15625 523.714844 C 155.871094 530.972656 169.734375 535.59375 183.433594 540.214844 C 197.957031 545 211.652344 549.617188 222.050781 557.042969 C 232.117188 564.300781 240.699219 575.523438 249.773438 587.402344 C 263.472656 605.222656 277.5 623.867188 298.953125 630.628906 C 304.894531 632.445312 310.835938 633.269531 317.105469 633.269531 C 332.125 633.269531 347.636719 628.652344 362.820312 624.03125 C 367.441406 622.378906 372.390625 620.894531 377.507812 619.574219 Z M 377.507812 619.574219"/><g clip-path="url(#a)"><path d="M 732.816406 309.878906 C 732.816406 327.039062 721.265625 343.042969 708.890625 360.039062 C 699.8125 372.414062 690.570312 385.28125 685.949219 399.144531 C 681.164062 413.496094 680.832031 429.832031 680.667969 445.507812 C 680.339844 465.964844 680.007812 485.105469 670.273438 498.304688 C 667.796875 501.605469 664.824219 504.410156 661.523438 506.882812 C 651.128906 514.640625 636.769531 519.589844 621.753906 524.539062 C 606.734375 529.652344 591.058594 534.769531 578.84375 543.511719 C 566.632812 552.09375 556.894531 564.960938 547.488281 577.335938 C 534.945312 593.835938 522.898438 609.511719 506.5625 614.789062 C 491.050781 619.742188 472.402344 614.132812 452.597656 608.191406 C 444.511719 605.714844 436.09375 603.242188 427.84375 601.425781 C 420.25 599.777344 412.660156 598.621094 405.234375 598.621094 C 397.640625 598.621094 390.050781 599.777344 382.625 601.425781 C 377.507812 602.582031 372.558594 603.902344 367.441406 605.386719 C 364.140625 606.210938 361.003906 607.199219 357.871094 608.191406 C 338.066406 614.132812 319.417969 619.742188 303.90625 614.789062 C 287.566406 609.511719 275.519531 593.835938 262.976562 577.335938 C 257.367188 569.914062 251.425781 562.324219 245.152344 555.558594 C 241.027344 551.101562 236.574219 546.976562 231.621094 543.511719 C 219.246094 534.769531 203.730469 529.488281 188.714844 524.539062 C 173.695312 519.589844 159.339844 514.804688 148.941406 506.882812 C 145.640625 504.410156 142.671875 501.605469 140.195312 498.304688 C 130.457031 485.105469 130.128906 465.964844 129.796875 445.507812 C 129.46875 429.832031 129.304688 413.664062 124.515625 399.144531 C 119.894531 385.449219 110.65625 372.578125 101.578125 360.039062 C 88.871094 343.042969 77.316406 327.039062 77.316406 309.878906 C 77.316406 292.722656 88.871094 276.714844 101.246094 259.722656 C 110.324219 247.347656 119.566406 234.476562 124.1875 220.617188 C 128.972656 206.097656 129.300781 189.929688 129.46875 174.253906 C 129.796875 153.960938 130.128906 134.65625 139.863281 121.457031 C 149.765625 108.09375 168.578125 101.820312 188.546875 95.222656 C 203.566406 90.273438 219.246094 84.992188 231.457031 76.246094 C 243.667969 67.667969 253.40625 54.796875 262.8125 42.425781 C 275.519531 25.757812 287.402344 10.085938 303.738281 4.96875 C 307.867188 3.648438 312.320312 3.15625 316.941406 3.15625 C 329.484375 3.15625 343.347656 7.28125 357.703125 11.734375 C 373.21875 16.355469 389.226562 21.304688 405.066406 21.304688 C 420.910156 21.304688 436.917969 16.519531 452.433594 11.734375 C 472.234375 5.796875 490.882812 0.183594 506.398438 5.136719 C 522.734375 10.25 534.78125 25.925781 547.324219 42.589844 C 556.730469 54.964844 566.46875 67.667969 578.679688 76.414062 C 591.058594 85.15625 606.570312 90.4375 621.585938 95.386719 C 641.390625 101.988281 660.203125 108.257812 670.273438 121.621094 C 680.007812 134.820312 680.339844 153.960938 680.667969 174.417969 C 681 190.09375 681.164062 206.265625 685.949219 220.785156 C 690.570312 234.476562 699.8125 247.347656 708.890625 259.886719 C 721.265625 276.714844 732.816406 292.722656 732.816406 309.878906 Z M 732.816406 309.878906"/></g></svg>