<svg xmlns="http://www.w3.org/2000/svg" width="810" viewBox="0 0 810 810" height="810" version="1.0"><path d="M 653.886719 787.195312 L 626.535156 787.195312 L 626.535156 601.9375 C 626.535156 601.1875 626.464844 600.445312 626.316406 599.710938 C 626.171875 598.976562 625.957031 598.265625 625.667969 597.574219 C 625.382812 596.882812 625.03125 596.222656 624.617188 595.601562 C 624.199219 594.980469 623.726562 594.402344 623.199219 593.875 C 622.667969 593.34375 622.09375 592.871094 621.472656 592.457031 C 620.851562 592.039062 620.191406 591.6875 619.5 591.402344 C 618.808594 591.117188 618.097656 590.898438 617.363281 590.753906 C 616.628906 590.605469 615.890625 590.535156 615.140625 590.535156 L 535.644531 590.535156 C 535.007812 573.386719 533.183594 567.089844 527.894531 561.890625 C 526.628906 560.621094 525.246094 559.488281 523.753906 558.488281 C 522.261719 557.488281 520.6875 556.644531 519.03125 555.957031 C 517.371094 555.265625 515.664062 554.746094 513.902344 554.394531 C 512.140625 554.042969 510.363281 553.867188 508.570312 553.867188 C 506.882812 553.863281 505.199219 553.792969 503.519531 553.652344 C 501.839844 553.511719 500.167969 553.304688 498.503906 553.03125 C 496.839844 552.753906 495.191406 552.410156 493.554688 552 C 491.921875 551.589844 490.304688 551.113281 488.707031 550.570312 C 487.109375 550.03125 485.539062 549.425781 483.992188 548.753906 C 482.445312 548.082031 480.925781 547.351562 479.4375 546.558594 C 477.953125 545.765625 476.5 544.910156 475.082031 544 C 473.664062 543.085938 472.285156 542.117188 470.945312 541.09375 C 469.605469 540.070312 468.308594 538.992188 467.058594 537.859375 C 465.804688 536.730469 464.601562 535.550781 463.445312 534.324219 C 462.292969 533.09375 461.1875 531.820312 460.136719 530.503906 C 459.082031 529.183594 458.085938 527.824219 457.144531 526.425781 C 456.203125 525.027344 455.320312 523.589844 454.496094 522.117188 C 453.671875 520.648438 452.910156 519.144531 452.207031 517.609375 C 451.503906 516.078125 450.867188 514.515625 450.292969 512.929688 C 449.71875 511.34375 449.207031 509.738281 448.761719 508.113281 C 448.320312 506.484375 447.941406 504.839844 447.632812 503.183594 C 447.320312 501.523438 447.078125 499.855469 446.902344 498.179688 C 446.730469 496.5 446.625 494.820312 446.585938 493.132812 C 446.546875 491.445312 446.578125 489.761719 446.679688 488.078125 C 446.777344 486.394531 446.945312 484.714844 447.183594 483.046875 C 447.417969 481.375 447.722656 479.714844 448.09375 478.070312 C 448.464844 476.425781 448.902344 474.796875 449.40625 473.1875 C 449.910156 471.578125 450.476562 469.992188 451.109375 468.425781 C 451.746094 466.863281 452.441406 465.328125 453.199219 463.820312 C 453.957031 462.316406 454.773438 460.839844 455.652344 459.402344 C 456.53125 457.960938 457.464844 456.558594 458.457031 455.195312 C 459.449219 453.832031 460.496094 452.507812 461.59375 451.230469 C 462.695312 449.953125 463.84375 448.71875 465.042969 447.535156 C 466.242188 446.351562 467.488281 445.214844 468.78125 444.132812 C 470.074219 443.050781 471.410156 442.019531 472.785156 441.046875 C 474.160156 440.070312 475.574219 439.152344 477.027344 438.292969 C 477.027344 438.292969 481.949219 435.921875 483.5 435.011719 C 531.179688 410.015625 571.382812 356.382812 599.003906 286.328125 C 603.410156 284.121094 607.734375 281.769531 611.976562 279.265625 C 616.21875 276.761719 620.367188 274.117188 624.429688 271.328125 C 628.488281 268.539062 632.449219 265.613281 636.308594 262.550781 C 640.164062 259.488281 643.914062 256.296875 647.554688 252.976562 C 651.191406 249.65625 654.714844 246.214844 658.117188 242.648438 C 661.519531 239.085938 664.792969 235.410156 667.941406 231.621094 C 671.09375 227.832031 674.105469 223.941406 676.988281 219.945312 C 679.871094 215.949219 682.609375 211.855469 685.210938 207.671875 C 687.808594 203.484375 690.261719 199.214844 692.566406 194.859375 C 694.871094 190.507812 697.023438 186.078125 699.027344 181.574219 C 701.027344 177.070312 702.871094 172.503906 704.554688 167.875 C 706.242188 163.246094 707.769531 158.5625 709.132812 153.828125 C 710.496094 149.09375 711.695312 144.316406 712.730469 139.496094 C 713.765625 134.679688 714.632812 129.832031 715.335938 124.953125 C 716.035156 120.078125 716.570312 115.179688 716.933594 110.265625 C 717.296875 105.351562 717.492188 100.429688 717.519531 95.503906 C 717.519531 93.769531 717.433594 92.042969 717.265625 90.316406 C 717.09375 88.59375 716.839844 86.882812 716.503906 85.183594 C 716.164062 83.484375 715.746094 81.804688 715.242188 80.144531 C 714.738281 78.488281 714.15625 76.859375 713.496094 75.257812 C 712.832031 73.65625 712.09375 72.09375 711.277344 70.5625 C 710.460938 69.035156 709.570312 67.550781 708.609375 66.109375 C 707.644531 64.671875 706.617188 63.28125 705.515625 61.941406 C 704.417969 60.601562 703.257812 59.320312 702.03125 58.09375 C 700.808594 56.867188 699.527344 55.707031 698.1875 54.605469 C 696.847656 53.507812 695.460938 52.476562 694.019531 51.515625 C 692.578125 50.550781 691.097656 49.664062 689.570312 48.84375 C 688.042969 48.027344 686.476562 47.289062 684.878906 46.625 C 683.277344 45.960938 681.648438 45.378906 679.992188 44.875 C 678.335938 44.375 676.65625 43.953125 674.960938 43.613281 C 673.261719 43.277344 671.550781 43.023438 669.828125 42.851562 C 668.101562 42.683594 666.375 42.597656 664.644531 42.597656 L 639.753906 42.597656 L 639.753906 11.675781 C 639.753906 10.925781 639.683594 10.1875 639.535156 9.453125 C 639.390625 8.71875 639.175781 8.003906 638.886719 7.3125 C 638.601562 6.621094 638.25 5.964844 637.835938 5.339844 C 637.417969 4.71875 636.945312 4.144531 636.417969 3.613281 C 635.886719 3.085938 635.3125 2.613281 634.691406 2.195312 C 634.070312 1.78125 633.410156 1.429688 632.71875 1.140625 C 632.03125 0.855469 631.316406 0.640625 630.582031 0.492188 C 629.847656 0.347656 629.109375 0.273438 628.359375 0.273438 L 182.925781 0.273438 C 182.179688 0.273438 181.4375 0.347656 180.703125 0.492188 C 179.96875 0.640625 179.257812 0.855469 178.566406 1.140625 C 177.875 1.429688 177.21875 1.78125 176.59375 2.195312 C 175.972656 2.613281 175.398438 3.085938 174.867188 3.613281 C 174.339844 4.144531 173.867188 4.71875 173.453125 5.339844 C 173.035156 5.964844 172.683594 6.621094 172.398438 7.3125 C 172.113281 8.003906 171.894531 8.71875 171.75 9.453125 C 171.605469 10.1875 171.53125 10.925781 171.53125 11.675781 L 171.53125 42.597656 L 144.179688 42.597656 C 142.453125 42.601562 140.726562 42.6875 139.003906 42.863281 C 137.285156 43.035156 135.574219 43.289062 133.878906 43.628906 C 132.183594 43.972656 130.507812 44.394531 128.851562 44.898438 C 127.199219 45.402344 125.570312 45.988281 123.976562 46.652344 C 122.378906 47.316406 120.816406 48.058594 119.292969 48.875 C 117.765625 49.691406 116.285156 50.582031 114.847656 51.546875 C 113.410156 52.507812 112.023438 53.539062 110.6875 54.640625 C 109.351562 55.738281 108.074219 56.902344 106.851562 58.125 C 105.628906 59.351562 104.46875 60.632812 103.375 61.972656 C 102.277344 63.3125 101.25 64.699219 100.289062 66.140625 C 99.328125 67.578125 98.441406 69.0625 97.625 70.589844 C 96.8125 72.117188 96.074219 73.679688 95.414062 75.277344 C 94.75 76.878906 94.171875 78.507812 93.667969 80.164062 C 93.167969 81.820312 92.746094 83.496094 92.410156 85.195312 C 92.074219 86.890625 91.820312 88.601562 91.652344 90.324219 C 91.480469 92.046875 91.398438 93.773438 91.398438 95.503906 C 91.414062 100.457031 91.605469 105.40625 91.964844 110.34375 C 92.324219 115.285156 92.855469 120.207031 93.558594 125.109375 C 94.257812 130.015625 95.128906 134.886719 96.167969 139.730469 C 97.207031 144.574219 98.410156 149.378906 99.78125 154.136719 C 101.152344 158.898438 102.6875 163.605469 104.382812 168.257812 C 106.078125 172.910156 107.933594 177.5 109.949219 182.027344 C 111.964844 186.550781 114.132812 191 116.453125 195.375 C 118.777344 199.75 121.246094 204.039062 123.863281 208.246094 C 126.484375 212.449219 129.246094 216.554688 132.148438 220.570312 C 135.050781 224.582031 138.089844 228.488281 141.261719 232.289062 C 144.4375 236.09375 147.738281 239.78125 151.167969 243.355469 C 154.597656 246.925781 158.144531 250.378906 161.8125 253.707031 C 165.480469 257.03125 169.257812 260.230469 173.144531 263.296875 C 177.035156 266.359375 181.023438 269.289062 185.117188 272.078125 C 189.207031 274.867188 193.390625 277.511719 197.664062 280.011719 C 201.941406 282.511719 206.296875 284.859375 210.730469 287.058594 C 211.203125 287.28125 211.6875 287.464844 212.191406 287.605469 C 239.539062 357.019531 279.742188 410.199219 326.96875 435.011719 L 333.167969 438.203125 C 334.636719 439.046875 336.070312 439.949219 337.464844 440.910156 C 338.863281 441.867188 340.21875 442.886719 341.53125 443.957031 C 342.84375 445.027344 344.109375 446.152344 345.332031 447.328125 C 346.554688 448.503906 347.722656 449.726562 348.84375 451 C 349.964844 452.269531 351.03125 453.585938 352.042969 454.945312 C 353.058594 456.304688 354.011719 457.703125 354.910156 459.140625 C 355.808594 460.578125 356.648438 462.050781 357.425781 463.554688 C 358.203125 465.0625 358.917969 466.597656 359.570312 468.164062 C 360.222656 469.730469 360.808594 471.316406 361.328125 472.929688 C 361.851562 474.542969 362.304688 476.175781 362.691406 477.828125 C 363.082031 479.476562 363.398438 481.140625 363.652344 482.816406 C 363.902344 484.492188 364.085938 486.179688 364.199219 487.871094 C 364.3125 489.5625 364.355469 491.253906 364.332031 492.949219 C 364.304688 494.644531 364.210938 496.335938 364.046875 498.023438 C 363.882812 499.710938 363.648438 501.390625 363.347656 503.058594 C 363.046875 504.726562 362.679688 506.378906 362.242188 508.015625 C 361.804688 509.65625 361.300781 511.273438 360.730469 512.871094 C 360.160156 514.464844 359.527344 516.039062 358.828125 517.582031 C 358.128906 519.128906 357.371094 520.640625 356.546875 522.121094 C 355.726562 523.605469 354.84375 525.050781 353.902344 526.460938 C 352.960938 527.871094 351.964844 529.242188 350.914062 530.570312 C 349.859375 531.898438 348.753906 533.179688 347.59375 534.417969 C 346.4375 535.65625 345.230469 536.84375 343.972656 537.980469 C 342.71875 539.121094 341.417969 540.207031 340.074219 541.238281 C 338.730469 542.269531 337.34375 543.246094 335.921875 544.164062 C 334.496094 545.082031 333.035156 545.9375 331.542969 546.738281 C 330.046875 547.535156 328.523438 548.273438 326.96875 548.945312 C 325.410156 549.617188 323.832031 550.226562 322.226562 550.769531 C 320.621094 551.316406 318.996094 551.792969 317.351562 552.203125 C 315.710938 552.613281 314.050781 552.957031 312.378906 553.230469 C 310.707031 553.503906 309.027344 553.710938 307.335938 553.847656 C 305.648438 553.984375 303.957031 554.050781 302.261719 554.046875 C 300.464844 554.050781 298.6875 554.226562 296.929688 554.578125 C 295.167969 554.929688 293.457031 555.449219 291.800781 556.136719 C 290.144531 556.828125 288.566406 557.671875 287.074219 558.671875 C 285.582031 559.667969 284.203125 560.804688 282.933594 562.074219 C 277.738281 567.273438 275.824219 573.566406 275.1875 590.714844 L 194.597656 590.714844 C 193.847656 590.714844 193.105469 590.789062 192.371094 590.9375 C 191.640625 591.082031 190.925781 591.296875 190.234375 591.585938 C 189.542969 591.871094 188.886719 592.222656 188.265625 592.636719 C 187.640625 593.054688 187.066406 593.527344 186.539062 594.054688 C 186.007812 594.585938 185.535156 595.160156 185.121094 595.785156 C 184.703125 596.40625 184.355469 597.0625 184.066406 597.753906 C 183.78125 598.445312 183.566406 599.160156 183.417969 599.894531 C 183.273438 600.628906 183.199219 601.371094 183.199219 602.117188 L 183.199219 787.195312 L 155.394531 787.195312 C 154.644531 787.195312 153.90625 787.269531 153.171875 787.414062 C 152.4375 787.5625 151.726562 787.777344 151.035156 788.0625 C 150.34375 788.351562 149.6875 788.703125 149.0625 789.117188 C 148.441406 789.535156 147.867188 790.007812 147.335938 790.535156 C 146.808594 791.066406 146.335938 791.640625 145.917969 792.261719 C 145.503906 792.886719 145.152344 793.542969 144.867188 794.234375 C 144.582031 794.925781 144.363281 795.640625 144.21875 796.375 C 144.070312 797.109375 144 797.851562 144 798.597656 C 144 799.347656 144.070312 800.089844 144.21875 800.824219 C 144.363281 801.558594 144.582031 802.269531 144.867188 802.960938 C 145.152344 803.652344 145.503906 804.308594 145.917969 804.933594 C 146.335938 805.554688 146.808594 806.132812 147.335938 806.660156 C 147.867188 807.191406 148.441406 807.664062 149.0625 808.078125 C 149.6875 808.496094 150.34375 808.847656 151.035156 809.132812 C 151.726562 809.417969 152.4375 809.636719 153.171875 809.78125 C 153.90625 809.925781 154.644531 810 155.394531 810 L 653.886719 810 C 654.632812 810 655.375 809.925781 656.109375 809.78125 C 656.84375 809.636719 657.554688 809.417969 658.246094 809.132812 C 658.9375 808.847656 659.59375 808.496094 660.21875 808.078125 C 660.839844 807.664062 661.414062 807.191406 661.945312 806.660156 C 662.472656 806.132812 662.945312 805.554688 663.359375 804.933594 C 663.777344 804.308594 664.128906 803.652344 664.414062 802.960938 C 664.699219 802.269531 664.917969 801.558594 665.0625 800.824219 C 665.207031 800.089844 665.28125 799.347656 665.28125 798.597656 C 665.28125 797.851562 665.207031 797.109375 665.0625 796.375 C 664.917969 795.640625 664.699219 794.925781 664.414062 794.234375 C 664.128906 793.542969 663.777344 792.886719 663.359375 792.261719 C 662.945312 791.640625 662.472656 791.066406 661.945312 790.535156 C 661.414062 790.007812 660.839844 789.535156 660.21875 789.117188 C 659.59375 788.703125 658.9375 788.351562 658.246094 788.0625 C 657.554688 787.777344 656.84375 787.5625 656.109375 787.414062 C 655.375 787.269531 654.632812 787.195312 653.886719 787.195312 Z M 685.792969 74.25 C 687.21875 75.628906 688.496094 77.136719 689.625 78.773438 C 690.75 80.40625 691.703125 82.136719 692.488281 83.960938 C 693.269531 85.785156 693.867188 87.667969 694.273438 89.609375 C 694.679688 91.554688 694.894531 93.519531 694.910156 95.503906 C 694.894531 99.371094 694.757812 103.238281 694.507812 107.097656 C 694.253906 110.957031 693.886719 114.804688 693.402344 118.644531 C 692.917969 122.480469 692.320312 126.300781 691.601562 130.101562 C 690.886719 133.902344 690.058594 137.679688 689.113281 141.429688 C 688.167969 145.183594 687.113281 148.902344 685.941406 152.589844 C 684.773438 156.277344 683.492188 159.925781 682.101562 163.535156 C 680.710938 167.144531 679.214844 170.707031 677.605469 174.226562 C 676 177.746094 674.289062 181.210938 672.472656 184.625 C 670.65625 188.042969 668.738281 191.398438 666.71875 194.695312 C 664.699219 197.996094 662.582031 201.230469 660.367188 204.402344 C 658.152344 207.570312 655.84375 210.671875 653.441406 213.703125 C 651.035156 216.730469 648.542969 219.6875 645.960938 222.566406 C 643.378906 225.445312 640.714844 228.242188 637.960938 230.960938 C 635.210938 233.679688 632.378906 236.3125 629.46875 238.855469 C 626.558594 241.402344 623.574219 243.859375 620.515625 246.222656 C 617.453125 248.589844 614.328125 250.859375 611.128906 253.035156 C 620.492188 222.640625 627.5625 191.71875 632.347656 160.277344 C 637.128906 128.832031 639.566406 97.207031 639.664062 65.402344 L 664.550781 65.402344 C 666.527344 65.390625 668.484375 65.578125 670.425781 65.960938 C 672.363281 66.339844 674.246094 66.910156 676.070312 67.671875 C 677.894531 68.433594 679.625 69.367188 681.261719 70.472656 C 682.898438 71.582031 684.410156 72.839844 685.792969 74.25 Z M 541.933594 203.320312 C 549.09375 180.199219 554.136719 156.621094 557.0625 132.589844 C 559.988281 108.558594 560.75 84.460938 559.347656 60.292969 C 559.265625 59.550781 559.253906 58.808594 559.320312 58.0625 C 559.382812 57.320312 559.519531 56.589844 559.726562 55.871094 C 559.933594 55.152344 560.207031 54.460938 560.550781 53.800781 C 560.894531 53.136719 561.296875 52.511719 561.761719 51.925781 C 562.226562 51.34375 562.746094 50.808594 563.316406 50.328125 C 563.886719 49.84375 564.496094 49.421875 565.152344 49.0625 C 565.804688 48.699219 566.484375 48.402344 567.195312 48.175781 C 567.90625 47.949219 568.632812 47.792969 569.375 47.707031 C 570.121094 47.613281 570.867188 47.589844 571.613281 47.644531 C 572.363281 47.699219 573.097656 47.828125 573.820312 48.03125 C 574.542969 48.234375 575.238281 48.507812 575.90625 48.847656 C 576.574219 49.191406 577.199219 49.59375 577.785156 50.0625 C 578.371094 50.53125 578.90625 51.050781 579.390625 51.625 C 579.871094 52.203125 580.292969 52.820312 580.648438 53.476562 C 581.007812 54.136719 581.296875 54.828125 581.515625 55.542969 C 581.738281 56.261719 581.882812 56.992188 581.957031 57.742188 C 582.789062 70.558594 583.03125 83.386719 582.683594 96.226562 C 582.335938 109.0625 581.394531 121.859375 579.867188 134.613281 C 578.335938 147.363281 576.226562 160.019531 573.527344 172.578125 C 570.832031 185.136719 567.5625 197.542969 563.722656 209.796875 C 563.550781 210.382812 563.328125 210.953125 563.0625 211.503906 C 562.796875 212.054688 562.488281 212.582031 562.140625 213.085938 C 561.789062 213.585938 561.402344 214.058594 560.980469 214.496094 C 560.554688 214.9375 560.097656 215.339844 559.609375 215.707031 C 559.117188 216.074219 558.601562 216.402344 558.0625 216.6875 C 557.519531 216.972656 556.960938 217.210938 556.378906 217.40625 C 555.800781 217.601562 555.210938 217.75 554.605469 217.851562 C 554.003906 217.953125 553.394531 218.003906 552.785156 218.007812 C 551.703125 217.984375 550.636719 217.832031 549.59375 217.550781 C 548.878906 217.328125 548.195312 217.035156 547.539062 216.679688 C 546.882812 216.320312 546.265625 215.90625 545.691406 215.429688 C 545.113281 214.953125 544.589844 214.425781 544.117188 213.847656 C 543.644531 213.269531 543.230469 212.652344 542.875 211.992188 C 542.519531 211.335938 542.230469 210.648438 542.011719 209.933594 C 541.789062 209.222656 541.636719 208.492188 541.558594 207.75 C 541.476562 207.007812 541.46875 206.261719 541.53125 205.515625 C 541.597656 204.773438 541.730469 204.039062 541.933594 203.320312 Z M 541.386719 231.140625 C 542.136719 231.148438 542.875 231.226562 543.605469 231.378906 C 544.335938 231.53125 545.046875 231.75 545.734375 232.042969 C 546.421875 232.332031 547.074219 232.6875 547.695312 233.109375 C 548.3125 233.527344 548.882812 234.003906 549.410156 234.535156 C 549.933594 235.066406 550.402344 235.644531 550.8125 236.269531 C 551.222656 236.894531 551.570312 237.550781 551.851562 238.242188 C 552.132812 238.9375 552.34375 239.648438 552.484375 240.382812 C 552.628906 241.117188 552.695312 241.855469 552.691406 242.605469 C 552.6875 243.351562 552.613281 244.09375 552.460938 244.824219 C 552.3125 245.554688 552.09375 246.265625 551.804688 246.957031 C 551.515625 247.644531 551.164062 248.300781 550.746094 248.917969 C 550.328125 249.539062 549.851562 250.113281 549.324219 250.636719 C 548.792969 251.164062 548.214844 251.632812 547.59375 252.046875 C 546.972656 252.460938 546.3125 252.808594 545.625 253.09375 C 544.933594 253.375 544.21875 253.589844 543.488281 253.734375 C 542.753906 253.878906 542.015625 253.949219 541.265625 253.945312 C 540.519531 253.945312 539.78125 253.871094 539.046875 253.722656 C 538.316406 253.574219 537.605469 253.355469 536.914062 253.070312 C 536.226562 252.78125 535.570312 252.429688 534.949219 252.015625 C 534.328125 251.597656 533.757812 251.125 533.226562 250.597656 C 532.699219 250.066406 532.230469 249.492188 531.816406 248.871094 C 531.402344 248.246094 531.050781 247.589844 530.765625 246.902344 C 530.480469 246.210938 530.265625 245.496094 530.121094 244.765625 C 529.972656 244.03125 529.902344 243.292969 529.902344 242.542969 C 529.902344 241.789062 529.976562 241.039062 530.125 240.296875 C 530.273438 239.554688 530.492188 238.835938 530.785156 238.136719 C 531.078125 237.441406 531.4375 236.777344 531.859375 236.152344 C 532.285156 235.527344 532.765625 234.949219 533.304688 234.417969 C 533.84375 233.886719 534.429688 233.414062 535.0625 233 C 535.691406 232.585938 536.359375 232.238281 537.0625 231.957031 C 537.765625 231.675781 538.488281 231.46875 539.230469 231.328125 C 539.972656 231.191406 540.722656 231.128906 541.480469 231.140625 Z M 114.460938 95.503906 C 114.464844 94.519531 114.515625 93.539062 114.613281 92.5625 C 114.710938 91.582031 114.859375 90.613281 115.050781 89.648438 C 115.246094 88.683594 115.484375 87.734375 115.773438 86.792969 C 116.058594 85.851562 116.390625 84.925781 116.765625 84.019531 C 117.144531 83.113281 117.5625 82.222656 118.027344 81.355469 C 118.492188 80.488281 118.996094 79.648438 119.539062 78.832031 C 120.085938 78.011719 120.671875 77.222656 121.292969 76.460938 C 121.914062 75.703125 122.574219 74.972656 123.265625 74.277344 C 123.960938 73.582031 124.6875 72.921875 125.445312 72.296875 C 126.203125 71.671875 126.992188 71.082031 127.804688 70.535156 C 128.621094 69.988281 129.460938 69.480469 130.328125 69.011719 C 131.191406 68.546875 132.078125 68.125 132.984375 67.742188 C 133.890625 67.363281 134.8125 67.03125 135.753906 66.742188 C 136.691406 66.449219 137.640625 66.207031 138.605469 66.011719 C 139.566406 65.816406 140.539062 65.664062 141.515625 65.5625 C 142.492188 65.460938 143.472656 65.410156 144.453125 65.402344 L 171.804688 65.402344 C 171.96875 97.5 174.5 129.40625 179.40625 161.128906 C 184.308594 192.847656 191.53125 224.03125 201.070312 254.675781 C 197.777344 252.523438 194.558594 250.269531 191.40625 247.914062 C 188.253906 245.5625 185.179688 243.113281 182.179688 240.570312 C 179.179688 238.03125 176.257812 235.398438 173.421875 232.675781 C 170.582031 229.953125 167.832031 227.144531 165.164062 224.253906 C 162.5 221.359375 159.925781 218.390625 157.441406 215.339844 C 154.960938 212.289062 152.574219 209.164062 150.285156 205.964844 C 147.992188 202.765625 145.804688 199.5 143.714844 196.167969 C 141.625 192.835938 139.640625 189.441406 137.761719 185.988281 C 135.882812 182.53125 134.109375 179.019531 132.445312 175.457031 C 130.78125 171.890625 129.230469 168.28125 127.789062 164.621094 C 126.347656 160.960938 125.019531 157.257812 123.804688 153.515625 C 122.589844 149.773438 121.492188 146 120.511719 142.1875 C 119.53125 138.378906 118.667969 134.542969 117.925781 130.679688 C 117.179688 126.816406 116.554688 122.933594 116.046875 119.03125 C 115.542969 115.132812 115.15625 111.21875 114.894531 107.292969 C 114.628906 103.367188 114.484375 99.4375 114.460938 95.503906 Z M 325.054688 130.441406 L 307.457031 117.667969 C 306.472656 116.988281 305.410156 116.464844 304.269531 116.109375 C 303.125 115.75 301.953125 115.574219 300.757812 115.574219 C 299.558594 115.574219 298.390625 115.75 297.246094 116.109375 C 296.105469 116.464844 295.039062 116.988281 294.058594 117.667969 L 276.554688 130.441406 L 276.554688 23.078125 L 325.054688 23.078125 Z M 205.625 787.195312 L 205.625 613.339844 L 603.289062 613.339844 L 603.289062 787.195312 Z M 205.625 787.195312"/><path d="M 284.027344 655.664062 L 529.261719 655.664062 C 530.011719 655.664062 530.753906 655.734375 531.488281 655.882812 C 532.21875 656.027344 532.933594 656.242188 533.625 656.53125 C 534.316406 656.816406 534.972656 657.167969 535.59375 657.585938 C 536.214844 658 536.792969 658.472656 537.320312 659.003906 C 537.851562 659.53125 538.324219 660.109375 538.738281 660.730469 C 539.152344 661.351562 539.503906 662.007812 539.792969 662.699219 C 540.078125 663.394531 540.292969 664.105469 540.441406 664.839844 C 540.585938 665.574219 540.660156 666.316406 540.660156 667.066406 L 540.660156 733.5625 C 540.660156 734.308594 540.585938 735.050781 540.441406 735.785156 C 540.292969 736.519531 540.078125 737.234375 539.792969 737.925781 C 539.503906 738.617188 539.152344 739.273438 538.738281 739.894531 C 538.324219 740.519531 537.851562 741.09375 537.320312 741.625 C 536.792969 742.152344 536.214844 742.625 535.59375 743.042969 C 534.972656 743.457031 534.316406 743.808594 533.625 744.09375 C 532.933594 744.382812 532.21875 744.597656 531.488281 744.746094 C 530.753906 744.890625 530.011719 744.964844 529.261719 744.964844 L 284.027344 744.964844 C 283.28125 744.964844 282.539062 744.890625 281.804688 744.746094 C 281.070312 744.597656 280.359375 744.382812 279.667969 744.09375 C 278.976562 743.808594 278.320312 743.457031 277.699219 743.042969 C 277.074219 742.625 276.5 742.152344 275.972656 741.625 C 275.441406 741.09375 274.96875 740.519531 274.554688 739.894531 C 274.136719 739.273438 273.785156 738.617188 273.5 737.925781 C 273.214844 737.234375 273 736.519531 272.851562 735.785156 C 272.707031 735.050781 272.632812 734.308594 272.632812 733.5625 L 272.632812 667.066406 C 272.632812 666.316406 272.707031 665.574219 272.851562 664.839844 C 273 664.105469 273.214844 663.394531 273.5 662.703125 C 273.785156 662.007812 274.136719 661.351562 274.554688 660.730469 C 274.96875 660.109375 275.441406 659.53125 275.972656 659.003906 C 276.5 658.472656 277.074219 658 277.699219 657.585938 C 278.320312 657.167969 278.976562 656.816406 279.667969 656.53125 C 280.359375 656.242188 281.070312 656.027344 281.804688 655.882812 C 282.539062 655.734375 283.28125 655.664062 284.027344 655.664062 Z M 284.027344 655.664062"/></svg>