<svg xmlns="http://www.w3.org/2000/svg" width="810" viewBox="0 0 810 810" height="810" version="1.0"><path d="M 99.984375 810 L 710.015625 810 C 764.4375 810 810 765.703125 810 710.015625 L 810 99.984375 C 810 44.296875 765.703125 0 710.015625 0 L 99.984375 0 C 44.296875 0 0 44.296875 0 99.984375 L 0 710.015625 C 0 765.703125 44.296875 810 99.984375 810 Z M 99.984375 25.3125 L 710.015625 25.3125 C 751.78125 25.3125 784.6875 58.21875 784.6875 99.984375 L 784.6875 392.34375 L 480.9375 392.34375 C 473.34375 392.34375 468.28125 397.40625 468.28125 405 C 468.28125 412.59375 473.34375 417.65625 480.9375 417.65625 L 784.6875 417.65625 L 784.6875 710.015625 C 784.6875 750.515625 751.78125 784.6875 710.015625 784.6875 L 417.65625 784.6875 L 417.65625 88.59375 C 417.65625 81 412.59375 75.9375 405 75.9375 C 397.40625 75.9375 392.34375 81 392.34375 88.59375 L 392.34375 392.34375 L 25.3125 392.34375 L 25.3125 99.984375 C 25.3125 58.21875 58.21875 25.3125 99.984375 25.3125 Z M 25.3125 417.65625 L 392.34375 417.65625 L 392.34375 784.6875 L 99.984375 784.6875 C 58.21875 784.6875 25.3125 751.78125 25.3125 710.015625 Z M 25.3125 417.65625"/><path d="M 101.25 227.8125 L 202.5 227.8125 L 202.5 329.0625 C 202.5 336.65625 207.5625 341.71875 215.15625 341.71875 C 222.75 341.71875 227.8125 336.65625 227.8125 329.0625 L 227.8125 227.8125 L 329.0625 227.8125 C 336.65625 227.8125 341.71875 222.75 341.71875 215.15625 C 341.71875 207.5625 336.65625 202.5 329.0625 202.5 L 227.8125 202.5 L 227.8125 101.25 C 227.8125 93.65625 222.75 88.59375 215.15625 88.59375 C 207.5625 88.59375 202.5 93.65625 202.5 101.25 L 202.5 202.5 L 101.25 202.5 C 93.65625 202.5 88.59375 207.5625 88.59375 215.15625 C 88.59375 222.75 93.65625 227.8125 101.25 227.8125 Z M 101.25 227.8125"/><path d="M 506.25 227.8125 L 734.0625 227.8125 C 741.65625 227.8125 746.71875 222.75 746.71875 215.15625 C 746.71875 207.5625 741.65625 202.5 734.0625 202.5 L 506.25 202.5 C 498.65625 202.5 493.59375 207.5625 493.59375 215.15625 C 493.59375 222.75 498.65625 227.8125 506.25 227.8125 Z M 506.25 227.8125"/><path d="M 493.59375 607.5 L 734.0625 607.5 C 741.65625 607.5 746.71875 602.4375 746.71875 594.84375 C 746.71875 587.25 741.65625 582.1875 734.0625 582.1875 L 493.59375 582.1875 C 486 582.1875 480.9375 587.25 480.9375 594.84375 C 480.9375 602.4375 486 607.5 493.59375 607.5 Z M 493.59375 607.5"/><path d="M 199.96875 598.640625 L 105.046875 693.5625 C 99.984375 698.625 99.984375 706.21875 105.046875 711.28125 C 107.578125 713.8125 111.375 715.078125 113.90625 715.078125 C 116.4375 715.078125 120.234375 713.8125 122.765625 711.28125 L 217.6875 616.359375 L 313.875 712.546875 C 316.40625 715.078125 320.203125 716.34375 322.734375 716.34375 C 325.265625 716.34375 329.0625 715.078125 331.59375 712.546875 C 336.65625 707.484375 336.65625 699.890625 331.59375 694.828125 L 235.40625 598.640625 L 330.328125 503.71875 C 335.390625 498.65625 335.390625 491.0625 330.328125 486 C 325.265625 480.9375 317.671875 480.9375 312.609375 486 L 217.6875 580.921875 L 121.5 484.734375 C 116.4375 479.671875 108.84375 479.671875 103.78125 484.734375 C 98.71875 489.796875 98.71875 497.390625 103.78125 502.453125 Z M 199.96875 598.640625"/><path d="M 613.828125 645.46875 C 592.3125 645.46875 575.859375 661.921875 575.859375 683.4375 C 575.859375 704.953125 592.3125 721.40625 613.828125 721.40625 C 635.34375 721.40625 651.796875 704.953125 651.796875 683.4375 C 651.796875 661.921875 635.34375 645.46875 613.828125 645.46875 Z M 613.828125 696.09375 C 606.234375 696.09375 601.171875 691.03125 601.171875 683.4375 C 601.171875 675.84375 606.234375 670.78125 613.828125 670.78125 C 620.15625 670.78125 626.484375 675.84375 626.484375 683.4375 C 626.484375 689.765625 621.421875 696.09375 613.828125 696.09375 Z M 613.828125 696.09375"/><path d="M 613.828125 544.21875 C 635.34375 544.21875 651.796875 527.765625 651.796875 506.25 C 651.796875 484.734375 635.34375 468.28125 613.828125 468.28125 C 592.3125 468.28125 575.859375 484.734375 575.859375 506.25 C 575.859375 527.765625 593.578125 544.21875 613.828125 544.21875 Z M 613.828125 493.59375 C 620.15625 493.59375 626.484375 498.65625 626.484375 506.25 C 626.484375 512.578125 621.421875 518.90625 613.828125 518.90625 C 606.234375 518.90625 601.171875 513.84375 601.171875 506.25 C 601.171875 499.921875 607.5 493.59375 613.828125 493.59375 Z M 613.828125 493.59375"/></svg>