<svg xmlns="http://www.w3.org/2000/svg" width="810" viewBox="0 0 810 810" height="810" version="1.0"><path d="M 182.25 0 C 81.941406 0 0 81.941406 0 182.25 L 0 627.75 C 0 728.058594 81.941406 810 182.25 810 L 627.75 810 C 728.058594 810 810 728.058594 810 627.75 L 810 182.25 C 810 81.941406 728.058594 0 627.75 0 Z M 182.25 40.5 L 627.75 40.5 C 706.089844 40.5 769.5 103.910156 769.5 182.25 L 769.5 627.75 C 769.5 706.089844 706.089844 769.5 627.75 769.5 L 182.25 769.5 C 103.910156 769.5 40.5 706.089844 40.5 627.75 L 40.5 182.25 C 40.5 103.910156 103.910156 40.5 182.25 40.5 Z M 182.765625 222.75 C 138.003906 222.75 101.25 259.503906 101.25 304.265625 L 101.25 505.734375 C 101.25 550.496094 138.003906 587.25 182.765625 587.25 L 424.734375 587.25 C 469.496094 587.25 506.25 550.496094 506.25 505.734375 L 506.25 304.265625 C 506.25 259.503906 469.496094 222.75 424.734375 222.75 Z M 670.070312 243.238281 C 660.824219 243.238281 651.34375 247.082031 644.636719 253.085938 L 546.75 340.453125 L 546.75 469.546875 L 644.675781 556.914062 L 644.675781 556.953125 C 651.375 562.917969 660.824219 566.761719 670.070312 566.761719 C 689.328125 566.761719 708.75 550.707031 708.75 528.199219 L 708.75 281.800781 C 708.75 259.292969 689.328125 243.238281 670.070312 243.238281 Z M 182.765625 263.25 L 424.734375 263.25 C 447.53125 263.25 465.75 281.46875 465.75 304.265625 L 465.75 505.734375 C 465.75 528.53125 447.53125 546.75 424.734375 546.75 L 182.765625 546.75 C 159.96875 546.75 141.75 528.53125 141.75 505.734375 L 141.75 304.265625 C 141.75 281.46875 159.96875 263.25 182.765625 263.25 Z M 668.25 286.347656 L 668.25 523.691406 L 587.25 451.394531 L 587.25 358.566406 Z M 668.25 286.347656"/></svg>