<svg xmlns="http://www.w3.org/2000/svg" width="810" viewBox="0 0 810 810" height="810" version="1.0"><path d="M 405 810 C 181.675781 810 0 628.324219 0 405 C 0 181.675781 181.675781 0 405 0 C 628.324219 0 810 181.675781 810 405 C 810 628.324219 628.324219 810 405 810 Z M 405 33.75 C 200.304688 33.75 33.75 200.304688 33.75 405 C 33.75 609.695312 200.304688 776.25 405 776.25 C 609.695312 776.25 776.25 609.695312 776.25 405 C 776.25 200.304688 609.695312 33.75 405 33.75 Z M 405 33.75"/><path d="M 405 573.75 C 311.953125 573.75 236.25 498.046875 236.25 405 C 236.25 311.953125 311.953125 236.25 405 236.25 C 498.046875 236.25 573.75 311.953125 573.75 405 C 573.75 498.046875 498.046875 573.75 405 573.75 Z M 405 270 C 330.546875 270 270 330.546875 270 405 C 270 479.453125 330.546875 540 405 540 C 479.453125 540 540 479.453125 540 405 C 540 330.546875 479.453125 270 405 270 Z M 405 270"/><path d="M 762.242188 270 L 405 270 C 395.683594 270 388.125 262.441406 388.125 253.125 C 388.125 243.808594 395.683594 236.25 405 236.25 L 762.242188 236.25 C 771.558594 236.25 779.117188 243.808594 779.117188 253.125 C 779.117188 262.441406 771.558594 270 762.242188 270 Z M 762.242188 270"/><path d="M 381.308594 809.324219 C 378.777344 809.324219 376.210938 808.75 373.78125 807.535156 C 365.445312 803.386719 362.035156 793.261719 366.222656 784.921875 L 525.792969 465.277344 C 529.941406 456.976562 540.167969 453.53125 548.402344 457.71875 C 556.738281 461.867188 560.148438 471.992188 555.964844 480.328125 L 396.394531 799.976562 C 393.457031 805.917969 387.484375 809.324219 381.308594 809.324219 Z M 381.308594 809.324219"/><path d="M 283.636719 513.167969 C 278.503906 513.167969 273.441406 510.839844 270.136719 506.417969 L 55.453125 220.894531 C 49.847656 213.433594 51.332031 202.871094 58.792969 197.269531 C 66.25 191.667969 76.816406 193.152344 82.417969 200.609375 L 297.101562 486.136719 C 302.703125 493.59375 301.21875 504.15625 293.761719 509.761719 C 290.722656 512.054688 287.144531 513.167969 283.636719 513.167969 Z M 283.636719 513.167969"/></svg>