<svg xmlns="http://www.w3.org/2000/svg" width="810" viewBox="0 0 810 810" height="810" version="1.0"><path d="M 760.925781 267.503906 C 760.375 267.078125 759.800781 266.691406 759.21875 266.335938 L 669.15625 210.558594 L 669.15625 19.488281 C 669.15625 8.734375 660.441406 0.0195312 649.6875 0.0195312 L 154.066406 0.0195312 C 143.316406 0.0195312 134.597656 8.734375 134.597656 19.488281 L 134.597656 208.820312 C 91.375 236.105469 62.265625 256.078125 47.976562 268.269531 C 47.816406 268.40625 47.667969 268.550781 47.511719 268.6875 C 47.445312 268.75 47.375 268.808594 47.308594 268.871094 C 26.664062 286.949219 15.292969 312.347656 15.292969 340.523438 L 15.292969 713.527344 C 15.292969 766.710938 58.566406 809.980469 111.757812 809.980469 L 698.125 809.980469 C 751.34375 809.980469 794.644531 766.710938 794.644531 713.527344 L 794.644531 340.523438 C 794.648438 316.910156 785.742188 283.984375 760.925781 267.503906 Z M 669.15625 256.355469 L 716.429688 285.636719 L 669.15625 326.871094 Z M 748.097656 309.691406 C 752.808594 317.78125 755.707031 328.902344 755.707031 340.523438 L 755.707031 713.527344 C 755.707031 723.136719 753.320312 732.195312 749.136719 740.164062 L 512.367188 515.28125 Z M 173.539062 38.953125 L 630.214844 38.953125 L 630.214844 360.832031 L 471.097656 499.605469 C 470.84375 499.816406 470.589844 500.042969 470.339844 500.269531 L 404.941406 557.304688 L 173.539062 355.59375 Z M 134.597656 255.003906 L 134.597656 321.644531 L 91.429688 284.015625 C 101.304688 276.960938 115.164062 267.550781 134.597656 255.003906 Z M 54.234375 713.527344 L 54.234375 340.523438 C 54.234375 329.308594 57.0625 319.132812 62.476562 310.433594 L 306.796875 523.40625 L 68.097656 750.917969 C 59.464844 740.855469 54.234375 727.796875 54.234375 713.527344 Z M 111.757812 771.046875 C 109.117188 771.046875 106.523438 770.851562 103.980469 770.503906 L 336.273438 549.101562 L 392.148438 597.808594 C 395.816406 601.003906 400.378906 602.605469 404.945312 602.605469 C 409.511719 602.605469 414.078125 601.003906 417.742188 597.808594 L 482.886719 540.992188 L 720.390625 766.570312 C 713.539062 769.453125 706.015625 771.046875 698.125 771.046875 Z M 111.757812 771.046875"/><path d="M 566.390625 199.96875 C 566.390625 208.859375 565.785156 217.859375 564.566406 226.863281 C 563.300781 235.921875 561.308594 244.59375 558.546875 252.933594 C 555.730469 261.214844 552.199219 269.058594 547.832031 276.292969 C 543.527344 283.53125 538.332031 289.878906 532.148438 295.238281 C 526.070312 300.539062 518.945312 304.789062 510.9375 307.882812 C 502.875 310.976562 493.8125 312.523438 483.652344 312.523438 C 477.574219 312.523438 472.050781 311.972656 467.078125 310.8125 C 462.164062 309.652344 457.859375 307.9375 454.152344 305.730469 C 450.398438 303.46875 447.363281 300.707031 444.988281 297.335938 C 442.558594 293.96875 440.734375 290.15625 439.460938 285.792969 C 434.65625 290.65625 429.851562 294.742188 425.269531 298.054688 C 420.570312 301.371094 415.988281 304.183594 411.40625 306.339844 C 406.929688 308.492188 402.402344 310.09375 397.925781 311.089844 C 393.507812 312.027344 388.921875 312.523438 384.339844 312.523438 C 378.542969 312.523438 373.402344 311.863281 368.875 310.425781 C 364.457031 309.046875 360.589844 307.113281 357.277344 304.738281 C 353.964844 302.308594 351.257812 299.4375 349.046875 296.234375 C 346.894531 293.03125 345.125 289.441406 343.742188 285.628906 C 342.363281 281.710938 341.421875 277.679688 340.871094 273.371094 C 340.261719 269.171875 340.042969 264.808594 340.042969 260.503906 C 340.042969 254.757812 340.484375 248.351562 341.421875 241.394531 C 342.363281 234.269531 343.910156 227.089844 346.117188 219.800781 C 348.269531 212.398438 351.199219 205.328125 354.734375 198.425781 C 358.378906 191.578125 362.851562 185.449219 368.15625 180.089844 C 373.570312 174.679688 379.8125 170.316406 386.9375 167.058594 C 394.117188 163.742188 402.347656 162.140625 411.683594 162.140625 C 415.933594 162.140625 419.800781 162.585938 423.394531 163.414062 C 427.035156 164.242188 430.515625 165.621094 433.886719 167.386719 C 437.253906 169.207031 440.511719 171.640625 443.71875 174.566406 C 446.867188 177.441406 450.179688 180.972656 453.660156 185.28125 L 456.808594 171.253906 C 457.359375 169.046875 458.851562 167.390625 461.390625 166.285156 C 463.878906 165.234375 468.351562 164.683594 474.757812 164.683594 C 478.015625 164.683594 480.671875 164.792969 482.820312 165.125 C 484.976562 165.402344 486.6875 165.84375 487.902344 166.394531 C 489.175781 166.949219 489.949219 167.609375 490.28125 168.382812 C 490.667969 169.210938 490.832031 170.148438 490.667969 171.253906 L 474.648438 252.605469 C 472.9375 261.605469 473.269531 268.175781 475.535156 272.375 C 477.800781 276.570312 482.273438 278.667969 488.953125 278.667969 C 493.261719 278.667969 497.238281 277.457031 500.828125 275.191406 C 504.367188 272.871094 507.566406 269.777344 510.222656 265.800781 C 512.816406 261.828125 515.078125 257.296875 516.960938 252.160156 C 518.835938 246.96875 520.273438 241.558594 521.492188 235.921875 C 522.648438 230.234375 523.53125 224.542969 524.082031 218.800781 C 524.691406 213.003906 524.914062 207.421875 524.914062 202.070312 C 524.914062 192.402344 523.585938 183.179688 520.882812 174.457031 C 518.117188 165.785156 513.3125 158.164062 506.40625 151.535156 C 499.558594 144.855469 490.226562 139.664062 478.570312 135.90625 C 466.859375 132.042969 451.945312 130.109375 433.828125 130.109375 C 421.679688 130.109375 410.578125 131.269531 400.632812 133.644531 C 390.695312 136.019531 381.6875 139.277344 373.734375 143.527344 C 365.832031 147.671875 358.820312 152.640625 352.578125 158.332031 C 346.390625 164.074219 340.976562 170.257812 336.394531 177 C 331.867188 183.792969 328 190.914062 324.796875 198.480469 C 321.648438 206.101562 319.105469 213.835938 317.28125 221.566406 C 315.40625 229.355469 314.023438 237.085938 313.199219 244.929688 C 312.3125 252.660156 311.871094 260.171875 311.871094 267.515625 C 311.871094 280.714844 313.308594 292.535156 316.289062 302.972656 C 319.273438 313.464844 324.410156 322.300781 331.808594 329.59375 C 339.101562 336.882812 348.824219 342.460938 361.03125 346.273438 C 373.238281 350.082031 388.480469 352.011719 406.820312 352.011719 C 416.375 352.011719 425.046875 351.460938 432.945312 350.414062 C 440.789062 349.308594 447.695312 348.148438 453.601562 346.988281 C 459.402344 345.773438 464.261719 344.613281 467.960938 343.5625 C 471.664062 342.515625 474.207031 341.960938 475.585938 341.960938 C 476.414062 341.960938 477.1875 342.128906 477.792969 342.570312 C 478.453125 343.011719 478.953125 343.785156 479.285156 345.054688 C 479.667969 346.214844 479.945312 347.929688 480.167969 349.972656 C 480.332031 352.011719 480.390625 354.609375 480.390625 357.757812 C 480.390625 360.464844 480.332031 362.726562 480.226562 364.546875 C 480.113281 366.316406 479.894531 367.863281 479.558594 369.191406 C 479.285156 370.402344 478.894531 371.5625 478.402344 372.449219 C 477.84375 373.328125 477.242188 374.160156 476.46875 374.824219 C 475.804688 375.539062 473.429688 376.421875 469.5625 377.75 C 465.640625 379.074219 460.449219 380.34375 453.933594 381.613281 C 447.414062 382.773438 439.847656 383.878906 431.0625 384.816406 C 422.339844 385.753906 412.730469 386.25 402.34375 386.25 C 378.8125 386.25 358.707031 383.601562 342.136719 378.296875 C 325.566406 373.050781 311.925781 365.375 301.375 355.4375 C 290.773438 345.4375 283.039062 333.230469 278.121094 319.042969 C 273.261719 304.792969 270.777344 288.71875 270.777344 270.882812 C 270.777344 260.996094 271.496094 250.777344 272.929688 240.507812 C 274.308594 230.175781 276.574219 220.019531 279.558594 209.964844 C 282.542969 199.859375 286.40625 190.03125 291.15625 180.585938 C 295.910156 171.085938 301.542969 162.027344 308.113281 153.578125 C 314.742188 145.074219 322.253906 137.230469 330.871094 130.164062 C 339.542969 123.039062 349.15625 116.960938 359.871094 111.882812 C 370.585938 106.804688 382.464844 102.824219 395.386719 100.007812 C 408.3125 97.25 422.503906 95.867188 437.972656 95.867188 C 460.675781 95.867188 480.117188 98.351562 496.246094 103.324219 C 512.425781 108.351562 525.6875 115.363281 536.066406 124.476562 C 546.507812 133.535156 554.1875 144.523438 559.046875 157.28125 C 563.90625 170.148438 566.390625 184.339844 566.390625 199.96875 Z M 441.949219 216.261719 C 438.136719 209.523438 434.273438 204.496094 430.183594 201.074219 C 426.152344 197.707031 421.511719 195.996094 416.375 195.996094 C 412.015625 195.996094 408.144531 196.988281 404.664062 198.976562 C 401.242188 201.019531 398.152344 203.726562 395.550781 207.039062 C 392.902344 210.355469 390.695312 214.109375 388.921875 218.304688 C 387.105469 222.503906 385.613281 226.8125 384.398438 231.121094 C 383.234375 235.539062 382.410156 239.789062 381.855469 243.988281 C 381.359375 248.1875 381.136719 251.828125 381.136719 255.035156 C 381.136719 262.269531 382.519531 268.066406 385.222656 272.265625 C 388.039062 276.570312 392.679688 278.667969 399.140625 278.667969 C 401.515625 278.667969 404.003906 278.285156 406.542969 277.457031 C 409.140625 276.683594 411.792969 275.414062 414.664062 273.644531 C 417.421875 271.878906 420.40625 269.613281 423.667969 266.738281 C 426.8125 263.867188 430.40625 260.5 434.269531 256.46875 Z M 441.949219 216.261719"/></svg>