<svg xmlns="http://www.w3.org/2000/svg" width="810" viewBox="0 0 810 810" height="810" version="1.0"><path d="M 740.839844 444.1875 C 737.839844 456.1875 731.84375 465.1875 716.851562 462.1875 C 665.875 450.1875 584.914062 447.1875 539.933594 459.1875 C 521.945312 462.1875 515.945312 456.1875 506.949219 435.1875 C 491.957031 384.1875 464.972656 321.1875 470.96875 243.1875 C 482.960938 66.1875 557.925781 15.1875 611.902344 18.1875 C 665.875 21.1875 809.804688 108.1875 740.839844 444.1875 Z M 512.949219 552.1875 C 512.949219 552.1875 503.953125 582.1875 497.957031 633.1875 C 488.960938 717.1875 506.949219 774.1875 587.910156 786.1875 C 656.878906 795.1875 701.855469 744.1875 710.851562 660.1875 C 716.851562 609.1875 716.851562 579.1875 716.851562 579.1875 Z M 512.949219 552.1875"/><path d="M 198.097656 18.1875 C 252.074219 15.1875 327.039062 63.1875 339.03125 243.1875 C 345.027344 324.1875 318.042969 384.1875 303.050781 435.1875 C 297.050781 456.1875 288.054688 462.1875 270.066406 459.1875 C 222.089844 447.1875 144.125 450.1875 93.148438 462.1875 C 78.15625 465.1875 72.160156 456.1875 69.160156 444.1875 C 0.195312 108.1875 141.125 21.1875 198.097656 18.1875 Z M 93.148438 579.1875 C 93.148438 579.1875 93.148438 612.1875 99.148438 660.1875 C 108.144531 744.1875 153.121094 795.1875 222.089844 786.1875 C 303.050781 774.1875 321.039062 717.1875 312.042969 633.1875 C 306.046875 582.1875 297.050781 552.1875 297.050781 552.1875 Z M 93.148438 579.1875"/></svg>