<svg xmlns="http://www.w3.org/2000/svg" width="810" viewBox="0 0 810 810" height="810" version="1.0"><defs><clipPath id="a"><path d="M 11 65.8125 L 810 65.8125 L 810 449 L 11 449 Z M 11 65.8125"/></clipPath><clipPath id="b"><path d="M 0 706 L 700 706 L 700 744.5625 L 0 744.5625 Z M 0 706"/></clipPath></defs><path fill="#231F20" d="M 51.082031 693.898438 L 185.203125 693.898438 L 185.203125 377.25 L 154.734375 377.25 L 51.082031 455.640625 L 51.082031 693.898438"/><path fill="#231F20" d="M 202.53125 693.898438 L 336.664062 693.898438 L 336.664062 325.980469 L 222.535156 325.980469 L 202.53125 341.097656 L 202.53125 693.898438"/><path fill="#231F20" d="M 422.722656 399.097656 L 422.101562 398.359375 L 421.125 399.097656 L 406.273438 379.445312 L 353.242188 316.066406 L 353.242188 693.898438 L 487.367188 693.898438 L 487.367188 349.003906 L 437.566406 386.667969 L 422.722656 399.097656"/><path fill="#231F20" d="M 515.988281 693.898438 L 650.105469 693.898438 L 650.105469 251.230469 L 616.65625 251.230469 L 515.988281 327.363281 L 515.988281 693.898438"/><g clip-path="url(#a)"><path fill="#231F20" d="M 653.84375 120.417969 L 674.660156 147.496094 L 569.332031 227.160156 L 517.386719 266.421875 L 488.769531 288.070312 L 425.90625 335.613281 L 364.886719 262.699219 L 320.191406 209.285156 L 311.042969 197.167969 L 310.441406 197.632812 L 310.058594 197.167969 L 300.90625 204.832031 L 104.761719 353.164062 L 52.484375 392.691406 L 11.414062 423.753906 L 30.09375 448.488281 L 52.484375 431.5625 L 156.144531 353.164062 L 203.945312 317.019531 L 223.933594 301.902344 L 309.066406 237.523438 L 354.640625 291.984375 L 407.679688 355.371094 L 422.523438 375.03125 L 423.511719 374.285156 L 424.140625 375.03125 L 438.976562 362.597656 L 488.769531 324.929688 L 517.386719 303.28125 L 618.066406 227.160156 L 692.574219 170.8125 L 716.90625 202.488281 L 809.589844 65.890625 L 653.84375 120.417969"/></g><g clip-path="url(#b)"><path fill="#231F20" d="M 699.460938 744.695312 L 0.195312 744.695312 L 0.195312 706.503906 L 699.460938 706.503906 L 699.460938 744.695312"/></g></svg>