<svg xmlns="http://www.w3.org/2000/svg" width="810" viewBox="0 0 810 810" height="810" version="1.0"><defs><clipPath id="a"><path d="M 28.351562 130 L 769 130 L 769 809 L 28.351562 809 Z M 28.351562 130"/></clipPath></defs><g clip-path="url(#a)"><path d="M 743.105469 268.894531 L 704.859375 268.894531 C 697.960938 268.894531 692.320312 274.539062 692.320312 281.4375 C 692.320312 288.335938 697.960938 293.984375 704.859375 293.984375 L 743.105469 293.984375 L 743.105469 620.136719 L 718.023438 620.136719 L 718.023438 479.640625 C 718.023438 472.742188 712.382812 467.097656 705.484375 467.097656 C 698.589844 467.097656 692.945312 472.742188 692.945312 479.640625 L 692.945312 620.136719 L 375.070312 620.136719 C 378.203125 615.746094 380.710938 610.730469 382.59375 605.710938 C 385.726562 594.421875 384.472656 583.132812 378.832031 573.097656 L 311.742188 454.550781 C 349.988281 431.34375 400.773438 410.019531 499.835938 410.019531 C 508.613281 414.410156 519.273438 417.546875 529.304688 413.78125 C 537.457031 410.644531 543.726562 402.492188 545.605469 393.710938 C 552.503906 365.484375 532.441406 307.15625 494.820312 245.058594 C 454.066406 178.574219 395.132812 115.222656 362.527344 134.042969 C 358.140625 136.550781 352.496094 141.566406 349.988281 152.230469 C 348.734375 156.621094 348.734375 161.011719 348.734375 166.65625 C 284.785156 260.113281 230.863281 295.238281 182.585938 325.972656 C 181.332031 326.597656 156.878906 342.277344 148.730469 347.921875 C 111.109375 374.265625 110.484375 426.953125 131.175781 462.078125 C 145.59375 486.539062 181.332031 504.101562 210.800781 504.101562 C 218.324219 504.101562 225.222656 502.847656 230.863281 500.964844 C 232.746094 500.339844 234.625 499.710938 236.507812 498.457031 C 236.507812 498.457031 305.472656 617.628906 306.726562 619.511719 L 103.585938 619.511719 L 103.585938 479.640625 C 103.585938 472.742188 97.945312 467.097656 91.046875 467.097656 C 84.152344 467.097656 78.507812 472.742188 78.507812 479.640625 L 78.507812 620.136719 L 53.429688 620.136719 L 53.429688 293.984375 L 90.421875 293.984375 C 97.316406 293.984375 102.960938 288.335938 102.960938 281.4375 C 102.960938 274.539062 97.316406 268.894531 90.421875 268.894531 L 53.429688 268.894531 C 39.636719 268.894531 28.351562 280.183594 28.351562 293.984375 L 28.351562 720.492188 C 28.351562 734.292969 39.636719 745.582031 53.429688 745.582031 L 329.300781 745.582031 L 329.300781 783.214844 L 269.738281 783.214844 C 262.839844 783.214844 257.195312 788.859375 257.195312 795.761719 C 257.195312 802.660156 262.839844 808.304688 269.738281 808.304688 L 526.796875 808.304688 C 533.695312 808.304688 539.335938 802.660156 539.335938 795.761719 C 539.335938 788.859375 533.695312 783.214844 526.796875 783.214844 L 467.234375 783.214844 L 467.234375 745.582031 L 743.105469 745.582031 C 756.898438 745.582031 768.183594 734.292969 768.183594 720.492188 L 768.183594 293.984375 C 768.183594 280.183594 756.898438 268.894531 743.105469 268.894531 Z M 375.070312 155.992188 C 375.695312 155.992188 375.695312 155.992188 376.324219 155.992188 C 386.980469 155.992188 427.109375 184.21875 472.878906 258.859375 C 520.527344 336.007812 525.542969 384.929688 519.898438 390.574219 C 514.257812 392.457031 493.566406 380.539062 465.351562 347.921875 C 480.402344 311.546875 470.996094 270.148438 440.902344 243.804688 C 425.855469 230.632812 407.042969 223.105469 387.609375 221.226562 C 371.933594 182.964844 371.308594 159.757812 375.070312 155.992188 Z M 445.917969 324.089844 C 438.394531 313.425781 430.242188 301.507812 421.464844 288.335938 C 412.6875 274.539062 405.789062 261.367188 399.519531 249.449219 C 408.296875 251.957031 416.449219 256.976562 423.972656 262.621094 C 442.15625 278.300781 450.304688 301.507812 445.917969 324.089844 Z M 354.378906 201.78125 C 362.527344 230.007812 378.203125 265.128906 400.773438 300.882812 C 420.210938 332.871094 444.035156 364.230469 467.234375 385.558594 C 450.933594 386.183594 436.511719 388.066406 422.71875 389.949219 C 404.535156 371.132812 385.726562 346.042969 368.796875 318.445312 C 350.617188 288.964844 336.824219 259.484375 328.671875 234.398438 C 336.824219 224.988281 345.601562 213.699219 354.378906 201.78125 Z M 309.863281 256.347656 C 318.640625 279.558594 331.808594 305.898438 347.480469 331.617188 C 361.902344 355.449219 377.578125 377.402344 393.25 395.59375 C 336.195312 408.136719 302.339844 430.089844 273.5 449.535156 C 269.738281 452.042969 265.972656 454.550781 262.210938 456.433594 L 200.140625 344.160156 C 233.371094 322.835938 269.738281 299 309.863281 256.347656 Z M 222.085938 477.757812 C 202.648438 485.285156 164.402344 469.605469 152.492188 449.535156 C 138.070312 424.445312 137.445312 386.183594 163.148438 368.621094 C 168.164062 364.859375 173.183594 361.722656 178.824219 357.960938 L 240.894531 468.976562 C 235.253906 472.113281 228.984375 475.25 222.085938 477.757812 Z M 259.078125 487.792969 C 268.480469 482.148438 277.886719 476.503906 287.292969 470.230469 C 288.546875 469.605469 289.171875 468.976562 290.425781 468.351562 C 290.425781 468.351562 356.886719 585.640625 356.886719 585.640625 C 361.902344 593.792969 358.140625 605.085938 349.988281 609.476562 C 341.210938 614.492188 329.925781 611.355469 324.910156 602.574219 Z M 442.15625 783.214844 L 354.378906 783.214844 L 354.378906 745.582031 L 442.15625 745.582031 Z M 743.105469 720.492188 L 53.429688 720.492188 L 53.429688 645.226562 L 743.105469 645.226562 Z M 743.105469 720.492188"/></g><path d="M 680.40625 695.40625 L 705.484375 695.40625 C 712.382812 695.40625 718.023438 689.757812 718.023438 682.859375 C 718.023438 675.960938 712.382812 670.316406 705.484375 670.316406 L 680.40625 670.316406 C 673.511719 670.316406 667.867188 675.960938 667.867188 682.859375 C 667.867188 689.757812 673.511719 695.40625 680.40625 695.40625 Z M 680.40625 695.40625"/><path d="M 561.28125 287.082031 L 632.128906 321.582031 C 634.011719 322.207031 635.890625 322.835938 637.773438 322.835938 C 639.027344 322.835938 640.90625 322.835938 642.160156 322.207031 C 645.296875 320.953125 647.804688 318.445312 649.058594 315.933594 L 682.914062 242.550781 C 687.304688 233.140625 687.304688 222.480469 684.167969 212.445312 C 680.40625 202.410156 673.511719 194.253906 664.105469 189.863281 C 654.699219 185.472656 644.042969 184.847656 634.011719 187.980469 C 623.980469 191.117188 615.828125 198.644531 611.4375 208.679688 L 606.421875 219.96875 L 595.765625 214.953125 C 585.734375 210.5625 575.074219 209.933594 565.042969 213.070312 C 555.011719 216.835938 547.488281 223.734375 542.472656 233.769531 C 533.066406 253.214844 541.84375 277.046875 561.28125 287.082031 Z M 565.042969 243.804688 C 566.921875 240.042969 570.058594 236.90625 573.195312 235.652344 C 574.449219 235.023438 576.328125 235.023438 577.582031 235.023438 C 580.089844 235.023438 581.972656 235.652344 584.480469 236.277344 L 606.421875 246.941406 C 609.558594 248.195312 612.691406 248.824219 615.828125 247.566406 C 618.960938 246.3125 621.46875 243.804688 622.726562 241.296875 L 633.382812 218.714844 C 635.265625 214.953125 637.773438 212.445312 641.535156 211.191406 C 645.296875 209.933594 649.058594 209.933594 652.191406 211.816406 C 655.953125 213.699219 658.460938 216.835938 659.714844 220.597656 C 660.96875 224.359375 660.96875 228.75 659.089844 231.886719 L 630.25 293.355469 L 570.683594 264.503906 C 565.042969 260.738281 561.90625 251.332031 565.042969 243.804688 Z M 565.042969 243.804688"/><path d="M 767.554688 26.785156 C 761.914062 10.480469 744.359375 1.699219 728.058594 7.34375 L 639.027344 36.195312 C 630.875 38.703125 624.605469 44.347656 620.84375 51.875 C 617.082031 59.402344 616.453125 67.554688 618.960938 75.710938 L 630.875 110.835938 C 635.265625 124.003906 647.175781 132.160156 660.34375 132.160156 C 663.476562 132.160156 666.613281 131.53125 669.746094 130.90625 L 758.777344 102.054688 C 766.929688 99.542969 773.199219 93.898438 776.960938 86.371094 C 780.722656 78.847656 781.351562 70.691406 778.84375 62.539062 Z M 755.015625 73.828125 C 754.390625 75.082031 753.136719 76.335938 751.253906 76.964844 L 662.851562 105.816406 C 659.714844 107.070312 655.953125 105.1875 654.699219 102.054688 L 642.789062 66.929688 C 642.160156 65.046875 642.789062 63.792969 643.414062 62.539062 C 644.042969 61.285156 645.296875 60.027344 647.175781 59.402344 L 735.582031 30.550781 C 736.207031 30.550781 736.835938 30.550781 737.460938 30.550781 C 739.96875 30.550781 742.476562 32.429688 743.105469 34.941406 L 755.015625 70.066406 C 755.644531 71.320312 755.644531 73.199219 755.015625 73.828125 Z M 755.015625 73.828125"/><path d="M 687.929688 58.773438 L 691.691406 70.691406 L 696.082031 82.609375 L 716.144531 62.539062 L 701.722656 60.65625 Z M 687.929688 58.773438"/><path d="M 450.304688 157.875 C 455.320312 163.519531 462.84375 167.285156 470.996094 167.285156 L 564.414062 167.285156 C 580.089844 167.285156 592.628906 154.738281 592.628906 139.058594 L 592.628906 58.773438 C 592.628906 43.09375 580.089844 30.550781 564.414062 30.550781 L 470.996094 30.550781 C 455.320312 30.550781 442.78125 43.09375 442.78125 58.773438 L 442.78125 139.6875 C 442.78125 145.957031 444.664062 150.976562 447.796875 155.992188 C 449.050781 156.621094 449.679688 157.25 450.304688 157.875 Z M 479.773438 142.195312 L 504.851562 107.699219 L 512.375 122.125 L 522.410156 142.195312 Z M 567.550781 139.6875 C 567.550781 141.566406 566.296875 142.824219 564.414062 142.824219 L 549.996094 142.824219 L 538.710938 120.871094 L 549.996094 112.089844 L 566.921875 132.785156 L 566.921875 139.6875 Z M 468.488281 58.773438 C 468.488281 56.894531 469.742188 55.636719 471.625 55.636719 L 565.042969 55.636719 C 566.296875 55.636719 567.550781 56.894531 567.550781 58.773438 L 567.550781 92.644531 L 561.90625 85.746094 C 557.519531 80.726562 549.996094 79.472656 544.351562 83.863281 L 527.425781 97.664062 L 518.019531 78.847656 C 516.136719 75.082031 512.375 72.574219 507.988281 71.945312 C 503.597656 71.320312 499.210938 73.828125 496.703125 76.964844 L 468.488281 115.851562 Z M 468.488281 58.773438"/></svg>