<svg xmlns="http://www.w3.org/2000/svg" width="810" viewBox="0 0 810 810" height="810" version="1.0"><path d="M 130.179688 0 C 106.277344 0 86.785156 19.492188 86.785156 43.394531 L 86.785156 694.285156 L 28.929688 694.285156 C 12.996094 694.285156 0 707.28125 0 723.214844 L 0 752.144531 C 0 784.066406 25.933594 810 57.855469 810 L 752.144531 810 C 784.066406 810 810 784.066406 810 752.144531 L 810 43.394531 C 810 19.492188 790.507812 0 766.605469 0 Z M 130.179688 28.929688 L 766.605469 28.929688 C 774.574219 28.929688 781.070312 35.425781 781.070312 43.394531 L 781.070312 752.144531 C 781.070312 768.078125 768.078125 781.070312 752.144531 781.070312 C 736.210938 781.070312 723.214844 768.078125 723.214844 752.144531 L 723.214844 723.214844 C 723.214844 707.28125 710.21875 694.285156 694.285156 694.285156 L 115.714844 694.285156 L 115.714844 43.394531 C 115.714844 35.425781 122.210938 28.929688 130.179688 28.929688 Z M 260.355469 115.714844 C 252.335938 115.714844 245.894531 122.15625 245.894531 130.179688 L 245.894531 144.644531 C 221.992188 144.644531 202.5 164.136719 202.5 188.035156 L 202.5 231.429688 C 202.5 255.328125 221.992188 274.820312 245.894531 274.820312 L 274.820312 274.820312 C 282.789062 274.820312 289.285156 281.320312 289.285156 289.285156 L 289.285156 332.679688 C 289.285156 340.644531 282.789062 347.144531 274.820312 347.144531 L 245.894531 347.144531 C 237.925781 347.144531 231.429688 340.644531 231.429688 332.679688 L 231.429688 318.214844 C 231.429688 310.191406 224.988281 303.75 216.964844 303.75 C 208.941406 303.75 202.5 310.191406 202.5 318.214844 L 202.5 332.679688 C 202.5 356.578125 221.992188 376.070312 245.894531 376.070312 L 245.894531 390.535156 C 245.894531 398.558594 252.335938 405 260.355469 405 C 268.378906 405 274.820312 398.558594 274.820312 390.535156 L 274.820312 376.070312 C 298.722656 376.070312 318.214844 356.578125 318.214844 332.679688 L 318.214844 289.285156 C 318.214844 265.386719 298.722656 245.894531 274.820312 245.894531 L 245.894531 245.894531 C 237.925781 245.894531 231.429688 239.394531 231.429688 231.429688 L 231.429688 188.035156 C 231.429688 180.070312 237.925781 173.570312 245.894531 173.570312 L 274.820312 173.570312 C 282.789062 173.570312 289.285156 180.070312 289.285156 188.035156 L 289.285156 202.5 C 289.285156 210.523438 295.726562 216.964844 303.75 216.964844 C 311.773438 216.964844 318.214844 210.523438 318.214844 202.5 L 318.214844 188.035156 C 318.214844 164.136719 298.722656 144.644531 274.820312 144.644531 L 274.820312 130.179688 C 274.820312 122.15625 268.378906 115.714844 260.355469 115.714844 Z M 390.535156 144.644531 C 382.511719 144.644531 376.070312 151.085938 376.070312 159.105469 C 376.070312 167.128906 382.511719 173.570312 390.535156 173.570312 L 506.25 173.570312 C 514.273438 173.570312 520.714844 167.128906 520.714844 159.105469 C 520.714844 151.085938 514.273438 144.644531 506.25 144.644531 Z M 564.105469 144.644531 C 556.085938 144.644531 549.644531 151.085938 549.644531 159.105469 C 549.644531 167.128906 556.085938 173.570312 564.105469 173.570312 L 650.894531 173.570312 C 658.917969 173.570312 665.355469 167.128906 665.355469 159.105469 C 665.355469 151.085938 658.917969 144.644531 650.894531 144.644531 Z M 390.535156 202.5 C 382.511719 202.5 376.070312 208.941406 376.070312 216.964844 C 376.070312 224.988281 382.511719 231.429688 390.535156 231.429688 L 593.035156 231.429688 C 601.058594 231.429688 607.5 224.988281 607.5 216.964844 C 607.5 208.941406 601.058594 202.5 593.035156 202.5 Z M 390.535156 347.144531 C 382.511719 347.144531 376.070312 353.585938 376.070312 361.605469 C 376.070312 369.628906 382.511719 376.070312 390.535156 376.070312 L 650.894531 376.070312 C 658.917969 376.070312 665.355469 369.628906 665.355469 361.605469 C 665.355469 353.585938 658.917969 347.144531 650.894531 347.144531 Z M 390.535156 405 C 382.511719 405 376.070312 411.441406 376.070312 419.464844 C 376.070312 427.488281 382.511719 433.929688 390.535156 433.929688 L 506.25 433.929688 C 514.273438 433.929688 520.714844 427.488281 520.714844 419.464844 C 520.714844 411.441406 514.273438 405 506.25 405 Z M 564.105469 405 C 556.085938 405 549.644531 411.441406 549.644531 419.464844 C 549.644531 427.488281 556.085938 433.929688 564.105469 433.929688 L 593.035156 433.929688 C 601.058594 433.929688 607.5 427.488281 607.5 419.464844 C 607.5 411.441406 601.058594 405 593.035156 405 Z M 173.570312 578.570312 C 165.546875 578.570312 159.105469 585.011719 159.105469 593.035156 L 159.105469 621.964844 C 159.105469 629.988281 165.546875 636.429688 173.570312 636.429688 C 181.59375 636.429688 188.035156 629.988281 188.035156 621.964844 L 188.035156 593.035156 C 188.035156 585.011719 181.59375 578.570312 173.570312 578.570312 Z M 245.894531 578.570312 C 237.871094 578.570312 231.429688 585.011719 231.429688 593.035156 L 231.429688 621.964844 C 231.429688 629.988281 237.871094 636.429688 245.894531 636.429688 C 253.917969 636.429688 260.355469 629.988281 260.355469 621.964844 L 260.355469 593.035156 C 260.355469 585.011719 253.917969 578.570312 245.894531 578.570312 Z M 318.214844 578.570312 C 310.191406 578.570312 303.75 585.011719 303.75 593.035156 L 303.75 621.964844 C 303.75 629.988281 310.191406 636.429688 318.214844 636.429688 C 326.238281 636.429688 332.679688 629.988281 332.679688 621.964844 L 332.679688 593.035156 C 332.679688 585.011719 326.238281 578.570312 318.214844 578.570312 Z M 390.535156 578.570312 C 382.511719 578.570312 376.070312 585.011719 376.070312 593.035156 L 376.070312 621.964844 C 376.070312 629.988281 382.511719 636.429688 390.535156 636.429688 C 398.558594 636.429688 405 629.988281 405 621.964844 L 405 593.035156 C 405 585.011719 398.558594 578.570312 390.535156 578.570312 Z M 462.855469 578.570312 C 454.835938 578.570312 448.394531 585.011719 448.394531 593.035156 L 448.394531 621.964844 C 448.394531 629.988281 454.835938 636.429688 462.855469 636.429688 C 470.878906 636.429688 477.320312 629.988281 477.320312 621.964844 L 477.320312 593.035156 C 477.320312 585.011719 470.878906 578.570312 462.855469 578.570312 Z M 535.179688 578.570312 C 527.15625 578.570312 520.714844 585.011719 520.714844 593.035156 L 520.714844 621.964844 C 520.714844 629.988281 527.15625 636.429688 535.179688 636.429688 C 543.203125 636.429688 549.644531 629.988281 549.644531 621.964844 L 549.644531 593.035156 C 549.644531 585.011719 543.203125 578.570312 535.179688 578.570312 Z M 607.5 578.570312 C 599.476562 578.570312 593.035156 585.011719 593.035156 593.035156 L 593.035156 621.964844 C 593.035156 629.988281 599.476562 636.429688 607.5 636.429688 C 615.523438 636.429688 621.964844 629.988281 621.964844 621.964844 L 621.964844 593.035156 C 621.964844 585.011719 615.523438 578.570312 607.5 578.570312 Z M 679.820312 578.570312 C 671.796875 578.570312 665.355469 585.011719 665.355469 593.035156 L 665.355469 621.964844 C 665.355469 629.988281 671.796875 636.429688 679.820312 636.429688 C 687.84375 636.429688 694.285156 629.988281 694.285156 621.964844 L 694.285156 593.035156 C 694.285156 585.011719 687.84375 578.570312 679.820312 578.570312 Z M 752.144531 578.570312 C 744.121094 578.570312 737.679688 585.011719 737.679688 593.035156 L 737.679688 621.964844 C 737.679688 629.988281 744.121094 636.429688 752.144531 636.429688 C 760.167969 636.429688 766.605469 629.988281 766.605469 621.964844 L 766.605469 593.035156 C 766.605469 585.011719 760.167969 578.570312 752.144531 578.570312 Z M 28.929688 723.214844 L 694.285156 723.214844 L 694.285156 752.144531 C 694.285156 762.707031 697.335938 772.539062 702.367188 781.070312 L 57.855469 781.070312 C 41.925781 781.070312 28.929688 768.078125 28.929688 752.144531 Z M 28.929688 723.214844"/></svg>