<svg xmlns="http://www.w3.org/2000/svg" width="810" viewBox="0 0 810 810" height="810" version="1.0"><defs><clipPath id="a"><path d="M 97.199219 0 L 712.949219 0 L 712.949219 810 L 97.199219 810 Z M 97.199219 0"/></clipPath></defs><g clip-path="url(#a)"><path d="M 696.746094 97.203125 L 583.320312 97.203125 L 583.320312 48.601562 C 583.320312 39.660156 576.074219 32.402344 567.113281 32.402344 L 450.914062 32.402344 C 444.222656 13.546875 426.203125 0 405.074219 0 C 383.945312 0 365.925781 13.546875 359.234375 32.402344 L 243.035156 32.402344 C 234.089844 32.402344 226.832031 39.660156 226.832031 48.601562 L 226.832031 97.203125 L 113.402344 97.203125 C 104.460938 97.203125 97.199219 104.460938 97.199219 113.402344 L 97.199219 793.796875 C 97.199219 802.757812 104.460938 810 113.402344 810 L 696.746094 810 C 705.707031 810 712.949219 802.757812 712.949219 793.796875 L 712.949219 113.402344 C 712.949219 104.460938 705.707031 97.203125 696.746094 97.203125 Z M 259.238281 64.800781 L 372.667969 64.800781 C 381.613281 64.800781 388.871094 57.542969 388.871094 48.601562 C 388.871094 39.675781 396.148438 32.402344 405.074219 32.402344 C 414.003906 32.402344 421.277344 39.675781 421.277344 48.601562 C 421.277344 57.542969 428.523438 64.800781 437.484375 64.800781 L 550.910156 64.800781 L 550.910156 162 L 259.238281 162 Z M 680.542969 777.597656 L 129.609375 777.597656 L 129.609375 129.601562 L 226.832031 129.601562 L 226.832031 178.199219 C 226.832031 187.144531 234.089844 194.402344 243.035156 194.402344 L 567.113281 194.402344 C 576.074219 194.402344 583.320312 187.144531 583.320312 178.199219 L 583.320312 129.601562 L 680.542969 129.601562 Z M 680.542969 777.597656"/></g><path d="M 543.292969 326.464844 C 535.679688 321.734375 525.695312 324.03125 520.964844 331.613281 L 367.757812 576.65625 L 284.421875 521.105469 C 276.964844 516.132812 266.921875 518.140625 261.945312 525.59375 C 256.988281 533.042969 258.996094 543.089844 266.433594 548.0625 L 363.65625 612.863281 C 366.363281 614.660156 369.492188 615.597656 372.667969 615.597656 C 373.800781 615.597656 374.953125 615.46875 376.070312 615.242188 C 380.347656 614.320312 384.074219 611.695312 386.40625 608 L 548.449219 348.800781 C 553.195312 341.203125 550.878906 331.210938 543.292969 326.464844 Z M 543.292969 326.464844"/></svg>