<svg xmlns="http://www.w3.org/2000/svg" width="810" viewBox="0 0 810 810" height="810" version="1.0"><defs><clipPath id="a"><path d="M 20 114 L 704 114 L 704 795.1875 L 20 795.1875 Z M 20 114"/></clipPath><clipPath id="b"><path d="M 257 15.1875 L 808 15.1875 L 808 566 L 257 566 Z M 257 15.1875"/></clipPath></defs><g clip-path="url(#a)"><path d="M 362.574219 795.1875 C 351.59375 795.1875 341.613281 795.1875 330.632812 794.1875 C 239.792969 786.199219 157.9375 743.253906 100.039062 672.34375 C 42.140625 601.4375 14.1875 513.546875 22.175781 423.664062 C 30.160156 332.78125 73.085938 250.886719 143.960938 192.960938 C 266.742188 90.089844 447.425781 88.09375 572.207031 186.96875 C 576.199219 189.964844 577.195312 196.953125 574.203125 200.949219 C 571.207031 204.945312 564.21875 205.941406 560.226562 202.945312 C 442.433594 110.066406 272.734375 112.0625 156.9375 208.9375 C 21.175781 320.796875 2.210938 523.535156 115.011719 659.363281 C 169.914062 725.277344 246.777344 766.222656 332.628906 773.214844 C 417.476562 781.207031 501.328125 755.238281 567.214844 700.308594 C 693.992188 595.445312 719.945312 412.679688 628.105469 274.855469 C 625.113281 269.859375 626.109375 263.867188 631.101562 260.871094 C 636.09375 257.875 642.082031 258.875 645.078125 263.867188 C 742.902344 409.683594 714.953125 603.433594 580.191406 716.289062 C 518.300781 767.222656 442.433594 795.1875 362.574219 795.1875 Z M 362.574219 795.1875"/></g><path d="M 362.574219 677.339844 C 298.6875 677.339844 234.800781 650.375 190.878906 597.441406 C 152.945312 551.5 134.976562 493.574219 139.96875 434.648438 C 144.957031 375.726562 173.90625 321.792969 218.828125 283.84375 C 290.703125 223.917969 392.523438 215.929688 472.382812 261.871094 C 477.371094 264.867188 478.371094 270.859375 476.375 275.851562 C 473.378906 280.847656 467.390625 281.84375 462.398438 279.847656 C 389.527344 237.902344 296.691406 245.890625 230.808594 299.824219 C 188.882812 334.777344 163.925781 383.714844 158.933594 437.644531 C 153.941406 491.578125 169.914062 544.507812 204.851562 585.457031 C 276.726562 671.347656 404.5 683.332031 490.347656 611.421875 C 564.21875 549.503906 585.183594 443.636719 539.261719 358.746094 C 536.269531 353.753906 538.265625 347.761719 543.257812 344.765625 C 548.246094 341.769531 554.238281 343.765625 557.230469 348.761719 C 607.144531 441.640625 585.183594 558.492188 503.328125 626.402344 C 463.398438 660.359375 412.488281 677.339844 362.574219 677.339844 Z M 362.574219 677.339844"/><g clip-path="url(#b)"><path d="M 807.789062 127.042969 C 806.792969 124.046875 803.796875 121.050781 800.800781 120.054688 L 723.9375 100.078125 L 703.972656 23.175781 C 702.972656 20.179688 699.980469 17.183594 696.984375 16.1875 C 693.992188 15.1875 689.996094 16.1875 687.003906 19.183594 L 625.113281 79.105469 C 622.117188 82.101562 621.117188 85.097656 622.117188 89.09375 L 642.082031 165.996094 L 431.453125 377.722656 C 413.484375 362.742188 389.527344 353.753906 363.574219 353.753906 C 304.675781 353.753906 257.757812 401.691406 257.757812 459.617188 C 257.757812 517.542969 305.675781 565.480469 364.570312 565.480469 C 423.46875 565.480469 470.382812 517.542969 470.382812 458.617188 C 470.382812 432.652344 461.402344 409.683594 446.425781 390.707031 L 657.054688 179.976562 L 733.917969 199.949219 C 734.917969 199.949219 735.917969 199.949219 736.914062 199.949219 C 739.910156 199.949219 741.90625 198.953125 743.902344 196.953125 L 804.792969 136.03125 C 806.792969 134.035156 807.789062 131.039062 807.789062 127.042969 Z M 450.417969 458.617188 C 450.417969 506.558594 411.488281 544.507812 364.570312 544.507812 C 317.652344 544.507812 278.722656 505.558594 278.722656 458.617188 C 278.722656 411.679688 317.652344 372.730469 364.570312 372.730469 C 384.535156 372.730469 403.503906 379.71875 417.476562 391.703125 L 385.535156 423.664062 C 379.542969 419.667969 371.558594 417.671875 363.574219 417.671875 C 340.613281 417.671875 321.648438 436.648438 321.648438 459.617188 C 321.648438 482.589844 340.613281 501.5625 363.574219 501.5625 C 386.53125 501.5625 405.5 482.589844 405.5 459.617188 C 405.5 451.628906 403.503906 444.636719 399.507812 437.644531 L 431.453125 405.6875 C 443.433594 420.667969 450.417969 438.644531 450.417969 458.617188 Z M 643.082031 89.09375 L 688 44.148438 L 703.972656 105.074219 L 702.972656 106.070312 L 659.050781 150.015625 Z M 733.917969 179.976562 L 673.027344 163.996094 L 706.96875 130.039062 L 717.949219 119.054688 L 778.839844 135.035156 Z M 733.917969 179.976562"/></g></svg>