<svg xmlns="http://www.w3.org/2000/svg" width="810" viewBox="0 0 810 810" height="810" version="1.0"><defs><clipPath id="a"><path d="M 0 29.363281 L 810 29.363281 L 810 704 L 0 704 Z M 0 29.363281"/></clipPath><clipPath id="b"><path d="M 0 763 L 810 763 L 810 780.863281 L 0 780.863281 Z M 0 763"/></clipPath></defs><g clip-path="url(#a)"><path d="M 809.753906 157.511719 C 809.75 128.484375 786.144531 104.871094 757.125 104.871094 L 719.125 104.871094 L 719.125 61.109375 C 719.125 43.566406 704.855469 29.296875 687.320312 29.296875 L 666.335938 29.296875 C 648.800781 29.296875 634.535156 43.566406 634.535156 61.109375 L 634.535156 104.863281 L 583.164062 104.863281 L 583.164062 61.109375 C 583.164062 43.566406 568.898438 29.296875 551.363281 29.296875 L 530.378906 29.296875 C 512.84375 29.296875 498.574219 43.566406 498.574219 61.109375 L 498.574219 104.863281 L 447.207031 104.863281 L 447.207031 61.109375 C 447.207031 43.566406 432.941406 29.296875 415.402344 29.296875 L 394.421875 29.296875 C 376.886719 29.296875 362.621094 43.566406 362.621094 61.109375 L 362.621094 104.863281 L 311.25 104.863281 L 311.25 61.109375 C 311.25 43.566406 296.984375 29.296875 279.445312 29.296875 L 258.464844 29.296875 C 240.929688 29.296875 226.660156 43.566406 226.660156 61.109375 L 226.660156 104.863281 L 175.292969 104.863281 L 175.292969 61.109375 C 175.292969 43.566406 161.027344 29.296875 143.488281 29.296875 L 122.507812 29.296875 C 104.972656 29.296875 90.703125 43.566406 90.703125 61.109375 L 90.703125 104.867188 L 52.71875 104.867188 C 52.710938 104.867188 52.707031 104.867188 52.699219 104.867188 C 23.679688 104.867188 0.0742188 128.484375 0.0742188 157.511719 L 0.0742188 695.105469 C 0.0742188 699.878906 3.941406 703.75 8.714844 703.75 L 801.113281 703.75 C 805.886719 703.75 809.753906 699.878906 809.753906 695.105469 Z M 651.816406 61.109375 C 651.816406 53.101562 658.332031 46.582031 666.335938 46.582031 L 687.316406 46.582031 C 695.328125 46.582031 701.839844 53.101562 701.839844 61.109375 L 701.839844 113.460938 C 701.839844 113.480469 701.835938 113.496094 701.835938 113.511719 C 701.835938 113.53125 701.839844 113.546875 701.839844 113.5625 L 701.839844 165.878906 C 701.839844 173.886719 695.324219 180.40625 687.316406 180.40625 L 666.335938 180.40625 C 658.328125 180.40625 651.816406 173.886719 651.816406 165.878906 Z M 515.855469 113.523438 C 515.855469 113.519531 515.859375 113.511719 515.859375 113.503906 C 515.859375 113.5 515.855469 113.496094 515.855469 113.488281 L 515.855469 61.109375 C 515.855469 53.101562 522.371094 46.582031 530.378906 46.582031 L 551.359375 46.582031 C 559.367188 46.582031 565.882812 53.101562 565.882812 61.109375 L 565.882812 165.878906 C 565.882812 173.890625 559.367188 180.40625 551.359375 180.40625 L 530.378906 180.40625 C 522.371094 180.40625 515.855469 173.890625 515.855469 165.878906 Z M 379.902344 113.582031 C 379.902344 113.554688 379.910156 113.53125 379.910156 113.503906 C 379.910156 113.480469 379.902344 113.457031 379.902344 113.429688 L 379.902344 61.109375 C 379.902344 53.101562 386.417969 46.582031 394.421875 46.582031 L 415.402344 46.582031 C 423.410156 46.582031 429.925781 53.101562 429.925781 61.109375 L 429.925781 113.421875 C 429.925781 113.449219 429.914062 113.476562 429.914062 113.503906 C 429.914062 113.53125 429.925781 113.558594 429.925781 113.585938 L 429.925781 165.878906 C 429.925781 173.886719 423.410156 180.402344 415.402344 180.402344 L 394.421875 180.402344 C 386.417969 180.402344 379.902344 173.886719 379.902344 165.878906 Z M 243.941406 61.109375 C 243.941406 53.101562 250.457031 46.582031 258.464844 46.582031 L 279.445312 46.582031 C 287.453125 46.582031 293.96875 53.101562 293.96875 61.109375 L 293.96875 165.878906 C 293.96875 173.890625 287.453125 180.40625 279.445312 180.40625 L 258.464844 180.40625 C 250.457031 180.40625 243.941406 173.890625 243.941406 165.878906 Z M 107.988281 113.53125 C 107.988281 113.523438 107.988281 113.519531 107.988281 113.511719 C 107.988281 113.503906 107.988281 113.503906 107.988281 113.496094 L 107.988281 61.109375 C 107.988281 53.101562 114.503906 46.582031 122.507812 46.582031 L 143.488281 46.582031 C 151.496094 46.582031 158.011719 53.101562 158.011719 61.109375 L 158.011719 165.878906 C 158.011719 173.890625 151.496094 180.40625 143.488281 180.40625 L 122.507812 180.40625 C 114.503906 180.40625 107.988281 173.890625 107.988281 165.878906 Z M 792.472656 686.460938 L 17.355469 686.460938 L 17.355469 157.511719 C 17.355469 138.019531 33.207031 122.160156 52.691406 122.15625 C 52.691406 122.15625 52.695312 122.15625 52.699219 122.15625 L 90.703125 122.15625 L 90.703125 165.882812 C 90.703125 183.425781 104.972656 197.695312 122.507812 197.695312 L 143.488281 197.695312 C 161.027344 197.695312 175.292969 183.425781 175.292969 165.882812 L 175.292969 122.148438 L 226.660156 122.148438 L 226.660156 165.878906 C 226.660156 183.421875 240.925781 197.695312 258.464844 197.695312 L 279.445312 197.695312 C 296.980469 197.695312 311.25 183.425781 311.25 165.878906 L 311.25 122.148438 L 362.621094 122.148438 L 362.621094 165.878906 C 362.621094 183.421875 376.886719 197.695312 394.421875 197.695312 L 415.402344 197.695312 C 432.941406 197.695312 447.207031 183.425781 447.207031 165.878906 L 447.207031 122.148438 L 498.574219 122.148438 L 498.574219 165.878906 C 498.574219 183.421875 512.84375 197.695312 530.378906 197.695312 L 551.363281 197.695312 C 568.898438 197.695312 583.164062 183.425781 583.164062 165.878906 L 583.164062 122.148438 L 634.535156 122.148438 L 634.535156 165.878906 C 634.535156 183.421875 648.800781 197.695312 666.335938 197.695312 L 687.320312 197.695312 C 704.855469 197.695312 719.125 183.425781 719.125 165.878906 L 719.125 122.15625 L 757.125 122.15625 C 776.613281 122.15625 792.472656 138.019531 792.472656 157.511719 Z M 792.472656 686.460938"/></g><path d="M 733.597656 236.558594 L 76.226562 236.558594 C 71.453125 236.558594 67.585938 240.429688 67.585938 245.203125 L 67.585938 634.503906 C 67.585938 639.277344 71.453125 643.144531 76.226562 643.144531 L 733.597656 643.144531 C 738.371094 643.144531 742.238281 639.277344 742.238281 634.503906 L 742.238281 245.203125 C 742.238281 240.429688 738.371094 236.558594 733.597656 236.558594 Z M 231.929688 625.859375 L 84.867188 625.859375 L 84.867188 513.378906 L 231.925781 513.378906 L 231.925781 625.859375 Z M 231.929688 496.089844 L 84.867188 496.089844 L 84.867188 383.613281 L 231.925781 383.613281 L 231.925781 496.089844 Z M 231.929688 366.324219 L 84.867188 366.324219 L 84.867188 253.847656 L 231.925781 253.847656 L 231.925781 366.324219 Z M 396.273438 625.859375 L 249.214844 625.859375 L 249.214844 513.378906 L 396.273438 513.378906 Z M 396.273438 496.089844 L 249.214844 496.089844 L 249.214844 383.613281 L 396.273438 383.613281 Z M 396.273438 366.324219 L 249.214844 366.324219 L 249.214844 253.847656 L 396.273438 253.847656 Z M 560.613281 625.859375 L 413.554688 625.859375 L 413.554688 513.378906 L 560.613281 513.378906 Z M 560.613281 496.089844 L 413.554688 496.089844 L 413.554688 383.613281 L 560.613281 383.613281 Z M 560.613281 366.324219 L 413.554688 366.324219 L 413.554688 253.847656 L 560.613281 253.847656 Z M 724.957031 625.859375 L 577.894531 625.859375 L 577.894531 513.378906 L 724.957031 513.378906 Z M 724.957031 496.089844 L 577.894531 496.089844 L 577.894531 383.613281 L 724.957031 383.613281 Z M 724.957031 366.324219 L 577.894531 366.324219 L 577.894531 253.847656 L 724.957031 253.847656 Z M 724.957031 366.324219"/><path d="M 302.449219 473.726562 C 302.453125 473.730469 302.453125 473.730469 302.453125 473.734375 C 303.71875 475 305.277344 475.789062 306.910156 476.105469 C 307.457031 476.210938 308.007812 476.265625 308.5625 476.265625 C 310.773438 476.265625 312.988281 475.421875 314.671875 473.730469 L 370.183594 418.199219 C 373.558594 414.824219 373.558594 409.351562 370.183594 405.976562 C 366.808594 402.601562 361.335938 402.601562 357.960938 405.976562 L 308.5625 455.394531 L 287.519531 434.347656 C 284.144531 430.972656 278.675781 430.972656 275.300781 434.347656 C 271.925781 437.722656 271.925781 443.195312 275.300781 446.570312 Z M 302.449219 473.726562"/><path d="M 631.136719 603.496094 C 632.824219 605.183594 635.035156 606.027344 637.246094 606.027344 C 637.800781 606.027344 638.351562 605.972656 638.894531 605.867188 C 640.53125 605.550781 642.09375 604.761719 643.355469 603.496094 C 643.359375 603.492188 643.359375 603.488281 643.363281 603.488281 L 698.867188 547.964844 C 702.242188 544.589844 702.242188 539.117188 698.867188 535.742188 C 695.496094 532.367188 690.019531 532.367188 686.648438 535.742188 L 637.246094 585.160156 L 616.207031 564.113281 C 612.832031 560.734375 607.359375 560.738281 603.988281 564.109375 C 600.613281 567.484375 600.613281 572.960938 603.984375 576.335938 Z M 631.136719 603.496094"/><path d="M 459.601562 343.964844 C 461.285156 345.652344 463.5 346.496094 465.710938 346.496094 C 467.921875 346.496094 470.132812 345.652344 471.820312 343.964844 L 527.332031 288.433594 C 530.707031 285.058594 530.707031 279.585938 527.332031 276.210938 C 523.960938 272.835938 518.484375 272.835938 515.113281 276.210938 L 465.710938 325.625 L 444.671875 304.578125 C 441.296875 301.203125 435.824219 301.203125 432.453125 304.578125 C 429.074219 307.957031 429.074219 313.425781 432.449219 316.804688 Z M 459.601562 343.964844"/><path d="M 801.113281 727.257812 L 8.714844 727.257812 C 3.941406 727.257812 0.0742188 731.125 0.0742188 735.902344 C 0.0742188 740.675781 3.941406 744.542969 8.714844 744.542969 L 801.113281 744.542969 C 805.886719 744.542969 809.753906 740.675781 809.753906 735.902344 C 809.753906 731.125 805.886719 727.257812 801.113281 727.257812 Z M 801.113281 727.257812"/><g clip-path="url(#b)"><path d="M 801.113281 763.472656 L 8.714844 763.472656 C 3.941406 763.472656 0.0742188 767.339844 0.0742188 772.113281 C 0.0742188 776.890625 3.941406 780.757812 8.714844 780.757812 L 801.113281 780.757812 C 805.886719 780.757812 809.753906 776.890625 809.753906 772.113281 C 809.753906 767.339844 805.886719 763.472656 801.113281 763.472656 Z M 801.113281 763.472656"/></g></svg>