<svg xmlns="http://www.w3.org/2000/svg" width="810" viewBox="0 0 810 810" height="810" version="1.0"><defs><clipPath id="a"><path d="M 168 432 L 642 432 L 642 689.738281 L 168 689.738281 Z M 168 432"/></clipPath><clipPath id="b"><path d="M 252 120.488281 L 558 120.488281 L 558 426 L 252 426 Z M 252 120.488281"/></clipPath></defs><path fill="#231F20" d="M 640.023438 597.386719 L 775.617188 597.386719 C 757.164062 485.316406 704.929688 435.097656 607.871094 435.097656 C 578.914062 435.097656 554.308594 439.535156 533.398438 448.589844 C 583.90625 477.460938 619.683594 527.347656 640.023438 597.386719 Z M 809.015625 626.503906 L 617.699219 626.503906 L 614.863281 615.613281 C 594.238281 536.375 555.554688 486.476562 496.578125 463.128906 L 471.515625 453.214844 L 493.554688 437.699219 C 523.894531 416.351562 561.285156 405.976562 607.871094 405.976562 C 724.011719 405.976562 789.105469 472.75 806.882812 610.089844 L 809.015625 626.503906"/><path fill="#231F20" d="M 549.882812 357.484375 C 566.832031 369.4375 587.015625 375.910156 607.871094 375.910156 C 663.558594 375.910156 708.875 330.597656 708.875 274.902344 C 708.875 219.183594 663.558594 173.847656 607.871094 173.847656 C 587.691406 173.847656 568.066406 179.953125 551.449219 191.238281 C 565.613281 216.148438 573.035156 244.167969 573.035156 273.078125 C 573.035156 302.960938 565.070312 331.871094 549.882812 357.484375 Z M 607.871094 405.015625 C 575.683594 405.015625 544.765625 393.066406 520.777344 371.398438 L 511.183594 362.726562 L 518.65625 352.183594 C 535.199219 328.835938 543.941406 301.480469 543.941406 273.078125 C 543.941406 245.453125 535.707031 218.777344 520.136719 195.984375 L 512.847656 185.292969 L 522.589844 176.808594 C 546.28125 156.125 576.570312 144.742188 607.871094 144.742188 C 679.609375 144.742188 737.96875 203.136719 737.96875 274.902344 C 737.96875 346.65625 679.609375 405.015625 607.871094 405.015625"/><path fill="#231F20" d="M 34.367188 597.386719 L 169.972656 597.386719 C 190.300781 527.347656 226.078125 477.460938 276.597656 448.589844 C 255.675781 439.535156 231.070312 435.097656 202.113281 435.097656 C 105.054688 435.097656 52.835938 485.316406 34.367188 597.386719 Z M 192.289062 626.503906 L 0.984375 626.503906 L 3.105469 610.089844 C 20.878906 472.75 85.984375 405.976562 202.113281 405.976562 C 248.710938 405.976562 286.101562 416.351562 316.429688 437.699219 L 338.472656 453.214844 L 313.410156 463.128906 C 254.445312 486.5 215.757812 536.375 195.136719 615.613281 L 192.289062 626.503906"/><path fill="#231F20" d="M 202.113281 173.847656 C 146.425781 173.847656 101.121094 219.183594 101.121094 274.902344 C 101.121094 330.597656 146.425781 375.910156 202.113281 375.910156 C 222.972656 375.910156 243.164062 369.4375 260.101562 357.484375 C 244.925781 331.871094 236.964844 302.960938 236.964844 273.078125 C 236.964844 244.167969 244.386719 216.148438 258.539062 191.238281 C 241.933594 179.953125 222.292969 173.847656 202.113281 173.847656 Z M 202.113281 405.015625 C 130.390625 405.015625 72.027344 346.65625 72.027344 274.902344 C 72.027344 203.136719 130.390625 144.742188 202.113281 144.742188 C 233.425781 144.742188 263.714844 156.125 287.398438 176.808594 L 297.136719 185.292969 L 289.851562 195.984375 C 274.28125 218.789062 266.058594 245.453125 266.058594 273.078125 C 266.058594 301.480469 274.796875 328.835938 291.34375 352.183594 L 298.800781 362.75 L 289.210938 371.398438 C 265.21875 393.066406 234.300781 405.015625 202.113281 405.015625"/><g clip-path="url(#a)"><path fill="#231F20" d="M 201.484375 660.851562 L 608.5 660.851562 C 579.8125 482.601562 479.167969 461.511719 404.992188 461.511719 C 330.816406 461.511719 230.171875 482.601562 201.484375 660.851562 Z M 641.859375 689.957031 L 168.125 689.957031 L 170.257812 673.542969 C 191.238281 511.289062 268.03125 432.394531 404.992188 432.394531 C 541.957031 432.394531 618.746094 511.289062 639.738281 673.542969 L 641.859375 689.957031"/></g><g clip-path="url(#b)"><path fill="#231F20" d="M 404.992188 149.6875 C 336.980469 149.6875 281.640625 205.050781 281.640625 273.078125 C 281.640625 341.132812 336.980469 396.496094 404.992188 396.496094 C 473.003906 396.496094 528.34375 341.132812 528.34375 273.078125 C 528.34375 205.050781 473.003906 149.6875 404.992188 149.6875 Z M 404.992188 425.601562 C 320.929688 425.601562 252.546875 357.175781 252.546875 273.078125 C 252.546875 189.003906 320.929688 120.582031 404.992188 120.582031 C 489.054688 120.582031 557.453125 189.003906 557.453125 273.078125 C 557.453125 357.175781 489.054688 425.601562 404.992188 425.601562"/></g></svg>