<svg xmlns="http://www.w3.org/2000/svg" width="810" viewBox="0 0 810 810" height="810" version="1.0"><defs><clipPath id="a"><path d="M 268 111.375 L 806.84375 111.375 L 806.84375 698.164062 L 268 698.164062 Z M 268 111.375"/></clipPath></defs><g clip-path="url(#a)"><path d="M 513.480469 111.4375 C 415.878906 111.4375 324.929688 159.742188 270.222656 240.742188 C 267.734375 244.410156 268.730469 249.324219 272.335938 251.808594 C 276.003906 254.234375 280.914062 253.300781 283.402344 249.632812 C 335.125 173.042969 421.164062 127.351562 513.480469 127.351562 C 666.472656 127.351562 790.929688 251.808594 790.929688 404.800781 C 790.929688 557.792969 666.472656 682.25 513.480469 682.25 C 421.164062 682.25 335.1875 636.496094 283.402344 559.90625 C 280.976562 556.300781 276.003906 555.308594 272.398438 557.792969 C 268.730469 560.28125 267.796875 565.191406 270.222656 568.859375 C 324.929688 649.800781 415.878906 698.164062 513.480469 698.164062 C 675.238281 698.164062 806.84375 566.558594 806.84375 404.800781 C 806.84375 242.980469 675.238281 111.4375 513.480469 111.4375"/></g><path d="M 513.480469 206.738281 C 517.894531 206.738281 521.4375 203.195312 521.4375 198.78125 L 521.4375 159.304688 C 521.4375 154.890625 517.894531 151.347656 513.480469 151.347656 C 509.066406 151.347656 505.523438 154.890625 505.523438 159.304688 L 505.523438 198.78125 C 505.523438 203.195312 509.066406 206.738281 513.480469 206.738281"/><path d="M 659.136719 267.101562 C 661.125 267.101562 663.175781 266.292969 664.730469 264.742188 L 692.707031 236.828125 C 695.816406 233.71875 695.816406 228.683594 692.707031 225.574219 C 689.597656 222.46875 684.5625 222.46875 681.390625 225.574219 L 653.480469 253.488281 C 650.371094 256.597656 650.371094 261.632812 653.480469 264.742188 C 655.035156 266.292969 657.085938 267.101562 659.136719 267.101562"/><path d="M 758.914062 412.757812 C 763.328125 412.757812 766.871094 409.152344 766.871094 404.800781 C 766.871094 400.386719 763.328125 396.84375 758.914062 396.84375 L 719.4375 396.84375 C 715.023438 396.84375 711.480469 400.386719 711.480469 404.800781 C 711.480469 409.152344 715.023438 412.757812 719.4375 412.757812 L 758.914062 412.757812"/><path d="M 653.480469 556.050781 L 681.390625 583.964844 C 683.007812 585.519531 685 586.328125 687.050781 586.328125 C 689.101562 586.328125 691.089844 585.519531 692.707031 583.964844 C 695.816406 580.855469 695.816406 575.820312 692.707031 572.714844 L 664.730469 544.800781 C 661.625 541.691406 656.589844 541.691406 653.480469 544.800781 C 650.371094 547.910156 650.371094 552.945312 653.480469 556.050781"/><path d="M 505.523438 650.234375 C 505.523438 654.648438 509.066406 658.191406 513.480469 658.191406 C 517.894531 658.191406 521.4375 654.648438 521.4375 650.234375 L 521.4375 610.757812 C 521.4375 606.34375 517.894531 602.800781 513.480469 602.800781 C 509.066406 602.800781 505.523438 606.34375 505.523438 610.757812 L 505.523438 650.234375"/><path d="M 362.167969 544.800781 L 334.253906 572.714844 C 331.144531 575.820312 331.144531 580.855469 334.253906 583.964844 C 335.808594 585.519531 337.859375 586.328125 339.910156 586.328125 C 341.964844 586.328125 343.953125 585.519531 345.507812 583.964844 L 373.480469 556.050781 C 376.589844 552.945312 376.589844 547.910156 373.480469 544.800781 C 370.375 541.691406 365.335938 541.691406 362.167969 544.800781"/><path d="M 307.894531 412.757812 C 312.308594 412.632812 315.789062 408.964844 315.667969 404.554688 C 315.542969 400.203125 311.875 396.71875 307.523438 396.84375 L 3.15625 404.800781 L 307.523438 412.757812 C 307.648438 412.757812 307.773438 412.757812 307.894531 412.757812"/><path d="M 340.347656 498.175781 C 344.699219 498.050781 348.179688 494.382812 348.054688 490.03125 C 347.929688 485.617188 344.324219 482.136719 339.910156 482.261719 L 35.542969 490.21875 L 339.910156 498.175781 C 340.035156 498.175781 340.160156 498.175781 340.347656 498.175781"/><path d="M 339.910156 327.28125 C 340.035156 327.28125 340.160156 327.28125 340.347656 327.28125 C 344.699219 327.15625 348.179688 323.550781 348.054688 319.136719 C 347.929688 314.722656 344.324219 311.242188 339.910156 311.363281 L 35.542969 319.324219 L 339.910156 327.28125"/><path d="M 373.480469 253.488281 L 345.507812 225.574219 C 342.398438 222.46875 337.363281 222.46875 334.253906 225.574219 C 331.144531 228.683594 331.144531 233.71875 334.253906 236.828125 L 362.167969 264.742188 C 363.722656 266.292969 365.773438 267.101562 367.824219 267.101562 C 369.875 267.101562 371.863281 266.292969 373.480469 264.742188 C 376.589844 261.632812 376.589844 256.597656 373.480469 253.488281"/><path d="M 505.523438 490.21875 C 505.523438 494.632812 509.066406 498.175781 513.480469 498.175781 C 517.894531 498.175781 521.4375 494.632812 521.4375 490.21875 L 521.4375 407.910156 L 617.238281 305.398438 C 620.21875 302.164062 620.035156 297.128906 616.800781 294.144531 C 613.632812 291.097656 608.535156 291.285156 605.550781 294.519531 L 507.699219 399.332031 C 506.269531 400.824219 505.523438 402.75 505.523438 404.800781 L 505.523438 490.21875"/></svg>