<?xml version="1.0" encoding="UTF-8"?><svg xmlns="http://www.w3.org/2000/svg" xmlns:xlink="http://www.w3.org/1999/xlink" contentScriptType="text/ecmascript" width="375" zoomAndPan="magnify" contentStyleType="text/css" viewBox="0 0 375 374.999991" height="374.999991" preserveAspectRatio="xMidYMid meet" version="1.0"><path fill="rgb(97.24884%, 35.289001%, 25.099182%)" d="M 5.761719 23.019531 C 5.761719 13.246094 13.714844 5.320312 23.515625 5.320312 L 52.417969 5.320312 L 52.417969 0 L 23.625 0 C 10.882812 0 0.535156 10.316406 0.535156 23.019531 L 0.535156 43.429688 L 5.761719 43.429688 Z M 14.039062 33.117188 C 14.039062 22.257812 22.863281 13.464844 33.753906 13.464844 L 52.417969 13.464844 L 52.417969 12.050781 L 33.753906 12.050781 C 22.101562 12.050781 12.625 21.496094 12.625 33.117188 L 12.625 43.429688 L 14.039062 43.429688 Z M 0.535156 43.429688 L 5.761719 43.429688 L 5.761719 45.601562 L 0.535156 45.601562 Z M 12.734375 43.429688 L 14.148438 43.429688 L 14.148438 45.601562 L 12.734375 45.601562 Z M 23.625 92.289062 C 13.824219 92.289062 5.871094 84.363281 5.871094 74.589844 L 5.871094 45.601562 L 0.535156 45.601562 L 0.535156 74.589844 C 0.535156 87.292969 10.882812 97.609375 23.625 97.609375 L 52.535156 97.609375 L 52.535156 92.289062 Z M 33.753906 84.035156 C 22.863281 84.035156 14.039062 75.242188 14.039062 64.386719 L 14.039062 45.601562 L 12.625 45.601562 L 12.625 64.386719 C 12.625 76.003906 22.101562 85.449219 33.753906 85.449219 L 52.417969 85.449219 L 52.417969 84.035156 Z M 52.417969 92.289062 L 310.878906 92.289062 L 310.878906 97.5 L 52.417969 97.5 Z M 52.417969 84.035156 L 310.878906 84.035156 L 310.878906 85.449219 L 52.417969 85.449219 Z M 368.6875 45.601562 L 368.6875 74.589844 C 368.6875 84.363281 360.738281 92.289062 350.933594 92.289062 L 310.878906 92.289062 L 310.878906 97.5 L 350.933594 97.5 C 363.679688 97.5 374.023438 87.1875 374.023438 74.480469 L 374.023438 45.601562 Z M 360.410156 64.386719 C 360.410156 75.242188 351.589844 84.035156 340.695312 84.035156 L 310.878906 84.035156 L 310.878906 85.449219 L 340.695312 85.449219 C 352.351562 85.449219 361.828125 76.003906 361.828125 64.386719 L 361.828125 45.601562 L 360.410156 45.601562 Z M 368.6875 43.429688 L 373.917969 43.429688 L 373.917969 45.601562 L 368.6875 45.601562 Z M 360.410156 43.429688 L 361.828125 43.429688 L 361.828125 45.601562 L 360.410156 45.601562 Z M 350.933594 5.210938 C 360.738281 5.210938 368.6875 13.136719 368.6875 22.910156 L 368.6875 43.429688 L 373.917969 43.429688 L 373.917969 23.019531 C 373.917969 10.316406 363.570312 0 350.824219 0 L 310.757812 0 L 310.757812 5.210938 Z M 340.695312 12.160156 L 310.878906 12.160156 L 310.878906 13.570312 L 340.695312 13.570312 C 351.589844 13.570312 360.410156 22.367188 360.410156 33.222656 L 360.410156 43.429688 L 361.828125 43.429688 L 361.828125 33.117188 C 361.828125 21.496094 352.351562 12.160156 340.695312 12.160156 Z M 52.417969 0 L 310.878906 0 L 310.878906 5.210938 L 52.417969 5.210938 Z M 52.417969 12.160156 L 310.878906 12.160156 L 310.878906 13.570312 L 52.417969 13.570312 Z M 52.417969 12.160156 " fill-opacity="1" fill-rule="nonzero"/></svg>