<?xml version="1.0" encoding="UTF-8"?><svg xmlns="http://www.w3.org/2000/svg" xmlns:xlink="http://www.w3.org/1999/xlink" contentScriptType="text/ecmascript" width="375" zoomAndPan="magnify" contentStyleType="text/css" viewBox="0 0 375 374.999991" height="374.999991" preserveAspectRatio="xMidYMid meet" version="1.0"><defs><clipPath id="clip-0"><path d="M 0 0 L 375 0 L 375 87.738281 L 0 87.738281 Z M 0 0 " clip-rule="nonzero"/></clipPath></defs><g clip-path="url(#clip-0)"><path fill="rgb(0%, 0%, 0%)" d="M 372.027344 63.4375 C 372.027344 74.824219 362.785156 84.054688 351.378906 84.054688 L 23.417969 84.054688 C 12.015625 84.054688 2.777344 74.824219 2.777344 63.4375 L 2.777344 24.296875 C 2.777344 12.910156 12.015625 3.679688 23.417969 3.679688 L 351.378906 3.679688 C 362.785156 3.679688 372.027344 12.910156 372.027344 24.296875 Z M 351.378906 -0.00390625 L 23.417969 -0.00390625 C 9.996094 -0.00390625 -0.917969 10.898438 -0.917969 24.296875 L -0.917969 63.4375 C -0.917969 76.839844 9.996094 87.738281 23.417969 87.738281 L 351.378906 87.738281 C 364.800781 87.738281 375.71875 76.839844 375.71875 63.4375 L 375.71875 24.296875 C 375.71875 10.898438 364.800781 -0.00390625 351.378906 -0.00390625 " fill-opacity="1" fill-rule="nonzero"/></g></svg>