<?xml version="1.0" encoding="UTF-8"?><svg xmlns="http://www.w3.org/2000/svg" xmlns:xlink="http://www.w3.org/1999/xlink" contentScriptType="text/ecmascript" width="375" zoomAndPan="magnify" contentStyleType="text/css" viewBox="0 0 375 374.999991" height="374.999991" preserveAspectRatio="xMidYMid meet" version="1.0"><path fill="rgb(32.939148%, 32.939148%, 32.939148%)" d="M 367.832031 332.691406 L 332.691406 367.832031 C 325.542969 374.980469 313.949219 374.980469 306.796875 367.832031 L 190.84375 251.875 C 188.988281 250.015625 185.980469 250.015625 184.125 251.875 L 68.167969 367.832031 C 61.019531 374.980469 49.425781 374.980469 42.277344 367.832031 L 7.136719 332.691406 C -0.0117188 325.542969 -0.0117188 313.953125 7.136719 306.800781 L 123.097656 190.84375 C 124.949219 188.988281 124.949219 185.984375 123.097656 184.125 L 7.136719 68.167969 C -0.0117188 61.019531 -0.0117188 49.425781 7.136719 42.277344 L 42.277344 7.136719 C 49.425781 -0.0117188 61.019531 -0.0117188 68.167969 7.136719 L 184.125 123.09375 C 185.980469 124.953125 188.988281 124.953125 190.84375 123.09375 L 306.796875 7.136719 C 313.949219 -0.0117188 325.542969 -0.0117188 332.691406 7.136719 L 367.832031 42.277344 C 374.980469 49.425781 374.980469 61.019531 367.832031 68.167969 L 251.875 184.125 C 250.015625 185.984375 250.015625 188.988281 251.875 190.84375 L 367.832031 306.800781 C 374.980469 313.953125 374.980469 325.542969 367.832031 332.691406 " fill-opacity="1" fill-rule="nonzero"/></svg>