<?xml version="1.0" encoding="UTF-8"?><svg xmlns="http://www.w3.org/2000/svg" xmlns:xlink="http://www.w3.org/1999/xlink" contentScriptType="text/ecmascript" width="375" zoomAndPan="magnify" contentStyleType="text/css" viewBox="0 0 375 374.999991" height="374.999991" preserveAspectRatio="xMidYMid meet" version="1.0"><defs><clipPath id="clip-0"><path d="M 0 3.125 L 375 3.125 L 375 372.324219 L 0 372.324219 Z M 0 3.125 " clip-rule="nonzero"/></clipPath></defs><path fill="rgb(74.119568%, 70.588684%, 60.389709%)" d="M 346.84375 51.636719 L 346.84375 323.8125 L 28.167969 323.8125 L 28.167969 51.636719 L 346.84375 51.636719 " fill-opacity="1" fill-rule="nonzero"/><path fill="rgb(0%, 0%, 0%)" d="M 372.222656 282.320312 C 372.210938 270.128906 360.675781 260.160156 346.578125 260.171875 L 28.054688 260.355469 C 13.957031 260.363281 2.429688 270.34375 2.441406 282.53125 L 2.777344 347.742188 C 2.789062 359.933594 14.332031 369.902344 28.421875 369.890625 L 346.945312 369.707031 C 361.042969 369.699219 372.570312 359.71875 372.558594 347.53125 Z M 372.222656 155.011719 C 372.210938 142.824219 360.675781 132.855469 346.578125 132.867188 L 28.054688 133.046875 C 13.957031 133.058594 2.429688 143.039062 2.441406 155.226562 L 2.777344 220.4375 C 2.789062 232.625 14.332031 242.597656 28.421875 242.585938 L 346.945312 242.402344 C 361.042969 242.390625 372.570312 232.414062 372.558594 220.222656 Z M 372.558594 92.917969 C 372.570312 105.105469 361.042969 115.085938 346.945312 115.097656 L 28.421875 115.28125 C 14.332031 115.289062 2.789062 105.320312 2.777344 93.132812 L 2.441406 27.921875 C 2.429688 15.730469 13.957031 5.753906 28.054688 5.742188 L 346.578125 5.558594 C 360.675781 5.550781 372.210938 15.519531 372.222656 27.707031 L 372.558594 92.917969 " fill-opacity="1" fill-rule="nonzero"/><g clip-path="url(#clip-0)"><path fill="rgb(74.119568%, 70.588684%, 60.389709%)" d="M 346.617188 262.625 C 346.597656 262.625 346.597656 262.625 346.578125 262.625 L 28.066406 262.796875 C 21.820312 262.796875 15.972656 264.917969 11.554688 268.734375 C 7.253906 272.460938 4.882812 277.359375 4.882812 282.542969 L 5.207031 347.734375 C 5.230469 358.621094 15.625 367.4375 28.382812 367.4375 C 28.402344 367.4375 28.402344 367.4375 28.421875 367.4375 L 346.945312 367.265625 C 353.179688 367.265625 359.027344 365.148438 363.445312 361.328125 C 367.746094 357.601562 370.117188 352.714844 370.117188 347.539062 L 369.792969 282.328125 C 369.769531 271.445312 359.375 262.625 346.617188 262.625 Z M 28.382812 372.324219 C 12.929688 372.324219 0.347656 361.308594 0.324219 347.753906 L 0 282.5625 C -0.0195312 275.914062 2.960938 269.710938 8.351562 265.027344 C 13.660156 260.445312 20.660156 257.921875 28.066406 257.910156 L 346.578125 257.738281 C 346.597656 257.738281 346.597656 257.738281 346.617188 257.738281 C 362.058594 257.738281 374.652344 268.753906 374.675781 282.308594 L 375 347.519531 C 375.019531 354.148438 372.039062 360.351562 366.648438 365.035156 C 361.339844 369.617188 354.339844 372.140625 346.945312 372.152344 L 28.421875 372.324219 C 28.402344 372.324219 28.382812 372.324219 28.382812 372.324219 Z M 346.617188 135.308594 C 346.597656 135.308594 346.597656 135.308594 346.578125 135.308594 L 28.066406 135.484375 C 21.820312 135.484375 15.972656 137.601562 11.554688 141.417969 C 7.253906 145.144531 4.882812 150.054688 4.882812 155.226562 L 5.207031 220.417969 C 5.230469 231.304688 15.625 240.132812 28.382812 240.132812 C 28.402344 240.132812 28.402344 240.132812 28.421875 240.132812 L 346.945312 239.957031 C 353.179688 239.957031 359.027344 237.839844 363.445312 234.023438 C 367.746094 230.296875 370.117188 225.40625 370.117188 220.234375 L 369.792969 155.023438 C 369.769531 144.136719 359.375 135.308594 346.617188 135.308594 Z M 28.382812 245.019531 C 12.929688 245.019531 0.347656 234 0.324219 220.4375 L 0 155.246094 C -0.0195312 148.617188 2.960938 142.398438 8.351562 137.722656 C 13.660156 133.140625 20.660156 130.613281 28.066406 130.59375 L 346.578125 130.421875 C 346.597656 130.421875 346.617188 130.421875 346.617188 130.421875 C 362.058594 130.421875 374.652344 141.441406 374.675781 155.003906 L 375 220.214844 C 375.019531 226.84375 372.039062 233.042969 366.648438 237.71875 C 361.339844 242.3125 354.339844 244.824219 346.945312 244.847656 L 28.421875 245.019531 C 28.402344 245.019531 28.402344 245.019531 28.382812 245.019531 Z M 346.578125 8.003906 L 28.066406 8.195312 C 21.269531 8.195312 14.820312 10.753906 10.394531 15.203125 C 6.824219 18.777344 4.882812 23.277344 4.882812 27.921875 L 5.207031 93.113281 C 5.230469 103.996094 15.644531 112.835938 28.421875 112.835938 L 346.945312 112.640625 C 353.730469 112.640625 360.179688 110.085938 364.605469 105.636719 C 368.175781 102.0625 370.117188 97.5625 370.117188 92.9375 L 369.792969 27.726562 C 369.769531 16.84375 359.355469 8.003906 346.578125 8.003906 Z M 28.421875 117.722656 C 12.949219 117.722656 0.347656 106.683594 0.324219 93.132812 L 0 27.941406 C 0 21.984375 2.460938 16.230469 6.925781 11.75 C 12.289062 6.382812 19.988281 3.308594 28.066406 3.308594 L 346.578125 3.117188 C 362.050781 3.117188 374.652344 14.152344 374.675781 27.707031 L 375 92.917969 C 375 98.863281 372.539062 104.609375 368.074219 109.097656 C 362.710938 114.464844 355.011719 117.539062 346.945312 117.539062 L 28.421875 117.722656 " fill-opacity="1" fill-rule="nonzero"/></g><path fill="rgb(100%, 100%, 100%)" d="M 346.921875 355.023438 C 353.199219 355.003906 357.890625 351.0625 357.890625 347.613281 L 357.554688 282.320312 C 357.554688 278.804688 352.875 274.867188 346.566406 274.867188 L 28.078125 275.039062 C 21.808594 275.058594 17.109375 279.011719 17.109375 282.453125 L 17.445312 347.753906 C 17.445312 351.257812 22.144531 355.207031 28.433594 355.207031 Z M 28.433594 227.902344 L 346.921875 227.71875 C 353.199219 227.699219 357.890625 223.757812 357.890625 220.304688 L 357.554688 155.011719 C 357.554688 151.5 352.875 147.558594 346.566406 147.558594 L 28.078125 147.734375 C 21.808594 147.753906 17.109375 151.703125 17.109375 155.144531 L 17.445312 220.449219 C 17.445312 223.949219 22.125 227.902344 28.390625 227.902344 Z M 28.390625 100.597656 C 22.125 100.597656 17.445312 96.644531 17.445312 93.140625 L 17.109375 27.839844 C 17.109375 24.398438 21.808594 20.445312 28.078125 20.425781 L 346.566406 20.253906 C 349.832031 20.253906 352.957031 21.324219 355.101562 23.195312 C 356.019531 23.980469 357.554688 25.609375 357.554688 27.707031 L 357.890625 93 C 357.890625 96.453125 353.199219 100.390625 346.921875 100.414062 L 28.433594 100.597656 L 28.390625 100.597656 " fill-opacity="1" fill-rule="nonzero"/><path fill="rgb(74.119568%, 70.588684%, 60.389709%)" d="M 306.132812 302.785156 C 297.890625 302.785156 291.199219 309.476562 291.199219 317.734375 C 291.199219 325.984375 297.890625 332.671875 306.132812 332.671875 C 314.382812 332.671875 321.066406 325.984375 321.066406 317.734375 C 321.066406 309.476562 314.382812 302.785156 306.132812 302.785156 Z M 306.132812 169.136719 C 297.890625 169.136719 291.199219 175.828125 291.199219 184.085938 C 291.199219 192.34375 297.890625 199.035156 306.132812 199.035156 C 314.382812 199.035156 321.066406 192.34375 321.066406 184.085938 C 321.066406 175.828125 314.382812 169.136719 306.132812 169.136719 Z M 321.066406 59.214844 C 321.066406 67.472656 314.382812 74.160156 306.132812 74.160156 C 297.890625 74.160156 291.199219 67.472656 291.199219 59.214844 C 291.199219 50.964844 297.890625 44.273438 306.132812 44.273438 C 314.382812 44.273438 321.066406 50.964844 321.066406 59.214844 " fill-opacity="1" fill-rule="nonzero"/></svg>