<?xml version="1.0" encoding="UTF-8"?><svg xmlns="http://www.w3.org/2000/svg" xmlns:xlink="http://www.w3.org/1999/xlink" contentScriptType="text/ecmascript" width="375" zoomAndPan="magnify" contentStyleType="text/css" viewBox="0 0 375 374.999991" height="374.999991" preserveAspectRatio="xMidYMid meet" version="1.0"><defs><filter x="0%" y="0%" width="100%" xmlns:xlink="http://www.w3.org/1999/xlink" xlink:type="simple" xlink:actuate="onLoad" height="100%" id="filter-remove-color" xlink:show="other"><feColorMatrix values="0 0 0 0 1 0 0 0 0 1 0 0 0 0 1 0 0 0 1 0" color-interpolation-filters="sRGB"/></filter><mask id="mask-0"><g filter="url(#filter-remove-color)"><rect x="-37.5" width="450" fill="rgb(0%, 0%, 0%)" y="-37.499999" height="449.999989" fill-opacity="0.7765"/></g></mask><clipPath id="clip-0"><rect x="0" width="375" y="0" height="375"/></clipPath></defs><g mask="url(#mask-0)"><g transform="matrix(1, 0, 0, 1, 0, 0)"><g id="source-5" clip-path="url(#clip-0)"><path fill="rgb(0%, 0%, 0%)" d="M 140.625 0 L 31.25 0 C 14.066406 0 0 14.0625 0 31.25 L 0 140.625 C 0 157.8125 14.066406 171.875 31.25 171.875 L 140.625 171.875 C 157.804688 171.875 171.875 157.8125 171.875 140.625 L 171.875 31.25 C 171.875 14.0625 157.804688 0 140.625 0 Z M 140.625 140.625 L 31.25 140.625 L 31.25 31.25 L 140.625 31.25 Z M 140.625 140.625 " fill-opacity="1" fill-rule="nonzero"/><path fill="rgb(0%, 0%, 0%)" d="M 343.75 0 L 234.375 0 C 217.195312 0 203.125 14.0625 203.125 31.25 L 203.125 140.625 C 203.125 157.8125 217.195312 171.875 234.375 171.875 L 343.75 171.875 C 360.933594 171.875 375 157.8125 375 140.625 L 375 31.25 C 375 14.0625 360.933594 0 343.75 0 Z M 343.75 140.625 L 234.375 140.625 L 234.375 31.25 L 343.75 31.25 Z M 343.75 140.625 " fill-opacity="1" fill-rule="nonzero"/><path fill="rgb(0%, 0%, 0%)" d="M 140.625 203.128906 L 31.25 203.128906 C 14.066406 203.128906 0 217.191406 0 234.375 L 0 343.75 C 0 360.933594 14.066406 375 31.25 375 L 140.625 375 C 157.804688 375 171.875 360.933594 171.875 343.75 L 171.875 234.375 C 171.875 217.191406 157.804688 203.128906 140.625 203.128906 Z M 140.625 343.75 L 31.25 343.75 L 31.25 234.375 L 140.625 234.375 Z M 140.625 343.75 " fill-opacity="1" fill-rule="nonzero"/><path fill="rgb(0%, 0%, 0%)" d="M 343.75 203.128906 L 234.375 203.128906 C 217.195312 203.128906 203.125 217.191406 203.125 234.375 L 203.125 343.75 C 203.125 360.933594 217.195312 375 234.375 375 L 343.75 375 C 360.933594 375 375 360.933594 375 343.75 L 375 234.375 C 375 217.191406 360.933594 203.128906 343.75 203.128906 Z M 343.75 343.75 L 234.375 343.75 L 234.375 234.375 L 343.75 234.375 Z M 343.75 343.75 " fill-opacity="1" fill-rule="nonzero"/><path fill="rgb(0%, 0%, 0%)" d="M 54.6875 54.6875 L 85.9375 54.6875 L 85.9375 78.125 L 54.6875 78.125 Z M 54.6875 54.6875 " fill-opacity="1" fill-rule="nonzero"/><path fill="rgb(0%, 0%, 0%)" d="M 54.6875 93.75 L 117.1875 93.75 L 117.1875 117.1875 L 54.6875 117.1875 Z M 54.6875 93.75 " fill-opacity="1" fill-rule="nonzero"/><path fill="rgb(0%, 0%, 0%)" d="M 257.8125 54.6875 L 320.3125 54.6875 L 320.3125 78.125 L 257.8125 78.125 Z M 257.8125 54.6875 " fill-opacity="1" fill-rule="nonzero"/><path fill="rgb(0%, 0%, 0%)" d="M 257.8125 93.75 L 289.0625 93.75 L 289.0625 117.1875 L 257.8125 117.1875 Z M 257.8125 93.75 " fill-opacity="1" fill-rule="nonzero"/><path fill="rgb(0%, 0%, 0%)" d="M 54.6875 257.8125 L 117.1875 257.8125 L 117.1875 281.25 L 54.6875 281.25 Z M 54.6875 257.8125 " fill-opacity="1" fill-rule="nonzero"/><path fill="rgb(0%, 0%, 0%)" d="M 54.6875 296.875 L 85.9375 296.875 L 85.9375 320.3125 L 54.6875 320.3125 Z M 54.6875 296.875 " fill-opacity="1" fill-rule="nonzero"/><path fill="rgb(0%, 0%, 0%)" d="M 257.8125 257.8125 L 289.0625 257.8125 L 289.0625 281.25 L 257.8125 281.25 Z M 257.8125 257.8125 " fill-opacity="1" fill-rule="nonzero"/><path fill="rgb(0%, 0%, 0%)" d="M 257.8125 296.875 L 320.3125 296.875 L 320.3125 320.3125 L 257.8125 320.3125 Z M 257.8125 296.875 " fill-opacity="1" fill-rule="nonzero"/></g></g></g></svg>