<?xml version="1.0" encoding="UTF-8"?><svg xmlns="http://www.w3.org/2000/svg" xmlns:xlink="http://www.w3.org/1999/xlink" contentScriptType="text/ecmascript" width="375" zoomAndPan="magnify" contentStyleType="text/css" viewBox="0 0 375 374.999991" height="374.999991" preserveAspectRatio="xMidYMid meet" version="1.0"><defs><filter x="0%" y="0%" width="100%" xmlns:xlink="http://www.w3.org/1999/xlink" xlink:type="simple" xlink:actuate="onLoad" height="100%" id="filter-remove-color" xlink:show="other"><feColorMatrix values="0 0 0 0 1 0 0 0 0 1 0 0 0 0 1 0 0 0 1 0" color-interpolation-filters="sRGB"/></filter><mask id="mask-0"><g filter="url(#filter-remove-color)"><rect x="-37.5" width="450" fill="rgb(0%, 0%, 0%)" y="-37.499999" height="449.999989" fill-opacity="0.1098"/></g></mask><clipPath id="clip-0"><path d="M 0.9375 0 L 224.4375 0 L 224.4375 375 L 0.9375 375 Z M 0.9375 0 " clip-rule="nonzero"/></clipPath><clipPath id="clip-1"><rect x="0" width="225" y="0" height="375"/></clipPath></defs><g mask="url(#mask-0)"><g transform="matrix(1, 0, 0, 1, 75, 0)"><g id="source-5" clip-path="url(#clip-1)"><g clip-path="url(#clip-0)"><path fill="rgb(0%, 0%, 0%)" d="M 0.902344 0.0742188 L 0.902344 58.472656 L 73.503906 58.472656 C 73.855469 58.402344 74.167969 58.367188 74.519531 58.367188 C 74.902344 58.367188 75.320312 58.402344 75.707031 58.472656 L 149.703125 58.472656 C 150.019531 58.402344 150.332031 58.367188 150.648438 58.367188 C 151.066406 58.367188 151.484375 58.402344 151.90625 58.472656 L 224.472656 58.472656 L 224.472656 0.0742188 Z M 0.902344 71.859375 L 0.902344 113.378906 L 67.882812 113.378906 L 67.882812 71.859375 Z M 81.292969 71.859375 L 81.292969 113.378906 L 144.082031 113.378906 L 144.082031 71.859375 Z M 0.902344 126.769531 L 0.902344 172.507812 L 67.882812 172.507812 L 67.882812 126.769531 Z M 81.292969 126.769531 L 81.292969 172.507812 L 144.082031 172.507812 L 144.082031 126.769531 Z M 157.492188 126.769531 L 157.492188 172.507812 L 224.472656 172.507812 L 224.472656 126.769531 Z M 0.902344 185.929688 L 0.902344 232.089844 L 67.882812 232.089844 L 67.882812 185.929688 Z M 81.292969 185.929688 L 81.292969 232.089844 L 144.082031 232.089844 L 144.082031 185.929688 Z M 157.492188 185.929688 L 157.492188 232.089844 L 224.472656 232.089844 L 224.472656 185.929688 Z M 157.492188 245.476562 L 157.492188 290.835938 L 224.472656 290.835938 L 224.472656 245.476562 Z M 191.015625 315.9375 C 190.980469 315.9375 190.980469 315.9375 190.949219 315.9375 C 190.914062 315.9375 190.878906 315.9375 190.84375 315.9375 C 188.710938 316.007812 186.722656 317.050781 185.5 318.796875 L 171.285156 333.019531 C 169.503906 334.691406 168.808594 337.203125 169.402344 339.539062 C 170.027344 341.875 171.84375 343.722656 174.183594 344.351562 C 176.558594 344.976562 179.039062 344.246094 180.714844 342.503906 L 184.488281 338.738281 L 184.488281 351.355469 C 184.589844 354.984375 187.558594 357.875 191.191406 357.875 C 194.859375 357.875 197.828125 354.984375 197.898438 351.355469 L 197.898438 339.015625 L 201.425781 342.503906 C 203.101562 344.246094 205.613281 344.976562 207.953125 344.351562 C 210.292969 343.722656 212.144531 341.875 212.738281 339.539062 C 213.367188 337.203125 212.632812 334.691406 210.886719 333.019531 L 196.746094 318.863281 C 195.453125 316.980469 193.320312 315.867188 191.015625 315.9375 Z M 180.367188 361.539062 C 176.699219 361.816406 173.941406 364.917969 174.148438 368.578125 C 174.324219 372.207031 177.398438 375.03125 181.066406 374.925781 L 201.144531 374.925781 C 203.589844 374.996094 205.859375 373.703125 207.082031 371.613281 C 208.304688 369.519531 208.304688 366.941406 207.082031 364.847656 C 205.859375 362.757812 203.589844 361.46875 201.144531 361.539062 L 181.066406 361.539062 C 180.820312 361.539062 180.574219 361.539062 180.367188 361.539062 " fill-opacity="1" fill-rule="nonzero"/></g></g></g></g></svg>