<?xml version="1.0" encoding="UTF-8"?><svg xmlns="http://www.w3.org/2000/svg" xmlns:xlink="http://www.w3.org/1999/xlink" contentScriptType="text/ecmascript" width="375" zoomAndPan="magnify" contentStyleType="text/css" viewBox="0 0 375 374.999991" height="374.999991" preserveAspectRatio="xMidYMid meet" version="1.0"><defs><filter x="0%" y="0%" width="100%" xmlns:xlink="http://www.w3.org/1999/xlink" xlink:type="simple" xlink:actuate="onLoad" height="100%" id="filter-remove-color" xlink:show="other"><feColorMatrix values="0 0 0 0 1 0 0 0 0 1 0 0 0 0 1 0 0 0 1 0" color-interpolation-filters="sRGB"/></filter><mask id="mask-0"><g filter="url(#filter-remove-color)"><rect x="-37.5" width="450" fill="rgb(0%, 0%, 0%)" y="-37.499999" height="449.999989" fill-opacity="0.7098"/></g></mask><clipPath id="clip-0"><rect x="0" width="375" y="0" height="375"/></clipPath></defs><g mask="url(#mask-0)"><g transform="matrix(1, 0, 0, 1, 0, 0)"><g id="source-5" clip-path="url(#clip-0)"><path fill="rgb(0%, 0%, 0%)" d="M 26.785156 0 C 12.09375 0 0 12.09375 0 26.785156 L 0 348.214844 C 0 362.90625 12.09375 375 26.785156 375 L 348.214844 375 C 362.90625 375 375 362.90625 375 348.214844 L 375 82.136719 C 375 80.953125 374.773438 79.8125 374.320312 78.71875 C 373.867188 77.625 373.222656 76.660156 372.382812 75.824219 L 299.175781 2.617188 C 298.339844 1.777344 297.375 1.132812 296.28125 0.679688 C 295.1875 0.226562 294.046875 0 292.863281 0 Z M 26.785156 17.855469 L 71.429688 17.855469 L 71.429688 125 C 71.429688 139.691406 83.523438 151.785156 98.214844 151.785156 L 267.855469 151.785156 C 282.546875 151.785156 294.644531 139.691406 294.644531 125 L 294.644531 23.332031 L 357.144531 85.832031 L 357.144531 348.214844 C 357.144531 353.164062 353.164062 357.144531 348.214844 357.144531 L 303.570312 357.144531 L 303.570312 223.214844 C 303.570312 208.523438 291.476562 196.429688 276.785156 196.429688 L 98.214844 196.429688 C 83.523438 196.429688 71.429688 208.523438 71.429688 223.214844 L 71.429688 357.144531 L 26.785156 357.144531 C 21.835938 357.144531 17.855469 353.164062 17.855469 348.214844 L 17.855469 26.785156 C 17.855469 21.835938 21.835938 17.855469 26.785156 17.855469 Z M 89.285156 17.855469 L 276.785156 17.855469 L 276.785156 125 C 276.785156 129.953125 272.808594 133.929688 267.855469 133.929688 L 98.214844 133.929688 C 93.261719 133.929688 89.285156 129.953125 89.285156 125 Z M 223.214844 35.714844 C 222.628906 35.714844 222.046875 35.773438 221.472656 35.886719 C 220.898438 36 220.339844 36.171875 219.796875 36.394531 C 219.253906 36.617188 218.742188 36.894531 218.253906 37.21875 C 217.765625 37.546875 217.316406 37.914062 216.902344 38.328125 C 216.484375 38.746094 216.117188 39.195312 215.789062 39.683594 C 215.464844 40.171875 215.191406 40.683594 214.964844 41.226562 C 214.742188 41.769531 214.570312 42.328125 214.457031 42.902344 C 214.34375 43.476562 214.285156 44.058594 214.285156 44.644531 L 214.285156 107.144531 C 214.285156 107.730469 214.34375 108.308594 214.457031 108.886719 C 214.570312 109.460938 214.742188 110.019531 214.964844 110.558594 C 215.191406 111.101562 215.464844 111.617188 215.792969 112.101562 C 216.117188 112.589844 216.488281 113.042969 216.902344 113.457031 C 217.316406 113.871094 217.765625 114.242188 218.253906 114.566406 C 218.742188 114.890625 219.257812 115.167969 219.796875 115.390625 C 220.339844 115.617188 220.898438 115.785156 221.472656 115.898438 C 222.046875 116.015625 222.628906 116.070312 223.214844 116.070312 L 250 116.070312 C 250.585938 116.070312 251.167969 116.015625 251.742188 115.898438 C 252.316406 115.785156 252.875 115.617188 253.417969 115.390625 C 253.957031 115.167969 254.472656 114.890625 254.960938 114.566406 C 255.449219 114.242188 255.898438 113.871094 256.3125 113.457031 C 256.726562 113.042969 257.097656 112.589844 257.425781 112.101562 C 257.75 111.617188 258.023438 111.101562 258.25 110.558594 C 258.472656 110.019531 258.644531 109.460938 258.757812 108.882812 C 258.871094 108.308594 258.929688 107.730469 258.929688 107.144531 L 258.929688 44.644531 C 258.929688 44.054688 258.871094 43.476562 258.757812 42.902344 C 258.640625 42.324219 258.472656 41.765625 258.25 41.226562 C 258.023438 40.683594 257.75 40.167969 257.421875 39.683594 C 257.097656 39.195312 256.726562 38.742188 256.3125 38.328125 C 255.898438 37.914062 255.449219 37.542969 254.960938 37.21875 C 254.472656 36.894531 253.957031 36.617188 253.417969 36.394531 C 252.875 36.167969 252.316406 36 251.742188 35.886719 C 251.167969 35.769531 250.585938 35.714844 250 35.714844 Z M 232.144531 53.570312 L 241.070312 53.570312 L 241.070312 98.214844 L 232.144531 98.214844 Z M 98.214844 214.285156 L 276.785156 214.285156 C 281.738281 214.285156 285.714844 218.261719 285.714844 223.214844 L 285.714844 357.144531 L 89.285156 357.144531 L 89.285156 223.214844 C 89.285156 218.261719 93.261719 214.285156 98.214844 214.285156 Z M 35.714844 321.429688 L 35.714844 339.285156 L 53.570312 339.285156 L 53.570312 321.429688 Z M 321.429688 321.429688 L 321.429688 339.285156 L 339.285156 339.285156 L 339.285156 321.429688 Z M 321.429688 321.429688 " fill-opacity="1" fill-rule="nonzero"/></g></g></g></svg>