<?xml version="1.0" encoding="UTF-8"?><svg xmlns="http://www.w3.org/2000/svg" xmlns:xlink="http://www.w3.org/1999/xlink" contentScriptType="text/ecmascript" width="375" zoomAndPan="magnify" contentStyleType="text/css" viewBox="0 0 375 374.999991" height="374.999991" preserveAspectRatio="xMidYMid meet" version="1.0"><defs><clipPath id="clip-0"><path d="M 0 82.5 L 375 82.5 L 375 292.5 L 0 292.5 Z M 0 82.5 " clip-rule="nonzero"/></clipPath></defs><g clip-path="url(#clip-0)"><path fill="rgb(0%, 0%, 0%)" d="M 270 82.5 L 105 82.5 C 47.109375 82.5 0 129.609375 0 187.5 C 0 245.390625 47.109375 292.5 105 292.5 L 270 292.5 C 327.890625 292.5 375 245.390625 375 187.5 C 375 129.609375 327.890625 82.5 270 82.5 Z M 270 277.5 C 220.371094 277.5 180 237.128906 180 187.5 C 180 137.871094 220.371094 97.5 270 97.5 C 319.628906 97.5 360 137.871094 360 187.5 C 360 237.128906 319.628906 277.5 270 277.5 Z M 270 277.5 " fill-opacity="1" fill-rule="nonzero"/></g></svg>