<?xml version="1.0" encoding="UTF-8"?><svg xmlns="http://www.w3.org/2000/svg" xmlns:xlink="http://www.w3.org/1999/xlink" contentScriptType="text/ecmascript" width="375pt" zoomAndPan="magnify" contentStyleType="text/css" viewBox="0 0 375 374.999991" height="374.999991pt" preserveAspectRatio="xMidYMid meet" version="1.2"><defs><g/><filter x="0%" y="0%" width="100%" xmlns:xlink="http://www.w3.org/1999/xlink" xlink:type="simple" filterUnits="objectBoundingBox" xlink:actuate="onLoad" id="alpha" height="100%" xlink:show="other" xml:id="alpha"><feColorMatrix values="0 0 0 0 1 0 0 0 0 1 0 0 0 0 1 0 0 0 1 0" type="matrix" in="SourceGraphic"/></filter><clipPath xml:id="clip2" id="clip2"><path d="M 0.328125 0.164062 L 144.429688 0.164062 L 144.429688 242.6875 L 0.328125 242.6875 Z M 0.328125 0.164062 "/></clipPath><clipPath xml:id="clip1" id="clip1"><rect x="0" width="146" y="0" height="245"/></clipPath><clipPath xml:id="clip4" id="clip4"><path d="M 106 45 L 120 45 L 120 63.238281 L 106 63.238281 Z M 106 45 "/></clipPath><clipPath xml:id="clip5" id="clip5"><path d="M 210 45 L 223 45 L 223 63.238281 L 210 63.238281 Z M 210 45 "/></clipPath><clipPath xml:id="clip3" id="clip3"><rect x="0" width="361" y="0" height="64"/></clipPath></defs><g xml:id="surface1" id="surface1"><g mask="url(#mask0)" transform="matrix(1,0,0,1,112,24)"><g xml:id="surface5" id="surface5" clip-path="url(#clip1)"><g clip-rule="nonzero" clip-path="url(#clip2)"><path style=" stroke:none;fill-rule:nonzero;fill:rgb(0%,0%,0%);fill-opacity:1;" d="M 0.304688 0.207031 L 0.304688 37.976562 L 47.117188 37.976562 C 47.339844 37.929688 47.542969 37.90625 47.769531 37.90625 C 48.015625 37.90625 48.285156 37.929688 48.535156 37.976562 L 96.246094 37.976562 C 96.449219 37.929688 96.652344 37.90625 96.851562 37.90625 C 97.125 37.90625 97.394531 37.929688 97.664062 37.976562 L 144.449219 37.976562 L 144.449219 0.207031 Z M 0.304688 46.632812 L 0.304688 73.488281 L 43.492188 73.488281 L 43.492188 46.632812 Z M 52.136719 46.632812 L 52.136719 73.488281 L 92.621094 73.488281 L 92.621094 46.632812 Z M 0.304688 82.148438 L 0.304688 111.730469 L 43.492188 111.730469 L 43.492188 82.148438 Z M 52.136719 82.148438 L 52.136719 111.730469 L 92.621094 111.730469 L 92.621094 82.148438 Z M 101.265625 82.148438 L 101.265625 111.730469 L 144.449219 111.730469 L 144.449219 82.148438 Z M 0.304688 120.410156 L 0.304688 150.261719 L 43.492188 150.261719 L 43.492188 120.410156 Z M 52.136719 120.410156 L 52.136719 150.261719 L 92.621094 150.261719 L 92.621094 120.410156 Z M 101.265625 120.410156 L 101.265625 150.261719 L 144.449219 150.261719 L 144.449219 120.410156 Z M 101.265625 158.921875 L 101.265625 188.257812 L 144.449219 188.257812 L 144.449219 158.921875 Z M 122.882812 204.492188 C 122.859375 204.492188 122.859375 204.492188 122.835938 204.492188 C 122.8125 204.492188 122.792969 204.492188 122.769531 204.492188 C 121.394531 204.535156 120.113281 205.210938 119.324219 206.339844 L 110.160156 215.539062 C 109.011719 216.621094 108.5625 218.246094 108.945312 219.753906 C 109.347656 221.265625 110.519531 222.460938 112.027344 222.867188 C 113.558594 223.273438 115.160156 222.800781 116.238281 221.671875 L 118.671875 219.238281 L 118.671875 227.398438 C 118.738281 229.746094 120.652344 231.617188 122.992188 231.617188 C 125.359375 231.617188 127.273438 229.746094 127.316406 227.398438 L 127.316406 219.417969 L 129.589844 221.671875 C 130.671875 222.800781 132.292969 223.273438 133.800781 222.867188 C 135.308594 222.460938 136.503906 221.265625 136.886719 219.753906 C 137.292969 218.246094 136.816406 216.621094 135.691406 215.539062 L 126.574219 206.386719 C 125.742188 205.167969 124.367188 204.445312 122.882812 204.492188 Z M 116.015625 233.984375 C 113.648438 234.164062 111.871094 236.171875 112.007812 238.539062 C 112.117188 240.882812 114.101562 242.710938 116.464844 242.640625 L 129.410156 242.640625 C 130.988281 242.6875 132.449219 241.851562 133.238281 240.5 C 134.027344 239.148438 134.027344 237.476562 133.238281 236.125 C 132.449219 234.773438 130.988281 233.9375 129.410156 233.984375 L 116.464844 233.984375 C 116.304688 233.984375 116.148438 233.984375 116.015625 233.984375 "/></g></g><mask xml:id="mask0" id="mask0"><g filter="url(#alpha)"><rect x="0" width="375" y="0" height="374.999991" style="fill:rgb(0%,0%,0%);fill-opacity:0.1098;stroke:none;"/></g></mask></g><g mask="url(#mask1)" transform="matrix(1,0,0,1,7,285)"><g xml:id="surface8" id="surface8" clip-path="url(#clip3)"><g style="fill:rgb(0%,0%,0%);fill-opacity:1;"><g transform="translate(1.135329, 21.271834)"><path style="stroke:none;" d="M 15.25 -17.671875 L 14.890625 -15.578125 L 9.375 -15.578125 L 6.625 0 L 4.265625 0 L 7.015625 -15.578125 L 1.515625 -15.578125 L 1.875 -17.671875 Z M 15.25 -17.671875 "/></g></g><g style="fill:rgb(0%,0%,0%);fill-opacity:1;"><g transform="translate(15.379312, 21.271834)"><path style="stroke:none;" d="M 12.640625 -9.6875 C 12.640625 -9.25 12.515625 -8.289062 12.265625 -6.8125 L 11.078125 0 L 8.8125 0 L 9.984375 -6.625 C 10.179688 -7.789062 10.28125 -8.59375 10.28125 -9.03125 C 10.28125 -9.6875 10.101562 -10.164062 9.75 -10.46875 C 9.394531 -10.78125 8.75 -10.9375 7.8125 -10.9375 C 7.15625 -10.9375 6.585938 -10.835938 6.109375 -10.640625 C 5.640625 -10.453125 5.269531 -10.234375 5 -9.984375 C 4.738281 -9.734375 4.503906 -9.34375 4.296875 -8.8125 C 4.097656 -8.289062 3.957031 -7.851562 3.875 -7.5 C 3.800781 -7.15625 3.703125 -6.625 3.578125 -5.90625 L 2.515625 0 L 0.265625 0 L 3.515625 -18.453125 L 5.78125 -18.453125 L 4.578125 -11.671875 C 5.515625 -12.578125 6.785156 -13.03125 8.390625 -13.03125 C 9.785156 -13.03125 10.84375 -12.742188 11.5625 -12.171875 C 12.28125 -11.597656 12.640625 -10.769531 12.640625 -9.6875 Z M 12.640625 -9.6875 "/></g></g><g style="fill:rgb(0%,0%,0%);fill-opacity:1;"><g transform="translate(29.649771, 21.271834)"><path style="stroke:none;" d="M 12.5 -9.03125 C 12.5 -7.707031 12.382812 -6.585938 12.15625 -5.671875 L 3.078125 -5.671875 C 2.953125 -4.929688 2.890625 -4.390625 2.890625 -4.046875 C 2.890625 -3.222656 3.117188 -2.632812 3.578125 -2.28125 C 4.035156 -1.925781 4.828125 -1.75 5.953125 -1.75 C 6.410156 -1.75 6.804688 -1.769531 7.140625 -1.8125 C 7.484375 -1.851562 7.832031 -1.9375 8.1875 -2.0625 C 8.539062 -2.1875 8.832031 -2.390625 9.0625 -2.671875 C 9.289062 -2.953125 9.441406 -3.304688 9.515625 -3.734375 L 11.625 -3.734375 C 11.289062 -1.097656 9.375 0.21875 5.875 0.21875 C 3.96875 0.21875 2.625 -0.132812 1.84375 -0.84375 C 1.070312 -1.550781 0.6875 -2.617188 0.6875 -4.046875 C 0.6875 -5.265625 0.878906 -6.644531 1.265625 -8.1875 C 1.660156 -9.738281 2.203125 -10.859375 2.890625 -11.546875 C 3.878906 -12.535156 5.394531 -13.03125 7.4375 -13.03125 C 9.3125 -13.03125 10.625 -12.679688 11.375 -11.984375 C 12.125 -11.285156 12.5 -10.300781 12.5 -9.03125 Z M 10.375 -8.984375 C 10.375 -9.734375 10.15625 -10.269531 9.71875 -10.59375 C 9.28125 -10.925781 8.519531 -11.09375 7.4375 -11.09375 C 6.132812 -11.09375 5.195312 -10.8125 4.625 -10.25 C 4.050781 -9.695312 3.648438 -8.804688 3.421875 -7.578125 L 10.21875 -7.578125 C 10.320312 -8.210938 10.375 -8.679688 10.375 -8.984375 Z M 10.375 -8.984375 "/></g></g><g style="fill:rgb(0%,0%,0%);fill-opacity:1;"><g transform="translate(43.787851, 21.271834)"><path style="stroke:none;" d="M 11.765625 -10.03125 C 11.765625 -9.75 11.734375 -9.453125 11.671875 -9.140625 L 9.515625 -9.140625 C 9.546875 -9.296875 9.5625 -9.5 9.5625 -9.75 C 9.5625 -10.207031 9.394531 -10.523438 9.0625 -10.703125 C 8.738281 -10.890625 8.21875 -10.984375 7.5 -10.984375 C 6.332031 -10.984375 5.421875 -10.523438 4.765625 -9.609375 C 4.285156 -8.941406 3.90625 -7.847656 3.625 -6.328125 L 2.515625 0 L 0.265625 0 L 2.515625 -12.8125 L 4.578125 -12.8125 L 4.34375 -11.578125 C 5.257812 -12.546875 6.460938 -13.03125 7.953125 -13.03125 C 10.492188 -13.03125 11.765625 -12.03125 11.765625 -10.03125 Z M 11.765625 -10.03125 "/></g></g><g style="fill:rgb(0%,0%,0%);fill-opacity:1;"><g transform="translate(55.728445, 21.271834)"><path style="stroke:none;" d="M 12.5 -9.03125 C 12.5 -7.707031 12.382812 -6.585938 12.15625 -5.671875 L 3.078125 -5.671875 C 2.953125 -4.929688 2.890625 -4.390625 2.890625 -4.046875 C 2.890625 -3.222656 3.117188 -2.632812 3.578125 -2.28125 C 4.035156 -1.925781 4.828125 -1.75 5.953125 -1.75 C 6.410156 -1.75 6.804688 -1.769531 7.140625 -1.8125 C 7.484375 -1.851562 7.832031 -1.9375 8.1875 -2.0625 C 8.539062 -2.1875 8.832031 -2.390625 9.0625 -2.671875 C 9.289062 -2.953125 9.441406 -3.304688 9.515625 -3.734375 L 11.625 -3.734375 C 11.289062 -1.097656 9.375 0.21875 5.875 0.21875 C 3.96875 0.21875 2.625 -0.132812 1.84375 -0.84375 C 1.070312 -1.550781 0.6875 -2.617188 0.6875 -4.046875 C 0.6875 -5.265625 0.878906 -6.644531 1.265625 -8.1875 C 1.660156 -9.738281 2.203125 -10.859375 2.890625 -11.546875 C 3.878906 -12.535156 5.394531 -13.03125 7.4375 -13.03125 C 9.3125 -13.03125 10.625 -12.679688 11.375 -11.984375 C 12.125 -11.285156 12.5 -10.300781 12.5 -9.03125 Z M 10.375 -8.984375 C 10.375 -9.734375 10.15625 -10.269531 9.71875 -10.59375 C 9.28125 -10.925781 8.519531 -11.09375 7.4375 -11.09375 C 6.132812 -11.09375 5.195312 -10.8125 4.625 -10.25 C 4.050781 -9.695312 3.648438 -8.804688 3.421875 -7.578125 L 10.21875 -7.578125 C 10.320312 -8.210938 10.375 -8.679688 10.375 -8.984375 Z M 10.375 -8.984375 "/></g></g><g style="fill:rgb(0%,0%,0%);fill-opacity:1;"><g transform="translate(69.866526, 21.271834)"><path style="stroke:none;" d=""/></g></g><g style="fill:rgb(0%,0%,0%);fill-opacity:1;"><g transform="translate(76.035399, 21.271834)"><path style="stroke:none;" d="M 12.3125 -9.59375 C 12.3125 -9.164062 12.195312 -8.289062 11.96875 -6.96875 L 10.71875 0 L 8.65625 0 L 8.875 -1.25 C 7.90625 -0.269531 6.472656 0.21875 4.578125 0.21875 C 3.234375 0.21875 2.164062 -0.0390625 1.375 -0.5625 C 0.582031 -1.082031 0.1875 -1.898438 0.1875 -3.015625 C 0.1875 -4.535156 0.609375 -5.71875 1.453125 -6.5625 C 1.984375 -7.09375 2.609375 -7.441406 3.328125 -7.609375 C 4.054688 -7.773438 5.019531 -7.859375 6.21875 -7.859375 L 9.875 -7.859375 C 10.019531 -8.765625 10.09375 -9.28125 10.09375 -9.40625 C 10.09375 -10.070312 9.882812 -10.507812 9.46875 -10.71875 C 9.050781 -10.9375 8.347656 -11.046875 7.359375 -11.046875 C 6.035156 -11.046875 5.101562 -10.878906 4.5625 -10.546875 C 4.03125 -10.222656 3.703125 -9.753906 3.578125 -9.140625 L 1.375 -9.140625 C 1.519531 -9.910156 1.78125 -10.566406 2.15625 -11.109375 C 2.539062 -11.648438 3.019531 -12.050781 3.59375 -12.3125 C 4.175781 -12.582031 4.773438 -12.769531 5.390625 -12.875 C 6.015625 -12.976562 6.734375 -13.03125 7.546875 -13.03125 C 10.722656 -13.03125 12.3125 -11.882812 12.3125 -9.59375 Z M 9.609375 -5.984375 L 6.21875 -5.984375 C 5.800781 -5.984375 5.484375 -5.976562 5.265625 -5.96875 C 5.054688 -5.957031 4.734375 -5.90625 4.296875 -5.8125 C 3.867188 -5.726562 3.539062 -5.597656 3.3125 -5.421875 C 3.082031 -5.253906 2.867188 -4.988281 2.671875 -4.625 C 2.484375 -4.257812 2.390625 -3.8125 2.390625 -3.28125 C 2.390625 -2.789062 2.601562 -2.40625 3.03125 -2.125 C 3.46875 -1.851562 4.09375 -1.71875 4.90625 -1.71875 C 5.78125 -1.71875 6.5 -1.796875 7.0625 -1.953125 C 7.632812 -2.117188 8.082031 -2.398438 8.40625 -2.796875 C 8.738281 -3.191406 8.984375 -3.613281 9.140625 -4.0625 C 9.296875 -4.507812 9.453125 -5.148438 9.609375 -5.984375 Z M 9.609375 -5.984375 "/></g></g><g style="fill:rgb(0%,0%,0%);fill-opacity:1;"><g transform="translate(89.988151, 21.271834)"><path style="stroke:none;" d="M 11.765625 -10.03125 C 11.765625 -9.75 11.734375 -9.453125 11.671875 -9.140625 L 9.515625 -9.140625 C 9.546875 -9.296875 9.5625 -9.5 9.5625 -9.75 C 9.5625 -10.207031 9.394531 -10.523438 9.0625 -10.703125 C 8.738281 -10.890625 8.21875 -10.984375 7.5 -10.984375 C 6.332031 -10.984375 5.421875 -10.523438 4.765625 -9.609375 C 4.285156 -8.941406 3.90625 -7.847656 3.625 -6.328125 L 2.515625 0 L 0.265625 0 L 2.515625 -12.8125 L 4.578125 -12.8125 L 4.34375 -11.578125 C 5.257812 -12.546875 6.460938 -13.03125 7.953125 -13.03125 C 10.492188 -13.03125 11.765625 -12.03125 11.765625 -10.03125 Z M 11.765625 -10.03125 "/></g></g><g style="fill:rgb(0%,0%,0%);fill-opacity:1;"><g transform="translate(101.928745, 21.271834)"><path style="stroke:none;" d="M 12.5 -9.03125 C 12.5 -7.707031 12.382812 -6.585938 12.15625 -5.671875 L 3.078125 -5.671875 C 2.953125 -4.929688 2.890625 -4.390625 2.890625 -4.046875 C 2.890625 -3.222656 3.117188 -2.632812 3.578125 -2.28125 C 4.035156 -1.925781 4.828125 -1.75 5.953125 -1.75 C 6.410156 -1.75 6.804688 -1.769531 7.140625 -1.8125 C 7.484375 -1.851562 7.832031 -1.9375 8.1875 -2.0625 C 8.539062 -2.1875 8.832031 -2.390625 9.0625 -2.671875 C 9.289062 -2.953125 9.441406 -3.304688 9.515625 -3.734375 L 11.625 -3.734375 C 11.289062 -1.097656 9.375 0.21875 5.875 0.21875 C 3.96875 0.21875 2.625 -0.132812 1.84375 -0.84375 C 1.070312 -1.550781 0.6875 -2.617188 0.6875 -4.046875 C 0.6875 -5.265625 0.878906 -6.644531 1.265625 -8.1875 C 1.660156 -9.738281 2.203125 -10.859375 2.890625 -11.546875 C 3.878906 -12.535156 5.394531 -13.03125 7.4375 -13.03125 C 9.3125 -13.03125 10.625 -12.679688 11.375 -11.984375 C 12.125 -11.285156 12.5 -10.300781 12.5 -9.03125 Z M 10.375 -8.984375 C 10.375 -9.734375 10.15625 -10.269531 9.71875 -10.59375 C 9.28125 -10.925781 8.519531 -11.09375 7.4375 -11.09375 C 6.132812 -11.09375 5.195312 -10.8125 4.625 -10.25 C 4.050781 -9.695312 3.648438 -8.804688 3.421875 -7.578125 L 10.21875 -7.578125 C 10.320312 -8.210938 10.375 -8.679688 10.375 -8.984375 Z M 10.375 -8.984375 "/></g></g><g style="fill:rgb(0%,0%,0%);fill-opacity:1;"><g transform="translate(116.066826, 21.271834)"><path style="stroke:none;" d=""/></g></g><g style="fill:rgb(0%,0%,0%);fill-opacity:1;"><g transform="translate(122.235699, 21.271834)"><path style="stroke:none;" d="M 12.640625 -9.6875 C 12.640625 -9.25 12.515625 -8.289062 12.265625 -6.8125 L 11.078125 0 L 8.8125 0 L 9.984375 -6.625 C 10.179688 -7.789062 10.28125 -8.59375 10.28125 -9.03125 C 10.28125 -9.6875 10.101562 -10.164062 9.75 -10.46875 C 9.394531 -10.78125 8.75 -10.9375 7.8125 -10.9375 C 7.15625 -10.9375 6.585938 -10.835938 6.109375 -10.640625 C 5.640625 -10.453125 5.269531 -10.234375 5 -9.984375 C 4.738281 -9.734375 4.503906 -9.34375 4.296875 -8.8125 C 4.097656 -8.289062 3.957031 -7.851562 3.875 -7.5 C 3.800781 -7.15625 3.703125 -6.625 3.578125 -5.90625 L 2.515625 0 L 0.265625 0 L 2.546875 -12.8125 L 4.578125 -12.8125 L 4.375 -11.578125 C 5.25 -12.546875 6.585938 -13.03125 8.390625 -13.03125 C 9.785156 -13.03125 10.84375 -12.742188 11.5625 -12.171875 C 12.28125 -11.597656 12.640625 -10.769531 12.640625 -9.6875 Z M 12.640625 -9.6875 "/></g></g><g style="fill:rgb(0%,0%,0%);fill-opacity:1;"><g transform="translate(136.506157, 21.271834)"><path style="stroke:none;" d="M 12.953125 -8.765625 C 12.953125 -8.078125 12.875 -7.289062 12.71875 -6.40625 C 12.5 -5.207031 12.257812 -4.234375 12 -3.484375 C 11.75 -2.734375 11.375 -2.054688 10.875 -1.453125 C 10.382812 -0.859375 9.738281 -0.429688 8.9375 -0.171875 C 8.132812 0.0859375 7.132812 0.21875 5.9375 0.21875 C 4.007812 0.21875 2.648438 -0.117188 1.859375 -0.796875 C 1.078125 -1.484375 0.6875 -2.566406 0.6875 -4.046875 C 0.6875 -4.734375 0.765625 -5.519531 0.921875 -6.40625 C 1.140625 -7.601562 1.375 -8.578125 1.625 -9.328125 C 1.882812 -10.085938 2.257812 -10.765625 2.75 -11.359375 C 3.25 -11.960938 3.898438 -12.390625 4.703125 -12.640625 C 5.503906 -12.898438 6.503906 -13.03125 7.703125 -13.03125 C 9.628906 -13.03125 10.984375 -12.6875 11.765625 -12 C 12.554688 -11.320312 12.953125 -10.242188 12.953125 -8.765625 Z M 10.640625 -8.6875 C 10.640625 -9.519531 10.421875 -10.109375 9.984375 -10.453125 C 9.554688 -10.804688 8.796875 -10.984375 7.703125 -10.984375 C 6.273438 -10.984375 5.253906 -10.6875 4.640625 -10.09375 C 4.003906 -9.46875 3.515625 -8.109375 3.171875 -6.015625 C 3.054688 -5.148438 3 -4.519531 3 -4.125 C 3 -3.300781 3.210938 -2.710938 3.640625 -2.359375 C 4.078125 -2.003906 4.84375 -1.828125 5.9375 -1.828125 C 7.363281 -1.828125 8.382812 -2.128906 9 -2.734375 C 9.632812 -3.347656 10.125 -4.707031 10.46875 -6.8125 C 10.582031 -7.675781 10.640625 -8.300781 10.640625 -8.6875 Z M 10.640625 -8.6875 "/></g></g><g style="fill:rgb(0%,0%,0%);fill-opacity:1;"><g transform="translate(151.094341, 21.271834)"><path style="stroke:none;" d=""/></g></g><g style="fill:rgb(0%,0%,0%);fill-opacity:1;"><g transform="translate(157.263215, 21.271834)"><path style="stroke:none;" d="M 12.546875 -9.875 C 12.546875 -9.644531 12.519531 -9.378906 12.46875 -9.078125 L 10.359375 -9.078125 C 10.367188 -9.171875 10.375 -9.320312 10.375 -9.53125 C 10.375 -9.957031 10.210938 -10.285156 9.890625 -10.515625 C 9.578125 -10.742188 9.242188 -10.878906 8.890625 -10.921875 C 8.546875 -10.960938 8.109375 -10.984375 7.578125 -10.984375 C 6.210938 -10.984375 5.222656 -10.675781 4.609375 -10.0625 C 4.097656 -9.550781 3.703125 -8.675781 3.421875 -7.4375 C 3.140625 -6.207031 3 -5.097656 3 -4.109375 C 3 -3.296875 3.21875 -2.710938 3.65625 -2.359375 C 4.09375 -2.003906 4.859375 -1.828125 5.953125 -1.828125 C 6.378906 -1.828125 6.75 -1.84375 7.0625 -1.875 C 7.382812 -1.914062 7.726562 -1.992188 8.09375 -2.109375 C 8.457031 -2.234375 8.753906 -2.429688 8.984375 -2.703125 C 9.210938 -2.984375 9.359375 -3.328125 9.421875 -3.734375 L 11.578125 -3.734375 C 11.253906 -1.097656 9.347656 0.21875 5.859375 0.21875 C 3.984375 0.21875 2.648438 -0.125 1.859375 -0.8125 C 1.078125 -1.507812 0.6875 -2.585938 0.6875 -4.046875 C 0.6875 -5.304688 0.878906 -6.6875 1.265625 -8.1875 C 1.660156 -9.6875 2.203125 -10.789062 2.890625 -11.5 C 3.859375 -12.519531 5.394531 -13.03125 7.5 -13.03125 C 10.863281 -13.03125 12.546875 -11.976562 12.546875 -9.875 Z M 12.546875 -9.875 "/></g></g><g style="fill:rgb(0%,0%,0%);fill-opacity:1;"><g transform="translate(171.057114, 21.271834)"><path style="stroke:none;" d="M 12.953125 -8.765625 C 12.953125 -8.078125 12.875 -7.289062 12.71875 -6.40625 C 12.5 -5.207031 12.257812 -4.234375 12 -3.484375 C 11.75 -2.734375 11.375 -2.054688 10.875 -1.453125 C 10.382812 -0.859375 9.738281 -0.429688 8.9375 -0.171875 C 8.132812 0.0859375 7.132812 0.21875 5.9375 0.21875 C 4.007812 0.21875 2.648438 -0.117188 1.859375 -0.796875 C 1.078125 -1.484375 0.6875 -2.566406 0.6875 -4.046875 C 0.6875 -4.734375 0.765625 -5.519531 0.921875 -6.40625 C 1.140625 -7.601562 1.375 -8.578125 1.625 -9.328125 C 1.882812 -10.085938 2.257812 -10.765625 2.75 -11.359375 C 3.25 -11.960938 3.898438 -12.390625 4.703125 -12.640625 C 5.503906 -12.898438 6.503906 -13.03125 7.703125 -13.03125 C 9.628906 -13.03125 10.984375 -12.6875 11.765625 -12 C 12.554688 -11.320312 12.953125 -10.242188 12.953125 -8.765625 Z M 10.640625 -8.6875 C 10.640625 -9.519531 10.421875 -10.109375 9.984375 -10.453125 C 9.554688 -10.804688 8.796875 -10.984375 7.703125 -10.984375 C 6.273438 -10.984375 5.253906 -10.6875 4.640625 -10.09375 C 4.003906 -9.46875 3.515625 -8.109375 3.171875 -6.015625 C 3.054688 -5.148438 3 -4.519531 3 -4.125 C 3 -3.300781 3.210938 -2.710938 3.640625 -2.359375 C 4.078125 -2.003906 4.84375 -1.828125 5.9375 -1.828125 C 7.363281 -1.828125 8.382812 -2.128906 9 -2.734375 C 9.632812 -3.347656 10.125 -4.707031 10.46875 -6.8125 C 10.582031 -7.675781 10.640625 -8.300781 10.640625 -8.6875 Z M 10.640625 -8.6875 "/></g></g><g style="fill:rgb(0%,0%,0%);fill-opacity:1;"><g transform="translate(185.645298, 21.271834)"><path style="stroke:none;" d="M 5.78125 -18.453125 L 2.515625 0 L 0.265625 0 L 3.515625 -18.453125 Z M 5.78125 -18.453125 "/></g></g><g style="fill:rgb(0%,0%,0%);fill-opacity:1;"><g transform="translate(191.708269, 21.271834)"><path style="stroke:none;" d="M 13.0625 -12.8125 L 10.8125 0 L 8.765625 0 L 8.984375 -1.25 C 8.097656 -0.269531 6.769531 0.21875 5 0.21875 C 3.46875 0.21875 2.363281 -0.113281 1.6875 -0.78125 C 1.019531 -1.457031 0.6875 -2.238281 0.6875 -3.125 C 0.6875 -3.5625 0.8125 -4.523438 1.0625 -6.015625 L 2.25 -12.8125 L 4.53125 -12.8125 L 3.34375 -6.203125 C 3.125 -5.109375 3.015625 -4.296875 3.015625 -3.765625 C 3.015625 -3.179688 3.195312 -2.71875 3.5625 -2.375 C 3.925781 -2.039062 4.601562 -1.875 5.59375 -1.875 C 6.226562 -1.875 6.78125 -1.972656 7.25 -2.171875 C 7.71875 -2.378906 8.078125 -2.601562 8.328125 -2.84375 C 8.585938 -3.082031 8.820312 -3.476562 9.03125 -4.03125 C 9.238281 -4.59375 9.375 -5.023438 9.4375 -5.328125 C 9.5 -5.640625 9.601562 -6.164062 9.75 -6.90625 L 10.8125 -12.8125 Z M 13.0625 -12.8125 "/></g></g><g style="fill:rgb(0%,0%,0%);fill-opacity:1;"><g transform="translate(205.952252, 21.271834)"><path style="stroke:none;" d="M 19.59375 -9.71875 C 19.59375 -9.382812 19.460938 -8.421875 19.203125 -6.828125 L 17.984375 0 L 15.734375 0 L 17.078125 -7.625 C 17.222656 -8.507812 17.296875 -9.082031 17.296875 -9.34375 C 17.296875 -9.875 17.132812 -10.273438 16.8125 -10.546875 C 16.5 -10.828125 15.9375 -10.96875 15.125 -10.96875 C 14.488281 -10.96875 13.941406 -10.859375 13.484375 -10.640625 C 13.035156 -10.429688 12.679688 -10.101562 12.421875 -9.65625 C 12.160156 -9.207031 11.957031 -8.753906 11.8125 -8.296875 C 11.664062 -7.847656 11.535156 -7.265625 11.421875 -6.546875 L 10.25 0 L 8 0 L 9.34375 -7.625 C 9.488281 -8.476562 9.5625 -9.050781 9.5625 -9.34375 C 9.5625 -9.875 9.398438 -10.273438 9.078125 -10.546875 C 8.765625 -10.828125 8.210938 -10.96875 7.421875 -10.96875 C 6.785156 -10.96875 6.238281 -10.859375 5.78125 -10.640625 C 5.332031 -10.429688 4.972656 -10.097656 4.703125 -9.640625 C 4.429688 -9.179688 4.222656 -8.722656 4.078125 -8.265625 C 3.929688 -7.816406 3.800781 -7.234375 3.6875 -6.515625 L 2.515625 0 L 0.265625 0 L 2.515625 -12.8125 L 4.609375 -12.8125 L 4.390625 -11.59375 C 5.222656 -12.550781 6.460938 -13.03125 8.109375 -13.03125 C 9.867188 -13.03125 10.976562 -12.472656 11.4375 -11.359375 C 12.425781 -12.472656 13.8125 -13.03125 15.59375 -13.03125 C 18.257812 -13.03125 19.59375 -11.925781 19.59375 -9.71875 Z M 19.59375 -9.71875 "/></g></g><g style="fill:rgb(0%,0%,0%);fill-opacity:1;"><g transform="translate(227.159393, 21.271834)"><path style="stroke:none;" d="M 12.640625 -9.6875 C 12.640625 -9.25 12.515625 -8.289062 12.265625 -6.8125 L 11.078125 0 L 8.8125 0 L 9.984375 -6.625 C 10.179688 -7.789062 10.28125 -8.59375 10.28125 -9.03125 C 10.28125 -9.6875 10.101562 -10.164062 9.75 -10.46875 C 9.394531 -10.78125 8.75 -10.9375 7.8125 -10.9375 C 7.15625 -10.9375 6.585938 -10.835938 6.109375 -10.640625 C 5.640625 -10.453125 5.269531 -10.234375 5 -9.984375 C 4.738281 -9.734375 4.503906 -9.34375 4.296875 -8.8125 C 4.097656 -8.289062 3.957031 -7.851562 3.875 -7.5 C 3.800781 -7.15625 3.703125 -6.625 3.578125 -5.90625 L 2.515625 0 L 0.265625 0 L 2.546875 -12.8125 L 4.578125 -12.8125 L 4.375 -11.578125 C 5.25 -12.546875 6.585938 -13.03125 8.390625 -13.03125 C 9.785156 -13.03125 10.84375 -12.742188 11.5625 -12.171875 C 12.28125 -11.597656 12.640625 -10.769531 12.640625 -9.6875 Z M 12.640625 -9.6875 "/></g></g><g style="fill:rgb(0%,0%,0%);fill-opacity:1;"><g transform="translate(241.429852, 21.271834)"><path style="stroke:none;" d="M 12.3125 -9.984375 C 12.3125 -9.703125 12.285156 -9.398438 12.234375 -9.078125 L 10.140625 -9.078125 C 10.140625 -9.097656 10.148438 -9.171875 10.171875 -9.296875 C 10.191406 -9.421875 10.203125 -9.535156 10.203125 -9.640625 C 10.203125 -9.972656 10.117188 -10.242188 9.953125 -10.453125 C 9.796875 -10.671875 9.5625 -10.820312 9.25 -10.90625 C 8.945312 -11 8.65625 -11.054688 8.375 -11.078125 C 8.101562 -11.109375 7.765625 -11.125 7.359375 -11.125 C 6.816406 -11.125 6.375 -11.097656 6.03125 -11.046875 C 5.6875 -11.003906 5.320312 -10.910156 4.9375 -10.765625 C 4.5625 -10.628906 4.28125 -10.398438 4.09375 -10.078125 C 3.90625 -9.753906 3.8125 -9.328125 3.8125 -8.796875 C 3.8125 -8.191406 4.0625 -7.820312 4.5625 -7.6875 C 4.789062 -7.613281 5.46875 -7.550781 6.59375 -7.5 C 7.144531 -7.476562 7.53125 -7.457031 7.75 -7.4375 C 7.96875 -7.425781 8.316406 -7.390625 8.796875 -7.328125 C 9.273438 -7.265625 9.617188 -7.175781 9.828125 -7.0625 C 10.035156 -6.945312 10.273438 -6.789062 10.546875 -6.59375 C 10.828125 -6.394531 11.023438 -6.140625 11.140625 -5.828125 C 11.253906 -5.523438 11.3125 -5.160156 11.3125 -4.734375 C 11.3125 -3.171875 10.90625 -1.972656 10.09375 -1.140625 C 9.226562 -0.234375 7.613281 0.21875 5.25 0.21875 C 1.925781 0.21875 0.265625 -0.78125 0.265625 -2.78125 C 0.265625 -3.1875 0.289062 -3.503906 0.34375 -3.734375 L 2.4375 -3.734375 C 2.40625 -3.554688 2.390625 -3.367188 2.390625 -3.171875 C 2.390625 -2.609375 2.617188 -2.21875 3.078125 -2 C 3.546875 -1.789062 4.296875 -1.6875 5.328125 -1.6875 C 5.867188 -1.6875 6.328125 -1.710938 6.703125 -1.765625 C 7.085938 -1.828125 7.46875 -1.9375 7.84375 -2.09375 C 8.226562 -2.25 8.515625 -2.5 8.703125 -2.84375 C 8.898438 -3.1875 9 -3.632812 9 -4.1875 C 9 -4.375 8.976562 -4.539062 8.9375 -4.6875 C 8.894531 -4.832031 8.800781 -4.945312 8.65625 -5.03125 C 8.519531 -5.125 8.394531 -5.195312 8.28125 -5.25 C 8.175781 -5.300781 7.976562 -5.34375 7.6875 -5.375 C 7.394531 -5.40625 7.15625 -5.425781 6.96875 -5.4375 C 6.789062 -5.445312 6.476562 -5.460938 6.03125 -5.484375 C 5.46875 -5.503906 5.019531 -5.523438 4.6875 -5.546875 C 4.351562 -5.578125 3.957031 -5.648438 3.5 -5.765625 C 3.039062 -5.878906 2.679688 -6.023438 2.421875 -6.203125 C 2.171875 -6.378906 1.953125 -6.640625 1.765625 -6.984375 C 1.578125 -7.328125 1.484375 -7.734375 1.484375 -8.203125 C 1.484375 -9.773438 1.914062 -10.988281 2.78125 -11.84375 C 3.59375 -12.632812 5.179688 -13.03125 7.546875 -13.03125 C 10.722656 -13.03125 12.3125 -12.015625 12.3125 -9.984375 Z M 12.3125 -9.984375 "/></g></g><g style="fill:rgb(0%,0%,0%);fill-opacity:1;"><g transform="translate(254.958996, 21.271834)"><path style="stroke:none;" d=""/></g></g><g style="fill:rgb(0%,0%,0%);fill-opacity:1;"><g transform="translate(261.127869, 21.271834)"><path style="stroke:none;" d="M 12.3125 -9.59375 C 12.3125 -9.164062 12.195312 -8.289062 11.96875 -6.96875 L 10.71875 0 L 8.65625 0 L 8.875 -1.25 C 7.90625 -0.269531 6.472656 0.21875 4.578125 0.21875 C 3.234375 0.21875 2.164062 -0.0390625 1.375 -0.5625 C 0.582031 -1.082031 0.1875 -1.898438 0.1875 -3.015625 C 0.1875 -4.535156 0.609375 -5.71875 1.453125 -6.5625 C 1.984375 -7.09375 2.609375 -7.441406 3.328125 -7.609375 C 4.054688 -7.773438 5.019531 -7.859375 6.21875 -7.859375 L 9.875 -7.859375 C 10.019531 -8.765625 10.09375 -9.28125 10.09375 -9.40625 C 10.09375 -10.070312 9.882812 -10.507812 9.46875 -10.71875 C 9.050781 -10.9375 8.347656 -11.046875 7.359375 -11.046875 C 6.035156 -11.046875 5.101562 -10.878906 4.5625 -10.546875 C 4.03125 -10.222656 3.703125 -9.753906 3.578125 -9.140625 L 1.375 -9.140625 C 1.519531 -9.910156 1.78125 -10.566406 2.15625 -11.109375 C 2.539062 -11.648438 3.019531 -12.050781 3.59375 -12.3125 C 4.175781 -12.582031 4.773438 -12.769531 5.390625 -12.875 C 6.015625 -12.976562 6.734375 -13.03125 7.546875 -13.03125 C 10.722656 -13.03125 12.3125 -11.882812 12.3125 -9.59375 Z M 9.609375 -5.984375 L 6.21875 -5.984375 C 5.800781 -5.984375 5.484375 -5.976562 5.265625 -5.96875 C 5.054688 -5.957031 4.734375 -5.90625 4.296875 -5.8125 C 3.867188 -5.726562 3.539062 -5.597656 3.3125 -5.421875 C 3.082031 -5.253906 2.867188 -4.988281 2.671875 -4.625 C 2.484375 -4.257812 2.390625 -3.8125 2.390625 -3.28125 C 2.390625 -2.789062 2.601562 -2.40625 3.03125 -2.125 C 3.46875 -1.851562 4.09375 -1.71875 4.90625 -1.71875 C 5.78125 -1.71875 6.5 -1.796875 7.0625 -1.953125 C 7.632812 -2.117188 8.082031 -2.398438 8.40625 -2.796875 C 8.738281 -3.191406 8.984375 -3.613281 9.140625 -4.0625 C 9.296875 -4.507812 9.453125 -5.148438 9.609375 -5.984375 Z M 9.609375 -5.984375 "/></g></g><g style="fill:rgb(0%,0%,0%);fill-opacity:1;"><g transform="translate(275.080621, 21.271834)"><path style="stroke:none;" d="M 14.453125 -18.453125 L 11.203125 0 L 9.078125 0 L 9.328125 -1.40625 C 8.296875 -0.320312 6.878906 0.21875 5.078125 0.21875 C 3.597656 0.21875 2.492188 -0.125 1.765625 -0.8125 C 1.046875 -1.507812 0.6875 -2.445312 0.6875 -3.625 C 0.6875 -5.164062 0.894531 -6.726562 1.3125 -8.3125 C 1.738281 -9.90625 2.289062 -11.035156 2.96875 -11.703125 C 3.851562 -12.585938 5.191406 -13.03125 6.984375 -13.03125 C 8.878906 -13.03125 10.222656 -12.585938 11.015625 -11.703125 L 12.203125 -18.453125 Z M 10.25 -8.53125 C 10.25 -9.394531 10.003906 -10.003906 9.515625 -10.359375 C 9.035156 -10.722656 8.21875 -10.90625 7.0625 -10.90625 C 5.914062 -10.90625 5.082031 -10.640625 4.5625 -10.109375 C 4.082031 -9.640625 3.703125 -8.773438 3.421875 -7.515625 C 3.140625 -6.265625 3 -5.144531 3 -4.15625 C 3 -2.625 3.773438 -1.859375 5.328125 -1.859375 C 6.859375 -1.859375 7.96875 -2.203125 8.65625 -2.890625 C 9.1875 -3.421875 9.582031 -4.234375 9.84375 -5.328125 C 10.113281 -6.429688 10.25 -7.5 10.25 -8.53125 Z M 10.25 -8.53125 "/></g></g><g style="fill:rgb(0%,0%,0%);fill-opacity:1;"><g transform="translate(289.827658, 21.271834)"><path style="stroke:none;" d="M 14.453125 -18.453125 L 11.203125 0 L 9.078125 0 L 9.328125 -1.40625 C 8.296875 -0.320312 6.878906 0.21875 5.078125 0.21875 C 3.597656 0.21875 2.492188 -0.125 1.765625 -0.8125 C 1.046875 -1.507812 0.6875 -2.445312 0.6875 -3.625 C 0.6875 -5.164062 0.894531 -6.726562 1.3125 -8.3125 C 1.738281 -9.90625 2.289062 -11.035156 2.96875 -11.703125 C 3.851562 -12.585938 5.191406 -13.03125 6.984375 -13.03125 C 8.878906 -13.03125 10.222656 -12.585938 11.015625 -11.703125 L 12.203125 -18.453125 Z M 10.25 -8.53125 C 10.25 -9.394531 10.003906 -10.003906 9.515625 -10.359375 C 9.035156 -10.722656 8.21875 -10.90625 7.0625 -10.90625 C 5.914062 -10.90625 5.082031 -10.640625 4.5625 -10.109375 C 4.082031 -9.640625 3.703125 -8.773438 3.421875 -7.515625 C 3.140625 -6.265625 3 -5.144531 3 -4.15625 C 3 -2.625 3.773438 -1.859375 5.328125 -1.859375 C 6.859375 -1.859375 7.96875 -2.203125 8.65625 -2.890625 C 9.1875 -3.421875 9.582031 -4.234375 9.84375 -5.328125 C 10.113281 -6.429688 10.25 -7.5 10.25 -8.53125 Z M 10.25 -8.53125 "/></g></g><g style="fill:rgb(0%,0%,0%);fill-opacity:1;"><g transform="translate(304.574696, 21.271834)"><path style="stroke:none;" d="M 12.5 -9.03125 C 12.5 -7.707031 12.382812 -6.585938 12.15625 -5.671875 L 3.078125 -5.671875 C 2.953125 -4.929688 2.890625 -4.390625 2.890625 -4.046875 C 2.890625 -3.222656 3.117188 -2.632812 3.578125 -2.28125 C 4.035156 -1.925781 4.828125 -1.75 5.953125 -1.75 C 6.410156 -1.75 6.804688 -1.769531 7.140625 -1.8125 C 7.484375 -1.851562 7.832031 -1.9375 8.1875 -2.0625 C 8.539062 -2.1875 8.832031 -2.390625 9.0625 -2.671875 C 9.289062 -2.953125 9.441406 -3.304688 9.515625 -3.734375 L 11.625 -3.734375 C 11.289062 -1.097656 9.375 0.21875 5.875 0.21875 C 3.96875 0.21875 2.625 -0.132812 1.84375 -0.84375 C 1.070312 -1.550781 0.6875 -2.617188 0.6875 -4.046875 C 0.6875 -5.265625 0.878906 -6.644531 1.265625 -8.1875 C 1.660156 -9.738281 2.203125 -10.859375 2.890625 -11.546875 C 3.878906 -12.535156 5.394531 -13.03125 7.4375 -13.03125 C 9.3125 -13.03125 10.625 -12.679688 11.375 -11.984375 C 12.125 -11.285156 12.5 -10.300781 12.5 -9.03125 Z M 10.375 -8.984375 C 10.375 -9.734375 10.15625 -10.269531 9.71875 -10.59375 C 9.28125 -10.925781 8.519531 -11.09375 7.4375 -11.09375 C 6.132812 -11.09375 5.195312 -10.8125 4.625 -10.25 C 4.050781 -9.695312 3.648438 -8.804688 3.421875 -7.578125 L 10.21875 -7.578125 C 10.320312 -8.210938 10.375 -8.679688 10.375 -8.984375 Z M 10.375 -8.984375 "/></g></g><g style="fill:rgb(0%,0%,0%);fill-opacity:1;"><g transform="translate(318.712777, 21.271834)"><path style="stroke:none;" d="M 14.453125 -18.453125 L 11.203125 0 L 9.078125 0 L 9.328125 -1.40625 C 8.296875 -0.320312 6.878906 0.21875 5.078125 0.21875 C 3.597656 0.21875 2.492188 -0.125 1.765625 -0.8125 C 1.046875 -1.507812 0.6875 -2.445312 0.6875 -3.625 C 0.6875 -5.164062 0.894531 -6.726562 1.3125 -8.3125 C 1.738281 -9.90625 2.289062 -11.035156 2.96875 -11.703125 C 3.851562 -12.585938 5.191406 -13.03125 6.984375 -13.03125 C 8.878906 -13.03125 10.222656 -12.585938 11.015625 -11.703125 L 12.203125 -18.453125 Z M 10.25 -8.53125 C 10.25 -9.394531 10.003906 -10.003906 9.515625 -10.359375 C 9.035156 -10.722656 8.21875 -10.90625 7.0625 -10.90625 C 5.914062 -10.90625 5.082031 -10.640625 4.5625 -10.109375 C 4.082031 -9.640625 3.703125 -8.773438 3.421875 -7.515625 C 3.140625 -6.265625 3 -5.144531 3 -4.15625 C 3 -2.625 3.773438 -1.859375 5.328125 -1.859375 C 6.859375 -1.859375 7.96875 -2.203125 8.65625 -2.890625 C 9.1875 -3.421875 9.582031 -4.234375 9.84375 -5.328125 C 10.113281 -6.429688 10.25 -7.5 10.25 -8.53125 Z M 10.25 -8.53125 "/></g></g><g style="fill:rgb(0%,0%,0%);fill-opacity:1;"><g transform="translate(333.459814, 21.271834)"><path style="stroke:none;" d=""/></g></g><g style="fill:rgb(0%,0%,0%);fill-opacity:1;"><g transform="translate(339.628707, 21.271834)"><path style="stroke:none;" d="M 5.640625 -16.84375 C 5.640625 -16.363281 5.492188 -15.96875 5.203125 -15.65625 C 4.910156 -15.351562 4.523438 -15.203125 4.046875 -15.203125 C 3.285156 -15.203125 2.90625 -15.535156 2.90625 -16.203125 C 2.90625 -16.679688 3.050781 -17.070312 3.34375 -17.375 C 3.632812 -17.6875 4.019531 -17.84375 4.5 -17.84375 C 5.257812 -17.84375 5.640625 -17.507812 5.640625 -16.84375 Z M 4.765625 -12.8125 L 2.515625 0 L 0.265625 0 L 2.515625 -12.8125 Z M 4.765625 -12.8125 "/></g></g><g style="fill:rgb(0%,0%,0%);fill-opacity:1;"><g transform="translate(345.559301, 21.271834)"><path style="stroke:none;" d="M 12.640625 -9.6875 C 12.640625 -9.25 12.515625 -8.289062 12.265625 -6.8125 L 11.078125 0 L 8.8125 0 L 9.984375 -6.625 C 10.179688 -7.789062 10.28125 -8.59375 10.28125 -9.03125 C 10.28125 -9.6875 10.101562 -10.164062 9.75 -10.46875 C 9.394531 -10.78125 8.75 -10.9375 7.8125 -10.9375 C 7.15625 -10.9375 6.585938 -10.835938 6.109375 -10.640625 C 5.640625 -10.453125 5.269531 -10.234375 5 -9.984375 C 4.738281 -9.734375 4.503906 -9.34375 4.296875 -8.8125 C 4.097656 -8.289062 3.957031 -7.851562 3.875 -7.5 C 3.800781 -7.15625 3.703125 -6.625 3.578125 -5.90625 L 2.515625 0 L 0.265625 0 L 2.546875 -12.8125 L 4.578125 -12.8125 L 4.375 -11.578125 C 5.25 -12.546875 6.585938 -13.03125 8.390625 -13.03125 C 9.785156 -13.03125 10.84375 -12.742188 11.5625 -12.171875 C 12.28125 -11.597656 12.640625 -10.769531 12.640625 -9.6875 Z M 12.640625 -9.6875 "/></g></g><g clip-rule="nonzero" clip-path="url(#clip4)"><g style="fill:rgb(0%,0%,0%);fill-opacity:1;"><g transform="translate(106.074873, 57.993502)"><path style="stroke:none;" d="M 13.1875 -12.8125 L 3.25 5.0625 L 0.765625 5.0625 L 3.703125 -0.15625 L 1.171875 -12.8125 L 3.5 -12.8125 L 5.34375 -2.671875 L 10.71875 -12.8125 Z M 13.1875 -12.8125 "/></g></g></g><g style="fill:rgb(0%,0%,0%);fill-opacity:1;"><g transform="translate(118.968605, 57.993502)"><path style="stroke:none;" d="M 12.953125 -8.765625 C 12.953125 -8.078125 12.875 -7.289062 12.71875 -6.40625 C 12.5 -5.207031 12.257812 -4.234375 12 -3.484375 C 11.75 -2.734375 11.375 -2.054688 10.875 -1.453125 C 10.382812 -0.859375 9.738281 -0.429688 8.9375 -0.171875 C 8.132812 0.0859375 7.132812 0.21875 5.9375 0.21875 C 4.007812 0.21875 2.648438 -0.117188 1.859375 -0.796875 C 1.078125 -1.484375 0.6875 -2.566406 0.6875 -4.046875 C 0.6875 -4.734375 0.765625 -5.519531 0.921875 -6.40625 C 1.140625 -7.601562 1.375 -8.578125 1.625 -9.328125 C 1.882812 -10.085938 2.257812 -10.765625 2.75 -11.359375 C 3.25 -11.960938 3.898438 -12.390625 4.703125 -12.640625 C 5.503906 -12.898438 6.503906 -13.03125 7.703125 -13.03125 C 9.628906 -13.03125 10.984375 -12.6875 11.765625 -12 C 12.554688 -11.320312 12.953125 -10.242188 12.953125 -8.765625 Z M 10.640625 -8.6875 C 10.640625 -9.519531 10.421875 -10.109375 9.984375 -10.453125 C 9.554688 -10.804688 8.796875 -10.984375 7.703125 -10.984375 C 6.273438 -10.984375 5.253906 -10.6875 4.640625 -10.09375 C 4.003906 -9.46875 3.515625 -8.109375 3.171875 -6.015625 C 3.054688 -5.148438 3 -4.519531 3 -4.125 C 3 -3.300781 3.210938 -2.710938 3.640625 -2.359375 C 4.078125 -2.003906 4.84375 -1.828125 5.9375 -1.828125 C 7.363281 -1.828125 8.382812 -2.128906 9 -2.734375 C 9.632812 -3.347656 10.125 -4.707031 10.46875 -6.8125 C 10.582031 -7.675781 10.640625 -8.300781 10.640625 -8.6875 Z M 10.640625 -8.6875 "/></g></g><g style="fill:rgb(0%,0%,0%);fill-opacity:1;"><g transform="translate(133.556789, 57.993502)"><path style="stroke:none;" d="M 13.0625 -12.8125 L 10.8125 0 L 8.765625 0 L 8.984375 -1.25 C 8.097656 -0.269531 6.769531 0.21875 5 0.21875 C 3.46875 0.21875 2.363281 -0.113281 1.6875 -0.78125 C 1.019531 -1.457031 0.6875 -2.238281 0.6875 -3.125 C 0.6875 -3.5625 0.8125 -4.523438 1.0625 -6.015625 L 2.25 -12.8125 L 4.53125 -12.8125 L 3.34375 -6.203125 C 3.125 -5.109375 3.015625 -4.296875 3.015625 -3.765625 C 3.015625 -3.179688 3.195312 -2.71875 3.5625 -2.375 C 3.925781 -2.039062 4.601562 -1.875 5.59375 -1.875 C 6.226562 -1.875 6.78125 -1.972656 7.25 -2.171875 C 7.71875 -2.378906 8.078125 -2.601562 8.328125 -2.84375 C 8.585938 -3.082031 8.820312 -3.476562 9.03125 -4.03125 C 9.238281 -4.59375 9.375 -5.023438 9.4375 -5.328125 C 9.5 -5.640625 9.601562 -6.164062 9.75 -6.90625 L 10.8125 -12.8125 Z M 13.0625 -12.8125 "/></g></g><g style="fill:rgb(0%,0%,0%);fill-opacity:1;"><g transform="translate(147.800772, 57.993502)"><path style="stroke:none;" d="M 11.765625 -10.03125 C 11.765625 -9.75 11.734375 -9.453125 11.671875 -9.140625 L 9.515625 -9.140625 C 9.546875 -9.296875 9.5625 -9.5 9.5625 -9.75 C 9.5625 -10.207031 9.394531 -10.523438 9.0625 -10.703125 C 8.738281 -10.890625 8.21875 -10.984375 7.5 -10.984375 C 6.332031 -10.984375 5.421875 -10.523438 4.765625 -9.609375 C 4.285156 -8.941406 3.90625 -7.847656 3.625 -6.328125 L 2.515625 0 L 0.265625 0 L 2.515625 -12.8125 L 4.578125 -12.8125 L 4.34375 -11.578125 C 5.257812 -12.546875 6.460938 -13.03125 7.953125 -13.03125 C 10.492188 -13.03125 11.765625 -12.03125 11.765625 -10.03125 Z M 11.765625 -10.03125 "/></g></g><g style="fill:rgb(0%,0%,0%);fill-opacity:1;"><g transform="translate(159.741366, 57.993502)"><path style="stroke:none;" d=""/></g></g><g style="fill:rgb(0%,0%,0%);fill-opacity:1;"><g transform="translate(165.910239, 57.993502)"><path style="stroke:none;" d="M 5.78125 -18.453125 L 2.515625 0 L 0.265625 0 L 3.515625 -18.453125 Z M 5.78125 -18.453125 "/></g></g><g style="fill:rgb(0%,0%,0%);fill-opacity:1;"><g transform="translate(171.97321, 57.993502)"><path style="stroke:none;" d="M 5.640625 -16.84375 C 5.640625 -16.363281 5.492188 -15.96875 5.203125 -15.65625 C 4.910156 -15.351562 4.523438 -15.203125 4.046875 -15.203125 C 3.285156 -15.203125 2.90625 -15.535156 2.90625 -16.203125 C 2.90625 -16.679688 3.050781 -17.070312 3.34375 -17.375 C 3.632812 -17.6875 4.019531 -17.84375 4.5 -17.84375 C 5.257812 -17.84375 5.640625 -17.507812 5.640625 -16.84375 Z M 4.765625 -12.8125 L 2.515625 0 L 0.265625 0 L 2.515625 -12.8125 Z M 4.765625 -12.8125 "/></g></g><g style="fill:rgb(0%,0%,0%);fill-opacity:1;"><g transform="translate(177.903804, 57.993502)"><path style="stroke:none;" d="M 12.3125 -9.984375 C 12.3125 -9.703125 12.285156 -9.398438 12.234375 -9.078125 L 10.140625 -9.078125 C 10.140625 -9.097656 10.148438 -9.171875 10.171875 -9.296875 C 10.191406 -9.421875 10.203125 -9.535156 10.203125 -9.640625 C 10.203125 -9.972656 10.117188 -10.242188 9.953125 -10.453125 C 9.796875 -10.671875 9.5625 -10.820312 9.25 -10.90625 C 8.945312 -11 8.65625 -11.054688 8.375 -11.078125 C 8.101562 -11.109375 7.765625 -11.125 7.359375 -11.125 C 6.816406 -11.125 6.375 -11.097656 6.03125 -11.046875 C 5.6875 -11.003906 5.320312 -10.910156 4.9375 -10.765625 C 4.5625 -10.628906 4.28125 -10.398438 4.09375 -10.078125 C 3.90625 -9.753906 3.8125 -9.328125 3.8125 -8.796875 C 3.8125 -8.191406 4.0625 -7.820312 4.5625 -7.6875 C 4.789062 -7.613281 5.46875 -7.550781 6.59375 -7.5 C 7.144531 -7.476562 7.53125 -7.457031 7.75 -7.4375 C 7.96875 -7.425781 8.316406 -7.390625 8.796875 -7.328125 C 9.273438 -7.265625 9.617188 -7.175781 9.828125 -7.0625 C 10.035156 -6.945312 10.273438 -6.789062 10.546875 -6.59375 C 10.828125 -6.394531 11.023438 -6.140625 11.140625 -5.828125 C 11.253906 -5.523438 11.3125 -5.160156 11.3125 -4.734375 C 11.3125 -3.171875 10.90625 -1.972656 10.09375 -1.140625 C 9.226562 -0.234375 7.613281 0.21875 5.25 0.21875 C 1.925781 0.21875 0.265625 -0.78125 0.265625 -2.78125 C 0.265625 -3.1875 0.289062 -3.503906 0.34375 -3.734375 L 2.4375 -3.734375 C 2.40625 -3.554688 2.390625 -3.367188 2.390625 -3.171875 C 2.390625 -2.609375 2.617188 -2.21875 3.078125 -2 C 3.546875 -1.789062 4.296875 -1.6875 5.328125 -1.6875 C 5.867188 -1.6875 6.328125 -1.710938 6.703125 -1.765625 C 7.085938 -1.828125 7.46875 -1.9375 7.84375 -2.09375 C 8.226562 -2.25 8.515625 -2.5 8.703125 -2.84375 C 8.898438 -3.1875 9 -3.632812 9 -4.1875 C 9 -4.375 8.976562 -4.539062 8.9375 -4.6875 C 8.894531 -4.832031 8.800781 -4.945312 8.65625 -5.03125 C 8.519531 -5.125 8.394531 -5.195312 8.28125 -5.25 C 8.175781 -5.300781 7.976562 -5.34375 7.6875 -5.375 C 7.394531 -5.40625 7.15625 -5.425781 6.96875 -5.4375 C 6.789062 -5.445312 6.476562 -5.460938 6.03125 -5.484375 C 5.46875 -5.503906 5.019531 -5.523438 4.6875 -5.546875 C 4.351562 -5.578125 3.957031 -5.648438 3.5 -5.765625 C 3.039062 -5.878906 2.679688 -6.023438 2.421875 -6.203125 C 2.171875 -6.378906 1.953125 -6.640625 1.765625 -6.984375 C 1.578125 -7.328125 1.484375 -7.734375 1.484375 -8.203125 C 1.484375 -9.773438 1.914062 -10.988281 2.78125 -11.84375 C 3.59375 -12.632812 5.179688 -13.03125 7.546875 -13.03125 C 10.722656 -13.03125 12.3125 -12.015625 12.3125 -9.984375 Z M 12.3125 -9.984375 "/></g></g><g style="fill:rgb(0%,0%,0%);fill-opacity:1;"><g transform="translate(191.432948, 57.993502)"><path style="stroke:none;" d="M 11.234375 -12.8125 L 10.890625 -10.890625 L 5.21875 -10.890625 L 4.046875 -4.296875 C 3.960938 -3.898438 3.921875 -3.550781 3.921875 -3.25 C 3.921875 -2.707031 4.078125 -2.316406 4.390625 -2.078125 C 4.710938 -1.835938 5.234375 -1.71875 5.953125 -1.71875 C 6.765625 -1.71875 7.375 -1.875 7.78125 -2.1875 C 8.1875 -2.5 8.453125 -3.015625 8.578125 -3.734375 L 10.671875 -3.734375 C 10.421875 -2.316406 9.890625 -1.300781 9.078125 -0.6875 C 8.265625 -0.0820312 7.179688 0.21875 5.828125 0.21875 C 4.515625 0.21875 3.488281 -0.0351562 2.75 -0.546875 C 2.007812 -1.066406 1.640625 -1.835938 1.640625 -2.859375 C 1.640625 -3.140625 1.664062 -3.445312 1.71875 -3.78125 L 2.96875 -10.890625 L 0.84375 -10.890625 L 1.1875 -12.8125 L 3.3125 -12.8125 L 4.1875 -17.671875 L 6.4375 -17.671875 L 5.5625 -12.8125 Z M 11.234375 -12.8125 "/></g></g><g style="fill:rgb(0%,0%,0%);fill-opacity:1;"><g transform="translate(203.585346, 57.993502)"><path style="stroke:none;" d=""/></g></g><g clip-rule="nonzero" clip-path="url(#clip5)"><g style="fill:rgb(0%,0%,0%);fill-opacity:1;"><g transform="translate(209.754219, 57.993502)"><path style="stroke:none;" d="M 13.1875 -12.8125 L 3.25 5.0625 L 0.765625 5.0625 L 3.703125 -0.15625 L 1.171875 -12.8125 L 3.5 -12.8125 L 5.34375 -2.671875 L 10.71875 -12.8125 Z M 13.1875 -12.8125 "/></g></g></g><g style="fill:rgb(0%,0%,0%);fill-opacity:1;"><g transform="translate(222.647951, 57.993502)"><path style="stroke:none;" d="M 12.5 -9.03125 C 12.5 -7.707031 12.382812 -6.585938 12.15625 -5.671875 L 3.078125 -5.671875 C 2.953125 -4.929688 2.890625 -4.390625 2.890625 -4.046875 C 2.890625 -3.222656 3.117188 -2.632812 3.578125 -2.28125 C 4.035156 -1.925781 4.828125 -1.75 5.953125 -1.75 C 6.410156 -1.75 6.804688 -1.769531 7.140625 -1.8125 C 7.484375 -1.851562 7.832031 -1.9375 8.1875 -2.0625 C 8.539062 -2.1875 8.832031 -2.390625 9.0625 -2.671875 C 9.289062 -2.953125 9.441406 -3.304688 9.515625 -3.734375 L 11.625 -3.734375 C 11.289062 -1.097656 9.375 0.21875 5.875 0.21875 C 3.96875 0.21875 2.625 -0.132812 1.84375 -0.84375 C 1.070312 -1.550781 0.6875 -2.617188 0.6875 -4.046875 C 0.6875 -5.265625 0.878906 -6.644531 1.265625 -8.1875 C 1.660156 -9.738281 2.203125 -10.859375 2.890625 -11.546875 C 3.878906 -12.535156 5.394531 -13.03125 7.4375 -13.03125 C 9.3125 -13.03125 10.625 -12.679688 11.375 -11.984375 C 12.125 -11.285156 12.5 -10.300781 12.5 -9.03125 Z M 10.375 -8.984375 C 10.375 -9.734375 10.15625 -10.269531 9.71875 -10.59375 C 9.28125 -10.925781 8.519531 -11.09375 7.4375 -11.09375 C 6.132812 -11.09375 5.195312 -10.8125 4.625 -10.25 C 4.050781 -9.695312 3.648438 -8.804688 3.421875 -7.578125 L 10.21875 -7.578125 C 10.320312 -8.210938 10.375 -8.679688 10.375 -8.984375 Z M 10.375 -8.984375 "/></g></g><g style="fill:rgb(0%,0%,0%);fill-opacity:1;"><g transform="translate(236.786031, 57.993502)"><path style="stroke:none;" d="M 11.234375 -12.8125 L 10.890625 -10.890625 L 5.21875 -10.890625 L 4.046875 -4.296875 C 3.960938 -3.898438 3.921875 -3.550781 3.921875 -3.25 C 3.921875 -2.707031 4.078125 -2.316406 4.390625 -2.078125 C 4.710938 -1.835938 5.234375 -1.71875 5.953125 -1.71875 C 6.765625 -1.71875 7.375 -1.875 7.78125 -2.1875 C 8.1875 -2.5 8.453125 -3.015625 8.578125 -3.734375 L 10.671875 -3.734375 C 10.421875 -2.316406 9.890625 -1.300781 9.078125 -0.6875 C 8.265625 -0.0820312 7.179688 0.21875 5.828125 0.21875 C 4.515625 0.21875 3.488281 -0.0351562 2.75 -0.546875 C 2.007812 -1.066406 1.640625 -1.835938 1.640625 -2.859375 C 1.640625 -3.140625 1.664062 -3.445312 1.71875 -3.78125 L 2.96875 -10.890625 L 0.84375 -10.890625 L 1.1875 -12.8125 L 3.3125 -12.8125 L 4.1875 -17.671875 L 6.4375 -17.671875 L 5.5625 -12.8125 Z M 11.234375 -12.8125 "/></g></g><g style="fill:rgb(0%,0%,0%);fill-opacity:1;"><g transform="translate(248.938429, 57.993502)"><path style="stroke:none;" d="M 3.125 -1.6875 C 3.125 -1.144531 2.96875 -0.691406 2.65625 -0.328125 C 2.351562 0.0351562 1.925781 0.21875 1.375 0.21875 C 0.5625 0.21875 0.15625 -0.144531 0.15625 -0.875 C 0.15625 -1.414062 0.304688 -1.851562 0.609375 -2.1875 C 0.910156 -2.53125 1.332031 -2.703125 1.875 -2.703125 C 2.707031 -2.703125 3.125 -2.363281 3.125 -1.6875 Z M 3.125 -1.6875 "/></g></g></g><mask xml:id="mask1" id="mask1"><g filter="url(#alpha)"><rect x="0" width="375" y="0" height="374.999991" style="fill:rgb(0%,0%,0%);fill-opacity:0.2588;stroke:none;"/></g></mask></g></g></svg>