<svg xmlns="http://www.w3.org/2000/svg" xmlns:xlink="http://www.w3.org/1999/xlink" width="375" viewBox="0 0 375 375" height="375" version="1.0"><defs><g id="h"><path d="M 16.046875 -14.140625 C 16.046875 -13.804688 16.003906 -13.390625 15.921875 -12.890625 L 13.640625 -12.890625 C 13.691406 -13.191406 13.71875 -13.457031 13.71875 -13.6875 C 13.71875 -14.539062 13.421875 -15.085938 12.828125 -15.328125 C 12.234375 -15.578125 11.222656 -15.703125 9.796875 -15.703125 C 7.628906 -15.703125 6.207031 -15.359375 5.53125 -14.671875 C 4.894531 -14.003906 4.578125 -13.039062 4.578125 -11.78125 C 4.578125 -11.539062 4.609375 -11.332031 4.671875 -11.15625 C 4.734375 -10.976562 4.832031 -10.832031 4.96875 -10.71875 C 5.113281 -10.601562 5.242188 -10.503906 5.359375 -10.421875 C 5.472656 -10.335938 5.65625 -10.28125 5.90625 -10.25 C 6.15625 -10.21875 6.335938 -10.195312 6.453125 -10.1875 C 6.578125 -10.175781 6.785156 -10.160156 7.078125 -10.140625 C 7.367188 -10.117188 7.5625 -10.109375 7.65625 -10.109375 C 7.832031 -10.109375 8.097656 -10.109375 8.453125 -10.109375 C 8.816406 -10.109375 9.085938 -10.101562 9.265625 -10.09375 C 9.890625 -10.070312 10.367188 -10.046875 10.703125 -10.015625 C 11.035156 -9.992188 11.457031 -9.945312 11.96875 -9.875 C 12.476562 -9.800781 12.875 -9.691406 13.15625 -9.546875 C 13.445312 -9.410156 13.738281 -9.222656 14.03125 -8.984375 C 14.332031 -8.753906 14.550781 -8.441406 14.6875 -8.046875 C 14.820312 -7.660156 14.890625 -7.203125 14.890625 -6.671875 C 14.890625 -5.703125 14.738281 -4.738281 14.4375 -3.78125 C 14.132812 -2.832031 13.679688 -2.054688 13.078125 -1.453125 C 11.972656 -0.335938 9.960938 0.21875 7.046875 0.21875 C 4.992188 0.21875 3.441406 -0.0546875 2.390625 -0.609375 C 1.347656 -1.171875 0.828125 -2.125 0.828125 -3.46875 C 0.828125 -3.769531 0.859375 -4.203125 0.921875 -4.765625 L 3.25 -4.765625 C 3.195312 -4.515625 3.171875 -4.222656 3.171875 -3.890625 C 3.171875 -3.078125 3.476562 -2.546875 4.09375 -2.296875 C 4.71875 -2.054688 5.726562 -1.9375 7.125 -1.9375 C 9.289062 -1.9375 10.726562 -2.285156 11.4375 -2.984375 C 12.144531 -3.691406 12.5 -4.726562 12.5 -6.09375 C 12.5 -6.300781 12.476562 -6.484375 12.4375 -6.640625 C 12.40625 -6.804688 12.34375 -6.945312 12.25 -7.0625 C 12.15625 -7.1875 12.070312 -7.289062 12 -7.375 C 11.925781 -7.46875 11.796875 -7.539062 11.609375 -7.59375 C 11.421875 -7.65625 11.285156 -7.703125 11.203125 -7.734375 C 11.117188 -7.765625 10.953125 -7.789062 10.703125 -7.8125 C 10.453125 -7.832031 10.285156 -7.84375 10.203125 -7.84375 C 10.128906 -7.851562 9.941406 -7.863281 9.640625 -7.875 C 9.335938 -7.882812 9.148438 -7.890625 9.078125 -7.890625 C 8.898438 -7.890625 8.640625 -7.890625 8.296875 -7.890625 C 7.953125 -7.890625 7.691406 -7.898438 7.515625 -7.921875 C 6.867188 -7.941406 6.335938 -7.972656 5.921875 -8.015625 C 5.503906 -8.054688 5.035156 -8.144531 4.515625 -8.28125 C 3.992188 -8.425781 3.582031 -8.613281 3.28125 -8.84375 C 2.976562 -9.070312 2.722656 -9.394531 2.515625 -9.8125 C 2.304688 -10.226562 2.203125 -10.726562 2.203125 -11.3125 C 2.203125 -12.207031 2.335938 -13.101562 2.609375 -14 C 2.878906 -14.90625 3.289062 -15.632812 3.84375 -16.1875 C 4.9375 -17.289062 6.957031 -17.84375 9.90625 -17.84375 C 11.957031 -17.84375 13.492188 -17.566406 14.515625 -17.015625 C 15.535156 -16.460938 16.046875 -15.503906 16.046875 -14.140625 Z M 16.046875 -14.140625"/></g><g id="i"><path d="M 12.5 -9.03125 C 12.5 -7.707031 12.382812 -6.585938 12.15625 -5.671875 L 3.078125 -5.671875 C 2.953125 -4.929688 2.890625 -4.390625 2.890625 -4.046875 C 2.890625 -3.222656 3.117188 -2.632812 3.578125 -2.28125 C 4.035156 -1.925781 4.828125 -1.75 5.953125 -1.75 C 6.410156 -1.75 6.804688 -1.769531 7.140625 -1.8125 C 7.484375 -1.851562 7.832031 -1.9375 8.1875 -2.0625 C 8.539062 -2.1875 8.832031 -2.390625 9.0625 -2.671875 C 9.289062 -2.953125 9.441406 -3.304688 9.515625 -3.734375 L 11.625 -3.734375 C 11.289062 -1.097656 9.375 0.21875 5.875 0.21875 C 3.96875 0.21875 2.625 -0.132812 1.84375 -0.84375 C 1.070312 -1.550781 0.6875 -2.617188 0.6875 -4.046875 C 0.6875 -5.265625 0.878906 -6.644531 1.265625 -8.1875 C 1.660156 -9.738281 2.203125 -10.859375 2.890625 -11.546875 C 3.878906 -12.535156 5.394531 -13.03125 7.4375 -13.03125 C 9.3125 -13.03125 10.625 -12.679688 11.375 -11.984375 C 12.125 -11.285156 12.5 -10.300781 12.5 -9.03125 Z M 10.375 -8.984375 C 10.375 -9.734375 10.15625 -10.269531 9.71875 -10.59375 C 9.28125 -10.925781 8.519531 -11.09375 7.4375 -11.09375 C 6.132812 -11.09375 5.195312 -10.8125 4.625 -10.25 C 4.050781 -9.695312 3.648438 -8.804688 3.421875 -7.578125 L 10.21875 -7.578125 C 10.320312 -8.210938 10.375 -8.679688 10.375 -8.984375 Z M 10.375 -8.984375"/></g><g id="j"><path d="M 5.78125 -18.453125 L 2.515625 0 L 0.265625 0 L 3.515625 -18.453125 Z M 5.78125 -18.453125"/></g><g id="k"><path d="M 12.546875 -9.875 C 12.546875 -9.644531 12.519531 -9.378906 12.46875 -9.078125 L 10.359375 -9.078125 C 10.367188 -9.171875 10.375 -9.320312 10.375 -9.53125 C 10.375 -9.957031 10.210938 -10.285156 9.890625 -10.515625 C 9.578125 -10.742188 9.242188 -10.878906 8.890625 -10.921875 C 8.546875 -10.960938 8.109375 -10.984375 7.578125 -10.984375 C 6.210938 -10.984375 5.222656 -10.675781 4.609375 -10.0625 C 4.097656 -9.550781 3.703125 -8.675781 3.421875 -7.4375 C 3.140625 -6.207031 3 -5.097656 3 -4.109375 C 3 -3.296875 3.21875 -2.710938 3.65625 -2.359375 C 4.09375 -2.003906 4.859375 -1.828125 5.953125 -1.828125 C 6.378906 -1.828125 6.75 -1.84375 7.0625 -1.875 C 7.382812 -1.914062 7.726562 -1.992188 8.09375 -2.109375 C 8.457031 -2.234375 8.753906 -2.429688 8.984375 -2.703125 C 9.210938 -2.984375 9.359375 -3.328125 9.421875 -3.734375 L 11.578125 -3.734375 C 11.253906 -1.097656 9.347656 0.21875 5.859375 0.21875 C 3.984375 0.21875 2.648438 -0.125 1.859375 -0.8125 C 1.078125 -1.507812 0.6875 -2.585938 0.6875 -4.046875 C 0.6875 -5.304688 0.878906 -6.6875 1.265625 -8.1875 C 1.660156 -9.6875 2.203125 -10.789062 2.890625 -11.5 C 3.859375 -12.519531 5.394531 -13.03125 7.5 -13.03125 C 10.863281 -13.03125 12.546875 -11.976562 12.546875 -9.875 Z M 12.546875 -9.875"/></g><g id="l"><path d="M 11.234375 -12.8125 L 10.890625 -10.890625 L 5.21875 -10.890625 L 4.046875 -4.296875 C 3.960938 -3.898438 3.921875 -3.550781 3.921875 -3.25 C 3.921875 -2.707031 4.078125 -2.316406 4.390625 -2.078125 C 4.710938 -1.835938 5.234375 -1.71875 5.953125 -1.71875 C 6.765625 -1.71875 7.375 -1.875 7.78125 -2.1875 C 8.1875 -2.5 8.453125 -3.015625 8.578125 -3.734375 L 10.671875 -3.734375 C 10.421875 -2.316406 9.890625 -1.300781 9.078125 -0.6875 C 8.265625 -0.0820312 7.179688 0.21875 5.828125 0.21875 C 4.515625 0.21875 3.488281 -0.0351562 2.75 -0.546875 C 2.007812 -1.066406 1.640625 -1.835938 1.640625 -2.859375 C 1.640625 -3.140625 1.664062 -3.445312 1.71875 -3.78125 L 2.96875 -10.890625 L 0.84375 -10.890625 L 1.1875 -12.8125 L 3.3125 -12.8125 L 4.1875 -17.671875 L 6.4375 -17.671875 L 5.5625 -12.8125 Z M 11.234375 -12.8125"/></g><g id="n"><path d="M 12.640625 -9.6875 C 12.640625 -9.25 12.515625 -8.289062 12.265625 -6.8125 L 11.078125 0 L 8.8125 0 L 9.984375 -6.625 C 10.179688 -7.789062 10.28125 -8.59375 10.28125 -9.03125 C 10.28125 -9.6875 10.101562 -10.164062 9.75 -10.46875 C 9.394531 -10.78125 8.75 -10.9375 7.8125 -10.9375 C 7.15625 -10.9375 6.585938 -10.835938 6.109375 -10.640625 C 5.640625 -10.453125 5.269531 -10.234375 5 -9.984375 C 4.738281 -9.734375 4.503906 -9.34375 4.296875 -8.8125 C 4.097656 -8.289062 3.957031 -7.851562 3.875 -7.5 C 3.800781 -7.15625 3.703125 -6.625 3.578125 -5.90625 L 2.515625 0 L 0.265625 0 L 3.515625 -18.453125 L 5.78125 -18.453125 L 4.578125 -11.671875 C 5.515625 -12.578125 6.785156 -13.03125 8.390625 -13.03125 C 9.785156 -13.03125 10.84375 -12.742188 11.5625 -12.171875 C 12.28125 -11.597656 12.640625 -10.769531 12.640625 -9.6875 Z M 12.640625 -9.6875"/></g><g id="o"><path d="M 13.1875 -12.8125 L 3.25 5.0625 L 0.765625 5.0625 L 3.703125 -0.15625 L 1.171875 -12.8125 L 3.5 -12.8125 L 5.34375 -2.671875 L 10.71875 -12.8125 Z M 13.1875 -12.8125"/></g><g id="p"><path d="M 13.0625 -9.1875 C 13.0625 -7.226562 12.832031 -5.5625 12.375 -4.1875 C 11.925781 -2.8125 11.394531 -1.8125 10.78125 -1.1875 C 10.269531 -0.675781 9.707031 -0.3125 9.09375 -0.09375 C 8.488281 0.113281 7.691406 0.21875 6.703125 0.21875 C 4.804688 0.21875 3.472656 -0.210938 2.703125 -1.078125 L 1.609375 5.0625 L -0.640625 5.0625 L 2.515625 -12.8125 L 4.609375 -12.8125 L 4.375 -11.421875 C 5.394531 -12.492188 6.804688 -13.03125 8.609375 -13.03125 C 10.234375 -13.03125 11.378906 -12.710938 12.046875 -12.078125 C 12.722656 -11.441406 13.0625 -10.476562 13.0625 -9.1875 Z M 10.703125 -8.609375 C 10.703125 -9.398438 10.550781 -9.976562 10.25 -10.34375 C 9.945312 -10.71875 9.3125 -10.90625 8.34375 -10.90625 C 6.875 -10.90625 5.785156 -10.582031 5.078125 -9.9375 C 4.535156 -9.40625 4.125 -8.578125 3.84375 -7.453125 C 3.570312 -6.335938 3.4375 -5.265625 3.4375 -4.234375 C 3.4375 -3.367188 3.679688 -2.753906 4.171875 -2.390625 C 4.660156 -2.035156 5.476562 -1.859375 6.625 -1.859375 C 7.71875 -1.859375 8.53125 -2.125 9.0625 -2.65625 C 9.570312 -3.164062 9.972656 -4.03125 10.265625 -5.25 C 10.554688 -6.476562 10.703125 -7.597656 10.703125 -8.609375 Z M 10.703125 -8.609375"/></g><g id="q"><path d="M 12.953125 -8.765625 C 12.953125 -8.078125 12.875 -7.289062 12.71875 -6.40625 C 12.5 -5.207031 12.257812 -4.234375 12 -3.484375 C 11.75 -2.734375 11.375 -2.054688 10.875 -1.453125 C 10.382812 -0.859375 9.738281 -0.429688 8.9375 -0.171875 C 8.132812 0.0859375 7.132812 0.21875 5.9375 0.21875 C 4.007812 0.21875 2.648438 -0.117188 1.859375 -0.796875 C 1.078125 -1.484375 0.6875 -2.566406 0.6875 -4.046875 C 0.6875 -4.734375 0.765625 -5.519531 0.921875 -6.40625 C 1.140625 -7.601562 1.375 -8.578125 1.625 -9.328125 C 1.882812 -10.085938 2.257812 -10.765625 2.75 -11.359375 C 3.25 -11.960938 3.898438 -12.390625 4.703125 -12.640625 C 5.503906 -12.898438 6.503906 -13.03125 7.703125 -13.03125 C 9.628906 -13.03125 10.984375 -12.6875 11.765625 -12 C 12.554688 -11.320312 12.953125 -10.242188 12.953125 -8.765625 Z M 10.640625 -8.6875 C 10.640625 -9.519531 10.421875 -10.109375 9.984375 -10.453125 C 9.554688 -10.804688 8.796875 -10.984375 7.703125 -10.984375 C 6.273438 -10.984375 5.253906 -10.6875 4.640625 -10.09375 C 4.003906 -9.46875 3.515625 -8.109375 3.171875 -6.015625 C 3.054688 -5.148438 3 -4.519531 3 -4.125 C 3 -3.300781 3.210938 -2.710938 3.640625 -2.359375 C 4.078125 -2.003906 4.84375 -1.828125 5.9375 -1.828125 C 7.363281 -1.828125 8.382812 -2.128906 9 -2.734375 C 9.632812 -3.347656 10.125 -4.707031 10.46875 -6.8125 C 10.582031 -7.675781 10.640625 -8.300781 10.640625 -8.6875 Z M 10.640625 -8.6875"/></g><g id="r"><path d="M 12.6875 -16.234375 C 12.6875 -15.984375 12.671875 -15.78125 12.640625 -15.625 L 10.4375 -15.625 L 10.46875 -15.921875 C 10.46875 -16.503906 9.800781 -16.796875 8.46875 -16.796875 C 7.570312 -16.796875 6.9375 -16.625 6.5625 -16.28125 C 6.195312 -15.945312 5.925781 -15.332031 5.75 -14.4375 L 5.421875 -12.8125 L 10.25 -12.8125 L 9.90625 -10.890625 L 5.078125 -10.890625 L 3.15625 0 L 0.90625 0 L 2.828125 -10.890625 L 0.765625 -10.890625 L 1.109375 -12.8125 L 3.171875 -12.8125 L 3.546875 -14.828125 C 3.753906 -15.972656 4.125 -16.8125 4.65625 -17.34375 C 5.519531 -18.207031 6.835938 -18.640625 8.609375 -18.640625 C 11.328125 -18.640625 12.6875 -17.835938 12.6875 -16.234375 Z M 12.6875 -16.234375"/></g><g id="s"><path d="M 13.0625 -12.8125 L 10.8125 0 L 8.765625 0 L 8.984375 -1.25 C 8.097656 -0.269531 6.769531 0.21875 5 0.21875 C 3.46875 0.21875 2.363281 -0.113281 1.6875 -0.78125 C 1.019531 -1.457031 0.6875 -2.238281 0.6875 -3.125 C 0.6875 -3.5625 0.8125 -4.523438 1.0625 -6.015625 L 2.25 -12.8125 L 4.53125 -12.8125 L 3.34375 -6.203125 C 3.125 -5.109375 3.015625 -4.296875 3.015625 -3.765625 C 3.015625 -3.179688 3.195312 -2.71875 3.5625 -2.375 C 3.925781 -2.039062 4.601562 -1.875 5.59375 -1.875 C 6.226562 -1.875 6.78125 -1.972656 7.25 -2.171875 C 7.71875 -2.378906 8.078125 -2.601562 8.328125 -2.84375 C 8.585938 -3.082031 8.820312 -3.476562 9.03125 -4.03125 C 9.238281 -4.59375 9.375 -5.023438 9.4375 -5.328125 C 9.5 -5.640625 9.601562 -6.164062 9.75 -6.90625 L 10.8125 -12.8125 Z M 13.0625 -12.8125"/></g><g id="t"><path d="M 19.59375 -9.71875 C 19.59375 -9.382812 19.460938 -8.421875 19.203125 -6.828125 L 17.984375 0 L 15.734375 0 L 17.078125 -7.625 C 17.222656 -8.507812 17.296875 -9.082031 17.296875 -9.34375 C 17.296875 -9.875 17.132812 -10.273438 16.8125 -10.546875 C 16.5 -10.828125 15.9375 -10.96875 15.125 -10.96875 C 14.488281 -10.96875 13.941406 -10.859375 13.484375 -10.640625 C 13.035156 -10.429688 12.679688 -10.101562 12.421875 -9.65625 C 12.160156 -9.207031 11.957031 -8.753906 11.8125 -8.296875 C 11.664062 -7.847656 11.535156 -7.265625 11.421875 -6.546875 L 10.25 0 L 8 0 L 9.34375 -7.625 C 9.488281 -8.476562 9.5625 -9.050781 9.5625 -9.34375 C 9.5625 -9.875 9.398438 -10.273438 9.078125 -10.546875 C 8.765625 -10.828125 8.210938 -10.96875 7.421875 -10.96875 C 6.785156 -10.96875 6.238281 -10.859375 5.78125 -10.640625 C 5.332031 -10.429688 4.972656 -10.097656 4.703125 -9.640625 C 4.429688 -9.179688 4.222656 -8.722656 4.078125 -8.265625 C 3.929688 -7.816406 3.800781 -7.234375 3.6875 -6.515625 L 2.515625 0 L 0.265625 0 L 2.515625 -12.8125 L 4.609375 -12.8125 L 4.390625 -11.59375 C 5.222656 -12.550781 6.460938 -13.03125 8.109375 -13.03125 C 9.867188 -13.03125 10.976562 -12.472656 11.4375 -11.359375 C 12.425781 -12.472656 13.8125 -13.03125 15.59375 -13.03125 C 18.257812 -13.03125 19.59375 -11.925781 19.59375 -9.71875 Z M 19.59375 -9.71875"/></g><g id="u"><path d="M 12.640625 -9.6875 C 12.640625 -9.25 12.515625 -8.289062 12.265625 -6.8125 L 11.078125 0 L 8.8125 0 L 9.984375 -6.625 C 10.179688 -7.789062 10.28125 -8.59375 10.28125 -9.03125 C 10.28125 -9.6875 10.101562 -10.164062 9.75 -10.46875 C 9.394531 -10.78125 8.75 -10.9375 7.8125 -10.9375 C 7.15625 -10.9375 6.585938 -10.835938 6.109375 -10.640625 C 5.640625 -10.453125 5.269531 -10.234375 5 -9.984375 C 4.738281 -9.734375 4.503906 -9.34375 4.296875 -8.8125 C 4.097656 -8.289062 3.957031 -7.851562 3.875 -7.5 C 3.800781 -7.15625 3.703125 -6.625 3.578125 -5.90625 L 2.515625 0 L 0.265625 0 L 2.546875 -12.8125 L 4.578125 -12.8125 L 4.375 -11.578125 C 5.25 -12.546875 6.585938 -13.03125 8.390625 -13.03125 C 9.785156 -13.03125 10.84375 -12.742188 11.5625 -12.171875 C 12.28125 -11.597656 12.640625 -10.769531 12.640625 -9.6875 Z M 12.640625 -9.6875"/></g><g id="v"><path d="M 18.96875 -12.8125 L 13.03125 0 L 10.640625 0 L 9.5625 -10.21875 L 4.84375 0 L 2.546875 0 L 1.140625 -12.8125 L 3.28125 -12.8125 L 4.1875 -2.75 L 8.84375 -12.8125 L 11.09375 -12.8125 L 12.203125 -2.75 L 16.625 -12.8125 Z M 18.96875 -12.8125"/></g><g id="w"><path d="M 5.640625 -16.84375 C 5.640625 -16.363281 5.492188 -15.96875 5.203125 -15.65625 C 4.910156 -15.351562 4.523438 -15.203125 4.046875 -15.203125 C 3.285156 -15.203125 2.90625 -15.535156 2.90625 -16.203125 C 2.90625 -16.679688 3.050781 -17.070312 3.34375 -17.375 C 3.632812 -17.6875 4.019531 -17.84375 4.5 -17.84375 C 5.257812 -17.84375 5.640625 -17.507812 5.640625 -16.84375 Z M 4.765625 -12.8125 L 2.515625 0 L 0.265625 0 L 2.515625 -12.8125 Z M 4.765625 -12.8125"/></g><g id="x"><path d="M 12.3125 -9.984375 C 12.3125 -9.703125 12.285156 -9.398438 12.234375 -9.078125 L 10.140625 -9.078125 C 10.140625 -9.097656 10.148438 -9.171875 10.171875 -9.296875 C 10.191406 -9.421875 10.203125 -9.535156 10.203125 -9.640625 C 10.203125 -9.972656 10.117188 -10.242188 9.953125 -10.453125 C 9.796875 -10.671875 9.5625 -10.820312 9.25 -10.90625 C 8.945312 -11 8.65625 -11.054688 8.375 -11.078125 C 8.101562 -11.109375 7.765625 -11.125 7.359375 -11.125 C 6.816406 -11.125 6.375 -11.097656 6.03125 -11.046875 C 5.6875 -11.003906 5.320312 -10.910156 4.9375 -10.765625 C 4.5625 -10.628906 4.28125 -10.398438 4.09375 -10.078125 C 3.90625 -9.753906 3.8125 -9.328125 3.8125 -8.796875 C 3.8125 -8.191406 4.0625 -7.820312 4.5625 -7.6875 C 4.789062 -7.613281 5.46875 -7.550781 6.59375 -7.5 C 7.144531 -7.476562 7.53125 -7.457031 7.75 -7.4375 C 7.96875 -7.425781 8.316406 -7.390625 8.796875 -7.328125 C 9.273438 -7.265625 9.617188 -7.175781 9.828125 -7.0625 C 10.035156 -6.945312 10.273438 -6.789062 10.546875 -6.59375 C 10.828125 -6.394531 11.023438 -6.140625 11.140625 -5.828125 C 11.253906 -5.523438 11.3125 -5.160156 11.3125 -4.734375 C 11.3125 -3.171875 10.90625 -1.972656 10.09375 -1.140625 C 9.226562 -0.234375 7.613281 0.21875 5.25 0.21875 C 1.925781 0.21875 0.265625 -0.78125 0.265625 -2.78125 C 0.265625 -3.1875 0.289062 -3.503906 0.34375 -3.734375 L 2.4375 -3.734375 C 2.40625 -3.554688 2.390625 -3.367188 2.390625 -3.171875 C 2.390625 -2.609375 2.617188 -2.21875 3.078125 -2 C 3.546875 -1.789062 4.296875 -1.6875 5.328125 -1.6875 C 5.867188 -1.6875 6.328125 -1.710938 6.703125 -1.765625 C 7.085938 -1.828125 7.46875 -1.9375 7.84375 -2.09375 C 8.226562 -2.25 8.515625 -2.5 8.703125 -2.84375 C 8.898438 -3.1875 9 -3.632812 9 -4.1875 C 9 -4.375 8.976562 -4.539062 8.9375 -4.6875 C 8.894531 -4.832031 8.800781 -4.945312 8.65625 -5.03125 C 8.519531 -5.125 8.394531 -5.195312 8.28125 -5.25 C 8.175781 -5.300781 7.976562 -5.34375 7.6875 -5.375 C 7.394531 -5.40625 7.15625 -5.425781 6.96875 -5.4375 C 6.789062 -5.445312 6.476562 -5.460938 6.03125 -5.484375 C 5.46875 -5.503906 5.019531 -5.523438 4.6875 -5.546875 C 4.351562 -5.578125 3.957031 -5.648438 3.5 -5.765625 C 3.039062 -5.878906 2.679688 -6.023438 2.421875 -6.203125 C 2.171875 -6.378906 1.953125 -6.640625 1.765625 -6.984375 C 1.578125 -7.328125 1.484375 -7.734375 1.484375 -8.203125 C 1.484375 -9.773438 1.914062 -10.988281 2.78125 -11.84375 C 3.59375 -12.632812 5.179688 -13.03125 7.546875 -13.03125 C 10.722656 -13.03125 12.3125 -12.015625 12.3125 -9.984375 Z M 12.3125 -9.984375"/></g><g id="y"><path d="M 12.3125 -9.59375 C 12.3125 -9.164062 12.195312 -8.289062 11.96875 -6.96875 L 10.71875 0 L 8.65625 0 L 8.875 -1.25 C 7.90625 -0.269531 6.472656 0.21875 4.578125 0.21875 C 3.234375 0.21875 2.164062 -0.0390625 1.375 -0.5625 C 0.582031 -1.082031 0.1875 -1.898438 0.1875 -3.015625 C 0.1875 -4.535156 0.609375 -5.71875 1.453125 -6.5625 C 1.984375 -7.09375 2.609375 -7.441406 3.328125 -7.609375 C 4.054688 -7.773438 5.019531 -7.859375 6.21875 -7.859375 L 9.875 -7.859375 C 10.019531 -8.765625 10.09375 -9.28125 10.09375 -9.40625 C 10.09375 -10.070312 9.882812 -10.507812 9.46875 -10.71875 C 9.050781 -10.9375 8.347656 -11.046875 7.359375 -11.046875 C 6.035156 -11.046875 5.101562 -10.878906 4.5625 -10.546875 C 4.03125 -10.222656 3.703125 -9.753906 3.578125 -9.140625 L 1.375 -9.140625 C 1.519531 -9.910156 1.78125 -10.566406 2.15625 -11.109375 C 2.539062 -11.648438 3.019531 -12.050781 3.59375 -12.3125 C 4.175781 -12.582031 4.773438 -12.769531 5.390625 -12.875 C 6.015625 -12.976562 6.734375 -13.03125 7.546875 -13.03125 C 10.722656 -13.03125 12.3125 -11.882812 12.3125 -9.59375 Z M 9.609375 -5.984375 L 6.21875 -5.984375 C 5.800781 -5.984375 5.484375 -5.976562 5.265625 -5.96875 C 5.054688 -5.957031 4.734375 -5.90625 4.296875 -5.8125 C 3.867188 -5.726562 3.539062 -5.597656 3.3125 -5.421875 C 3.082031 -5.253906 2.867188 -4.988281 2.671875 -4.625 C 2.484375 -4.257812 2.390625 -3.8125 2.390625 -3.28125 C 2.390625 -2.789062 2.601562 -2.40625 3.03125 -2.125 C 3.46875 -1.851562 4.09375 -1.71875 4.90625 -1.71875 C 5.78125 -1.71875 6.5 -1.796875 7.0625 -1.953125 C 7.632812 -2.117188 8.082031 -2.398438 8.40625 -2.796875 C 8.738281 -3.191406 8.984375 -3.613281 9.140625 -4.0625 C 9.296875 -4.507812 9.453125 -5.148438 9.609375 -5.984375 Z M 9.609375 -5.984375"/></g><g id="z"><path d="M 14.453125 -18.453125 L 11.203125 0 L 9.078125 0 L 9.328125 -1.40625 C 8.296875 -0.320312 6.878906 0.21875 5.078125 0.21875 C 3.597656 0.21875 2.492188 -0.125 1.765625 -0.8125 C 1.046875 -1.507812 0.6875 -2.445312 0.6875 -3.625 C 0.6875 -5.164062 0.894531 -6.726562 1.3125 -8.3125 C 1.738281 -9.90625 2.289062 -11.035156 2.96875 -11.703125 C 3.851562 -12.585938 5.191406 -13.03125 6.984375 -13.03125 C 8.878906 -13.03125 10.222656 -12.585938 11.015625 -11.703125 L 12.203125 -18.453125 Z M 10.25 -8.53125 C 10.25 -9.394531 10.003906 -10.003906 9.515625 -10.359375 C 9.035156 -10.722656 8.21875 -10.90625 7.0625 -10.90625 C 5.914062 -10.90625 5.082031 -10.640625 4.5625 -10.109375 C 4.082031 -9.640625 3.703125 -8.773438 3.421875 -7.515625 C 3.140625 -6.265625 3 -5.144531 3 -4.15625 C 3 -2.625 3.773438 -1.859375 5.328125 -1.859375 C 6.859375 -1.859375 7.96875 -2.203125 8.65625 -2.890625 C 9.1875 -3.421875 9.582031 -4.234375 9.84375 -5.328125 C 10.113281 -6.429688 10.25 -7.5 10.25 -8.53125 Z M 10.25 -8.53125"/></g><clipPath id="d"><path d="M 0.96875 67 L 184 67 L 184 145.308594 L 0.96875 145.308594 Z M 0.96875 67"/></clipPath><clipPath id="e"><path d="M 0.96875 2.355469 L 196.378906 2.355469 L 196.378906 145.308594 L 0.96875 145.308594 Z M 0.96875 2.355469"/></clipPath><clipPath id="c"><path d="M0 0H197V146H0z"/></clipPath><clipPath id="g"><path d="M0 0H357V64H0z"/></clipPath><mask id="b"><g filter="url(#a)"><path fill-opacity=".11" d="M-37.5 -37.5H412.5V412.5H-37.5z"/></g></mask><mask id="f"><g filter="url(#a)"><path fill-opacity=".259" d="M-37.5 -37.5H412.5V412.5H-37.5z"/></g></mask><filter x="0%" y="0%" width="100%" xmlns:xlink="http://www.w3.org/1999/xlink" xlink:type="simple" xlink:actuate="onLoad" height="100%" id="a" xlink:show="other"><feColorMatrix values="0 0 0 0 1 0 0 0 0 1 0 0 0 0 1 0 0 0 1 0" color-interpolation-filters="sRGB"/></filter></defs><g mask="url(#b)"><g><g clip-path="url(#c)" transform="translate(89 66)"><g clip-path="url(#d)"><path transform="matrix(0 -6.49491 6.51372 0 -12.059 210.226)" fill="none" d="M 21.000095 17.99992 L 21.000095 2.999741 L 11.00008 2.999741 L 11.00008 29.000131 L 18.999731 29.000131" stroke="#000" stroke-width="2" stroke-miterlimit="10"/></g><g clip-path="url(#e)"><path transform="matrix(0 -6.49491 6.51372 0 -12.059 210.226)" fill="none" d="M 31.00011 23.999871 C 31.00011 24.229555 30.988682 24.458039 30.966429 24.685923 C 30.943575 24.914407 30.910496 25.140492 30.865389 25.365378 C 30.820883 25.590263 30.76495 25.81275 30.698792 26.032239 C 30.632033 26.251128 30.55505 26.467018 30.467241 26.67871 C 30.379431 26.890403 30.281398 27.097298 30.173742 27.299995 C 30.065484 27.502092 29.947603 27.698193 29.820099 27.888896 C 29.693197 28.079599 29.556672 28.263705 29.411125 28.440615 C 29.265579 28.618125 29.111612 28.787839 28.949827 28.949757 C 28.78744 29.111674 28.617836 29.265796 28.441015 29.410922 C 28.263593 29.556648 28.079554 29.692779 27.8889 29.820514 C 27.698246 29.94765 27.502179 30.06519 27.299497 30.173735 C 27.097415 30.28168 26.890523 30.37943 26.678818 30.466986 C 26.467114 30.555141 26.2512 30.631902 26.032279 30.698468 C 25.812756 30.765034 25.590226 30.820806 25.365892 30.865783 C 25.140956 30.910161 24.914216 30.943744 24.686273 30.966532 C 24.457729 30.988721 24.229185 31.000115 24.000039 31.000115 C 23.770893 31.000115 23.541748 30.988721 23.313805 30.966532 C 23.085862 30.943744 22.859122 30.910161 22.634186 30.865783 C 22.409251 30.820806 22.187322 30.765034 21.967799 30.698468 C 21.748878 30.631902 21.532964 30.555141 21.32126 30.466986 C 21.109555 30.37943 20.902663 30.28168 20.69998 30.173735 C 20.497899 30.06519 20.301832 29.94765 20.111178 29.820514 C 19.920524 29.692779 19.736485 29.556648 19.559063 29.410922 C 19.382242 29.265796 19.212638 29.111674 19.050251 28.949757 C 18.887864 28.787839 18.734499 28.618125 18.588953 28.440615 C 18.443406 28.263705 18.306881 28.079599 18.179979 27.888896 C 18.052475 27.698193 17.934594 27.502092 17.826336 27.299995 C 17.71868 27.097298 17.620647 26.890403 17.532837 26.67871 C 17.445028 26.467018 17.368045 26.251128 17.301286 26.032239 C 17.235128 25.81275 17.179195 25.590263 17.134689 25.365378 C 17.089582 25.140492 17.055902 24.914407 17.033649 24.685923 C 17.011396 24.458039 16.999968 24.229555 16.999968 23.999871 C 16.999968 23.770788 17.011396 23.542304 17.033649 23.31382 C 17.055902 23.085936 17.089582 22.859251 17.134689 22.634365 C 17.179195 22.40948 17.235128 22.187592 17.301286 21.968104 C 17.368045 21.748615 17.445028 21.532725 17.532837 21.321033 C 17.620647 21.10934 17.71868 20.902445 17.826336 20.700348 C 17.934594 20.498251 18.052475 20.30155 18.179979 20.110847 C 18.306881 19.920144 18.443406 19.736637 18.588953 19.559128 C 18.734499 19.382218 18.887864 19.212504 19.050251 19.049986 C 19.212638 18.888069 19.382242 18.734547 19.559063 18.588821 C 19.736485 18.443694 19.920524 18.306964 20.111178 18.179828 C 20.301832 18.052093 20.497899 17.934553 20.69998 17.826608 C 20.902663 17.718663 21.109555 17.620313 21.32126 17.532757 C 21.532964 17.445202 21.748878 17.367841 21.967799 17.301275 C 22.187322 17.234709 22.409251 17.178937 22.634186 17.13456 C 22.859122 17.089582 23.085862 17.055999 23.313805 17.033811 C 23.541748 17.011022 23.770893 17.000228 24.000039 17.000228 C 24.229185 17.000228 24.457729 17.011022 24.686273 17.033811 C 24.914216 17.055999 25.140956 17.089582 25.365892 17.13456 C 25.590226 17.178937 25.812756 17.234709 26.032279 17.301275 C 26.2512 17.367841 26.467114 17.445202 26.678818 17.532757 C 26.890523 17.620313 27.097415 17.718663 27.299497 17.826608 C 27.502179 17.934553 27.698246 18.052093 27.8889 18.179828 C 28.079554 18.306964 28.263593 18.443694 28.441015 18.588821 C 28.617836 18.734547 28.78744 18.888069 28.949827 19.049986 C 29.111612 19.212504 29.265579 19.382218 29.411125 19.559128 C 29.556672 19.736637 29.693197 19.920144 29.820099 20.110847 C 29.947603 20.30155 30.065484 20.498251 30.173742 20.700348 C 30.281398 20.902445 30.379431 21.10934 30.467241 21.321033 C 30.55505 21.532725 30.632033 21.748615 30.698792 21.968104 C 30.76495 22.187592 30.820883 22.40948 30.865389 22.634365 C 30.910496 22.859251 30.943575 23.085936 30.966429 23.31382 C 30.988682 23.542304 31.00011 23.770788 31.00011 23.999871 Z M 31.00011 23.999871" stroke="#000" stroke-width="2" stroke-miterlimit="10"/></g><path transform="matrix(0 -6.49491 6.51372 0 -12.059 210.226)" fill="none" d="M 24.000039 27.999839 L 24.000039 19.999904" stroke="#000" stroke-width="2" stroke-miterlimit="10"/><path transform="matrix(0 -6.49491 6.51372 0 -12.059 210.226)" fill="none" d="M 19.999913 23.999871 L 28.000165 23.999871" stroke="#000" stroke-width="2" stroke-miterlimit="10"/></g></g></g><g mask="url(#f)"><g><g clip-path="url(#g)" transform="translate(9 241)"><g><use x="1.082" y="21.23" xmlns:xlink="http://www.w3.org/1999/xlink" xlink:href="#h" xlink:type="simple" xlink:actuate="onLoad" xlink:show="embed"/></g><g><use x="18.106" y="21.23" xmlns:xlink="http://www.w3.org/1999/xlink" xlink:href="#i" xlink:type="simple" xlink:actuate="onLoad" xlink:show="embed"/></g><g><use x="32.244" y="21.23" xmlns:xlink="http://www.w3.org/1999/xlink" xlink:href="#j" xlink:type="simple" xlink:actuate="onLoad" xlink:show="embed"/></g><g><use x="38.307" y="21.23" xmlns:xlink="http://www.w3.org/1999/xlink" xlink:href="#i" xlink:type="simple" xlink:actuate="onLoad" xlink:show="embed"/></g><g><use x="52.445" y="21.23" xmlns:xlink="http://www.w3.org/1999/xlink" xlink:href="#k" xlink:type="simple" xlink:actuate="onLoad" xlink:show="embed"/></g><g><use x="66.239" y="21.23" xmlns:xlink="http://www.w3.org/1999/xlink" xlink:href="#l" xlink:type="simple" xlink:actuate="onLoad" xlink:show="embed"/></g><g><use x="78.391" y="21.23" xmlns:xlink="http://www.w3.org/1999/xlink" xlink:href="#m" xlink:type="simple" xlink:actuate="onLoad" xlink:show="embed"/></g><g><use x="84.56" y="21.23" xmlns:xlink="http://www.w3.org/1999/xlink" xlink:href="#l" xlink:type="simple" xlink:actuate="onLoad" xlink:show="embed"/></g><g><use x="96.713" y="21.23" xmlns:xlink="http://www.w3.org/1999/xlink" xlink:href="#n" xlink:type="simple" xlink:actuate="onLoad" xlink:show="embed"/></g><g><use x="110.983" y="21.23" xmlns:xlink="http://www.w3.org/1999/xlink" xlink:href="#i" xlink:type="simple" xlink:actuate="onLoad" xlink:show="embed"/></g><g><use x="125.121" y="21.23" xmlns:xlink="http://www.w3.org/1999/xlink" xlink:href="#m" xlink:type="simple" xlink:actuate="onLoad" xlink:show="embed"/></g><g><use x="131.29" y="21.23" xmlns:xlink="http://www.w3.org/1999/xlink" xlink:href="#l" xlink:type="simple" xlink:actuate="onLoad" xlink:show="embed"/></g><g><use x="143.443" y="21.23" xmlns:xlink="http://www.w3.org/1999/xlink" xlink:href="#o" xlink:type="simple" xlink:actuate="onLoad" xlink:show="embed"/></g><g><use x="156.336" y="21.23" xmlns:xlink="http://www.w3.org/1999/xlink" xlink:href="#p" xlink:type="simple" xlink:actuate="onLoad" xlink:show="embed"/></g><g><use x="171.03" y="21.23" xmlns:xlink="http://www.w3.org/1999/xlink" xlink:href="#i" xlink:type="simple" xlink:actuate="onLoad" xlink:show="embed"/></g><g><use x="185.168" y="21.23" xmlns:xlink="http://www.w3.org/1999/xlink" xlink:href="#m" xlink:type="simple" xlink:actuate="onLoad" xlink:show="embed"/></g><g><use x="191.337" y="21.23" xmlns:xlink="http://www.w3.org/1999/xlink" xlink:href="#q" xlink:type="simple" xlink:actuate="onLoad" xlink:show="embed"/></g><g><use x="205.925" y="21.23" xmlns:xlink="http://www.w3.org/1999/xlink" xlink:href="#r" xlink:type="simple" xlink:actuate="onLoad" xlink:show="embed"/></g><g><use x="217.681" y="21.23" xmlns:xlink="http://www.w3.org/1999/xlink" xlink:href="#m" xlink:type="simple" xlink:actuate="onLoad" xlink:show="embed"/></g><g><use x="223.85" y="21.23" xmlns:xlink="http://www.w3.org/1999/xlink" xlink:href="#k" xlink:type="simple" xlink:actuate="onLoad" xlink:show="embed"/></g><g><use x="237.644" y="21.23" xmlns:xlink="http://www.w3.org/1999/xlink" xlink:href="#q" xlink:type="simple" xlink:actuate="onLoad" xlink:show="embed"/></g><g><use x="252.232" y="21.23" xmlns:xlink="http://www.w3.org/1999/xlink" xlink:href="#j" xlink:type="simple" xlink:actuate="onLoad" xlink:show="embed"/></g><g><use x="258.295" y="21.23" xmlns:xlink="http://www.w3.org/1999/xlink" xlink:href="#s" xlink:type="simple" xlink:actuate="onLoad" xlink:show="embed"/></g><g><use x="272.539" y="21.23" xmlns:xlink="http://www.w3.org/1999/xlink" xlink:href="#t" xlink:type="simple" xlink:actuate="onLoad" xlink:show="embed"/></g><g><use x="293.746" y="21.23" xmlns:xlink="http://www.w3.org/1999/xlink" xlink:href="#u" xlink:type="simple" xlink:actuate="onLoad" xlink:show="embed"/></g><g><use x="308.016" y="21.23" xmlns:xlink="http://www.w3.org/1999/xlink" xlink:href="#m" xlink:type="simple" xlink:actuate="onLoad" xlink:show="embed"/></g><g><use x="314.185" y="21.23" xmlns:xlink="http://www.w3.org/1999/xlink" xlink:href="#o" xlink:type="simple" xlink:actuate="onLoad" xlink:show="embed"/></g><g><use x="327.079" y="21.23" xmlns:xlink="http://www.w3.org/1999/xlink" xlink:href="#q" xlink:type="simple" xlink:actuate="onLoad" xlink:show="embed"/></g><g><use x="341.667" y="21.23" xmlns:xlink="http://www.w3.org/1999/xlink" xlink:href="#s" xlink:type="simple" xlink:actuate="onLoad" xlink:show="embed"/></g><g><use x="59.812" y="57.952" xmlns:xlink="http://www.w3.org/1999/xlink" xlink:href="#v" xlink:type="simple" xlink:actuate="onLoad" xlink:show="embed"/></g><g><use x="78.636" y="57.952" xmlns:xlink="http://www.w3.org/1999/xlink" xlink:href="#w" xlink:type="simple" xlink:actuate="onLoad" xlink:show="embed"/></g><g><use x="84.567" y="57.952" xmlns:xlink="http://www.w3.org/1999/xlink" xlink:href="#x" xlink:type="simple" xlink:actuate="onLoad" xlink:show="embed"/></g><g><use x="98.096" y="57.952" xmlns:xlink="http://www.w3.org/1999/xlink" xlink:href="#n" xlink:type="simple" xlink:actuate="onLoad" xlink:show="embed"/></g><g><use x="112.367" y="57.952" xmlns:xlink="http://www.w3.org/1999/xlink" xlink:href="#m" xlink:type="simple" xlink:actuate="onLoad" xlink:show="embed"/></g><g><use x="118.536" y="57.952" xmlns:xlink="http://www.w3.org/1999/xlink" xlink:href="#l" xlink:type="simple" xlink:actuate="onLoad" xlink:show="embed"/></g><g><use x="130.688" y="57.952" xmlns:xlink="http://www.w3.org/1999/xlink" xlink:href="#q" xlink:type="simple" xlink:actuate="onLoad" xlink:show="embed"/></g><g><use x="145.276" y="57.952" xmlns:xlink="http://www.w3.org/1999/xlink" xlink:href="#m" xlink:type="simple" xlink:actuate="onLoad" xlink:show="embed"/></g><g><use x="151.445" y="57.952" xmlns:xlink="http://www.w3.org/1999/xlink" xlink:href="#y" xlink:type="simple" xlink:actuate="onLoad" xlink:show="embed"/></g><g><use x="165.398" y="57.952" xmlns:xlink="http://www.w3.org/1999/xlink" xlink:href="#z" xlink:type="simple" xlink:actuate="onLoad" xlink:show="embed"/></g><g><use x="180.145" y="57.952" xmlns:xlink="http://www.w3.org/1999/xlink" xlink:href="#z" xlink:type="simple" xlink:actuate="onLoad" xlink:show="embed"/></g><g><use x="194.892" y="57.952" xmlns:xlink="http://www.w3.org/1999/xlink" xlink:href="#m" xlink:type="simple" xlink:actuate="onLoad" xlink:show="embed"/></g><g><use x="201.061" y="57.952" xmlns:xlink="http://www.w3.org/1999/xlink" xlink:href="#y" xlink:type="simple" xlink:actuate="onLoad" xlink:show="embed"/></g><g><use x="215.013" y="57.952" xmlns:xlink="http://www.w3.org/1999/xlink" xlink:href="#u" xlink:type="simple" xlink:actuate="onLoad" xlink:show="embed"/></g><g><use x="229.284" y="57.952" xmlns:xlink="http://www.w3.org/1999/xlink" xlink:href="#z" xlink:type="simple" xlink:actuate="onLoad" xlink:show="embed"/></g><g><use x="244.031" y="57.952" xmlns:xlink="http://www.w3.org/1999/xlink" xlink:href="#m" xlink:type="simple" xlink:actuate="onLoad" xlink:show="embed"/></g><g><use x="250.2" y="57.952" xmlns:xlink="http://www.w3.org/1999/xlink" xlink:href="#i" xlink:type="simple" xlink:actuate="onLoad" xlink:show="embed"/></g><g><use x="264.338" y="57.952" xmlns:xlink="http://www.w3.org/1999/xlink" xlink:href="#z" xlink:type="simple" xlink:actuate="onLoad" xlink:show="embed"/></g><g><use x="279.085" y="57.952" xmlns:xlink="http://www.w3.org/1999/xlink" xlink:href="#w" xlink:type="simple" xlink:actuate="onLoad" xlink:show="embed"/></g><g><use x="285.016" y="57.952" xmlns:xlink="http://www.w3.org/1999/xlink" xlink:href="#l" xlink:type="simple" xlink:actuate="onLoad" xlink:show="embed"/></g></g></g></g></svg>