<?xml version="1.0" encoding="UTF-8"?>
<svg xmlns="http://www.w3.org/2000/svg" xmlns:xlink="http://www.w3.org/1999/xlink" width="375pt" height="374.999991pt" viewBox="0 0 375 374.999991" version="1.2">
<g id="surface1">
<path style=" stroke:none;fill-rule:nonzero;fill:rgb(97.24884%,35.289001%,25.099182%);fill-opacity:1;" d="M 77.742188 0 L 4.574219 0 C 2.046875 0 0 2.046875 0 4.574219 L 0 77.742188 C 0 80.269531 2.046875 82.316406 4.574219 82.316406 L 77.742188 82.316406 C 80.269531 82.316406 82.316406 80.269531 82.316406 77.742188 L 82.316406 4.574219 C 82.316406 2.046875 80.269531 0 77.742188 0 Z M 73.171875 73.171875 L 9.144531 73.171875 L 9.144531 9.144531 L 73.171875 9.144531 Z M 73.171875 73.171875 "/>
<path style=" stroke:none;fill-rule:nonzero;fill:rgb(97.24884%,35.289001%,25.099182%);fill-opacity:1;" d="M 77.742188 146.339844 L 4.574219 146.339844 C 2.046875 146.339844 0 148.390625 0 150.914062 L 0 224.085938 C 0 226.609375 2.046875 228.660156 4.574219 228.660156 L 77.742188 228.660156 C 80.269531 228.660156 82.316406 226.609375 82.316406 224.085938 L 82.316406 150.914062 C 82.316406 148.390625 80.269531 146.339844 77.742188 146.339844 Z M 73.171875 219.511719 L 9.144531 219.511719 L 9.144531 155.488281 L 73.171875 155.488281 Z M 73.171875 219.511719 "/>
<path style=" stroke:none;fill-rule:nonzero;fill:rgb(97.24884%,35.289001%,25.099182%);fill-opacity:1;" d="M 77.742188 292.683594 L 4.574219 292.683594 C 2.046875 292.683594 0 294.730469 0 297.257812 L 0 370.425781 C 0 372.953125 2.046875 375 4.574219 375 L 77.742188 375 C 80.269531 375 82.316406 372.953125 82.316406 370.425781 L 82.316406 297.257812 C 82.316406 294.730469 80.269531 292.683594 77.742188 292.683594 Z M 73.171875 365.855469 L 9.144531 365.855469 L 9.144531 301.828125 L 73.171875 301.828125 Z M 73.171875 365.855469 "/>
<path style=" stroke:none;fill-rule:nonzero;fill:rgb(97.24884%,35.289001%,25.099182%);fill-opacity:1;" d="M 150.914062 45.730469 L 370.425781 45.730469 C 372.953125 45.730469 375 43.683594 375 41.160156 C 375 38.632812 372.953125 36.585938 370.425781 36.585938 L 150.914062 36.585938 C 148.390625 36.585938 146.339844 38.632812 146.339844 41.160156 C 146.339844 43.683594 148.390625 45.730469 150.914062 45.730469 Z M 150.914062 45.730469 "/>
<path style=" stroke:none;fill-rule:nonzero;fill:rgb(97.24884%,35.289001%,25.099182%);fill-opacity:1;" d="M 370.425781 182.925781 L 150.914062 182.925781 C 148.390625 182.925781 146.339844 184.976562 146.339844 187.5 C 146.339844 190.023438 148.390625 192.074219 150.914062 192.074219 L 370.425781 192.074219 C 372.953125 192.074219 375 190.023438 375 187.5 C 375 184.976562 372.953125 182.925781 370.425781 182.925781 Z M 370.425781 182.925781 "/>
<path style=" stroke:none;fill-rule:nonzero;fill:rgb(97.24884%,35.289001%,25.099182%);fill-opacity:1;" d="M 370.425781 329.269531 L 150.914062 329.269531 C 148.390625 329.269531 146.339844 331.316406 146.339844 333.839844 C 146.339844 336.367188 148.390625 338.414062 150.914062 338.414062 L 370.425781 338.414062 C 372.953125 338.414062 375 336.367188 375 333.839844 C 375 331.316406 372.953125 329.269531 370.425781 329.269531 Z M 370.425781 329.269531 "/>
</g>
</svg>
