<?xml version="1.0" encoding="UTF-8"?><svg xmlns="http://www.w3.org/2000/svg" xmlns:xlink="http://www.w3.org/1999/xlink" width="375pt" zoomAndPan="magnify" viewBox="0 0 375 337.499995" height="337.499995pt" preserveAspectRatio="xMidYMid meet" version="1.2"><defs><g/><filter x="0%" y="0%" width="100%" xmlns:xlink="http://www.w3.org/1999/xlink" xlink:type="simple" filterUnits="objectBoundingBox" xlink:actuate="onLoad" id="alpha" height="100%" xlink:show="other" xml:id="alpha"><feColorMatrix values="0 0 0 0 1 0 0 0 0 1 0 0 0 0 1 0 0 0 1 0" type="matrix" in="SourceGraphic"/></filter><clipPath xml:id="clip2" id="clip2"><path d="M 0.441406 0 L 144.976562 0 L 144.976562 242.640625 L 0.441406 242.640625 Z M 0.441406 0 "/></clipPath><clipPath xml:id="clip1" id="clip1"><rect x="0" width="146" y="0" height="243"/></clipPath><clipPath xml:id="clip3" id="clip3"><rect x="0" width="361" y="0" height="65"/></clipPath></defs><g xml:id="surface1" id="surface1"><g mask="url(#mask0)" transform="matrix(1,0,0,1,112,0)"><g xml:id="surface5" id="surface5" clip-path="url(#clip1)"><g clip-rule="nonzero" clip-path="url(#clip2)"><path style=" stroke:none;fill-rule:nonzero;fill:rgb(0%,0%,0%);fill-opacity:1;" d="M 0.417969 0.046875 L 0.417969 37.832031 L 47.367188 37.832031 C 47.59375 37.785156 47.796875 37.765625 48.023438 37.765625 C 48.273438 37.765625 48.542969 37.785156 48.792969 37.832031 L 96.644531 37.832031 C 96.851562 37.785156 97.054688 37.765625 97.257812 37.765625 C 97.527344 37.765625 97.796875 37.785156 98.070312 37.832031 L 145 37.832031 L 145 0.046875 Z M 0.417969 46.496094 L 0.417969 73.363281 L 43.734375 73.363281 L 43.734375 46.496094 Z M 52.40625 46.496094 L 52.40625 73.363281 L 93.011719 73.363281 L 93.011719 46.496094 Z M 0.417969 82.023438 L 0.417969 111.621094 L 43.734375 111.621094 L 43.734375 82.023438 Z M 52.40625 82.023438 L 52.40625 111.621094 L 93.011719 111.621094 L 93.011719 82.023438 Z M 101.683594 82.023438 L 101.683594 111.621094 L 145 111.621094 L 145 82.023438 Z M 0.417969 120.304688 L 0.417969 150.171875 L 43.734375 150.171875 L 43.734375 120.304688 Z M 52.40625 120.304688 L 52.40625 150.171875 L 93.011719 150.171875 L 93.011719 120.304688 Z M 101.683594 120.304688 L 101.683594 150.171875 L 145 150.171875 L 145 120.304688 Z M 101.683594 158.835938 L 101.683594 188.183594 L 145 188.183594 L 145 158.835938 Z M 123.363281 204.425781 C 123.339844 204.425781 123.339844 204.425781 123.316406 204.425781 C 123.296875 204.425781 123.273438 204.425781 123.25 204.425781 C 121.871094 204.46875 120.585938 205.148438 119.792969 206.273438 L 110.601562 215.480469 C 109.453125 216.5625 109 218.1875 109.382812 219.695312 C 109.789062 221.207031 110.964844 222.402344 112.476562 222.808594 C 114.011719 223.214844 115.617188 222.742188 116.699219 221.613281 L 119.140625 219.179688 L 119.140625 227.34375 C 119.207031 229.691406 121.128906 231.5625 123.476562 231.5625 C 125.847656 231.5625 127.765625 229.691406 127.8125 227.34375 L 127.8125 219.359375 L 130.09375 221.613281 C 131.175781 222.742188 132.804688 223.214844 134.316406 222.808594 C 135.828125 222.402344 137.027344 221.207031 137.410156 219.695312 C 137.816406 218.1875 137.34375 216.5625 136.214844 215.480469 L 127.066406 206.320312 C 126.230469 205.101562 124.855469 204.378906 123.363281 204.425781 Z M 116.476562 233.929688 C 114.105469 234.113281 112.320312 236.121094 112.453125 238.488281 C 112.566406 240.835938 114.554688 242.660156 116.925781 242.59375 L 129.914062 242.59375 C 131.492188 242.640625 132.960938 241.804688 133.75 240.449219 C 134.542969 239.097656 134.542969 237.429688 133.75 236.074219 C 132.960938 234.722656 131.492188 233.886719 129.914062 233.929688 L 116.925781 233.929688 C 116.769531 233.929688 116.609375 233.929688 116.476562 233.929688 "/></g></g><mask xml:id="mask0" id="mask0"><g filter="url(#alpha)"><rect x="0" width="375" y="0" height="337.499995" style="fill:rgb(0%,0%,0%);fill-opacity:0.1098;stroke:none;"/></g></mask></g><g mask="url(#mask1)" transform="matrix(1,0,0,1,7,265)"><g xml:id="surface8" id="surface8" clip-path="url(#clip3)"><g style="fill:rgb(0%,0%,0%);fill-opacity:1;"><g transform="translate(1.40066, 21.933305)"><path style="stroke:none;" d="M 15.234375 -17.640625 L 14.859375 -15.546875 L 9.359375 -15.546875 L 6.609375 0 L 4.25 0 L 7 -15.546875 L 1.5 -15.546875 L 1.875 -17.640625 Z M 15.234375 -17.640625 "/></g></g><g style="fill:rgb(0%,0%,0%);fill-opacity:1;"><g transform="translate(15.623572, 21.933305)"><path style="stroke:none;" d="M 12.609375 -9.671875 C 12.609375 -9.234375 12.484375 -8.273438 12.234375 -6.796875 L 11.046875 0 L 8.796875 0 L 9.96875 -6.609375 C 10.15625 -7.773438 10.25 -8.578125 10.25 -9.015625 C 10.25 -9.671875 10.070312 -10.148438 9.71875 -10.453125 C 9.375 -10.765625 8.734375 -10.921875 7.796875 -10.921875 C 7.148438 -10.921875 6.585938 -10.820312 6.109375 -10.625 C 5.628906 -10.4375 5.253906 -10.21875 4.984375 -9.96875 C 4.722656 -9.71875 4.488281 -9.328125 4.28125 -8.796875 C 4.082031 -8.273438 3.941406 -7.84375 3.859375 -7.5 C 3.785156 -7.15625 3.6875 -6.617188 3.5625 -5.890625 L 2.515625 0 L 0.265625 0 L 3.515625 -18.421875 L 5.765625 -18.421875 L 4.578125 -11.65625 C 5.503906 -12.550781 6.769531 -13 8.375 -13 C 9.769531 -13 10.820312 -12.710938 11.53125 -12.140625 C 12.25 -11.566406 12.609375 -10.742188 12.609375 -9.671875 Z M 12.609375 -9.671875 "/></g></g><g style="fill:rgb(0%,0%,0%);fill-opacity:1;"><g transform="translate(29.87292, 21.933305)"><path style="stroke:none;" d="M 12.484375 -9.015625 C 12.484375 -7.691406 12.367188 -6.570312 12.140625 -5.65625 L 3.0625 -5.65625 C 2.9375 -4.914062 2.875 -4.378906 2.875 -4.046875 C 2.875 -3.210938 3.101562 -2.617188 3.5625 -2.265625 C 4.019531 -1.921875 4.816406 -1.75 5.953125 -1.75 C 6.410156 -1.75 6.804688 -1.769531 7.140625 -1.8125 C 7.472656 -1.851562 7.816406 -1.9375 8.171875 -2.0625 C 8.523438 -2.1875 8.816406 -2.390625 9.046875 -2.671875 C 9.273438 -2.953125 9.421875 -3.304688 9.484375 -3.734375 L 11.609375 -3.734375 C 11.273438 -1.097656 9.363281 0.21875 5.875 0.21875 C 3.96875 0.21875 2.625 -0.132812 1.84375 -0.84375 C 1.070312 -1.550781 0.6875 -2.617188 0.6875 -4.046875 C 0.6875 -5.265625 0.878906 -6.644531 1.265625 -8.1875 C 1.648438 -9.726562 2.1875 -10.84375 2.875 -11.53125 C 3.863281 -12.507812 5.378906 -13 7.421875 -13 C 9.296875 -13 10.609375 -12.648438 11.359375 -11.953125 C 12.109375 -11.265625 12.484375 -10.285156 12.484375 -9.015625 Z M 10.359375 -8.96875 C 10.359375 -9.71875 10.140625 -10.253906 9.703125 -10.578125 C 9.265625 -10.910156 8.503906 -11.078125 7.421875 -11.078125 C 6.117188 -11.078125 5.179688 -10.796875 4.609375 -10.234375 C 4.035156 -9.679688 3.632812 -8.789062 3.40625 -7.5625 L 10.203125 -7.5625 C 10.304688 -8.195312 10.359375 -8.664062 10.359375 -8.96875 Z M 10.359375 -8.96875 "/></g></g><g style="fill:rgb(0%,0%,0%);fill-opacity:1;"><g transform="translate(43.990087, 21.933305)"><path style="stroke:none;" d="M 11.734375 -10.015625 C 11.734375 -9.734375 11.707031 -9.4375 11.65625 -9.125 L 9.484375 -9.125 C 9.523438 -9.28125 9.546875 -9.484375 9.546875 -9.734375 C 9.546875 -10.191406 9.378906 -10.507812 9.046875 -10.6875 C 8.722656 -10.875 8.203125 -10.96875 7.484375 -10.96875 C 6.316406 -10.96875 5.410156 -10.507812 4.765625 -9.59375 C 4.285156 -8.925781 3.90625 -7.832031 3.625 -6.3125 L 2.515625 0 L 0.265625 0 L 2.515625 -12.796875 L 4.578125 -12.796875 L 4.328125 -11.546875 C 5.242188 -12.515625 6.445312 -13 7.9375 -13 C 10.46875 -13 11.734375 -12.003906 11.734375 -10.015625 Z M 11.734375 -10.015625 "/></g></g><g style="fill:rgb(0%,0%,0%);fill-opacity:1;"><g transform="translate(55.913017, 21.933305)"><path style="stroke:none;" d="M 12.484375 -9.015625 C 12.484375 -7.691406 12.367188 -6.570312 12.140625 -5.65625 L 3.0625 -5.65625 C 2.9375 -4.914062 2.875 -4.378906 2.875 -4.046875 C 2.875 -3.210938 3.101562 -2.617188 3.5625 -2.265625 C 4.019531 -1.921875 4.816406 -1.75 5.953125 -1.75 C 6.410156 -1.75 6.804688 -1.769531 7.140625 -1.8125 C 7.472656 -1.851562 7.816406 -1.9375 8.171875 -2.0625 C 8.523438 -2.1875 8.816406 -2.390625 9.046875 -2.671875 C 9.273438 -2.953125 9.421875 -3.304688 9.484375 -3.734375 L 11.609375 -3.734375 C 11.273438 -1.097656 9.363281 0.21875 5.875 0.21875 C 3.96875 0.21875 2.625 -0.132812 1.84375 -0.84375 C 1.070312 -1.550781 0.6875 -2.617188 0.6875 -4.046875 C 0.6875 -5.265625 0.878906 -6.644531 1.265625 -8.1875 C 1.648438 -9.726562 2.1875 -10.84375 2.875 -11.53125 C 3.863281 -12.507812 5.378906 -13 7.421875 -13 C 9.296875 -13 10.609375 -12.648438 11.359375 -11.953125 C 12.109375 -11.265625 12.484375 -10.285156 12.484375 -9.015625 Z M 10.359375 -8.96875 C 10.359375 -9.71875 10.140625 -10.253906 9.703125 -10.578125 C 9.265625 -10.910156 8.503906 -11.078125 7.421875 -11.078125 C 6.117188 -11.078125 5.179688 -10.796875 4.609375 -10.234375 C 4.035156 -9.679688 3.632812 -8.789062 3.40625 -7.5625 L 10.203125 -7.5625 C 10.304688 -8.195312 10.359375 -8.664062 10.359375 -8.96875 Z M 10.359375 -8.96875 "/></g></g><g style="fill:rgb(0%,0%,0%);fill-opacity:1;"><g transform="translate(70.030184, 21.933305)"><path style="stroke:none;" d=""/></g></g><g style="fill:rgb(0%,0%,0%);fill-opacity:1;"><g transform="translate(76.189931, 21.933305)"><path style="stroke:none;" d="M 12.296875 -9.578125 C 12.296875 -9.148438 12.179688 -8.273438 11.953125 -6.953125 L 10.703125 0 L 8.640625 0 L 8.859375 -1.25 C 7.890625 -0.269531 6.460938 0.21875 4.578125 0.21875 C 3.234375 0.21875 2.164062 -0.0390625 1.375 -0.5625 C 0.582031 -1.082031 0.1875 -1.898438 0.1875 -3.015625 C 0.1875 -4.523438 0.609375 -5.707031 1.453125 -6.5625 C 1.984375 -7.082031 2.609375 -7.425781 3.328125 -7.59375 C 4.054688 -7.769531 5.019531 -7.859375 6.21875 -7.859375 L 9.859375 -7.859375 C 10.003906 -8.753906 10.078125 -9.265625 10.078125 -9.390625 C 10.078125 -10.054688 9.867188 -10.492188 9.453125 -10.703125 C 9.035156 -10.921875 8.332031 -11.03125 7.34375 -11.03125 C 6.019531 -11.03125 5.085938 -10.863281 4.546875 -10.53125 C 4.015625 -10.207031 3.6875 -9.738281 3.5625 -9.125 L 1.375 -9.125 C 1.519531 -9.894531 1.78125 -10.546875 2.15625 -11.078125 C 2.53125 -11.617188 3.007812 -12.019531 3.59375 -12.28125 C 4.175781 -12.550781 4.773438 -12.738281 5.390625 -12.84375 C 6.003906 -12.945312 6.71875 -13 7.53125 -13 C 10.707031 -13 12.296875 -11.859375 12.296875 -9.578125 Z M 9.59375 -5.96875 L 6.21875 -5.96875 C 5.789062 -5.96875 5.46875 -5.960938 5.25 -5.953125 C 5.039062 -5.953125 4.71875 -5.90625 4.28125 -5.8125 C 3.851562 -5.726562 3.523438 -5.597656 3.296875 -5.421875 C 3.078125 -5.242188 2.867188 -4.972656 2.671875 -4.609375 C 2.472656 -4.253906 2.375 -3.8125 2.375 -3.28125 C 2.375 -2.78125 2.585938 -2.394531 3.015625 -2.125 C 3.453125 -1.851562 4.078125 -1.71875 4.890625 -1.71875 C 5.773438 -1.71875 6.5 -1.796875 7.0625 -1.953125 C 7.625 -2.109375 8.066406 -2.382812 8.390625 -2.78125 C 8.722656 -3.1875 8.96875 -3.613281 9.125 -4.0625 C 9.28125 -4.507812 9.4375 -5.144531 9.59375 -5.96875 Z M 9.59375 -5.96875 "/></g></g><g style="fill:rgb(0%,0%,0%);fill-opacity:1;"><g transform="translate(90.122044, 21.933305)"><path style="stroke:none;" d="M 11.734375 -10.015625 C 11.734375 -9.734375 11.707031 -9.4375 11.65625 -9.125 L 9.484375 -9.125 C 9.523438 -9.28125 9.546875 -9.484375 9.546875 -9.734375 C 9.546875 -10.191406 9.378906 -10.507812 9.046875 -10.6875 C 8.722656 -10.875 8.203125 -10.96875 7.484375 -10.96875 C 6.316406 -10.96875 5.410156 -10.507812 4.765625 -9.59375 C 4.285156 -8.925781 3.90625 -7.832031 3.625 -6.3125 L 2.515625 0 L 0.265625 0 L 2.515625 -12.796875 L 4.578125 -12.796875 L 4.328125 -11.546875 C 5.242188 -12.515625 6.445312 -13 7.9375 -13 C 10.46875 -13 11.734375 -12.003906 11.734375 -10.015625 Z M 11.734375 -10.015625 "/></g></g><g style="fill:rgb(0%,0%,0%);fill-opacity:1;"><g transform="translate(102.044974, 21.933305)"><path style="stroke:none;" d="M 12.484375 -9.015625 C 12.484375 -7.691406 12.367188 -6.570312 12.140625 -5.65625 L 3.0625 -5.65625 C 2.9375 -4.914062 2.875 -4.378906 2.875 -4.046875 C 2.875 -3.210938 3.101562 -2.617188 3.5625 -2.265625 C 4.019531 -1.921875 4.816406 -1.75 5.953125 -1.75 C 6.410156 -1.75 6.804688 -1.769531 7.140625 -1.8125 C 7.472656 -1.851562 7.816406 -1.9375 8.171875 -2.0625 C 8.523438 -2.1875 8.816406 -2.390625 9.046875 -2.671875 C 9.273438 -2.953125 9.421875 -3.304688 9.484375 -3.734375 L 11.609375 -3.734375 C 11.273438 -1.097656 9.363281 0.21875 5.875 0.21875 C 3.96875 0.21875 2.625 -0.132812 1.84375 -0.84375 C 1.070312 -1.550781 0.6875 -2.617188 0.6875 -4.046875 C 0.6875 -5.265625 0.878906 -6.644531 1.265625 -8.1875 C 1.648438 -9.726562 2.1875 -10.84375 2.875 -11.53125 C 3.863281 -12.507812 5.378906 -13 7.421875 -13 C 9.296875 -13 10.609375 -12.648438 11.359375 -11.953125 C 12.109375 -11.265625 12.484375 -10.285156 12.484375 -9.015625 Z M 10.359375 -8.96875 C 10.359375 -9.71875 10.140625 -10.253906 9.703125 -10.578125 C 9.265625 -10.910156 8.503906 -11.078125 7.421875 -11.078125 C 6.117188 -11.078125 5.179688 -10.796875 4.609375 -10.234375 C 4.035156 -9.679688 3.632812 -8.789062 3.40625 -7.5625 L 10.203125 -7.5625 C 10.304688 -8.195312 10.359375 -8.664062 10.359375 -8.96875 Z M 10.359375 -8.96875 "/></g></g><g style="fill:rgb(0%,0%,0%);fill-opacity:1;"><g transform="translate(116.16214, 21.933305)"><path style="stroke:none;" d=""/></g></g><g style="fill:rgb(0%,0%,0%);fill-opacity:1;"><g transform="translate(122.321888, 21.933305)"><path style="stroke:none;" d="M 12.609375 -9.671875 C 12.609375 -9.234375 12.484375 -8.273438 12.234375 -6.796875 L 11.046875 0 L 8.796875 0 L 9.96875 -6.609375 C 10.15625 -7.773438 10.25 -8.578125 10.25 -9.015625 C 10.25 -9.671875 10.070312 -10.148438 9.71875 -10.453125 C 9.375 -10.765625 8.734375 -10.921875 7.796875 -10.921875 C 7.148438 -10.921875 6.585938 -10.820312 6.109375 -10.625 C 5.628906 -10.4375 5.253906 -10.21875 4.984375 -9.96875 C 4.722656 -9.71875 4.488281 -9.328125 4.28125 -8.796875 C 4.082031 -8.273438 3.941406 -7.84375 3.859375 -7.5 C 3.785156 -7.15625 3.6875 -6.617188 3.5625 -5.890625 L 2.515625 0 L 0.265625 0 L 2.53125 -12.796875 L 4.578125 -12.796875 L 4.359375 -11.546875 C 5.242188 -12.515625 6.582031 -13 8.375 -13 C 9.769531 -13 10.820312 -12.710938 11.53125 -12.140625 C 12.25 -11.566406 12.609375 -10.742188 12.609375 -9.671875 Z M 12.609375 -9.671875 "/></g></g><g style="fill:rgb(0%,0%,0%);fill-opacity:1;"><g transform="translate(136.571236, 21.933305)"><path style="stroke:none;" d="M 12.921875 -8.75 C 12.921875 -8.0625 12.84375 -7.273438 12.6875 -6.390625 C 12.476562 -5.191406 12.242188 -4.21875 11.984375 -3.46875 C 11.734375 -2.726562 11.359375 -2.054688 10.859375 -1.453125 C 10.367188 -0.859375 9.722656 -0.429688 8.921875 -0.171875 C 8.117188 0.0859375 7.117188 0.21875 5.921875 0.21875 C 4.003906 0.21875 2.648438 -0.117188 1.859375 -0.796875 C 1.078125 -1.484375 0.6875 -2.566406 0.6875 -4.046875 C 0.6875 -4.734375 0.765625 -5.515625 0.921875 -6.390625 C 1.140625 -7.597656 1.375 -8.570312 1.625 -9.3125 C 1.882812 -10.0625 2.257812 -10.734375 2.75 -11.328125 C 3.238281 -11.929688 3.882812 -12.359375 4.6875 -12.609375 C 5.488281 -12.867188 6.488281 -13 7.6875 -13 C 9.613281 -13 10.96875 -12.660156 11.75 -11.984375 C 12.53125 -11.304688 12.921875 -10.226562 12.921875 -8.75 Z M 10.625 -8.671875 C 10.625 -9.503906 10.40625 -10.09375 9.96875 -10.4375 C 9.539062 -10.789062 8.78125 -10.96875 7.6875 -10.96875 C 6.257812 -10.96875 5.238281 -10.671875 4.625 -10.078125 C 3.988281 -9.453125 3.503906 -8.09375 3.171875 -6 C 3.046875 -5.132812 2.984375 -4.507812 2.984375 -4.125 C 2.984375 -3.289062 3.195312 -2.695312 3.625 -2.34375 C 4.0625 -2 4.828125 -1.828125 5.921875 -1.828125 C 7.347656 -1.828125 8.367188 -2.125 8.984375 -2.71875 C 9.617188 -3.332031 10.101562 -4.691406 10.4375 -6.796875 C 10.5625 -7.660156 10.625 -8.285156 10.625 -8.671875 Z M 10.625 -8.671875 "/></g></g><g style="fill:rgb(0%,0%,0%);fill-opacity:1;"><g transform="translate(151.137841, 21.933305)"><path style="stroke:none;" d=""/></g></g><g style="fill:rgb(0%,0%,0%);fill-opacity:1;"><g transform="translate(157.297588, 21.933305)"><path style="stroke:none;" d="M 12.53125 -9.859375 C 12.53125 -9.628906 12.503906 -9.363281 12.453125 -9.0625 L 10.34375 -9.0625 C 10.351562 -9.15625 10.359375 -9.304688 10.359375 -9.515625 C 10.359375 -9.941406 10.195312 -10.269531 9.875 -10.5 C 9.5625 -10.726562 9.226562 -10.863281 8.875 -10.90625 C 8.53125 -10.945312 8.09375 -10.96875 7.5625 -10.96875 C 6.207031 -10.96875 5.21875 -10.660156 4.59375 -10.046875 C 4.082031 -9.535156 3.6875 -8.660156 3.40625 -7.421875 C 3.125 -6.191406 2.984375 -5.082031 2.984375 -4.09375 C 2.984375 -3.28125 3.203125 -2.695312 3.640625 -2.34375 C 4.085938 -2 4.859375 -1.828125 5.953125 -1.828125 C 6.367188 -1.828125 6.734375 -1.84375 7.046875 -1.875 C 7.367188 -1.914062 7.710938 -1.992188 8.078125 -2.109375 C 8.441406 -2.234375 8.738281 -2.429688 8.96875 -2.703125 C 9.195312 -2.984375 9.34375 -3.328125 9.40625 -3.734375 L 11.546875 -3.734375 C 11.234375 -1.097656 9.332031 0.21875 5.84375 0.21875 C 3.976562 0.21875 2.648438 -0.125 1.859375 -0.8125 C 1.078125 -1.5 0.6875 -2.578125 0.6875 -4.046875 C 0.6875 -5.296875 0.878906 -6.671875 1.265625 -8.171875 C 1.648438 -9.671875 2.1875 -10.769531 2.875 -11.46875 C 3.84375 -12.488281 5.378906 -13 7.484375 -13 C 10.847656 -13 12.53125 -11.953125 12.53125 -9.859375 Z M 12.53125 -9.859375 "/></g></g><g style="fill:rgb(0%,0%,0%);fill-opacity:1;"><g transform="translate(171.071083, 21.933305)"><path style="stroke:none;" d="M 12.921875 -8.75 C 12.921875 -8.0625 12.84375 -7.273438 12.6875 -6.390625 C 12.476562 -5.191406 12.242188 -4.21875 11.984375 -3.46875 C 11.734375 -2.726562 11.359375 -2.054688 10.859375 -1.453125 C 10.367188 -0.859375 9.722656 -0.429688 8.921875 -0.171875 C 8.117188 0.0859375 7.117188 0.21875 5.921875 0.21875 C 4.003906 0.21875 2.648438 -0.117188 1.859375 -0.796875 C 1.078125 -1.484375 0.6875 -2.566406 0.6875 -4.046875 C 0.6875 -4.734375 0.765625 -5.515625 0.921875 -6.390625 C 1.140625 -7.597656 1.375 -8.570312 1.625 -9.3125 C 1.882812 -10.0625 2.257812 -10.734375 2.75 -11.328125 C 3.238281 -11.929688 3.882812 -12.359375 4.6875 -12.609375 C 5.488281 -12.867188 6.488281 -13 7.6875 -13 C 9.613281 -13 10.96875 -12.660156 11.75 -11.984375 C 12.53125 -11.304688 12.921875 -10.226562 12.921875 -8.75 Z M 10.625 -8.671875 C 10.625 -9.503906 10.40625 -10.09375 9.96875 -10.4375 C 9.539062 -10.789062 8.78125 -10.96875 7.6875 -10.96875 C 6.257812 -10.96875 5.238281 -10.671875 4.625 -10.078125 C 3.988281 -9.453125 3.503906 -8.09375 3.171875 -6 C 3.046875 -5.132812 2.984375 -4.507812 2.984375 -4.125 C 2.984375 -3.289062 3.195312 -2.695312 3.625 -2.34375 C 4.0625 -2 4.828125 -1.828125 5.921875 -1.828125 C 7.347656 -1.828125 8.367188 -2.125 8.984375 -2.71875 C 9.617188 -3.332031 10.101562 -4.691406 10.4375 -6.796875 C 10.5625 -7.660156 10.625 -8.285156 10.625 -8.671875 Z M 10.625 -8.671875 "/></g></g><g style="fill:rgb(0%,0%,0%);fill-opacity:1;"><g transform="translate(185.637687, 21.933305)"><path style="stroke:none;" d="M 5.765625 -18.421875 L 2.515625 0 L 0.265625 0 L 3.515625 -18.421875 Z M 5.765625 -18.421875 "/></g></g><g style="fill:rgb(0%,0%,0%);fill-opacity:1;"><g transform="translate(191.691689, 21.933305)"><path style="stroke:none;" d="M 13.03125 -12.796875 L 10.78125 0 L 8.75 0 L 8.96875 -1.25 C 8.082031 -0.269531 6.757812 0.21875 5 0.21875 C 3.46875 0.21875 2.363281 -0.113281 1.6875 -0.78125 C 1.019531 -1.457031 0.6875 -2.238281 0.6875 -3.125 C 0.6875 -3.5625 0.8125 -4.519531 1.0625 -6 L 2.25 -12.796875 L 4.515625 -12.796875 L 3.328125 -6.1875 C 3.117188 -5.09375 3.015625 -4.28125 3.015625 -3.75 C 3.015625 -3.164062 3.191406 -2.707031 3.546875 -2.375 C 3.910156 -2.039062 4.585938 -1.875 5.578125 -1.875 C 6.210938 -1.875 6.765625 -1.972656 7.234375 -2.171875 C 7.703125 -2.378906 8.0625 -2.601562 8.3125 -2.84375 C 8.570312 -3.082031 8.804688 -3.476562 9.015625 -4.03125 C 9.222656 -4.582031 9.359375 -5.015625 9.421875 -5.328125 C 9.484375 -5.640625 9.585938 -6.164062 9.734375 -6.90625 L 10.78125 -12.796875 Z M 13.03125 -12.796875 "/></g></g><g style="fill:rgb(0%,0%,0%);fill-opacity:1;"><g transform="translate(205.914601, 21.933305)"><path style="stroke:none;" d="M 19.5625 -9.703125 C 19.5625 -9.367188 19.429688 -8.410156 19.171875 -6.828125 L 17.953125 0 L 15.703125 0 L 17.046875 -7.609375 C 17.191406 -8.492188 17.265625 -9.066406 17.265625 -9.328125 C 17.265625 -9.859375 17.101562 -10.257812 16.78125 -10.53125 C 16.46875 -10.800781 15.90625 -10.9375 15.09375 -10.9375 C 14.457031 -10.9375 13.914062 -10.832031 13.46875 -10.625 C 13.019531 -10.414062 12.660156 -10.085938 12.390625 -9.640625 C 12.128906 -9.191406 11.925781 -8.738281 11.78125 -8.28125 C 11.644531 -7.832031 11.515625 -7.25 11.390625 -6.53125 L 10.234375 0 L 7.984375 0 L 9.328125 -7.609375 C 9.472656 -8.460938 9.546875 -9.035156 9.546875 -9.328125 C 9.546875 -9.859375 9.382812 -10.257812 9.0625 -10.53125 C 8.75 -10.800781 8.195312 -10.9375 7.40625 -10.9375 C 6.769531 -10.9375 6.226562 -10.832031 5.78125 -10.625 C 5.332031 -10.414062 4.96875 -10.082031 4.6875 -9.625 C 4.414062 -9.164062 4.207031 -8.710938 4.0625 -8.265625 C 3.925781 -7.816406 3.796875 -7.226562 3.671875 -6.5 L 2.515625 0 L 0.265625 0 L 2.515625 -12.796875 L 4.59375 -12.796875 L 4.390625 -11.578125 C 5.210938 -12.523438 6.445312 -13 8.09375 -13 C 9.851562 -13 10.960938 -12.445312 11.421875 -11.34375 C 12.410156 -12.445312 13.796875 -13 15.578125 -13 C 18.234375 -13 19.5625 -11.898438 19.5625 -9.703125 Z M 19.5625 -9.703125 "/></g></g><g style="fill:rgb(0%,0%,0%);fill-opacity:1;"><g transform="translate(227.090371, 21.933305)"><path style="stroke:none;" d="M 12.609375 -9.671875 C 12.609375 -9.234375 12.484375 -8.273438 12.234375 -6.796875 L 11.046875 0 L 8.796875 0 L 9.96875 -6.609375 C 10.15625 -7.773438 10.25 -8.578125 10.25 -9.015625 C 10.25 -9.671875 10.070312 -10.148438 9.71875 -10.453125 C 9.375 -10.765625 8.734375 -10.921875 7.796875 -10.921875 C 7.148438 -10.921875 6.585938 -10.820312 6.109375 -10.625 C 5.628906 -10.4375 5.253906 -10.21875 4.984375 -9.96875 C 4.722656 -9.71875 4.488281 -9.328125 4.28125 -8.796875 C 4.082031 -8.273438 3.941406 -7.84375 3.859375 -7.5 C 3.785156 -7.15625 3.6875 -6.617188 3.5625 -5.890625 L 2.515625 0 L 0.265625 0 L 2.53125 -12.796875 L 4.578125 -12.796875 L 4.359375 -11.546875 C 5.242188 -12.515625 6.582031 -13 8.375 -13 C 9.769531 -13 10.820312 -12.710938 11.53125 -12.140625 C 12.25 -11.566406 12.609375 -10.742188 12.609375 -9.671875 Z M 12.609375 -9.671875 "/></g></g><g style="fill:rgb(0%,0%,0%);fill-opacity:1;"><g transform="translate(241.339719, 21.933305)"><path style="stroke:none;" d="M 12.296875 -9.96875 C 12.296875 -9.6875 12.269531 -9.382812 12.21875 -9.0625 L 10.125 -9.0625 C 10.125 -9.082031 10.128906 -9.15625 10.140625 -9.28125 C 10.160156 -9.40625 10.171875 -9.519531 10.171875 -9.625 C 10.171875 -9.957031 10.09375 -10.226562 9.9375 -10.4375 C 9.78125 -10.65625 9.546875 -10.804688 9.234375 -10.890625 C 8.929688 -10.984375 8.640625 -11.039062 8.359375 -11.0625 C 8.085938 -11.09375 7.75 -11.109375 7.34375 -11.109375 C 6.800781 -11.109375 6.359375 -11.082031 6.015625 -11.03125 C 5.671875 -10.988281 5.304688 -10.894531 4.921875 -10.75 C 4.546875 -10.613281 4.265625 -10.382812 4.078125 -10.0625 C 3.898438 -9.738281 3.8125 -9.3125 3.8125 -8.78125 C 3.8125 -8.175781 4.054688 -7.804688 4.546875 -7.671875 C 4.773438 -7.597656 5.453125 -7.535156 6.578125 -7.484375 C 7.128906 -7.460938 7.515625 -7.441406 7.734375 -7.421875 C 7.953125 -7.410156 8.296875 -7.375 8.765625 -7.3125 C 9.242188 -7.25 9.585938 -7.160156 9.796875 -7.046875 C 10.015625 -6.929688 10.257812 -6.773438 10.53125 -6.578125 C 10.800781 -6.390625 10.992188 -6.140625 11.109375 -5.828125 C 11.222656 -5.515625 11.28125 -5.148438 11.28125 -4.734375 C 11.28125 -3.160156 10.878906 -1.960938 10.078125 -1.140625 C 9.210938 -0.234375 7.597656 0.21875 5.234375 0.21875 C 1.921875 0.21875 0.265625 -0.78125 0.265625 -2.78125 C 0.265625 -3.1875 0.289062 -3.503906 0.34375 -3.734375 L 2.4375 -3.734375 C 2.394531 -3.554688 2.375 -3.367188 2.375 -3.171875 C 2.375 -2.609375 2.609375 -2.21875 3.078125 -2 C 3.546875 -1.789062 4.289062 -1.6875 5.3125 -1.6875 C 5.863281 -1.6875 6.328125 -1.710938 6.703125 -1.765625 C 7.078125 -1.816406 7.453125 -1.921875 7.828125 -2.078125 C 8.210938 -2.242188 8.5 -2.5 8.6875 -2.84375 C 8.882812 -3.1875 8.984375 -3.628906 8.984375 -4.171875 C 8.984375 -4.367188 8.960938 -4.535156 8.921875 -4.671875 C 8.878906 -4.816406 8.785156 -4.929688 8.640625 -5.015625 C 8.503906 -5.109375 8.378906 -5.179688 8.265625 -5.234375 C 8.160156 -5.285156 7.960938 -5.328125 7.671875 -5.359375 C 7.390625 -5.398438 7.15625 -5.425781 6.96875 -5.4375 C 6.78125 -5.445312 6.46875 -5.457031 6.03125 -5.46875 C 5.46875 -5.488281 5.015625 -5.507812 4.671875 -5.53125 C 4.335938 -5.5625 3.941406 -5.632812 3.484375 -5.75 C 3.023438 -5.863281 2.664062 -6.007812 2.40625 -6.1875 C 2.15625 -6.363281 1.9375 -6.625 1.75 -6.96875 C 1.570312 -7.3125 1.484375 -7.722656 1.484375 -8.203125 C 1.484375 -9.765625 1.914062 -10.96875 2.78125 -11.8125 C 3.582031 -12.601562 5.164062 -13 7.53125 -13 C 10.707031 -13 12.296875 -11.988281 12.296875 -9.96875 Z M 12.296875 -9.96875 "/></g></g><g style="fill:rgb(0%,0%,0%);fill-opacity:1;"><g transform="translate(254.84885, 21.933305)"><path style="stroke:none;" d=""/></g></g><g style="fill:rgb(0%,0%,0%);fill-opacity:1;"><g transform="translate(261.008598, 21.933305)"><path style="stroke:none;" d="M 12.296875 -9.578125 C 12.296875 -9.148438 12.179688 -8.273438 11.953125 -6.953125 L 10.703125 0 L 8.640625 0 L 8.859375 -1.25 C 7.890625 -0.269531 6.460938 0.21875 4.578125 0.21875 C 3.234375 0.21875 2.164062 -0.0390625 1.375 -0.5625 C 0.582031 -1.082031 0.1875 -1.898438 0.1875 -3.015625 C 0.1875 -4.523438 0.609375 -5.707031 1.453125 -6.5625 C 1.984375 -7.082031 2.609375 -7.425781 3.328125 -7.59375 C 4.054688 -7.769531 5.019531 -7.859375 6.21875 -7.859375 L 9.859375 -7.859375 C 10.003906 -8.753906 10.078125 -9.265625 10.078125 -9.390625 C 10.078125 -10.054688 9.867188 -10.492188 9.453125 -10.703125 C 9.035156 -10.921875 8.332031 -11.03125 7.34375 -11.03125 C 6.019531 -11.03125 5.085938 -10.863281 4.546875 -10.53125 C 4.015625 -10.207031 3.6875 -9.738281 3.5625 -9.125 L 1.375 -9.125 C 1.519531 -9.894531 1.78125 -10.546875 2.15625 -11.078125 C 2.53125 -11.617188 3.007812 -12.019531 3.59375 -12.28125 C 4.175781 -12.550781 4.773438 -12.738281 5.390625 -12.84375 C 6.003906 -12.945312 6.71875 -13 7.53125 -13 C 10.707031 -13 12.296875 -11.859375 12.296875 -9.578125 Z M 9.59375 -5.96875 L 6.21875 -5.96875 C 5.789062 -5.96875 5.46875 -5.960938 5.25 -5.953125 C 5.039062 -5.953125 4.71875 -5.90625 4.28125 -5.8125 C 3.851562 -5.726562 3.523438 -5.597656 3.296875 -5.421875 C 3.078125 -5.242188 2.867188 -4.972656 2.671875 -4.609375 C 2.472656 -4.253906 2.375 -3.8125 2.375 -3.28125 C 2.375 -2.78125 2.585938 -2.394531 3.015625 -2.125 C 3.453125 -1.851562 4.078125 -1.71875 4.890625 -1.71875 C 5.773438 -1.71875 6.5 -1.796875 7.0625 -1.953125 C 7.625 -2.109375 8.066406 -2.382812 8.390625 -2.78125 C 8.722656 -3.1875 8.96875 -3.613281 9.125 -4.0625 C 9.28125 -4.507812 9.4375 -5.144531 9.59375 -5.96875 Z M 9.59375 -5.96875 "/></g></g><g style="fill:rgb(0%,0%,0%);fill-opacity:1;"><g transform="translate(274.94071, 21.933305)"><path style="stroke:none;" d="M 14.4375 -18.421875 L 11.1875 0 L 9.0625 0 L 9.3125 -1.40625 C 8.28125 -0.320312 6.867188 0.21875 5.078125 0.21875 C 3.597656 0.21875 2.492188 -0.125 1.765625 -0.8125 C 1.046875 -1.5 0.6875 -2.4375 0.6875 -3.625 C 0.6875 -5.15625 0.894531 -6.710938 1.3125 -8.296875 C 1.738281 -9.890625 2.289062 -11.019531 2.96875 -11.6875 C 3.84375 -12.5625 5.179688 -13 6.984375 -13 C 8.867188 -13 10.207031 -12.5625 11 -11.6875 L 12.1875 -18.421875 Z M 10.234375 -8.515625 C 10.234375 -9.378906 9.988281 -9.988281 9.5 -10.34375 C 9.019531 -10.707031 8.207031 -10.890625 7.0625 -10.890625 C 5.914062 -10.890625 5.078125 -10.625 4.546875 -10.09375 C 4.066406 -9.625 3.6875 -8.757812 3.40625 -7.5 C 3.125 -6.25 2.984375 -5.132812 2.984375 -4.15625 C 2.984375 -2.613281 3.757812 -1.84375 5.3125 -1.84375 C 6.84375 -1.84375 7.953125 -2.1875 8.640625 -2.875 C 9.171875 -3.40625 9.566406 -4.222656 9.828125 -5.328125 C 10.097656 -6.429688 10.234375 -7.492188 10.234375 -8.515625 Z M 10.234375 -8.515625 "/></g></g><g style="fill:rgb(0%,0%,0%);fill-opacity:1;"><g transform="translate(289.665932, 21.933305)"><path style="stroke:none;" d="M 14.4375 -18.421875 L 11.1875 0 L 9.0625 0 L 9.3125 -1.40625 C 8.28125 -0.320312 6.867188 0.21875 5.078125 0.21875 C 3.597656 0.21875 2.492188 -0.125 1.765625 -0.8125 C 1.046875 -1.5 0.6875 -2.4375 0.6875 -3.625 C 0.6875 -5.15625 0.894531 -6.710938 1.3125 -8.296875 C 1.738281 -9.890625 2.289062 -11.019531 2.96875 -11.6875 C 3.84375 -12.5625 5.179688 -13 6.984375 -13 C 8.867188 -13 10.207031 -12.5625 11 -11.6875 L 12.1875 -18.421875 Z M 10.234375 -8.515625 C 10.234375 -9.378906 9.988281 -9.988281 9.5 -10.34375 C 9.019531 -10.707031 8.207031 -10.890625 7.0625 -10.890625 C 5.914062 -10.890625 5.078125 -10.625 4.546875 -10.09375 C 4.066406 -9.625 3.6875 -8.757812 3.40625 -7.5 C 3.125 -6.25 2.984375 -5.132812 2.984375 -4.15625 C 2.984375 -2.613281 3.757812 -1.84375 5.3125 -1.84375 C 6.84375 -1.84375 7.953125 -2.1875 8.640625 -2.875 C 9.171875 -3.40625 9.566406 -4.222656 9.828125 -5.328125 C 10.097656 -6.429688 10.234375 -7.492188 10.234375 -8.515625 Z M 10.234375 -8.515625 "/></g></g><g style="fill:rgb(0%,0%,0%);fill-opacity:1;"><g transform="translate(304.391155, 21.933305)"><path style="stroke:none;" d="M 12.484375 -9.015625 C 12.484375 -7.691406 12.367188 -6.570312 12.140625 -5.65625 L 3.0625 -5.65625 C 2.9375 -4.914062 2.875 -4.378906 2.875 -4.046875 C 2.875 -3.210938 3.101562 -2.617188 3.5625 -2.265625 C 4.019531 -1.921875 4.816406 -1.75 5.953125 -1.75 C 6.410156 -1.75 6.804688 -1.769531 7.140625 -1.8125 C 7.472656 -1.851562 7.816406 -1.9375 8.171875 -2.0625 C 8.523438 -2.1875 8.816406 -2.390625 9.046875 -2.671875 C 9.273438 -2.953125 9.421875 -3.304688 9.484375 -3.734375 L 11.609375 -3.734375 C 11.273438 -1.097656 9.363281 0.21875 5.875 0.21875 C 3.96875 0.21875 2.625 -0.132812 1.84375 -0.84375 C 1.070312 -1.550781 0.6875 -2.617188 0.6875 -4.046875 C 0.6875 -5.265625 0.878906 -6.644531 1.265625 -8.1875 C 1.648438 -9.726562 2.1875 -10.84375 2.875 -11.53125 C 3.863281 -12.507812 5.378906 -13 7.421875 -13 C 9.296875 -13 10.609375 -12.648438 11.359375 -11.953125 C 12.109375 -11.265625 12.484375 -10.285156 12.484375 -9.015625 Z M 10.359375 -8.96875 C 10.359375 -9.71875 10.140625 -10.253906 9.703125 -10.578125 C 9.265625 -10.910156 8.503906 -11.078125 7.421875 -11.078125 C 6.117188 -11.078125 5.179688 -10.796875 4.609375 -10.234375 C 4.035156 -9.679688 3.632812 -8.789062 3.40625 -7.5625 L 10.203125 -7.5625 C 10.304688 -8.195312 10.359375 -8.664062 10.359375 -8.96875 Z M 10.359375 -8.96875 "/></g></g><g style="fill:rgb(0%,0%,0%);fill-opacity:1;"><g transform="translate(318.508321, 21.933305)"><path style="stroke:none;" d="M 14.4375 -18.421875 L 11.1875 0 L 9.0625 0 L 9.3125 -1.40625 C 8.28125 -0.320312 6.867188 0.21875 5.078125 0.21875 C 3.597656 0.21875 2.492188 -0.125 1.765625 -0.8125 C 1.046875 -1.5 0.6875 -2.4375 0.6875 -3.625 C 0.6875 -5.15625 0.894531 -6.710938 1.3125 -8.296875 C 1.738281 -9.890625 2.289062 -11.019531 2.96875 -11.6875 C 3.84375 -12.5625 5.179688 -13 6.984375 -13 C 8.867188 -13 10.207031 -12.5625 11 -11.6875 L 12.1875 -18.421875 Z M 10.234375 -8.515625 C 10.234375 -9.378906 9.988281 -9.988281 9.5 -10.34375 C 9.019531 -10.707031 8.207031 -10.890625 7.0625 -10.890625 C 5.914062 -10.890625 5.078125 -10.625 4.546875 -10.09375 C 4.066406 -9.625 3.6875 -8.757812 3.40625 -7.5 C 3.125 -6.25 2.984375 -5.132812 2.984375 -4.15625 C 2.984375 -2.613281 3.757812 -1.84375 5.3125 -1.84375 C 6.84375 -1.84375 7.953125 -2.1875 8.640625 -2.875 C 9.171875 -3.40625 9.566406 -4.222656 9.828125 -5.328125 C 10.097656 -6.429688 10.234375 -7.492188 10.234375 -8.515625 Z M 10.234375 -8.515625 "/></g></g><g style="fill:rgb(0%,0%,0%);fill-opacity:1;"><g transform="translate(333.233543, 21.933305)"><path style="stroke:none;" d=""/></g></g><g style="fill:rgb(0%,0%,0%);fill-opacity:1;"><g transform="translate(339.393311, 21.933305)"><path style="stroke:none;" d="M 5.625 -16.8125 C 5.625 -16.332031 5.476562 -15.9375 5.1875 -15.625 C 4.90625 -15.320312 4.523438 -15.171875 4.046875 -15.171875 C 3.285156 -15.171875 2.90625 -15.507812 2.90625 -16.1875 C 2.90625 -16.65625 3.050781 -17.039062 3.34375 -17.34375 C 3.632812 -17.65625 4.019531 -17.8125 4.5 -17.8125 C 5.25 -17.8125 5.625 -17.476562 5.625 -16.8125 Z M 4.765625 -12.796875 L 2.515625 0 L 0.265625 0 L 2.515625 -12.796875 Z M 4.765625 -12.796875 "/></g></g><g style="fill:rgb(0%,0%,0%);fill-opacity:1;"><g transform="translate(345.315132, 21.933305)"><path style="stroke:none;" d="M 12.609375 -9.671875 C 12.609375 -9.234375 12.484375 -8.273438 12.234375 -6.796875 L 11.046875 0 L 8.796875 0 L 9.96875 -6.609375 C 10.15625 -7.773438 10.25 -8.578125 10.25 -9.015625 C 10.25 -9.671875 10.070312 -10.148438 9.71875 -10.453125 C 9.375 -10.765625 8.734375 -10.921875 7.796875 -10.921875 C 7.148438 -10.921875 6.585938 -10.820312 6.109375 -10.625 C 5.628906 -10.4375 5.253906 -10.21875 4.984375 -9.96875 C 4.722656 -9.71875 4.488281 -9.328125 4.28125 -8.796875 C 4.082031 -8.273438 3.941406 -7.84375 3.859375 -7.5 C 3.785156 -7.15625 3.6875 -6.617188 3.5625 -5.890625 L 2.515625 0 L 0.265625 0 L 2.53125 -12.796875 L 4.578125 -12.796875 L 4.359375 -11.546875 C 5.242188 -12.515625 6.582031 -13 8.375 -13 C 9.769531 -13 10.820312 -12.710938 11.53125 -12.140625 C 12.25 -11.566406 12.609375 -10.742188 12.609375 -9.671875 Z M 12.609375 -9.671875 "/></g></g><g style="fill:rgb(0%,0%,0%);fill-opacity:1;"><g transform="translate(106.184969, 58.600651)"><path style="stroke:none;" d="M 13.171875 -12.796875 L 3.25 5.046875 L 0.765625 5.046875 L 3.703125 -0.15625 L 1.15625 -12.796875 L 3.484375 -12.796875 L 5.34375 -2.671875 L 10.703125 -12.796875 Z M 13.171875 -12.796875 "/></g></g><g style="fill:rgb(0%,0%,0%);fill-opacity:1;"><g transform="translate(119.059627, 58.600651)"><path style="stroke:none;" d="M 12.921875 -8.75 C 12.921875 -8.0625 12.84375 -7.273438 12.6875 -6.390625 C 12.476562 -5.191406 12.242188 -4.21875 11.984375 -3.46875 C 11.734375 -2.726562 11.359375 -2.054688 10.859375 -1.453125 C 10.367188 -0.859375 9.722656 -0.429688 8.921875 -0.171875 C 8.117188 0.0859375 7.117188 0.21875 5.921875 0.21875 C 4.003906 0.21875 2.648438 -0.117188 1.859375 -0.796875 C 1.078125 -1.484375 0.6875 -2.566406 0.6875 -4.046875 C 0.6875 -4.734375 0.765625 -5.515625 0.921875 -6.390625 C 1.140625 -7.597656 1.375 -8.570312 1.625 -9.3125 C 1.882812 -10.0625 2.257812 -10.734375 2.75 -11.328125 C 3.238281 -11.929688 3.882812 -12.359375 4.6875 -12.609375 C 5.488281 -12.867188 6.488281 -13 7.6875 -13 C 9.613281 -13 10.96875 -12.660156 11.75 -11.984375 C 12.53125 -11.304688 12.921875 -10.226562 12.921875 -8.75 Z M 10.625 -8.671875 C 10.625 -9.503906 10.40625 -10.09375 9.96875 -10.4375 C 9.539062 -10.789062 8.78125 -10.96875 7.6875 -10.96875 C 6.257812 -10.96875 5.238281 -10.671875 4.625 -10.078125 C 3.988281 -9.453125 3.503906 -8.09375 3.171875 -6 C 3.046875 -5.132812 2.984375 -4.507812 2.984375 -4.125 C 2.984375 -3.289062 3.195312 -2.695312 3.625 -2.34375 C 4.0625 -2 4.828125 -1.828125 5.921875 -1.828125 C 7.347656 -1.828125 8.367188 -2.125 8.984375 -2.71875 C 9.617188 -3.332031 10.101562 -4.691406 10.4375 -6.796875 C 10.5625 -7.660156 10.625 -8.285156 10.625 -8.671875 Z M 10.625 -8.671875 "/></g></g><g style="fill:rgb(0%,0%,0%);fill-opacity:1;"><g transform="translate(133.626232, 58.600651)"><path style="stroke:none;" d="M 13.03125 -12.796875 L 10.78125 0 L 8.75 0 L 8.96875 -1.25 C 8.082031 -0.269531 6.757812 0.21875 5 0.21875 C 3.46875 0.21875 2.363281 -0.113281 1.6875 -0.78125 C 1.019531 -1.457031 0.6875 -2.238281 0.6875 -3.125 C 0.6875 -3.5625 0.8125 -4.519531 1.0625 -6 L 2.25 -12.796875 L 4.515625 -12.796875 L 3.328125 -6.1875 C 3.117188 -5.09375 3.015625 -4.28125 3.015625 -3.75 C 3.015625 -3.164062 3.191406 -2.707031 3.546875 -2.375 C 3.910156 -2.039062 4.585938 -1.875 5.578125 -1.875 C 6.210938 -1.875 6.765625 -1.972656 7.234375 -2.171875 C 7.703125 -2.378906 8.0625 -2.601562 8.3125 -2.84375 C 8.570312 -3.082031 8.804688 -3.476562 9.015625 -4.03125 C 9.222656 -4.582031 9.359375 -5.015625 9.421875 -5.328125 C 9.484375 -5.640625 9.585938 -6.164062 9.734375 -6.90625 L 10.78125 -12.796875 Z M 13.03125 -12.796875 "/></g></g><g style="fill:rgb(0%,0%,0%);fill-opacity:1;"><g transform="translate(147.849144, 58.600651)"><path style="stroke:none;" d="M 11.734375 -10.015625 C 11.734375 -9.734375 11.707031 -9.4375 11.65625 -9.125 L 9.484375 -9.125 C 9.523438 -9.28125 9.546875 -9.484375 9.546875 -9.734375 C 9.546875 -10.191406 9.378906 -10.507812 9.046875 -10.6875 C 8.722656 -10.875 8.203125 -10.96875 7.484375 -10.96875 C 6.316406 -10.96875 5.410156 -10.507812 4.765625 -9.59375 C 4.285156 -8.925781 3.90625 -7.832031 3.625 -6.3125 L 2.515625 0 L 0.265625 0 L 2.515625 -12.796875 L 4.578125 -12.796875 L 4.328125 -11.546875 C 5.242188 -12.515625 6.445312 -13 7.9375 -13 C 10.46875 -13 11.734375 -12.003906 11.734375 -10.015625 Z M 11.734375 -10.015625 "/></g></g><g style="fill:rgb(0%,0%,0%);fill-opacity:1;"><g transform="translate(159.772074, 58.600651)"><path style="stroke:none;" d=""/></g></g><g style="fill:rgb(0%,0%,0%);fill-opacity:1;"><g transform="translate(165.931821, 58.600651)"><path style="stroke:none;" d="M 5.765625 -18.421875 L 2.515625 0 L 0.265625 0 L 3.515625 -18.421875 Z M 5.765625 -18.421875 "/></g></g><g style="fill:rgb(0%,0%,0%);fill-opacity:1;"><g transform="translate(171.985824, 58.600651)"><path style="stroke:none;" d="M 5.625 -16.8125 C 5.625 -16.332031 5.476562 -15.9375 5.1875 -15.625 C 4.90625 -15.320312 4.523438 -15.171875 4.046875 -15.171875 C 3.285156 -15.171875 2.90625 -15.507812 2.90625 -16.1875 C 2.90625 -16.65625 3.050781 -17.039062 3.34375 -17.34375 C 3.632812 -17.65625 4.019531 -17.8125 4.5 -17.8125 C 5.25 -17.8125 5.625 -17.476562 5.625 -16.8125 Z M 4.765625 -12.796875 L 2.515625 0 L 0.265625 0 L 2.515625 -12.796875 Z M 4.765625 -12.796875 "/></g></g><g style="fill:rgb(0%,0%,0%);fill-opacity:1;"><g transform="translate(177.907644, 58.600651)"><path style="stroke:none;" d="M 12.296875 -9.96875 C 12.296875 -9.6875 12.269531 -9.382812 12.21875 -9.0625 L 10.125 -9.0625 C 10.125 -9.082031 10.128906 -9.15625 10.140625 -9.28125 C 10.160156 -9.40625 10.171875 -9.519531 10.171875 -9.625 C 10.171875 -9.957031 10.09375 -10.226562 9.9375 -10.4375 C 9.78125 -10.65625 9.546875 -10.804688 9.234375 -10.890625 C 8.929688 -10.984375 8.640625 -11.039062 8.359375 -11.0625 C 8.085938 -11.09375 7.75 -11.109375 7.34375 -11.109375 C 6.800781 -11.109375 6.359375 -11.082031 6.015625 -11.03125 C 5.671875 -10.988281 5.304688 -10.894531 4.921875 -10.75 C 4.546875 -10.613281 4.265625 -10.382812 4.078125 -10.0625 C 3.898438 -9.738281 3.8125 -9.3125 3.8125 -8.78125 C 3.8125 -8.175781 4.054688 -7.804688 4.546875 -7.671875 C 4.773438 -7.597656 5.453125 -7.535156 6.578125 -7.484375 C 7.128906 -7.460938 7.515625 -7.441406 7.734375 -7.421875 C 7.953125 -7.410156 8.296875 -7.375 8.765625 -7.3125 C 9.242188 -7.25 9.585938 -7.160156 9.796875 -7.046875 C 10.015625 -6.929688 10.257812 -6.773438 10.53125 -6.578125 C 10.800781 -6.390625 10.992188 -6.140625 11.109375 -5.828125 C 11.222656 -5.515625 11.28125 -5.148438 11.28125 -4.734375 C 11.28125 -3.160156 10.878906 -1.960938 10.078125 -1.140625 C 9.210938 -0.234375 7.597656 0.21875 5.234375 0.21875 C 1.921875 0.21875 0.265625 -0.78125 0.265625 -2.78125 C 0.265625 -3.1875 0.289062 -3.503906 0.34375 -3.734375 L 2.4375 -3.734375 C 2.394531 -3.554688 2.375 -3.367188 2.375 -3.171875 C 2.375 -2.609375 2.609375 -2.21875 3.078125 -2 C 3.546875 -1.789062 4.289062 -1.6875 5.3125 -1.6875 C 5.863281 -1.6875 6.328125 -1.710938 6.703125 -1.765625 C 7.078125 -1.816406 7.453125 -1.921875 7.828125 -2.078125 C 8.210938 -2.242188 8.5 -2.5 8.6875 -2.84375 C 8.882812 -3.1875 8.984375 -3.628906 8.984375 -4.171875 C 8.984375 -4.367188 8.960938 -4.535156 8.921875 -4.671875 C 8.878906 -4.816406 8.785156 -4.929688 8.640625 -5.015625 C 8.503906 -5.109375 8.378906 -5.179688 8.265625 -5.234375 C 8.160156 -5.285156 7.960938 -5.328125 7.671875 -5.359375 C 7.390625 -5.398438 7.15625 -5.425781 6.96875 -5.4375 C 6.78125 -5.445312 6.46875 -5.457031 6.03125 -5.46875 C 5.46875 -5.488281 5.015625 -5.507812 4.671875 -5.53125 C 4.335938 -5.5625 3.941406 -5.632812 3.484375 -5.75 C 3.023438 -5.863281 2.664062 -6.007812 2.40625 -6.1875 C 2.15625 -6.363281 1.9375 -6.625 1.75 -6.96875 C 1.570312 -7.3125 1.484375 -7.722656 1.484375 -8.203125 C 1.484375 -9.765625 1.914062 -10.96875 2.78125 -11.8125 C 3.582031 -12.601562 5.164062 -13 7.53125 -13 C 10.707031 -13 12.296875 -11.988281 12.296875 -9.96875 Z M 12.296875 -9.96875 "/></g></g><g style="fill:rgb(0%,0%,0%);fill-opacity:1;"><g transform="translate(191.416775, 58.600651)"><path style="stroke:none;" d="M 11.203125 -12.796875 L 10.859375 -10.859375 L 5.203125 -10.859375 L 4.046875 -4.28125 C 3.953125 -3.894531 3.90625 -3.550781 3.90625 -3.25 C 3.90625 -2.707031 4.0625 -2.316406 4.375 -2.078125 C 4.695312 -1.835938 5.222656 -1.71875 5.953125 -1.71875 C 6.765625 -1.71875 7.367188 -1.867188 7.765625 -2.171875 C 8.171875 -2.484375 8.4375 -3.003906 8.5625 -3.734375 L 10.65625 -3.734375 C 10.40625 -2.316406 9.875 -1.300781 9.0625 -0.6875 C 8.257812 -0.0820312 7.175781 0.21875 5.8125 0.21875 C 4.507812 0.21875 3.488281 -0.0351562 2.75 -0.546875 C 2.007812 -1.066406 1.640625 -1.835938 1.640625 -2.859375 C 1.640625 -3.140625 1.664062 -3.445312 1.71875 -3.78125 L 2.96875 -10.859375 L 0.84375 -10.859375 L 1.1875 -12.796875 L 3.3125 -12.796875 L 4.171875 -17.640625 L 6.421875 -17.640625 L 5.546875 -12.796875 Z M 11.203125 -12.796875 "/></g></g><g style="fill:rgb(0%,0%,0%);fill-opacity:1;"><g transform="translate(203.551196, 58.600651)"><path style="stroke:none;" d=""/></g></g><g style="fill:rgb(0%,0%,0%);fill-opacity:1;"><g transform="translate(209.710944, 58.600651)"><path style="stroke:none;" d="M 13.171875 -12.796875 L 3.25 5.046875 L 0.765625 5.046875 L 3.703125 -0.15625 L 1.15625 -12.796875 L 3.484375 -12.796875 L 5.34375 -2.671875 L 10.703125 -12.796875 Z M 13.171875 -12.796875 "/></g></g><g style="fill:rgb(0%,0%,0%);fill-opacity:1;"><g transform="translate(222.585602, 58.600651)"><path style="stroke:none;" d="M 12.484375 -9.015625 C 12.484375 -7.691406 12.367188 -6.570312 12.140625 -5.65625 L 3.0625 -5.65625 C 2.9375 -4.914062 2.875 -4.378906 2.875 -4.046875 C 2.875 -3.210938 3.101562 -2.617188 3.5625 -2.265625 C 4.019531 -1.921875 4.816406 -1.75 5.953125 -1.75 C 6.410156 -1.75 6.804688 -1.769531 7.140625 -1.8125 C 7.472656 -1.851562 7.816406 -1.9375 8.171875 -2.0625 C 8.523438 -2.1875 8.816406 -2.390625 9.046875 -2.671875 C 9.273438 -2.953125 9.421875 -3.304688 9.484375 -3.734375 L 11.609375 -3.734375 C 11.273438 -1.097656 9.363281 0.21875 5.875 0.21875 C 3.96875 0.21875 2.625 -0.132812 1.84375 -0.84375 C 1.070312 -1.550781 0.6875 -2.617188 0.6875 -4.046875 C 0.6875 -5.265625 0.878906 -6.644531 1.265625 -8.1875 C 1.648438 -9.726562 2.1875 -10.84375 2.875 -11.53125 C 3.863281 -12.507812 5.378906 -13 7.421875 -13 C 9.296875 -13 10.609375 -12.648438 11.359375 -11.953125 C 12.109375 -11.265625 12.484375 -10.285156 12.484375 -9.015625 Z M 10.359375 -8.96875 C 10.359375 -9.71875 10.140625 -10.253906 9.703125 -10.578125 C 9.265625 -10.910156 8.503906 -11.078125 7.421875 -11.078125 C 6.117188 -11.078125 5.179688 -10.796875 4.609375 -10.234375 C 4.035156 -9.679688 3.632812 -8.789062 3.40625 -7.5625 L 10.203125 -7.5625 C 10.304688 -8.195312 10.359375 -8.664062 10.359375 -8.96875 Z M 10.359375 -8.96875 "/></g></g><g style="fill:rgb(0%,0%,0%);fill-opacity:1;"><g transform="translate(236.702769, 58.600651)"><path style="stroke:none;" d="M 11.203125 -12.796875 L 10.859375 -10.859375 L 5.203125 -10.859375 L 4.046875 -4.28125 C 3.953125 -3.894531 3.90625 -3.550781 3.90625 -3.25 C 3.90625 -2.707031 4.0625 -2.316406 4.375 -2.078125 C 4.695312 -1.835938 5.222656 -1.71875 5.953125 -1.71875 C 6.765625 -1.71875 7.367188 -1.867188 7.765625 -2.171875 C 8.171875 -2.484375 8.4375 -3.003906 8.5625 -3.734375 L 10.65625 -3.734375 C 10.40625 -2.316406 9.875 -1.300781 9.0625 -0.6875 C 8.257812 -0.0820312 7.175781 0.21875 5.8125 0.21875 C 4.507812 0.21875 3.488281 -0.0351562 2.75 -0.546875 C 2.007812 -1.066406 1.640625 -1.835938 1.640625 -2.859375 C 1.640625 -3.140625 1.664062 -3.445312 1.71875 -3.78125 L 2.96875 -10.859375 L 0.84375 -10.859375 L 1.1875 -12.796875 L 3.3125 -12.796875 L 4.171875 -17.640625 L 6.421875 -17.640625 L 5.546875 -12.796875 Z M 11.203125 -12.796875 "/></g></g><g style="fill:rgb(0%,0%,0%);fill-opacity:1;"><g transform="translate(248.83719, 58.600651)"><path style="stroke:none;" d="M 3.125 -1.6875 C 3.125 -1.144531 2.96875 -0.691406 2.65625 -0.328125 C 2.34375 0.0351562 1.914062 0.21875 1.375 0.21875 C 0.5625 0.21875 0.15625 -0.144531 0.15625 -0.875 C 0.15625 -1.414062 0.304688 -1.851562 0.609375 -2.1875 C 0.910156 -2.53125 1.332031 -2.703125 1.875 -2.703125 C 2.707031 -2.703125 3.125 -2.363281 3.125 -1.6875 Z M 3.125 -1.6875 "/></g></g></g><mask xml:id="mask1" id="mask1"><g filter="url(#alpha)"><rect x="0" width="375" y="0" height="337.499995" style="fill:rgb(0%,0%,0%);fill-opacity:0.2588;stroke:none;"/></g></mask></g></g></svg>