<?xml version="1.0" encoding="UTF-8"?><svg xmlns="http://www.w3.org/2000/svg" xmlns:xlink="http://www.w3.org/1999/xlink" width="375pt" zoomAndPan="magnify" viewBox="0 0 375 262.499992" height="262.499992pt" preserveAspectRatio="xMidYMid meet" version="1.2"><defs><g/><filter x="0%" y="0%" width="100%" xmlns:xlink="http://www.w3.org/1999/xlink" xlink:type="simple" filterUnits="objectBoundingBox" xlink:actuate="onLoad" id="alpha" height="100%" xlink:show="other" xml:id="alpha"><feColorMatrix values="0 0 0 0 1 0 0 0 0 1 0 0 0 0 1 0 0 0 1 0" type="matrix" in="SourceGraphic"/></filter><clipPath xml:id="clip2" id="clip2"><path d="M 0.8125 66 L 188 66 L 188 146.875 L 0.8125 146.875 Z M 0.8125 66 "/></clipPath><clipPath xml:id="clip3" id="clip3"><path d="M 0.8125 0.15625 L 201.375 0.15625 L 201.375 146.875 L 0.8125 146.875 Z M 0.8125 0.15625 "/></clipPath><clipPath xml:id="clip1" id="clip1"><rect x="0" width="202" y="0" height="148"/></clipPath><clipPath xml:id="clip4" id="clip4"><rect x="0" width="368" y="0" height="66"/></clipPath></defs><g xml:id="surface1" id="surface1"><g mask="url(#mask0)" transform="matrix(1,0,0,1,87,0)"><g xml:id="surface5" id="surface5" clip-path="url(#clip1)"><g clip-rule="nonzero" clip-path="url(#clip2)"><path style="fill:none;stroke-width:2;stroke-linecap:butt;stroke-linejoin:miter;stroke:rgb(0%,0%,0%);stroke-opacity:1;stroke-miterlimit:10;" d="M 20.999968 17.999977 L 20.999968 2.999963 L 11.000098 2.999963 L 11.000098 28.999908 L 18.999994 28.999908 " transform="matrix(0.000000000000000408,-6.666103,6.685411,0.000000000000000409,-12.559894,213.503564)"/></g><g clip-rule="nonzero" clip-path="url(#clip3)"><path style="fill:none;stroke-width:2;stroke-linecap:butt;stroke-linejoin:miter;stroke:rgb(0%,0%,0%);stroke-opacity:1;stroke-miterlimit:10;" d="M 30.999837 24.000099 C 30.999837 24.229142 30.988704 24.458186 30.966436 24.686061 C 30.943583 24.91452 30.910181 25.140642 30.865646 25.365596 C 30.820525 25.590549 30.764856 25.812581 30.69864 26.032276 C 30.631837 26.251386 30.555073 26.466991 30.467175 26.678506 C 30.379277 26.890605 30.281417 27.097445 30.173595 27.299611 C 30.065188 27.501777 29.947404 27.6981 29.820245 27.889164 C 29.693086 28.079644 29.556551 28.263697 29.411226 28.440738 C 29.265901 28.61778 29.111787 28.787809 28.949468 28.949659 C 28.787736 29.112093 28.6178 29.265763 28.440832 29.411252 C 28.263278 29.556741 28.079864 29.692882 27.888832 29.820258 C 27.698386 29.947634 27.50208 30.065662 27.299915 30.173172 C 27.097749 30.281267 26.89031 30.379428 26.678769 30.467072 C 26.467227 30.554717 26.251584 30.631844 26.031839 30.698453 C 25.81268 30.765063 25.590591 30.820571 25.365571 30.865561 C 25.140552 30.909968 24.914361 30.943857 24.685826 30.96606 C 24.457877 30.988848 24.229343 30.999949 24.000222 30.999949 C 23.770515 30.999949 23.54198 30.988848 23.314031 30.96606 C 23.085496 30.943857 22.859305 30.909968 22.634286 30.865561 C 22.409267 30.820571 22.187178 30.765063 21.968018 30.698453 C 21.748859 30.631844 21.533216 30.554717 21.321089 30.467072 C 21.109547 30.379428 20.902694 30.281267 20.699942 30.173172 C 20.497777 30.065662 20.301471 29.947634 20.111025 29.820258 C 19.92058 29.692882 19.73658 29.556741 19.559025 29.411252 C 19.382057 29.265763 19.212121 29.112093 19.050389 28.949659 C 18.88807 28.787809 18.734542 28.61778 18.589217 28.440738 C 18.443306 28.263697 18.307357 28.079644 18.179612 27.889164 C 18.052453 27.6981 17.934669 27.501777 17.826262 27.299611 C 17.71844 27.097445 17.62058 26.890605 17.532682 26.678506 C 17.44537 26.466991 17.36802 26.251386 17.301217 26.032276 C 17.235001 25.812581 17.179332 25.590549 17.134211 25.365596 C 17.089676 25.140642 17.056275 24.91452 17.033421 24.686061 C 17.011154 24.458186 17.00002 24.229142 17.00002 24.000099 C 17.00002 23.770471 17.011154 23.542012 17.033421 23.314137 C 17.056275 23.085678 17.089676 22.858971 17.134211 22.634602 C 17.179332 22.409649 17.235001 22.187617 17.301217 21.967922 C 17.36802 21.748811 17.44537 21.533207 17.532682 21.321108 C 17.62058 21.109593 17.71844 20.902168 17.826262 20.700002 C 17.934669 20.497836 18.052453 20.301513 18.179612 20.111033 C 18.307357 19.920553 18.443306 19.7365 18.589217 19.559459 C 18.734542 19.381834 18.88807 19.212388 19.050389 19.050539 C 19.212121 18.888105 19.382057 18.734435 19.559025 18.588946 C 19.73658 18.443456 19.92058 18.307316 20.111025 18.179939 C 20.301471 18.052563 20.497777 17.934536 20.699942 17.826441 C 20.902694 17.718347 21.109547 17.620769 21.321089 17.533125 C 21.533216 17.444897 21.748859 17.36777 21.968018 17.30116 C 22.187178 17.235135 22.409267 17.179043 22.634286 17.134636 C 22.859305 17.089646 23.085496 17.056341 23.314031 17.033553 C 23.54198 17.01135 23.770515 17.000248 24.000222 17.000248 C 24.229343 17.000248 24.457877 17.01135 24.685826 17.033553 C 24.914361 17.056341 25.140552 17.089646 25.365571 17.134636 C 25.590591 17.179043 25.81268 17.235135 26.031839 17.30116 C 26.251584 17.36777 26.467227 17.444897 26.678769 17.533125 C 26.89031 17.620769 27.097749 17.718347 27.299915 17.826441 C 27.50208 17.934536 27.698386 18.052563 27.888832 18.179939 C 28.079864 18.307316 28.263278 18.443456 28.440832 18.588946 C 28.6178 18.734435 28.787736 18.888105 28.949468 19.050539 C 29.111787 19.212388 29.265901 19.381834 29.411226 19.559459 C 29.556551 19.7365 29.693086 19.920553 29.820245 20.111033 C 29.947404 20.301513 30.065188 20.497836 30.173595 20.700002 C 30.281417 20.902168 30.379277 21.109593 30.467175 21.321108 C 30.555073 21.533207 30.631837 21.748811 30.69864 21.967922 C 30.764856 22.187617 30.820525 22.409649 30.865646 22.634602 C 30.910181 22.858971 30.943583 23.085678 30.966436 23.314137 C 30.988704 23.542012 30.999837 23.770471 30.999837 24.000099 Z M 30.999837 24.000099 " transform="matrix(0.000000000000000408,-6.666103,6.685411,0.000000000000000409,-12.559894,213.503564)"/></g><path style="fill:none;stroke-width:2;stroke-linecap:butt;stroke-linejoin:miter;stroke:rgb(0%,0%,0%);stroke-opacity:1;stroke-miterlimit:10;" d="M 24.000222 28.00018 L 24.000222 20.000017 " transform="matrix(0.000000000000000408,-6.666103,6.685411,0.000000000000000409,-12.559894,213.503564)"/><path style="fill:none;stroke-width:2;stroke-linecap:butt;stroke-linejoin:miter;stroke:rgb(0%,0%,0%);stroke-opacity:1;stroke-miterlimit:10;" d="M 20.000274 24.000099 L 28.000169 24.000099 " transform="matrix(0.000000000000000408,-6.666103,6.685411,0.000000000000000409,-12.559894,213.503564)"/></g><mask xml:id="mask0" id="mask0"><g filter="url(#alpha)"><rect x="0" width="375" y="0" height="262.499992" style="fill:rgb(0%,0%,0%);fill-opacity:0.1098;stroke:none;"/></g></mask></g><g mask="url(#mask1)" transform="matrix(1,0,0,1,4,177)"><g xml:id="surface8" id="surface8" clip-path="url(#clip4)"><g style="fill:rgb(0%,0%,0%);fill-opacity:1;"><g transform="translate(1.818957, 22.138935)"><path style="stroke:none;" d="M 16.46875 -14.515625 C 16.46875 -14.171875 16.421875 -13.742188 16.328125 -13.234375 L 14 -13.234375 C 14.050781 -13.535156 14.078125 -13.804688 14.078125 -14.046875 C 14.078125 -14.921875 13.769531 -15.484375 13.15625 -15.734375 C 12.550781 -15.984375 11.515625 -16.109375 10.046875 -16.109375 C 7.828125 -16.109375 6.367188 -15.753906 5.671875 -15.046875 C 5.023438 -14.359375 4.703125 -13.375 4.703125 -12.09375 C 4.703125 -11.84375 4.734375 -11.625 4.796875 -11.4375 C 4.859375 -11.257812 4.960938 -11.109375 5.109375 -10.984375 C 5.253906 -10.867188 5.382812 -10.769531 5.5 -10.6875 C 5.613281 -10.601562 5.796875 -10.546875 6.046875 -10.515625 C 6.304688 -10.484375 6.5 -10.460938 6.625 -10.453125 C 6.75 -10.441406 6.960938 -10.425781 7.265625 -10.40625 C 7.566406 -10.382812 7.765625 -10.375 7.859375 -10.375 C 8.035156 -10.375 8.304688 -10.375 8.671875 -10.375 C 9.046875 -10.375 9.328125 -10.367188 9.515625 -10.359375 C 10.148438 -10.335938 10.640625 -10.3125 10.984375 -10.28125 C 11.328125 -10.257812 11.757812 -10.210938 12.28125 -10.140625 C 12.800781 -10.066406 13.207031 -9.957031 13.5 -9.8125 C 13.789062 -9.664062 14.085938 -9.46875 14.390625 -9.21875 C 14.703125 -8.976562 14.925781 -8.65625 15.0625 -8.25 C 15.195312 -7.851562 15.265625 -7.382812 15.265625 -6.84375 C 15.265625 -5.851562 15.109375 -4.867188 14.796875 -3.890625 C 14.492188 -2.910156 14.035156 -2.113281 13.421875 -1.5 C 12.285156 -0.351562 10.222656 0.21875 7.234375 0.21875 C 5.128906 0.21875 3.535156 -0.0664062 2.453125 -0.640625 C 1.378906 -1.210938 0.84375 -2.1875 0.84375 -3.5625 C 0.84375 -3.863281 0.878906 -4.304688 0.953125 -4.890625 L 3.34375 -4.890625 C 3.289062 -4.640625 3.265625 -4.34375 3.265625 -4 C 3.265625 -3.164062 3.578125 -2.617188 4.203125 -2.359375 C 4.835938 -2.109375 5.875 -1.984375 7.3125 -1.984375 C 9.539062 -1.984375 11.015625 -2.34375 11.734375 -3.0625 C 12.460938 -3.789062 12.828125 -4.851562 12.828125 -6.25 C 12.828125 -6.46875 12.804688 -6.65625 12.765625 -6.8125 C 12.734375 -6.976562 12.664062 -7.125 12.5625 -7.25 C 12.46875 -7.375 12.382812 -7.484375 12.3125 -7.578125 C 12.238281 -7.671875 12.101562 -7.742188 11.90625 -7.796875 C 11.71875 -7.847656 11.578125 -7.890625 11.484375 -7.921875 C 11.398438 -7.960938 11.226562 -7.992188 10.96875 -8.015625 C 10.71875 -8.035156 10.550781 -8.046875 10.46875 -8.046875 C 10.394531 -8.054688 10.203125 -8.066406 9.890625 -8.078125 C 9.578125 -8.085938 9.382812 -8.09375 9.3125 -8.09375 C 9.132812 -8.09375 8.867188 -8.09375 8.515625 -8.09375 C 8.160156 -8.09375 7.894531 -8.101562 7.71875 -8.125 C 7.050781 -8.144531 6.503906 -8.175781 6.078125 -8.21875 C 5.648438 -8.257812 5.164062 -8.351562 4.625 -8.5 C 4.09375 -8.644531 3.671875 -8.832031 3.359375 -9.0625 C 3.054688 -9.300781 2.796875 -9.632812 2.578125 -10.0625 C 2.359375 -10.488281 2.25 -11.003906 2.25 -11.609375 C 2.25 -12.523438 2.390625 -13.445312 2.671875 -14.375 C 2.953125 -15.300781 3.375 -16.046875 3.9375 -16.609375 C 5.0625 -17.742188 7.132812 -18.3125 10.15625 -18.3125 C 12.257812 -18.3125 13.835938 -18.023438 14.890625 -17.453125 C 15.941406 -16.890625 16.46875 -15.910156 16.46875 -14.515625 Z M 16.46875 -14.515625 "/></g></g><g style="fill:rgb(0%,0%,0%);fill-opacity:1;"><g transform="translate(19.291619, 22.138935)"><path style="stroke:none;" d="M 12.828125 -9.265625 C 12.828125 -7.910156 12.707031 -6.757812 12.46875 -5.8125 L 3.15625 -5.8125 C 3.03125 -5.050781 2.96875 -4.5 2.96875 -4.15625 C 2.96875 -3.300781 3.203125 -2.691406 3.671875 -2.328125 C 4.140625 -1.972656 4.953125 -1.796875 6.109375 -1.796875 C 6.578125 -1.796875 6.984375 -1.816406 7.328125 -1.859375 C 7.679688 -1.898438 8.035156 -1.984375 8.390625 -2.109375 C 8.753906 -2.242188 9.050781 -2.453125 9.28125 -2.734375 C 9.519531 -3.023438 9.675781 -3.390625 9.75 -3.828125 L 11.921875 -3.828125 C 11.578125 -1.128906 9.613281 0.21875 6.03125 0.21875 C 4.070312 0.21875 2.691406 -0.140625 1.890625 -0.859375 C 1.097656 -1.585938 0.703125 -2.6875 0.703125 -4.15625 C 0.703125 -5.40625 0.898438 -6.820312 1.296875 -8.40625 C 1.703125 -9.988281 2.257812 -11.132812 2.96875 -11.84375 C 3.976562 -12.863281 5.535156 -13.375 7.640625 -13.375 C 9.554688 -13.375 10.898438 -13.015625 11.671875 -12.296875 C 12.441406 -11.578125 12.828125 -10.566406 12.828125 -9.265625 Z M 10.65625 -9.21875 C 10.65625 -9.988281 10.425781 -10.539062 9.96875 -10.875 C 9.519531 -11.21875 8.742188 -11.390625 7.640625 -11.390625 C 6.296875 -11.390625 5.328125 -11.101562 4.734375 -10.53125 C 4.148438 -9.957031 3.738281 -9.035156 3.5 -7.765625 L 10.484375 -7.765625 C 10.597656 -8.421875 10.65625 -8.90625 10.65625 -9.21875 Z M 10.65625 -9.21875 "/></g></g><g style="fill:rgb(0%,0%,0%);fill-opacity:1;"><g transform="translate(33.802346, 22.138935)"><path style="stroke:none;" d="M 5.921875 -18.9375 L 2.578125 0 L 0.265625 0 L 3.609375 -18.9375 Z M 5.921875 -18.9375 "/></g></g><g style="fill:rgb(0%,0%,0%);fill-opacity:1;"><g transform="translate(40.025122, 22.138935)"><path style="stroke:none;" d="M 12.828125 -9.265625 C 12.828125 -7.910156 12.707031 -6.757812 12.46875 -5.8125 L 3.15625 -5.8125 C 3.03125 -5.050781 2.96875 -4.5 2.96875 -4.15625 C 2.96875 -3.300781 3.203125 -2.691406 3.671875 -2.328125 C 4.140625 -1.972656 4.953125 -1.796875 6.109375 -1.796875 C 6.578125 -1.796875 6.984375 -1.816406 7.328125 -1.859375 C 7.679688 -1.898438 8.035156 -1.984375 8.390625 -2.109375 C 8.753906 -2.242188 9.050781 -2.453125 9.28125 -2.734375 C 9.519531 -3.023438 9.675781 -3.390625 9.75 -3.828125 L 11.921875 -3.828125 C 11.578125 -1.128906 9.613281 0.21875 6.03125 0.21875 C 4.070312 0.21875 2.691406 -0.140625 1.890625 -0.859375 C 1.097656 -1.585938 0.703125 -2.6875 0.703125 -4.15625 C 0.703125 -5.40625 0.898438 -6.820312 1.296875 -8.40625 C 1.703125 -9.988281 2.257812 -11.132812 2.96875 -11.84375 C 3.976562 -12.863281 5.535156 -13.375 7.640625 -13.375 C 9.554688 -13.375 10.898438 -13.015625 11.671875 -12.296875 C 12.441406 -11.578125 12.828125 -10.566406 12.828125 -9.265625 Z M 10.65625 -9.21875 C 10.65625 -9.988281 10.425781 -10.539062 9.96875 -10.875 C 9.519531 -11.21875 8.742188 -11.390625 7.640625 -11.390625 C 6.296875 -11.390625 5.328125 -11.101562 4.734375 -10.53125 C 4.148438 -9.957031 3.738281 -9.035156 3.5 -7.765625 L 10.484375 -7.765625 C 10.597656 -8.421875 10.65625 -8.90625 10.65625 -9.21875 Z M 10.65625 -9.21875 "/></g></g><g style="fill:rgb(0%,0%,0%);fill-opacity:1;"><g transform="translate(54.535849, 22.138935)"><path style="stroke:none;" d="M 12.875 -10.140625 C 12.875 -9.898438 12.847656 -9.625 12.796875 -9.3125 L 10.625 -9.3125 C 10.644531 -9.40625 10.65625 -9.5625 10.65625 -9.78125 C 10.65625 -10.21875 10.488281 -10.550781 10.15625 -10.78125 C 9.832031 -11.019531 9.488281 -11.160156 9.125 -11.203125 C 8.769531 -11.253906 8.316406 -11.28125 7.765625 -11.28125 C 6.367188 -11.28125 5.359375 -10.960938 4.734375 -10.328125 C 4.203125 -9.796875 3.789062 -8.894531 3.5 -7.625 C 3.21875 -6.363281 3.078125 -5.226562 3.078125 -4.21875 C 3.078125 -3.382812 3.300781 -2.785156 3.75 -2.421875 C 4.195312 -2.054688 4.984375 -1.875 6.109375 -1.875 C 6.546875 -1.875 6.925781 -1.890625 7.25 -1.921875 C 7.582031 -1.960938 7.929688 -2.046875 8.296875 -2.171875 C 8.671875 -2.296875 8.972656 -2.5 9.203125 -2.78125 C 9.441406 -3.0625 9.597656 -3.410156 9.671875 -3.828125 L 11.875 -3.828125 C 11.550781 -1.128906 9.59375 0.21875 6 0.21875 C 4.082031 0.21875 2.71875 -0.132812 1.90625 -0.84375 C 1.101562 -1.550781 0.703125 -2.65625 0.703125 -4.15625 C 0.703125 -5.445312 0.898438 -6.859375 1.296875 -8.390625 C 1.703125 -9.929688 2.257812 -11.066406 2.96875 -11.796875 C 3.957031 -12.847656 5.53125 -13.375 7.6875 -13.375 C 11.144531 -13.375 12.875 -12.296875 12.875 -10.140625 Z M 12.875 -10.140625 "/></g></g><g style="fill:rgb(0%,0%,0%);fill-opacity:1;"><g transform="translate(68.693322, 22.138935)"><path style="stroke:none;" d="M 11.515625 -13.15625 L 11.171875 -11.171875 L 5.359375 -11.171875 L 4.15625 -4.40625 C 4.0625 -4 4.015625 -3.644531 4.015625 -3.34375 C 4.015625 -2.78125 4.175781 -2.375 4.5 -2.125 C 4.832031 -1.882812 5.367188 -1.765625 6.109375 -1.765625 C 6.941406 -1.765625 7.566406 -1.921875 7.984375 -2.234375 C 8.398438 -2.554688 8.671875 -3.085938 8.796875 -3.828125 L 10.953125 -3.828125 C 10.691406 -2.378906 10.144531 -1.34375 9.3125 -0.71875 C 8.476562 -0.09375 7.367188 0.21875 5.984375 0.21875 C 4.640625 0.21875 3.585938 -0.0390625 2.828125 -0.5625 C 2.066406 -1.09375 1.6875 -1.882812 1.6875 -2.9375 C 1.6875 -3.226562 1.710938 -3.546875 1.765625 -3.890625 L 3.046875 -11.171875 L 0.875 -11.171875 L 1.21875 -13.15625 L 3.390625 -13.15625 L 4.296875 -18.125 L 6.609375 -18.125 L 5.703125 -13.15625 Z M 11.515625 -13.15625 "/></g></g><g style="fill:rgb(0%,0%,0%);fill-opacity:1;"><g transform="translate(81.166028, 22.138935)"><path style="stroke:none;" d=""/></g></g><g style="fill:rgb(0%,0%,0%);fill-opacity:1;"><g transform="translate(87.497497, 22.138935)"><path style="stroke:none;" d="M 11.515625 -13.15625 L 11.171875 -11.171875 L 5.359375 -11.171875 L 4.15625 -4.40625 C 4.0625 -4 4.015625 -3.644531 4.015625 -3.34375 C 4.015625 -2.78125 4.175781 -2.375 4.5 -2.125 C 4.832031 -1.882812 5.367188 -1.765625 6.109375 -1.765625 C 6.941406 -1.765625 7.566406 -1.921875 7.984375 -2.234375 C 8.398438 -2.554688 8.671875 -3.085938 8.796875 -3.828125 L 10.953125 -3.828125 C 10.691406 -2.378906 10.144531 -1.34375 9.3125 -0.71875 C 8.476562 -0.09375 7.367188 0.21875 5.984375 0.21875 C 4.640625 0.21875 3.585938 -0.0390625 2.828125 -0.5625 C 2.066406 -1.09375 1.6875 -1.882812 1.6875 -2.9375 C 1.6875 -3.226562 1.710938 -3.546875 1.765625 -3.890625 L 3.046875 -11.171875 L 0.875 -11.171875 L 1.21875 -13.15625 L 3.390625 -13.15625 L 4.296875 -18.125 L 6.609375 -18.125 L 5.703125 -13.15625 Z M 11.515625 -13.15625 "/></g></g><g style="fill:rgb(0%,0%,0%);fill-opacity:1;"><g transform="translate(99.970203, 22.138935)"><path style="stroke:none;" d="M 12.96875 -9.9375 C 12.96875 -9.488281 12.835938 -8.503906 12.578125 -6.984375 L 11.359375 0 L 9.046875 0 L 10.25 -6.796875 C 10.445312 -7.992188 10.546875 -8.816406 10.546875 -9.265625 C 10.546875 -9.929688 10.363281 -10.421875 10 -10.734375 C 9.632812 -11.054688 8.972656 -11.21875 8.015625 -11.21875 C 7.347656 -11.21875 6.769531 -11.117188 6.28125 -10.921875 C 5.789062 -10.722656 5.410156 -10.492188 5.140625 -10.234375 C 4.867188 -9.984375 4.628906 -9.585938 4.421875 -9.046875 C 4.210938 -8.503906 4.066406 -8.054688 3.984375 -7.703125 C 3.898438 -7.347656 3.796875 -6.800781 3.671875 -6.0625 L 2.578125 0 L 0.265625 0 L 3.609375 -18.9375 L 5.921875 -18.9375 L 4.703125 -11.984375 C 5.660156 -12.910156 6.960938 -13.375 8.609375 -13.375 C 10.046875 -13.375 11.128906 -13.078125 11.859375 -12.484375 C 12.597656 -11.898438 12.96875 -11.050781 12.96875 -9.9375 Z M 12.96875 -9.9375 "/></g></g><g style="fill:rgb(0%,0%,0%);fill-opacity:1;"><g transform="translate(114.616796, 22.138935)"><path style="stroke:none;" d="M 12.828125 -9.265625 C 12.828125 -7.910156 12.707031 -6.757812 12.46875 -5.8125 L 3.15625 -5.8125 C 3.03125 -5.050781 2.96875 -4.5 2.96875 -4.15625 C 2.96875 -3.300781 3.203125 -2.691406 3.671875 -2.328125 C 4.140625 -1.972656 4.953125 -1.796875 6.109375 -1.796875 C 6.578125 -1.796875 6.984375 -1.816406 7.328125 -1.859375 C 7.679688 -1.898438 8.035156 -1.984375 8.390625 -2.109375 C 8.753906 -2.242188 9.050781 -2.453125 9.28125 -2.734375 C 9.519531 -3.023438 9.675781 -3.390625 9.75 -3.828125 L 11.921875 -3.828125 C 11.578125 -1.128906 9.613281 0.21875 6.03125 0.21875 C 4.070312 0.21875 2.691406 -0.140625 1.890625 -0.859375 C 1.097656 -1.585938 0.703125 -2.6875 0.703125 -4.15625 C 0.703125 -5.40625 0.898438 -6.820312 1.296875 -8.40625 C 1.703125 -9.988281 2.257812 -11.132812 2.96875 -11.84375 C 3.976562 -12.863281 5.535156 -13.375 7.640625 -13.375 C 9.554688 -13.375 10.898438 -13.015625 11.671875 -12.296875 C 12.441406 -11.578125 12.828125 -10.566406 12.828125 -9.265625 Z M 10.65625 -9.21875 C 10.65625 -9.988281 10.425781 -10.539062 9.96875 -10.875 C 9.519531 -11.21875 8.742188 -11.390625 7.640625 -11.390625 C 6.296875 -11.390625 5.328125 -11.101562 4.734375 -10.53125 C 4.148438 -9.957031 3.738281 -9.035156 3.5 -7.765625 L 10.484375 -7.765625 C 10.597656 -8.421875 10.65625 -8.90625 10.65625 -9.21875 Z M 10.65625 -9.21875 "/></g></g><g style="fill:rgb(0%,0%,0%);fill-opacity:1;"><g transform="translate(129.127523, 22.138935)"><path style="stroke:none;" d=""/></g></g><g style="fill:rgb(0%,0%,0%);fill-opacity:1;"><g transform="translate(135.458993, 22.138935)"><path style="stroke:none;" d="M 11.515625 -13.15625 L 11.171875 -11.171875 L 5.359375 -11.171875 L 4.15625 -4.40625 C 4.0625 -4 4.015625 -3.644531 4.015625 -3.34375 C 4.015625 -2.78125 4.175781 -2.375 4.5 -2.125 C 4.832031 -1.882812 5.367188 -1.765625 6.109375 -1.765625 C 6.941406 -1.765625 7.566406 -1.921875 7.984375 -2.234375 C 8.398438 -2.554688 8.671875 -3.085938 8.796875 -3.828125 L 10.953125 -3.828125 C 10.691406 -2.378906 10.144531 -1.34375 9.3125 -0.71875 C 8.476562 -0.09375 7.367188 0.21875 5.984375 0.21875 C 4.640625 0.21875 3.585938 -0.0390625 2.828125 -0.5625 C 2.066406 -1.09375 1.6875 -1.882812 1.6875 -2.9375 C 1.6875 -3.226562 1.710938 -3.546875 1.765625 -3.890625 L 3.046875 -11.171875 L 0.875 -11.171875 L 1.21875 -13.15625 L 3.390625 -13.15625 L 4.296875 -18.125 L 6.609375 -18.125 L 5.703125 -13.15625 Z M 11.515625 -13.15625 "/></g></g><g style="fill:rgb(0%,0%,0%);fill-opacity:1;"><g transform="translate(147.931699, 22.138935)"><path style="stroke:none;" d="M 13.53125 -13.15625 L 3.34375 5.1875 L 0.78125 5.1875 L 3.796875 -0.15625 L 1.203125 -13.15625 L 3.59375 -13.15625 L 5.484375 -2.75 L 11 -13.15625 Z M 13.53125 -13.15625 "/></g></g><g style="fill:rgb(0%,0%,0%);fill-opacity:1;"><g transform="translate(161.165278, 22.138935)"><path style="stroke:none;" d="M 13.390625 -9.421875 C 13.390625 -7.410156 13.160156 -5.695312 12.703125 -4.28125 C 12.242188 -2.875 11.695312 -1.851562 11.0625 -1.21875 C 10.53125 -0.695312 9.953125 -0.328125 9.328125 -0.109375 C 8.703125 0.109375 7.882812 0.21875 6.875 0.21875 C 4.9375 0.21875 3.566406 -0.222656 2.765625 -1.109375 L 1.65625 5.1875 L -0.65625 5.1875 L 2.578125 -13.15625 L 4.734375 -13.15625 L 4.484375 -11.71875 C 5.535156 -12.820312 6.984375 -13.375 8.828125 -13.375 C 10.492188 -13.375 11.671875 -13.046875 12.359375 -12.390625 C 13.046875 -11.734375 13.390625 -10.742188 13.390625 -9.421875 Z M 10.984375 -8.828125 C 10.984375 -9.640625 10.828125 -10.234375 10.515625 -10.609375 C 10.203125 -10.992188 9.550781 -11.1875 8.5625 -11.1875 C 7.050781 -11.1875 5.9375 -10.851562 5.21875 -10.1875 C 4.65625 -9.644531 4.234375 -8.796875 3.953125 -7.640625 C 3.671875 -6.492188 3.53125 -5.394531 3.53125 -4.34375 C 3.53125 -3.457031 3.78125 -2.828125 4.28125 -2.453125 C 4.78125 -2.085938 5.617188 -1.90625 6.796875 -1.90625 C 7.921875 -1.90625 8.753906 -2.175781 9.296875 -2.71875 C 9.816406 -3.238281 10.226562 -4.128906 10.53125 -5.390625 C 10.832031 -6.648438 10.984375 -7.796875 10.984375 -8.828125 Z M 10.984375 -8.828125 "/></g></g><g style="fill:rgb(0%,0%,0%);fill-opacity:1;"><g transform="translate(176.246665, 22.138935)"><path style="stroke:none;" d="M 12.828125 -9.265625 C 12.828125 -7.910156 12.707031 -6.757812 12.46875 -5.8125 L 3.15625 -5.8125 C 3.03125 -5.050781 2.96875 -4.5 2.96875 -4.15625 C 2.96875 -3.300781 3.203125 -2.691406 3.671875 -2.328125 C 4.140625 -1.972656 4.953125 -1.796875 6.109375 -1.796875 C 6.578125 -1.796875 6.984375 -1.816406 7.328125 -1.859375 C 7.679688 -1.898438 8.035156 -1.984375 8.390625 -2.109375 C 8.753906 -2.242188 9.050781 -2.453125 9.28125 -2.734375 C 9.519531 -3.023438 9.675781 -3.390625 9.75 -3.828125 L 11.921875 -3.828125 C 11.578125 -1.128906 9.613281 0.21875 6.03125 0.21875 C 4.070312 0.21875 2.691406 -0.140625 1.890625 -0.859375 C 1.097656 -1.585938 0.703125 -2.6875 0.703125 -4.15625 C 0.703125 -5.40625 0.898438 -6.820312 1.296875 -8.40625 C 1.703125 -9.988281 2.257812 -11.132812 2.96875 -11.84375 C 3.976562 -12.863281 5.535156 -13.375 7.640625 -13.375 C 9.554688 -13.375 10.898438 -13.015625 11.671875 -12.296875 C 12.441406 -11.578125 12.828125 -10.566406 12.828125 -9.265625 Z M 10.65625 -9.21875 C 10.65625 -9.988281 10.425781 -10.539062 9.96875 -10.875 C 9.519531 -11.21875 8.742188 -11.390625 7.640625 -11.390625 C 6.296875 -11.390625 5.328125 -11.101562 4.734375 -10.53125 C 4.148438 -9.957031 3.738281 -9.035156 3.5 -7.765625 L 10.484375 -7.765625 C 10.597656 -8.421875 10.65625 -8.90625 10.65625 -9.21875 Z M 10.65625 -9.21875 "/></g></g><g style="fill:rgb(0%,0%,0%);fill-opacity:1;"><g transform="translate(190.757392, 22.138935)"><path style="stroke:none;" d=""/></g></g><g style="fill:rgb(0%,0%,0%);fill-opacity:1;"><g transform="translate(197.088862, 22.138935)"><path style="stroke:none;" d="M 13.28125 -9 C 13.28125 -8.289062 13.203125 -7.484375 13.046875 -6.578125 C 12.828125 -5.347656 12.582031 -4.347656 12.3125 -3.578125 C 12.050781 -2.804688 11.664062 -2.113281 11.15625 -1.5 C 10.65625 -0.882812 9.992188 -0.441406 9.171875 -0.171875 C 8.347656 0.0859375 7.320312 0.21875 6.09375 0.21875 C 4.113281 0.21875 2.71875 -0.128906 1.90625 -0.828125 C 1.101562 -1.523438 0.703125 -2.632812 0.703125 -4.15625 C 0.703125 -4.863281 0.785156 -5.671875 0.953125 -6.578125 C 1.171875 -7.804688 1.410156 -8.804688 1.671875 -9.578125 C 1.929688 -10.347656 2.316406 -11.039062 2.828125 -11.65625 C 3.335938 -12.269531 4.003906 -12.707031 4.828125 -12.96875 C 5.648438 -13.238281 6.675781 -13.375 7.90625 -13.375 C 9.882812 -13.375 11.273438 -13.023438 12.078125 -12.328125 C 12.878906 -11.628906 13.28125 -10.519531 13.28125 -9 Z M 10.921875 -8.90625 C 10.921875 -9.757812 10.695312 -10.367188 10.25 -10.734375 C 9.8125 -11.097656 9.03125 -11.28125 7.90625 -11.28125 C 6.4375 -11.28125 5.382812 -10.972656 4.75 -10.359375 C 4.101562 -9.722656 3.609375 -8.328125 3.265625 -6.171875 C 3.140625 -5.285156 3.078125 -4.640625 3.078125 -4.234375 C 3.078125 -3.390625 3.296875 -2.785156 3.734375 -2.421875 C 4.179688 -2.054688 4.96875 -1.875 6.09375 -1.875 C 7.550781 -1.875 8.597656 -2.179688 9.234375 -2.796875 C 9.890625 -3.429688 10.390625 -4.828125 10.734375 -6.984375 C 10.859375 -7.867188 10.921875 -8.507812 10.921875 -8.90625 Z M 10.921875 -8.90625 "/></g></g><g style="fill:rgb(0%,0%,0%);fill-opacity:1;"><g transform="translate(212.061556, 22.138935)"><path style="stroke:none;" d="M 13.015625 -16.65625 C 13.015625 -16.40625 13 -16.195312 12.96875 -16.03125 L 10.703125 -16.03125 L 10.734375 -16.328125 C 10.734375 -16.929688 10.050781 -17.234375 8.6875 -17.234375 C 7.769531 -17.234375 7.117188 -17.054688 6.734375 -16.703125 C 6.359375 -16.359375 6.078125 -15.726562 5.890625 -14.8125 L 5.5625 -13.15625 L 10.515625 -13.15625 L 10.15625 -11.171875 L 5.21875 -11.171875 L 3.234375 0 L 0.921875 0 L 2.90625 -11.171875 L 0.78125 -11.171875 L 1.140625 -13.15625 L 3.265625 -13.15625 L 3.640625 -15.21875 C 3.859375 -16.394531 4.238281 -17.253906 4.78125 -17.796875 C 5.664062 -18.679688 7.015625 -19.125 8.828125 -19.125 C 11.617188 -19.125 13.015625 -18.300781 13.015625 -16.65625 Z M 13.015625 -16.65625 "/></g></g><g style="fill:rgb(0%,0%,0%);fill-opacity:1;"><g transform="translate(224.126661, 22.138935)"><path style="stroke:none;" d=""/></g></g><g style="fill:rgb(0%,0%,0%);fill-opacity:1;"><g transform="translate(230.458131, 22.138935)"><path style="stroke:none;" d="M 12.875 -10.140625 C 12.875 -9.898438 12.847656 -9.625 12.796875 -9.3125 L 10.625 -9.3125 C 10.644531 -9.40625 10.65625 -9.5625 10.65625 -9.78125 C 10.65625 -10.21875 10.488281 -10.550781 10.15625 -10.78125 C 9.832031 -11.019531 9.488281 -11.160156 9.125 -11.203125 C 8.769531 -11.253906 8.316406 -11.28125 7.765625 -11.28125 C 6.367188 -11.28125 5.359375 -10.960938 4.734375 -10.328125 C 4.203125 -9.796875 3.789062 -8.894531 3.5 -7.625 C 3.21875 -6.363281 3.078125 -5.226562 3.078125 -4.21875 C 3.078125 -3.382812 3.300781 -2.785156 3.75 -2.421875 C 4.195312 -2.054688 4.984375 -1.875 6.109375 -1.875 C 6.546875 -1.875 6.925781 -1.890625 7.25 -1.921875 C 7.582031 -1.960938 7.929688 -2.046875 8.296875 -2.171875 C 8.671875 -2.296875 8.972656 -2.5 9.203125 -2.78125 C 9.441406 -3.0625 9.597656 -3.410156 9.671875 -3.828125 L 11.875 -3.828125 C 11.550781 -1.128906 9.59375 0.21875 6 0.21875 C 4.082031 0.21875 2.71875 -0.132812 1.90625 -0.84375 C 1.101562 -1.550781 0.703125 -2.65625 0.703125 -4.15625 C 0.703125 -5.445312 0.898438 -6.859375 1.296875 -8.390625 C 1.703125 -9.929688 2.257812 -11.066406 2.96875 -11.796875 C 3.957031 -12.847656 5.53125 -13.375 7.6875 -13.375 C 11.144531 -13.375 12.875 -12.296875 12.875 -10.140625 Z M 12.875 -10.140625 "/></g></g><g style="fill:rgb(0%,0%,0%);fill-opacity:1;"><g transform="translate(244.615604, 22.138935)"><path style="stroke:none;" d="M 13.28125 -9 C 13.28125 -8.289062 13.203125 -7.484375 13.046875 -6.578125 C 12.828125 -5.347656 12.582031 -4.347656 12.3125 -3.578125 C 12.050781 -2.804688 11.664062 -2.113281 11.15625 -1.5 C 10.65625 -0.882812 9.992188 -0.441406 9.171875 -0.171875 C 8.347656 0.0859375 7.320312 0.21875 6.09375 0.21875 C 4.113281 0.21875 2.71875 -0.128906 1.90625 -0.828125 C 1.101562 -1.523438 0.703125 -2.632812 0.703125 -4.15625 C 0.703125 -4.863281 0.785156 -5.671875 0.953125 -6.578125 C 1.171875 -7.804688 1.410156 -8.804688 1.671875 -9.578125 C 1.929688 -10.347656 2.316406 -11.039062 2.828125 -11.65625 C 3.335938 -12.269531 4.003906 -12.707031 4.828125 -12.96875 C 5.648438 -13.238281 6.675781 -13.375 7.90625 -13.375 C 9.882812 -13.375 11.273438 -13.023438 12.078125 -12.328125 C 12.878906 -11.628906 13.28125 -10.519531 13.28125 -9 Z M 10.921875 -8.90625 C 10.921875 -9.757812 10.695312 -10.367188 10.25 -10.734375 C 9.8125 -11.097656 9.03125 -11.28125 7.90625 -11.28125 C 6.4375 -11.28125 5.382812 -10.972656 4.75 -10.359375 C 4.101562 -9.722656 3.609375 -8.328125 3.265625 -6.171875 C 3.140625 -5.285156 3.078125 -4.640625 3.078125 -4.234375 C 3.078125 -3.390625 3.296875 -2.785156 3.734375 -2.421875 C 4.179688 -2.054688 4.96875 -1.875 6.09375 -1.875 C 7.550781 -1.875 8.597656 -2.179688 9.234375 -2.796875 C 9.890625 -3.429688 10.390625 -4.828125 10.734375 -6.984375 C 10.859375 -7.867188 10.921875 -8.507812 10.921875 -8.90625 Z M 10.921875 -8.90625 "/></g></g><g style="fill:rgb(0%,0%,0%);fill-opacity:1;"><g transform="translate(259.588298, 22.138935)"><path style="stroke:none;" d="M 5.921875 -18.9375 L 2.578125 0 L 0.265625 0 L 3.609375 -18.9375 Z M 5.921875 -18.9375 "/></g></g><g style="fill:rgb(0%,0%,0%);fill-opacity:1;"><g transform="translate(265.811075, 22.138935)"><path style="stroke:none;" d="M 13.390625 -13.15625 L 11.09375 0 L 9 0 L 9.21875 -1.28125 C 8.3125 -0.28125 6.953125 0.21875 5.140625 0.21875 C 3.554688 0.21875 2.421875 -0.125 1.734375 -0.8125 C 1.046875 -1.5 0.703125 -2.296875 0.703125 -3.203125 C 0.703125 -3.660156 0.832031 -4.648438 1.09375 -6.171875 L 2.3125 -13.15625 L 4.640625 -13.15625 L 3.421875 -6.359375 C 3.203125 -5.234375 3.09375 -4.398438 3.09375 -3.859375 C 3.09375 -3.265625 3.28125 -2.789062 3.65625 -2.4375 C 4.03125 -2.09375 4.722656 -1.921875 5.734375 -1.921875 C 6.390625 -1.921875 6.957031 -2.023438 7.4375 -2.234375 C 7.914062 -2.441406 8.285156 -2.664062 8.546875 -2.90625 C 8.804688 -3.15625 9.046875 -3.566406 9.265625 -4.140625 C 9.484375 -4.710938 9.625 -5.15625 9.6875 -5.46875 C 9.75 -5.789062 9.851562 -6.332031 10 -7.09375 L 11.09375 -13.15625 Z M 13.390625 -13.15625 "/></g></g><g style="fill:rgb(0%,0%,0%);fill-opacity:1;"><g transform="translate(280.430495, 22.138935)"><path style="stroke:none;" d="M 20.109375 -9.96875 C 20.109375 -9.625 19.972656 -8.640625 19.703125 -7.015625 L 18.453125 0 L 16.140625 0 L 17.53125 -7.828125 C 17.675781 -8.734375 17.75 -9.320312 17.75 -9.59375 C 17.75 -10.132812 17.582031 -10.546875 17.25 -10.828125 C 16.925781 -11.109375 16.347656 -11.25 15.515625 -11.25 C 14.859375 -11.25 14.300781 -11.140625 13.84375 -10.921875 C 13.382812 -10.703125 13.019531 -10.363281 12.75 -9.90625 C 12.476562 -9.445312 12.269531 -8.984375 12.125 -8.515625 C 11.976562 -8.054688 11.84375 -7.457031 11.71875 -6.71875 L 10.515625 0 L 8.203125 0 L 9.59375 -7.828125 C 9.738281 -8.691406 9.8125 -9.28125 9.8125 -9.59375 C 9.8125 -10.132812 9.644531 -10.546875 9.3125 -10.828125 C 8.988281 -11.109375 8.421875 -11.25 7.609375 -11.25 C 6.953125 -11.25 6.394531 -11.140625 5.9375 -10.921875 C 5.476562 -10.703125 5.109375 -10.359375 4.828125 -9.890625 C 4.546875 -9.421875 4.332031 -8.953125 4.1875 -8.484375 C 4.039062 -8.023438 3.90625 -7.425781 3.78125 -6.6875 L 2.578125 0 L 0.265625 0 L 2.578125 -13.15625 L 4.734375 -13.15625 L 4.515625 -11.90625 C 5.359375 -12.882812 6.625 -13.375 8.3125 -13.375 C 10.125 -13.375 11.265625 -12.800781 11.734375 -11.65625 C 12.753906 -12.800781 14.175781 -13.375 16 -13.375 C 18.738281 -13.375 20.109375 -12.238281 20.109375 -9.96875 Z M 20.109375 -9.96875 "/></g></g><g style="fill:rgb(0%,0%,0%);fill-opacity:1;"><g transform="translate(302.196605, 22.138935)"><path style="stroke:none;" d="M 12.96875 -9.9375 C 12.96875 -9.488281 12.835938 -8.503906 12.578125 -6.984375 L 11.359375 0 L 9.046875 0 L 10.25 -6.796875 C 10.445312 -7.992188 10.546875 -8.816406 10.546875 -9.265625 C 10.546875 -9.929688 10.363281 -10.421875 10 -10.734375 C 9.632812 -11.054688 8.972656 -11.21875 8.015625 -11.21875 C 7.347656 -11.21875 6.769531 -11.117188 6.28125 -10.921875 C 5.789062 -10.722656 5.410156 -10.492188 5.140625 -10.234375 C 4.867188 -9.984375 4.628906 -9.585938 4.421875 -9.046875 C 4.210938 -8.503906 4.066406 -8.054688 3.984375 -7.703125 C 3.898438 -7.347656 3.796875 -6.800781 3.671875 -6.0625 L 2.578125 0 L 0.265625 0 L 2.609375 -13.15625 L 4.703125 -13.15625 L 4.484375 -11.875 C 5.390625 -12.875 6.765625 -13.375 8.609375 -13.375 C 10.046875 -13.375 11.128906 -13.078125 11.859375 -12.484375 C 12.597656 -11.898438 12.96875 -11.050781 12.96875 -9.9375 Z M 12.96875 -9.9375 "/></g></g><g style="fill:rgb(0%,0%,0%);fill-opacity:1;"><g transform="translate(316.843199, 22.138935)"><path style="stroke:none;" d=""/></g></g><g style="fill:rgb(0%,0%,0%);fill-opacity:1;"><g transform="translate(323.174668, 22.138935)"><path style="stroke:none;" d="M 13.53125 -13.15625 L 3.34375 5.1875 L 0.78125 5.1875 L 3.796875 -0.15625 L 1.203125 -13.15625 L 3.59375 -13.15625 L 5.484375 -2.75 L 11 -13.15625 Z M 13.53125 -13.15625 "/></g></g><g style="fill:rgb(0%,0%,0%);fill-opacity:1;"><g transform="translate(336.408248, 22.138935)"><path style="stroke:none;" d="M 13.28125 -9 C 13.28125 -8.289062 13.203125 -7.484375 13.046875 -6.578125 C 12.828125 -5.347656 12.582031 -4.347656 12.3125 -3.578125 C 12.050781 -2.804688 11.664062 -2.113281 11.15625 -1.5 C 10.65625 -0.882812 9.992188 -0.441406 9.171875 -0.171875 C 8.347656 0.0859375 7.320312 0.21875 6.09375 0.21875 C 4.113281 0.21875 2.71875 -0.128906 1.90625 -0.828125 C 1.101562 -1.523438 0.703125 -2.632812 0.703125 -4.15625 C 0.703125 -4.863281 0.785156 -5.671875 0.953125 -6.578125 C 1.171875 -7.804688 1.410156 -8.804688 1.671875 -9.578125 C 1.929688 -10.347656 2.316406 -11.039062 2.828125 -11.65625 C 3.335938 -12.269531 4.003906 -12.707031 4.828125 -12.96875 C 5.648438 -13.238281 6.675781 -13.375 7.90625 -13.375 C 9.882812 -13.375 11.273438 -13.023438 12.078125 -12.328125 C 12.878906 -11.628906 13.28125 -10.519531 13.28125 -9 Z M 10.921875 -8.90625 C 10.921875 -9.757812 10.695312 -10.367188 10.25 -10.734375 C 9.8125 -11.097656 9.03125 -11.28125 7.90625 -11.28125 C 6.4375 -11.28125 5.382812 -10.972656 4.75 -10.359375 C 4.101562 -9.722656 3.609375 -8.328125 3.265625 -6.171875 C 3.140625 -5.285156 3.078125 -4.640625 3.078125 -4.234375 C 3.078125 -3.390625 3.296875 -2.785156 3.734375 -2.421875 C 4.179688 -2.054688 4.96875 -1.875 6.09375 -1.875 C 7.550781 -1.875 8.597656 -2.179688 9.234375 -2.796875 C 9.890625 -3.429688 10.390625 -4.828125 10.734375 -6.984375 C 10.859375 -7.867188 10.921875 -8.507812 10.921875 -8.90625 Z M 10.921875 -8.90625 "/></g></g><g style="fill:rgb(0%,0%,0%);fill-opacity:1;"><g transform="translate(351.380962, 22.138935)"><path style="stroke:none;" d="M 13.390625 -13.15625 L 11.09375 0 L 9 0 L 9.21875 -1.28125 C 8.3125 -0.28125 6.953125 0.21875 5.140625 0.21875 C 3.554688 0.21875 2.421875 -0.125 1.734375 -0.8125 C 1.046875 -1.5 0.703125 -2.296875 0.703125 -3.203125 C 0.703125 -3.660156 0.832031 -4.648438 1.09375 -6.171875 L 2.3125 -13.15625 L 4.640625 -13.15625 L 3.421875 -6.359375 C 3.203125 -5.234375 3.09375 -4.398438 3.09375 -3.859375 C 3.09375 -3.265625 3.28125 -2.789062 3.65625 -2.4375 C 4.03125 -2.09375 4.722656 -1.921875 5.734375 -1.921875 C 6.390625 -1.921875 6.957031 -2.023438 7.4375 -2.234375 C 7.914062 -2.441406 8.285156 -2.664062 8.546875 -2.90625 C 8.804688 -3.15625 9.046875 -3.566406 9.265625 -4.140625 C 9.484375 -4.710938 9.625 -5.15625 9.6875 -5.46875 C 9.75 -5.789062 9.851562 -6.332031 10 -7.09375 L 11.09375 -13.15625 Z M 13.390625 -13.15625 "/></g></g><g style="fill:rgb(0%,0%,0%);fill-opacity:1;"><g transform="translate(62.09702, 59.828498)"><path style="stroke:none;" d="M 19.453125 -13.15625 L 13.375 0 L 10.921875 0 L 9.8125 -10.484375 L 4.96875 0 L 2.609375 0 L 1.171875 -13.15625 L 3.375 -13.15625 L 4.296875 -2.828125 L 9.078125 -13.15625 L 11.390625 -13.15625 L 12.53125 -2.828125 L 17.0625 -13.15625 Z M 19.453125 -13.15625 "/></g></g><g style="fill:rgb(0%,0%,0%);fill-opacity:1;"><g transform="translate(81.417489, 59.828498)"><path style="stroke:none;" d="M 5.78125 -17.28125 C 5.78125 -16.789062 5.628906 -16.382812 5.328125 -16.0625 C 5.035156 -15.75 4.644531 -15.59375 4.15625 -15.59375 C 3.375 -15.59375 2.984375 -15.9375 2.984375 -16.625 C 2.984375 -17.113281 3.132812 -17.515625 3.4375 -17.828125 C 3.738281 -18.148438 4.132812 -18.3125 4.625 -18.3125 C 5.394531 -18.3125 5.78125 -17.96875 5.78125 -17.28125 Z M 4.890625 -13.15625 L 2.578125 0 L 0.265625 0 L 2.578125 -13.15625 Z M 4.890625 -13.15625 "/></g></g><g style="fill:rgb(0%,0%,0%);fill-opacity:1;"><g transform="translate(87.504398, 59.828498)"><path style="stroke:none;" d="M 12.640625 -10.25 C 12.640625 -9.957031 12.609375 -9.644531 12.546875 -9.3125 L 10.40625 -9.3125 C 10.40625 -9.332031 10.414062 -9.40625 10.4375 -9.53125 C 10.457031 -9.664062 10.46875 -9.785156 10.46875 -9.890625 C 10.46875 -10.234375 10.382812 -10.515625 10.21875 -10.734375 C 10.050781 -10.953125 9.804688 -11.101562 9.484375 -11.1875 C 9.171875 -11.28125 8.875 -11.335938 8.59375 -11.359375 C 8.3125 -11.390625 7.960938 -11.40625 7.546875 -11.40625 C 6.992188 -11.40625 6.539062 -11.382812 6.1875 -11.34375 C 5.832031 -11.300781 5.457031 -11.207031 5.0625 -11.0625 C 4.675781 -10.914062 4.382812 -10.675781 4.1875 -10.34375 C 4 -10.007812 3.90625 -9.566406 3.90625 -9.015625 C 3.90625 -8.398438 4.160156 -8.019531 4.671875 -7.875 C 4.910156 -7.800781 5.609375 -7.738281 6.765625 -7.6875 C 7.328125 -7.664062 7.71875 -7.644531 7.9375 -7.625 C 8.164062 -7.613281 8.523438 -7.578125 9.015625 -7.515625 C 9.503906 -7.453125 9.859375 -7.359375 10.078125 -7.234375 C 10.296875 -7.117188 10.546875 -6.960938 10.828125 -6.765625 C 11.109375 -6.566406 11.304688 -6.304688 11.421875 -5.984375 C 11.546875 -5.671875 11.609375 -5.296875 11.609375 -4.859375 C 11.609375 -3.253906 11.191406 -2.023438 10.359375 -1.171875 C 9.460938 -0.242188 7.800781 0.21875 5.375 0.21875 C 1.96875 0.21875 0.265625 -0.804688 0.265625 -2.859375 C 0.265625 -3.273438 0.296875 -3.597656 0.359375 -3.828125 L 2.5 -3.828125 C 2.46875 -3.648438 2.453125 -3.460938 2.453125 -3.265625 C 2.453125 -2.679688 2.691406 -2.28125 3.171875 -2.0625 C 3.648438 -1.84375 4.414062 -1.734375 5.46875 -1.734375 C 6.019531 -1.734375 6.488281 -1.757812 6.875 -1.8125 C 7.269531 -1.875 7.660156 -1.984375 8.046875 -2.140625 C 8.441406 -2.304688 8.738281 -2.566406 8.9375 -2.921875 C 9.132812 -3.273438 9.234375 -3.734375 9.234375 -4.296875 C 9.234375 -4.492188 9.210938 -4.664062 9.171875 -4.8125 C 9.128906 -4.957031 9.035156 -5.070312 8.890625 -5.15625 C 8.742188 -5.25 8.613281 -5.320312 8.5 -5.375 C 8.394531 -5.4375 8.191406 -5.484375 7.890625 -5.515625 C 7.585938 -5.546875 7.34375 -5.566406 7.15625 -5.578125 C 6.96875 -5.585938 6.644531 -5.601562 6.1875 -5.625 C 5.613281 -5.644531 5.15625 -5.664062 4.8125 -5.6875 C 4.46875 -5.71875 4.054688 -5.789062 3.578125 -5.90625 C 3.109375 -6.03125 2.742188 -6.179688 2.484375 -6.359375 C 2.222656 -6.535156 1.992188 -6.800781 1.796875 -7.15625 C 1.609375 -7.507812 1.515625 -7.929688 1.515625 -8.421875 C 1.515625 -10.035156 1.960938 -11.273438 2.859375 -12.140625 C 3.691406 -12.960938 5.320312 -13.375 7.75 -13.375 C 11.007812 -13.375 12.640625 -12.332031 12.640625 -10.25 Z M 12.640625 -10.25 "/></g></g><g style="fill:rgb(0%,0%,0%);fill-opacity:1;"><g transform="translate(101.390138, 59.828498)"><path style="stroke:none;" d="M 12.96875 -9.9375 C 12.96875 -9.488281 12.835938 -8.503906 12.578125 -6.984375 L 11.359375 0 L 9.046875 0 L 10.25 -6.796875 C 10.445312 -7.992188 10.546875 -8.816406 10.546875 -9.265625 C 10.546875 -9.929688 10.363281 -10.421875 10 -10.734375 C 9.632812 -11.054688 8.972656 -11.21875 8.015625 -11.21875 C 7.347656 -11.21875 6.769531 -11.117188 6.28125 -10.921875 C 5.789062 -10.722656 5.410156 -10.492188 5.140625 -10.234375 C 4.867188 -9.984375 4.628906 -9.585938 4.421875 -9.046875 C 4.210938 -8.503906 4.066406 -8.054688 3.984375 -7.703125 C 3.898438 -7.347656 3.796875 -6.800781 3.671875 -6.0625 L 2.578125 0 L 0.265625 0 L 3.609375 -18.9375 L 5.921875 -18.9375 L 4.703125 -11.984375 C 5.660156 -12.910156 6.960938 -13.375 8.609375 -13.375 C 10.046875 -13.375 11.128906 -13.078125 11.859375 -12.484375 C 12.597656 -11.898438 12.96875 -11.050781 12.96875 -9.9375 Z M 12.96875 -9.9375 "/></g></g><g style="fill:rgb(0%,0%,0%);fill-opacity:1;"><g transform="translate(116.036732, 59.828498)"><path style="stroke:none;" d=""/></g></g><g style="fill:rgb(0%,0%,0%);fill-opacity:1;"><g transform="translate(122.368201, 59.828498)"><path style="stroke:none;" d="M 11.515625 -13.15625 L 11.171875 -11.171875 L 5.359375 -11.171875 L 4.15625 -4.40625 C 4.0625 -4 4.015625 -3.644531 4.015625 -3.34375 C 4.015625 -2.78125 4.175781 -2.375 4.5 -2.125 C 4.832031 -1.882812 5.367188 -1.765625 6.109375 -1.765625 C 6.941406 -1.765625 7.566406 -1.921875 7.984375 -2.234375 C 8.398438 -2.554688 8.671875 -3.085938 8.796875 -3.828125 L 10.953125 -3.828125 C 10.691406 -2.378906 10.144531 -1.34375 9.3125 -0.71875 C 8.476562 -0.09375 7.367188 0.21875 5.984375 0.21875 C 4.640625 0.21875 3.585938 -0.0390625 2.828125 -0.5625 C 2.066406 -1.09375 1.6875 -1.882812 1.6875 -2.9375 C 1.6875 -3.226562 1.710938 -3.546875 1.765625 -3.890625 L 3.046875 -11.171875 L 0.875 -11.171875 L 1.21875 -13.15625 L 3.390625 -13.15625 L 4.296875 -18.125 L 6.609375 -18.125 L 5.703125 -13.15625 Z M 11.515625 -13.15625 "/></g></g><g style="fill:rgb(0%,0%,0%);fill-opacity:1;"><g transform="translate(134.840907, 59.828498)"><path style="stroke:none;" d="M 13.28125 -9 C 13.28125 -8.289062 13.203125 -7.484375 13.046875 -6.578125 C 12.828125 -5.347656 12.582031 -4.347656 12.3125 -3.578125 C 12.050781 -2.804688 11.664062 -2.113281 11.15625 -1.5 C 10.65625 -0.882812 9.992188 -0.441406 9.171875 -0.171875 C 8.347656 0.0859375 7.320312 0.21875 6.09375 0.21875 C 4.113281 0.21875 2.71875 -0.128906 1.90625 -0.828125 C 1.101562 -1.523438 0.703125 -2.632812 0.703125 -4.15625 C 0.703125 -4.863281 0.785156 -5.671875 0.953125 -6.578125 C 1.171875 -7.804688 1.410156 -8.804688 1.671875 -9.578125 C 1.929688 -10.347656 2.316406 -11.039062 2.828125 -11.65625 C 3.335938 -12.269531 4.003906 -12.707031 4.828125 -12.96875 C 5.648438 -13.238281 6.675781 -13.375 7.90625 -13.375 C 9.882812 -13.375 11.273438 -13.023438 12.078125 -12.328125 C 12.878906 -11.628906 13.28125 -10.519531 13.28125 -9 Z M 10.921875 -8.90625 C 10.921875 -9.757812 10.695312 -10.367188 10.25 -10.734375 C 9.8125 -11.097656 9.03125 -11.28125 7.90625 -11.28125 C 6.4375 -11.28125 5.382812 -10.972656 4.75 -10.359375 C 4.101562 -9.722656 3.609375 -8.328125 3.265625 -6.171875 C 3.140625 -5.285156 3.078125 -4.640625 3.078125 -4.234375 C 3.078125 -3.390625 3.296875 -2.785156 3.734375 -2.421875 C 4.179688 -2.054688 4.96875 -1.875 6.09375 -1.875 C 7.550781 -1.875 8.597656 -2.179688 9.234375 -2.796875 C 9.890625 -3.429688 10.390625 -4.828125 10.734375 -6.984375 C 10.859375 -7.867188 10.921875 -8.507812 10.921875 -8.90625 Z M 10.921875 -8.90625 "/></g></g><g style="fill:rgb(0%,0%,0%);fill-opacity:1;"><g transform="translate(149.813601, 59.828498)"><path style="stroke:none;" d=""/></g></g><g style="fill:rgb(0%,0%,0%);fill-opacity:1;"><g transform="translate(156.145071, 59.828498)"><path style="stroke:none;" d="M 12.640625 -9.84375 C 12.640625 -9.40625 12.519531 -8.503906 12.28125 -7.140625 L 11 0 L 8.890625 0 L 9.109375 -1.28125 C 8.109375 -0.28125 6.640625 0.21875 4.703125 0.21875 C 3.328125 0.21875 2.226562 -0.046875 1.40625 -0.578125 C 0.59375 -1.117188 0.1875 -1.957031 0.1875 -3.09375 C 0.1875 -4.65625 0.625 -5.867188 1.5 -6.734375 C 2.039062 -7.273438 2.679688 -7.628906 3.421875 -7.796875 C 4.160156 -7.972656 5.148438 -8.0625 6.390625 -8.0625 L 10.140625 -8.0625 C 10.285156 -8.988281 10.359375 -9.515625 10.359375 -9.640625 C 10.359375 -10.328125 10.144531 -10.78125 9.71875 -11 C 9.289062 -11.21875 8.566406 -11.328125 7.546875 -11.328125 C 6.191406 -11.328125 5.238281 -11.160156 4.6875 -10.828125 C 4.132812 -10.492188 3.796875 -10.007812 3.671875 -9.375 L 1.40625 -9.375 C 1.550781 -10.164062 1.816406 -10.835938 2.203125 -11.390625 C 2.597656 -11.953125 3.09375 -12.367188 3.6875 -12.640625 C 4.289062 -12.910156 4.910156 -13.097656 5.546875 -13.203125 C 6.179688 -13.316406 6.914062 -13.375 7.75 -13.375 C 11.007812 -13.375 12.640625 -12.195312 12.640625 -9.84375 Z M 9.859375 -6.140625 L 6.390625 -6.140625 C 5.953125 -6.140625 5.625 -6.132812 5.40625 -6.125 C 5.1875 -6.113281 4.851562 -6.0625 4.40625 -5.96875 C 3.96875 -5.882812 3.628906 -5.75 3.390625 -5.5625 C 3.160156 -5.382812 2.945312 -5.109375 2.75 -4.734375 C 2.550781 -4.367188 2.453125 -3.914062 2.453125 -3.375 C 2.453125 -2.863281 2.671875 -2.46875 3.109375 -2.1875 C 3.554688 -1.90625 4.195312 -1.765625 5.03125 -1.765625 C 5.9375 -1.765625 6.675781 -1.84375 7.25 -2 C 7.832031 -2.164062 8.289062 -2.453125 8.625 -2.859375 C 8.957031 -3.273438 9.207031 -3.710938 9.375 -4.171875 C 9.539062 -4.628906 9.703125 -5.285156 9.859375 -6.140625 Z M 9.859375 -6.140625 "/></g></g><g style="fill:rgb(0%,0%,0%);fill-opacity:1;"><g transform="translate(170.465584, 59.828498)"><path style="stroke:none;" d="M 14.828125 -18.9375 L 11.5 0 L 9.3125 0 L 9.5625 -1.4375 C 8.507812 -0.332031 7.0625 0.21875 5.21875 0.21875 C 3.695312 0.21875 2.5625 -0.132812 1.8125 -0.84375 C 1.070312 -1.550781 0.703125 -2.507812 0.703125 -3.71875 C 0.703125 -5.300781 0.921875 -6.90625 1.359375 -8.53125 C 1.796875 -10.164062 2.359375 -11.328125 3.046875 -12.015625 C 3.953125 -12.921875 5.328125 -13.375 7.171875 -13.375 C 9.109375 -13.375 10.484375 -12.921875 11.296875 -12.015625 L 12.53125 -18.9375 Z M 10.515625 -8.75 C 10.515625 -9.632812 10.265625 -10.257812 9.765625 -10.625 C 9.265625 -11 8.425781 -11.1875 7.25 -11.1875 C 6.070312 -11.1875 5.210938 -10.914062 4.671875 -10.375 C 4.179688 -9.882812 3.789062 -8.992188 3.5 -7.703125 C 3.21875 -6.421875 3.078125 -5.273438 3.078125 -4.265625 C 3.078125 -2.691406 3.875 -1.90625 5.46875 -1.90625 C 7.039062 -1.90625 8.179688 -2.257812 8.890625 -2.96875 C 9.429688 -3.507812 9.835938 -4.34375 10.109375 -5.46875 C 10.378906 -6.601562 10.515625 -7.695312 10.515625 -8.75 Z M 10.515625 -8.75 "/></g></g><g style="fill:rgb(0%,0%,0%);fill-opacity:1;"><g transform="translate(185.601318, 59.828498)"><path style="stroke:none;" d="M 14.828125 -18.9375 L 11.5 0 L 9.3125 0 L 9.5625 -1.4375 C 8.507812 -0.332031 7.0625 0.21875 5.21875 0.21875 C 3.695312 0.21875 2.5625 -0.132812 1.8125 -0.84375 C 1.070312 -1.550781 0.703125 -2.507812 0.703125 -3.71875 C 0.703125 -5.300781 0.921875 -6.90625 1.359375 -8.53125 C 1.796875 -10.164062 2.359375 -11.328125 3.046875 -12.015625 C 3.953125 -12.921875 5.328125 -13.375 7.171875 -13.375 C 9.109375 -13.375 10.484375 -12.921875 11.296875 -12.015625 L 12.53125 -18.9375 Z M 10.515625 -8.75 C 10.515625 -9.632812 10.265625 -10.257812 9.765625 -10.625 C 9.265625 -11 8.425781 -11.1875 7.25 -11.1875 C 6.070312 -11.1875 5.210938 -10.914062 4.671875 -10.375 C 4.179688 -9.882812 3.789062 -8.992188 3.5 -7.703125 C 3.21875 -6.421875 3.078125 -5.273438 3.078125 -4.265625 C 3.078125 -2.691406 3.875 -1.90625 5.46875 -1.90625 C 7.039062 -1.90625 8.179688 -2.257812 8.890625 -2.96875 C 9.429688 -3.507812 9.835938 -4.34375 10.109375 -5.46875 C 10.378906 -6.601562 10.515625 -7.695312 10.515625 -8.75 Z M 10.515625 -8.75 "/></g></g><g style="fill:rgb(0%,0%,0%);fill-opacity:1;"><g transform="translate(200.737052, 59.828498)"><path style="stroke:none;" d=""/></g></g><g style="fill:rgb(0%,0%,0%);fill-opacity:1;"><g transform="translate(207.068522, 59.828498)"><path style="stroke:none;" d="M 12.640625 -9.84375 C 12.640625 -9.40625 12.519531 -8.503906 12.28125 -7.140625 L 11 0 L 8.890625 0 L 9.109375 -1.28125 C 8.109375 -0.28125 6.640625 0.21875 4.703125 0.21875 C 3.328125 0.21875 2.226562 -0.046875 1.40625 -0.578125 C 0.59375 -1.117188 0.1875 -1.957031 0.1875 -3.09375 C 0.1875 -4.65625 0.625 -5.867188 1.5 -6.734375 C 2.039062 -7.273438 2.679688 -7.628906 3.421875 -7.796875 C 4.160156 -7.972656 5.148438 -8.0625 6.390625 -8.0625 L 10.140625 -8.0625 C 10.285156 -8.988281 10.359375 -9.515625 10.359375 -9.640625 C 10.359375 -10.328125 10.144531 -10.78125 9.71875 -11 C 9.289062 -11.21875 8.566406 -11.328125 7.546875 -11.328125 C 6.191406 -11.328125 5.238281 -11.160156 4.6875 -10.828125 C 4.132812 -10.492188 3.796875 -10.007812 3.671875 -9.375 L 1.40625 -9.375 C 1.550781 -10.164062 1.816406 -10.835938 2.203125 -11.390625 C 2.597656 -11.953125 3.09375 -12.367188 3.6875 -12.640625 C 4.289062 -12.910156 4.910156 -13.097656 5.546875 -13.203125 C 6.179688 -13.316406 6.914062 -13.375 7.75 -13.375 C 11.007812 -13.375 12.640625 -12.195312 12.640625 -9.84375 Z M 9.859375 -6.140625 L 6.390625 -6.140625 C 5.953125 -6.140625 5.625 -6.132812 5.40625 -6.125 C 5.1875 -6.113281 4.851562 -6.0625 4.40625 -5.96875 C 3.96875 -5.882812 3.628906 -5.75 3.390625 -5.5625 C 3.160156 -5.382812 2.945312 -5.109375 2.75 -4.734375 C 2.550781 -4.367188 2.453125 -3.914062 2.453125 -3.375 C 2.453125 -2.863281 2.671875 -2.46875 3.109375 -2.1875 C 3.554688 -1.90625 4.195312 -1.765625 5.03125 -1.765625 C 5.9375 -1.765625 6.675781 -1.84375 7.25 -2 C 7.832031 -2.164062 8.289062 -2.453125 8.625 -2.859375 C 8.957031 -3.273438 9.207031 -3.710938 9.375 -4.171875 C 9.539062 -4.628906 9.703125 -5.285156 9.859375 -6.140625 Z M 9.859375 -6.140625 "/></g></g><g style="fill:rgb(0%,0%,0%);fill-opacity:1;"><g transform="translate(221.389035, 59.828498)"><path style="stroke:none;" d="M 12.96875 -9.9375 C 12.96875 -9.488281 12.835938 -8.503906 12.578125 -6.984375 L 11.359375 0 L 9.046875 0 L 10.25 -6.796875 C 10.445312 -7.992188 10.546875 -8.816406 10.546875 -9.265625 C 10.546875 -9.929688 10.363281 -10.421875 10 -10.734375 C 9.632812 -11.054688 8.972656 -11.21875 8.015625 -11.21875 C 7.347656 -11.21875 6.769531 -11.117188 6.28125 -10.921875 C 5.789062 -10.722656 5.410156 -10.492188 5.140625 -10.234375 C 4.867188 -9.984375 4.628906 -9.585938 4.421875 -9.046875 C 4.210938 -8.503906 4.066406 -8.054688 3.984375 -7.703125 C 3.898438 -7.347656 3.796875 -6.800781 3.671875 -6.0625 L 2.578125 0 L 0.265625 0 L 2.609375 -13.15625 L 4.703125 -13.15625 L 4.484375 -11.875 C 5.390625 -12.875 6.765625 -13.375 8.609375 -13.375 C 10.046875 -13.375 11.128906 -13.078125 11.859375 -12.484375 C 12.597656 -11.898438 12.96875 -11.050781 12.96875 -9.9375 Z M 12.96875 -9.9375 "/></g></g><g style="fill:rgb(0%,0%,0%);fill-opacity:1;"><g transform="translate(236.035628, 59.828498)"><path style="stroke:none;" d="M 14.828125 -18.9375 L 11.5 0 L 9.3125 0 L 9.5625 -1.4375 C 8.507812 -0.332031 7.0625 0.21875 5.21875 0.21875 C 3.695312 0.21875 2.5625 -0.132812 1.8125 -0.84375 C 1.070312 -1.550781 0.703125 -2.507812 0.703125 -3.71875 C 0.703125 -5.300781 0.921875 -6.90625 1.359375 -8.53125 C 1.796875 -10.164062 2.359375 -11.328125 3.046875 -12.015625 C 3.953125 -12.921875 5.328125 -13.375 7.171875 -13.375 C 9.109375 -13.375 10.484375 -12.921875 11.296875 -12.015625 L 12.53125 -18.9375 Z M 10.515625 -8.75 C 10.515625 -9.632812 10.265625 -10.257812 9.765625 -10.625 C 9.265625 -11 8.425781 -11.1875 7.25 -11.1875 C 6.070312 -11.1875 5.210938 -10.914062 4.671875 -10.375 C 4.179688 -9.882812 3.789062 -8.992188 3.5 -7.703125 C 3.21875 -6.421875 3.078125 -5.273438 3.078125 -4.265625 C 3.078125 -2.691406 3.875 -1.90625 5.46875 -1.90625 C 7.039062 -1.90625 8.179688 -2.257812 8.890625 -2.96875 C 9.429688 -3.507812 9.835938 -4.34375 10.109375 -5.46875 C 10.378906 -6.601562 10.515625 -7.695312 10.515625 -8.75 Z M 10.515625 -8.75 "/></g></g><g style="fill:rgb(0%,0%,0%);fill-opacity:1;"><g transform="translate(251.171362, 59.828498)"><path style="stroke:none;" d=""/></g></g><g style="fill:rgb(0%,0%,0%);fill-opacity:1;"><g transform="translate(257.502832, 59.828498)"><path style="stroke:none;" d="M 12.828125 -9.265625 C 12.828125 -7.910156 12.707031 -6.757812 12.46875 -5.8125 L 3.15625 -5.8125 C 3.03125 -5.050781 2.96875 -4.5 2.96875 -4.15625 C 2.96875 -3.300781 3.203125 -2.691406 3.671875 -2.328125 C 4.140625 -1.972656 4.953125 -1.796875 6.109375 -1.796875 C 6.578125 -1.796875 6.984375 -1.816406 7.328125 -1.859375 C 7.679688 -1.898438 8.035156 -1.984375 8.390625 -2.109375 C 8.753906 -2.242188 9.050781 -2.453125 9.28125 -2.734375 C 9.519531 -3.023438 9.675781 -3.390625 9.75 -3.828125 L 11.921875 -3.828125 C 11.578125 -1.128906 9.613281 0.21875 6.03125 0.21875 C 4.070312 0.21875 2.691406 -0.140625 1.890625 -0.859375 C 1.097656 -1.585938 0.703125 -2.6875 0.703125 -4.15625 C 0.703125 -5.40625 0.898438 -6.820312 1.296875 -8.40625 C 1.703125 -9.988281 2.257812 -11.132812 2.96875 -11.84375 C 3.976562 -12.863281 5.535156 -13.375 7.640625 -13.375 C 9.554688 -13.375 10.898438 -13.015625 11.671875 -12.296875 C 12.441406 -11.578125 12.828125 -10.566406 12.828125 -9.265625 Z M 10.65625 -9.21875 C 10.65625 -9.988281 10.425781 -10.539062 9.96875 -10.875 C 9.519531 -11.21875 8.742188 -11.390625 7.640625 -11.390625 C 6.296875 -11.390625 5.328125 -11.101562 4.734375 -10.53125 C 4.148438 -9.957031 3.738281 -9.035156 3.5 -7.765625 L 10.484375 -7.765625 C 10.597656 -8.421875 10.65625 -8.90625 10.65625 -9.21875 Z M 10.65625 -9.21875 "/></g></g><g style="fill:rgb(0%,0%,0%);fill-opacity:1;"><g transform="translate(272.013558, 59.828498)"><path style="stroke:none;" d="M 14.828125 -18.9375 L 11.5 0 L 9.3125 0 L 9.5625 -1.4375 C 8.507812 -0.332031 7.0625 0.21875 5.21875 0.21875 C 3.695312 0.21875 2.5625 -0.132812 1.8125 -0.84375 C 1.070312 -1.550781 0.703125 -2.507812 0.703125 -3.71875 C 0.703125 -5.300781 0.921875 -6.90625 1.359375 -8.53125 C 1.796875 -10.164062 2.359375 -11.328125 3.046875 -12.015625 C 3.953125 -12.921875 5.328125 -13.375 7.171875 -13.375 C 9.109375 -13.375 10.484375 -12.921875 11.296875 -12.015625 L 12.53125 -18.9375 Z M 10.515625 -8.75 C 10.515625 -9.632812 10.265625 -10.257812 9.765625 -10.625 C 9.265625 -11 8.425781 -11.1875 7.25 -11.1875 C 6.070312 -11.1875 5.210938 -10.914062 4.671875 -10.375 C 4.179688 -9.882812 3.789062 -8.992188 3.5 -7.703125 C 3.21875 -6.421875 3.078125 -5.273438 3.078125 -4.265625 C 3.078125 -2.691406 3.875 -1.90625 5.46875 -1.90625 C 7.039062 -1.90625 8.179688 -2.257812 8.890625 -2.96875 C 9.429688 -3.507812 9.835938 -4.34375 10.109375 -5.46875 C 10.378906 -6.601562 10.515625 -7.695312 10.515625 -8.75 Z M 10.515625 -8.75 "/></g></g><g style="fill:rgb(0%,0%,0%);fill-opacity:1;"><g transform="translate(287.149292, 59.828498)"><path style="stroke:none;" d="M 5.78125 -17.28125 C 5.78125 -16.789062 5.628906 -16.382812 5.328125 -16.0625 C 5.035156 -15.75 4.644531 -15.59375 4.15625 -15.59375 C 3.375 -15.59375 2.984375 -15.9375 2.984375 -16.625 C 2.984375 -17.113281 3.132812 -17.515625 3.4375 -17.828125 C 3.738281 -18.148438 4.132812 -18.3125 4.625 -18.3125 C 5.394531 -18.3125 5.78125 -17.96875 5.78125 -17.28125 Z M 4.890625 -13.15625 L 2.578125 0 L 0.265625 0 L 2.578125 -13.15625 Z M 4.890625 -13.15625 "/></g></g><g style="fill:rgb(0%,0%,0%);fill-opacity:1;"><g transform="translate(293.236202, 59.828498)"><path style="stroke:none;" d="M 11.515625 -13.15625 L 11.171875 -11.171875 L 5.359375 -11.171875 L 4.15625 -4.40625 C 4.0625 -4 4.015625 -3.644531 4.015625 -3.34375 C 4.015625 -2.78125 4.175781 -2.375 4.5 -2.125 C 4.832031 -1.882812 5.367188 -1.765625 6.109375 -1.765625 C 6.941406 -1.765625 7.566406 -1.921875 7.984375 -2.234375 C 8.398438 -2.554688 8.671875 -3.085938 8.796875 -3.828125 L 10.953125 -3.828125 C 10.691406 -2.378906 10.144531 -1.34375 9.3125 -0.71875 C 8.476562 -0.09375 7.367188 0.21875 5.984375 0.21875 C 4.640625 0.21875 3.585938 -0.0390625 2.828125 -0.5625 C 2.066406 -1.09375 1.6875 -1.882812 1.6875 -2.9375 C 1.6875 -3.226562 1.710938 -3.546875 1.765625 -3.890625 L 3.046875 -11.171875 L 0.875 -11.171875 L 1.21875 -13.15625 L 3.390625 -13.15625 L 4.296875 -18.125 L 6.609375 -18.125 L 5.703125 -13.15625 Z M 11.515625 -13.15625 "/></g></g></g><mask xml:id="mask1" id="mask1"><g filter="url(#alpha)"><rect x="0" width="375" y="0" height="262.499992" style="fill:rgb(0%,0%,0%);fill-opacity:0.2588;stroke:none;"/></g></mask></g></g></svg>