<svg xmlns="http://www.w3.org/2000/svg" width="375" viewBox="0 0 375 375" height="375" version="1.0"><defs><clipPath id="a"><path d="M 248 297 L 297 297 L 297 311.28125 L 248 311.28125 Z M 248 297"/></clipPath><clipPath id="b"><path d="M 49 303 L 90 303 L 90 311.28125 L 49 311.28125 Z M 49 303"/></clipPath><clipPath id="c"><path d="M 79 63.78125 L 287 63.78125 L 287 130 L 79 130 Z M 79 63.78125"/></clipPath><clipPath id="d"><path d="M 62 176 L 141 176 L 141 311.28125 L 62 311.28125 Z M 62 176"/></clipPath><clipPath id="e"><path d="M 242 289 L 293 289 L 293 311.28125 L 242 311.28125 Z M 242 289"/></clipPath><clipPath id="f"><path d="M 50 293 L 101 293 L 101 311.28125 L 50 311.28125 Z M 50 293"/></clipPath></defs><path fill="#3E3D3D" d="M 280.964844 125.636719 L 284.277344 121.097656 L 335.082031 119.675781 L 346.773438 190.730469 L 343.421875 195.484375 L 289.304688 201.441406 Z M 280.964844 125.636719"/><path fill="#A6A6A6" d="M 284.277344 120.898438 L 338.398438 114.941406 L 346.734375 190.746094 L 292.617188 196.707031 Z M 284.277344 120.898438"/><path fill="#D9D9D9" d="M 0.238281 139.171875 L 59.21875 121.570312 L 83.84375 204.1875 L 24.867188 221.785156 Z M 0.238281 139.171875"/><path fill="#D9D9D9" d="M 326.90625 235.253906 C 326.90625 246.765625 317.582031 256.097656 306.078125 256.097656 C 294.570312 256.097656 285.246094 246.765625 285.246094 235.253906 C 285.246094 223.746094 294.570312 214.414062 306.078125 214.414062 C 317.582031 214.414062 326.90625 223.746094 326.90625 235.253906 Z M 326.90625 235.253906"/><g clip-path="url(#a)"><path fill="#D9D9D9" d="M 286.664062 297.78125 L 296.609375 314.359375 L 248.316406 314.359375 Z M 286.664062 297.78125"/></g><g clip-path="url(#b)"><path fill="#D9D9D9" d="M 54.683594 303.941406 L 49.949219 314.835938 L 89.71875 314.835938 Z M 54.683594 303.941406"/></g><path fill="#D9D9D9" d="M 101.554688 131.046875 C 101.554688 129.476562 102.824219 128.203125 104.394531 128.203125 L 256.839844 128.203125 C 258.410156 128.203125 259.679688 129.476562 259.679688 131.046875 L 259.679688 225.78125 C 259.679688 227.351562 258.410156 228.625 256.839844 228.625 L 104.394531 228.625 C 102.824219 228.625 101.554688 227.351562 101.554688 225.78125 Z M 101.554688 131.046875"/><path fill="#3E3D3D" d="M 100.605469 131.046875 C 100.605469 128.953125 102.300781 127.253906 104.394531 127.253906 L 256.839844 127.253906 C 258.929688 127.253906 260.625 128.953125 260.625 131.046875 L 260.625 225.78125 C 260.625 227.875 258.929688 229.570312 256.839844 229.570312 L 104.394531 229.570312 C 102.300781 229.570312 100.605469 227.875 100.605469 225.78125 Z M 104.394531 129.152344 C 103.347656 129.152344 102.5 130 102.5 131.046875 L 102.5 225.78125 C 102.5 226.828125 103.347656 227.675781 104.394531 227.675781 L 256.839844 227.675781 C 257.886719 227.675781 258.734375 226.828125 258.734375 225.78125 L 258.734375 131.046875 C 258.734375 130 257.886719 129.152344 256.839844 129.152344 Z M 104.394531 129.152344" fill-rule="evenodd"/><path fill="#3E3D3D" d="M 289.011719 139.835938 L 290.90625 133.886719 L 335.585938 111.625 L 377.070312 170.835938 L 375.0625 176.863281 L 328.488281 205.074219 Z M 289.011719 139.835938"/><path fill="#A6A6A6" d="M 290.90625 133.679688 L 337.480469 105.464844 L 376.957031 170.703125 L 330.382812 198.917969 Z M 290.90625 133.679688"/><path fill="#D9D9D9" d="M 11.269531 128.574219 L 72.816406 128.574219 L 72.816406 214.785156 L 11.269531 214.785156 Z M 11.269531 128.574219"/><path fill="#A6A6A6" d="M 47.226562 144.679688 L 53.796875 145.5625 L 46.117188 202.835938 L 42.011719 208.5 L 39.546875 201.953125 Z M 47.226562 144.679688"/><path fill="#FFF" d="M 333.542969 125.21875 L 308.449219 140.847656 L 307.449219 139.242188 L 332.542969 123.609375 Z M 327.390625 142.742188 L 314.609375 150.792969 L 313.601562 149.191406 L 326.382812 141.136719 Z M 327.390625 142.742188" fill-rule="evenodd"/><path fill="#FFF" d="M 321.207031 161.753906 L 346.691406 147.152344 L 354.691406 161.125 L 329.207031 175.730469 Z M 321.207031 161.753906"/><path fill="#FFF" d="M 322.171875 235.253906 C 322.171875 244.152344 314.964844 251.359375 306.078125 251.359375 C 297.1875 251.359375 289.980469 244.152344 289.980469 235.253906 C 289.980469 226.359375 297.1875 219.152344 306.078125 219.152344 C 314.964844 219.152344 322.171875 226.359375 322.171875 235.253906 Z M 322.171875 235.253906"/><path fill="#D9D9D9" d="M 323.628906 240.464844 L 334.71875 245.808594 L 331.84375 251.785156 L 320.753906 246.441406 Z M 323.628906 240.464844"/><path fill="#D9D9D9" d="M 133.902344 254.800781 C 133.292969 253.351562 133.972656 251.6875 135.417969 251.078125 L 154.617188 242.988281 C 156.0625 242.382812 157.726562 243.058594 158.335938 244.507812 L 173.769531 281.179688 C 174.375 282.625 173.699219 284.292969 172.25 284.902344 L 153.054688 292.988281 C 151.605469 293.597656 149.941406 292.917969 149.332031 291.472656 Z M 133.902344 254.800781"/><path fill="#FFF" d="M 135.648438 254.066406 C 135.445312 253.582031 135.671875 253.027344 136.152344 252.824219 L 139.886719 251.25 C 140.261719 251.09375 140.699219 251.191406 140.964844 251.5 L 142.039062 252.722656 C 142.308594 253.03125 142.742188 253.128906 143.121094 252.972656 L 149.714844 250.195312 C 150.089844 250.035156 150.324219 249.65625 150.292969 249.25 L 150.167969 247.621094 C 150.136719 247.214844 150.367188 246.835938 150.742188 246.675781 L 155.351562 244.738281 C 155.832031 244.535156 156.386719 244.757812 156.589844 245.242188 L 172.023438 281.914062 C 172.226562 282.398438 172 282.953125 171.515625 283.15625 L 152.320312 291.242188 C 151.835938 291.445312 151.28125 291.21875 151.078125 290.738281 Z M 135.648438 254.066406"/><path fill="#D9D9D9" d="M 80.628906 68.511719 C 79.980469 66.664062 81.351562 64.730469 83.308594 64.730469 L 282.816406 64.730469 C 284.859375 64.730469 286.234375 66.824219 285.421875 68.699219 L 259.679688 128.203125 L 101.554688 128.203125 Z M 80.628906 68.511719"/><g clip-path="url(#c)"><path fill="#3E3D3D" d="M 79.734375 68.824219 C 78.871094 66.363281 80.699219 63.78125 83.308594 63.78125 L 282.8125 63.78125 C 285.539062 63.78125 287.371094 66.574219 286.289062 69.078125 L 260.300781 129.152344 L 100.882812 129.152344 Z M 83.308594 65.675781 C 82.003906 65.675781 81.089844 66.964844 81.519531 68.199219 L 102.222656 127.253906 L 259.058594 127.253906 L 284.550781 68.324219 C 285.09375 67.074219 284.175781 65.675781 282.8125 65.675781 Z M 83.308594 65.675781" fill-rule="evenodd"/></g><path fill="#FFF" d="M 89.585938 74.175781 C 88.953125 72.332031 90.324219 70.414062 92.273438 70.414062 L 274.300781 70.414062 C 276.34375 70.414062 277.714844 72.503906 276.910156 74.378906 L 255.367188 124.414062 L 106.777344 124.414062 Z M 89.585938 74.175781"/><path fill="#D9D9D9" d="M 161.207031 201.152344 C 161.207031 199.582031 162.476562 198.308594 164.046875 198.308594 L 197.1875 198.308594 C 198.753906 198.308594 200.027344 199.582031 200.027344 201.152344 L 200.027344 219.152344 C 200.027344 220.71875 198.753906 221.992188 197.1875 221.992188 L 164.046875 221.992188 C 162.476562 221.992188 161.207031 220.71875 161.207031 219.152344 Z M 161.207031 201.152344"/><path fill="#A6A6A6" d="M 114.335938 114.941406 L 106.289062 81.308594 L 155.050781 81.308594 L 153.15625 114.941406 Z M 114.335938 114.941406"/><path fill="#3E3D3D" d="M 245.949219 88.414062 L 170.675781 88.414062 L 170.675781 86.519531 L 245.949219 86.519531 Z M 214.230469 101.675781 L 168.78125 101.675781 L 168.78125 99.78125 L 214.230469 99.78125 Z M 212.808594 113.992188 L 167.359375 113.992188 L 167.359375 112.097656 L 212.808594 112.097656 Z M 212.808594 113.992188" fill-rule="evenodd"/><path fill="#A6A6A6" d="M 117.648438 142.414062 L 128.066406 142.414062 L 128.066406 147.570312 L 117.648438 147.570312 Z M 117.648438 142.414062"/><path fill="#A6A6A6" d="M 129.960938 142.414062 L 140.375 142.414062 L 140.375 147.570312 L 129.960938 147.570312 Z M 129.960938 142.414062"/><path fill="#A6A6A6" d="M 142.269531 142.414062 L 153.628906 142.414062 L 153.628906 147.570312 L 142.269531 147.570312 Z M 142.269531 142.414062"/><path fill="#A6A6A6" d="M 155.523438 142.414062 L 165.941406 142.414062 L 165.941406 147.570312 L 155.523438 147.570312 Z M 155.523438 142.414062"/><path fill="#A6A6A6" d="M 167.832031 142.414062 L 179.195312 142.414062 L 179.195312 147.570312 L 167.832031 147.570312 Z M 167.832031 142.414062"/><path fill="#A6A6A6" d="M 181.089844 142.414062 L 192.453125 142.414062 L 192.453125 147.570312 L 181.089844 147.570312 Z M 181.089844 142.414062"/><path fill="#A6A6A6" d="M 194.347656 142.414062 L 204.761719 142.414062 L 204.761719 147.570312 L 194.347656 147.570312 Z M 194.347656 142.414062"/><path fill="#A6A6A6" d="M 206.65625 142.414062 L 218.019531 142.414062 L 218.019531 147.570312 L 206.65625 147.570312 Z M 206.65625 142.414062"/><path fill="#A6A6A6" d="M 219.910156 142.414062 L 230.328125 142.414062 L 230.328125 147.570312 L 219.910156 147.570312 Z M 219.910156 142.414062"/><path fill="#A6A6A6" d="M 232.222656 142.414062 L 243.582031 142.414062 L 243.582031 147.570312 L 232.222656 147.570312 Z M 232.222656 142.414062"/><path fill="#A6A6A6" d="M 117.648438 149.519531 L 120.492188 149.519531 L 120.492188 155.203125 L 117.648438 155.203125 Z M 117.648438 149.519531"/><path fill="#A6A6A6" d="M 117.648438 158.046875 L 123.332031 158.046875 L 123.332031 163.730469 L 117.648438 163.730469 Z M 117.648438 158.046875"/><path fill="#A6A6A6" d="M 117.648438 166.140625 L 125.226562 166.140625 L 125.226562 172.328125 L 117.648438 172.328125 Z M 117.648438 166.140625"/><path fill="#A6A6A6" d="M 117.648438 174.390625 L 129.960938 174.390625 L 129.960938 180.582031 L 117.648438 180.582031 Z M 117.648438 174.390625"/><path fill="#A6A6A6" d="M 122.382812 149.632812 L 128.066406 149.632812 L 128.066406 155.824219 L 122.382812 155.824219 Z M 122.382812 149.632812"/><path fill="#A6A6A6" d="M 125.226562 157.886719 L 130.90625 157.886719 L 130.90625 164.078125 L 125.226562 164.078125 Z M 125.226562 157.886719"/><path fill="#A6A6A6" d="M 127.117188 166.140625 L 132.800781 166.140625 L 132.800781 172.328125 L 127.117188 172.328125 Z M 127.117188 166.140625"/><path fill="#A6A6A6" d="M 132.800781 157.886719 L 138.480469 157.886719 L 138.480469 164.078125 L 132.800781 164.078125 Z M 132.800781 157.886719"/><path fill="#A6A6A6" d="M 134.695312 166.140625 L 140.375 166.140625 L 140.375 172.328125 L 134.695312 172.328125 Z M 134.695312 166.140625"/><path fill="#A6A6A6" d="M 131.851562 174.390625 L 137.535156 174.390625 L 137.535156 180.582031 L 131.851562 180.582031 Z M 131.851562 174.390625"/><path fill="#A6A6A6" d="M 117.648438 182.644531 L 123.332031 182.644531 L 123.332031 188.835938 L 117.648438 188.835938 Z M 117.648438 182.644531"/><path fill="#A6A6A6" d="M 140.375 157.886719 L 146.054688 157.886719 L 146.054688 164.078125 L 140.375 164.078125 Z M 140.375 157.886719"/><path fill="#A6A6A6" d="M 142.269531 166.140625 L 147.949219 166.140625 L 147.949219 172.328125 L 142.269531 172.328125 Z M 142.269531 166.140625"/><path fill="#A6A6A6" d="M 139.429688 174.390625 L 145.109375 174.390625 L 145.109375 180.582031 L 139.429688 180.582031 Z M 139.429688 174.390625"/><path fill="#A6A6A6" d="M 125.226562 182.644531 L 130.90625 182.644531 L 130.90625 188.835938 L 125.226562 188.835938 Z M 125.226562 182.644531"/><path fill="#A6A6A6" d="M 147.949219 157.886719 L 153.628906 157.886719 L 153.628906 164.078125 L 147.949219 164.078125 Z M 147.949219 157.886719"/><path fill="#A6A6A6" d="M 149.84375 166.140625 L 155.523438 166.140625 L 155.523438 172.328125 L 149.84375 172.328125 Z M 149.84375 166.140625"/><path fill="#A6A6A6" d="M 147.003906 174.390625 L 152.683594 174.390625 L 152.683594 180.582031 L 147.003906 180.582031 Z M 147.003906 174.390625"/><path fill="#A6A6A6" d="M 132.800781 182.644531 L 138.480469 182.644531 L 138.480469 188.835938 L 132.800781 188.835938 Z M 132.800781 182.644531"/><path fill="#A6A6A6" d="M 155.523438 157.886719 L 161.207031 157.886719 L 161.207031 164.078125 L 155.523438 164.078125 Z M 155.523438 157.886719"/><path fill="#A6A6A6" d="M 157.417969 166.140625 L 163.097656 166.140625 L 163.097656 172.328125 L 157.417969 172.328125 Z M 157.417969 166.140625"/><path fill="#A6A6A6" d="M 154.578125 174.390625 L 160.257812 174.390625 L 160.257812 180.582031 L 154.578125 180.582031 Z M 154.578125 174.390625"/><path fill="#A6A6A6" d="M 140.375 182.644531 L 146.054688 182.644531 L 146.054688 188.835938 L 140.375 188.835938 Z M 140.375 182.644531"/><path fill="#A6A6A6" d="M 163.097656 157.886719 L 168.78125 157.886719 L 168.78125 164.078125 L 163.097656 164.078125 Z M 163.097656 157.886719"/><path fill="#A6A6A6" d="M 164.992188 166.140625 L 170.675781 166.140625 L 170.675781 172.328125 L 164.992188 172.328125 Z M 164.992188 166.140625"/><path fill="#A6A6A6" d="M 162.152344 174.390625 L 167.832031 174.390625 L 167.832031 180.582031 L 162.152344 180.582031 Z M 162.152344 174.390625"/><path fill="#A6A6A6" d="M 170.675781 157.886719 L 176.355469 157.886719 L 176.355469 164.078125 L 170.675781 164.078125 Z M 170.675781 157.886719"/><path fill="#A6A6A6" d="M 172.566406 166.140625 L 178.25 166.140625 L 178.25 172.328125 L 172.566406 172.328125 Z M 172.566406 166.140625"/><path fill="#A6A6A6" d="M 169.726562 174.390625 L 175.410156 174.390625 L 175.410156 180.582031 L 169.726562 180.582031 Z M 169.726562 174.390625"/><path fill="#A6A6A6" d="M 178.25 157.886719 L 183.929688 157.886719 L 183.929688 164.078125 L 178.25 164.078125 Z M 178.25 157.886719"/><path fill="#A6A6A6" d="M 180.144531 166.140625 L 185.824219 166.140625 L 185.824219 172.328125 L 180.144531 172.328125 Z M 180.144531 166.140625"/><path fill="#A6A6A6" d="M 177.300781 174.390625 L 182.984375 174.390625 L 182.984375 180.582031 L 177.300781 180.582031 Z M 177.300781 174.390625"/><path fill="#A6A6A6" d="M 185.824219 157.886719 L 191.503906 157.886719 L 191.503906 164.078125 L 185.824219 164.078125 Z M 185.824219 157.886719"/><path fill="#A6A6A6" d="M 187.71875 166.140625 L 193.398438 166.140625 L 193.398438 172.328125 L 187.71875 172.328125 Z M 187.71875 166.140625"/><path fill="#A6A6A6" d="M 184.878906 174.390625 L 190.558594 174.390625 L 190.558594 180.582031 L 184.878906 180.582031 Z M 184.878906 174.390625"/><path fill="#A6A6A6" d="M 193.398438 157.886719 L 199.082031 157.886719 L 199.082031 164.078125 L 193.398438 164.078125 Z M 193.398438 157.886719"/><path fill="#A6A6A6" d="M 195.292969 166.140625 L 200.972656 166.140625 L 200.972656 172.328125 L 195.292969 172.328125 Z M 195.292969 166.140625"/><path fill="#A6A6A6" d="M 192.453125 174.390625 L 198.132812 174.390625 L 198.132812 180.582031 L 192.453125 180.582031 Z M 192.453125 174.390625"/><path fill="#A6A6A6" d="M 200.972656 157.886719 L 206.65625 157.886719 L 206.65625 164.078125 L 200.972656 164.078125 Z M 200.972656 157.886719"/><path fill="#A6A6A6" d="M 202.867188 166.140625 L 208.550781 166.140625 L 208.550781 172.328125 L 202.867188 172.328125 Z M 202.867188 166.140625"/><path fill="#A6A6A6" d="M 200.027344 174.390625 L 205.707031 174.390625 L 205.707031 180.582031 L 200.027344 180.582031 Z M 200.027344 174.390625"/><path fill="#A6A6A6" d="M 208.550781 157.886719 L 214.230469 157.886719 L 214.230469 164.078125 L 208.550781 164.078125 Z M 208.550781 157.886719"/><path fill="#A6A6A6" d="M 210.441406 166.140625 L 216.125 166.140625 L 216.125 172.328125 L 210.441406 172.328125 Z M 210.441406 166.140625"/><path fill="#A6A6A6" d="M 207.601562 174.390625 L 213.285156 174.390625 L 213.285156 180.582031 L 207.601562 180.582031 Z M 207.601562 174.390625"/><path fill="#A6A6A6" d="M 218.019531 166.140625 L 236.007812 166.140625 L 236.007812 172.328125 L 218.019531 172.328125 Z M 218.019531 166.140625"/><path fill="#A6A6A6" d="M 215.175781 174.390625 L 236.007812 174.390625 L 236.007812 180.582031 L 215.175781 180.582031 Z M 215.175781 174.390625"/><path fill="#A6A6A6" d="M 216.125 157.886719 L 221.804688 157.886719 L 221.804688 164.078125 L 216.125 164.078125 Z M 216.125 157.886719"/><path fill="#A6A6A6" d="M 223.699219 157.886719 L 236.007812 157.886719 L 236.007812 164.078125 L 223.699219 164.078125 Z M 223.699219 157.886719"/><path fill="#A6A6A6" d="M 129.960938 149.632812 L 135.640625 149.632812 L 135.640625 155.824219 L 129.960938 155.824219 Z M 129.960938 149.632812"/><path fill="#A6A6A6" d="M 137.535156 149.632812 L 143.214844 149.632812 L 143.214844 155.824219 L 137.535156 155.824219 Z M 137.535156 149.632812"/><path fill="#A6A6A6" d="M 145.109375 149.632812 L 150.789062 149.632812 L 150.789062 155.824219 L 145.109375 155.824219 Z M 145.109375 149.632812"/><path fill="#A6A6A6" d="M 152.683594 149.632812 L 158.363281 149.632812 L 158.363281 155.824219 L 152.683594 155.824219 Z M 152.683594 149.632812"/><path fill="#A6A6A6" d="M 160.257812 149.632812 L 165.941406 149.632812 L 165.941406 155.824219 L 160.257812 155.824219 Z M 160.257812 149.632812"/><path fill="#A6A6A6" d="M 167.832031 149.632812 L 173.515625 149.632812 L 173.515625 155.824219 L 167.832031 155.824219 Z M 167.832031 149.632812"/><path fill="#A6A6A6" d="M 175.410156 149.632812 L 181.089844 149.632812 L 181.089844 155.824219 L 175.410156 155.824219 Z M 175.410156 149.632812"/><path fill="#A6A6A6" d="M 182.984375 149.632812 L 188.664062 149.632812 L 188.664062 155.824219 L 182.984375 155.824219 Z M 182.984375 149.632812"/><path fill="#A6A6A6" d="M 190.558594 149.632812 L 196.238281 149.632812 L 196.238281 155.824219 L 190.558594 155.824219 Z M 190.558594 149.632812"/><path fill="#A6A6A6" d="M 198.132812 149.632812 L 203.816406 149.632812 L 203.816406 155.824219 L 198.132812 155.824219 Z M 198.132812 149.632812"/><path fill="#A6A6A6" d="M 205.707031 149.632812 L 211.390625 149.632812 L 211.390625 155.824219 L 205.707031 155.824219 Z M 205.707031 149.632812"/><path fill="#A6A6A6" d="M 213.285156 149.632812 L 218.964844 149.632812 L 218.964844 155.824219 L 213.285156 155.824219 Z M 213.285156 149.632812"/><path fill="#A6A6A6" d="M 237.902344 149.632812 L 243.582031 149.632812 L 243.582031 155.824219 L 237.902344 155.824219 Z M 237.902344 149.632812"/><path fill="#A6A6A6" d="M 237.902344 157.886719 L 243.582031 157.886719 L 243.582031 164.078125 L 237.902344 164.078125 Z M 237.902344 157.886719"/><path fill="#A6A6A6" d="M 237.902344 166.140625 L 243.582031 166.140625 L 243.582031 172.328125 L 237.902344 172.328125 Z M 237.902344 166.140625"/><path fill="#A6A6A6" d="M 237.902344 174.390625 L 243.582031 174.390625 L 243.582031 180.582031 L 237.902344 180.582031 Z M 237.902344 174.390625"/><path fill="#A6A6A6" d="M 237.902344 182.644531 L 243.582031 182.644531 L 243.582031 188.835938 L 237.902344 188.835938 Z M 237.902344 182.644531"/><path fill="#A6A6A6" d="M 230.328125 182.644531 L 236.007812 182.644531 L 236.007812 188.835938 L 230.328125 188.835938 Z M 230.328125 182.644531"/><path fill="#A6A6A6" d="M 222.753906 182.644531 L 228.433594 182.644531 L 228.433594 188.835938 L 222.753906 188.835938 Z M 222.753906 182.644531"/><path fill="#A6A6A6" d="M 215.175781 182.644531 L 220.859375 182.644531 L 220.859375 188.835938 L 215.175781 188.835938 Z M 215.175781 182.644531"/><path fill="#A6A6A6" d="M 207.601562 182.644531 L 213.285156 182.644531 L 213.285156 188.835938 L 207.601562 188.835938 Z M 207.601562 182.644531"/><path fill="#A6A6A6" d="M 200.027344 182.644531 L 205.707031 182.644531 L 205.707031 188.835938 L 200.027344 188.835938 Z M 200.027344 182.644531"/><path fill="#A6A6A6" d="M 147.949219 182.644531 L 198.132812 182.644531 L 198.132812 188.835938 L 147.949219 188.835938 Z M 147.949219 182.644531"/><path fill="#A6A6A6" d="M 220.859375 149.632812 L 236.007812 149.632812 L 236.007812 155.824219 L 220.859375 155.824219 Z M 220.859375 149.632812"/><g clip-path="url(#d)"><path fill="#FFD6B4" d="M 88.769531 248.046875 C 86.121094 254.488281 69.992188 284.203125 62.257812 298.253906 L 93.976562 311.992188 C 98.871094 294.625 109.035156 258.75 110.546875 254.203125 C 112.441406 248.519531 116.703125 242.835938 121.910156 239.046875 C 126.078125 236.011719 130.90625 228.941406 132.800781 225.78125 L 137.519531 211.617188 C 138.058594 209.992188 137.253906 208.21875 135.671875 207.558594 C 134.0625 206.886719 132.210938 207.59375 131.457031 209.167969 L 127.59375 217.253906 L 120.492188 223.886719 L 121.910156 214.886719 L 129.011719 200.203125 L 138.953125 193.039062 C 140.046875 192.253906 140.40625 190.792969 139.804688 189.589844 C 139.089844 188.160156 137.3125 187.640625 135.941406 188.464844 L 126.644531 194.046875 L 120.492188 201.625 L 125.226562 190.253906 L 134.394531 180.683594 C 135.351562 179.683594 135.332031 178.105469 134.355469 177.128906 C 133.464844 176.234375 132.050781 176.136719 131.039062 176.894531 L 123.332031 182.675781 L 114.335938 186.941406 C 110.546875 187.414062 108.65625 191.203125 101.554688 199.253906 C 94.453125 207.308594 94.453125 219.625 93.976562 229.097656 C 93.503906 238.570312 92.085938 239.992188 88.769531 248.046875 Z M 88.769531 248.046875"/></g><path fill="#D9D9D9" d="M 103.328125 272.277344 L 82.871094 262.972656 C 81.425781 262.316406 80.800781 260.609375 81.476562 259.175781 L 82.882812 256.183594 C 83.527344 254.808594 85.140625 254.1875 86.539062 254.769531 L 106.761719 263.167969 C 108.105469 263.726562 108.808594 265.210938 108.390625 266.609375 L 107.222656 270.507812 C 106.726562 272.15625 104.894531 272.988281 103.328125 272.277344 Z M 103.328125 272.277344"/><path fill="#A6A6A6" d="M 100.605469 263.203125 C 100.605469 267.128906 97.425781 270.308594 93.503906 270.308594 C 89.582031 270.308594 86.402344 267.128906 86.402344 263.203125 C 86.402344 259.277344 89.582031 256.097656 93.503906 256.097656 C 97.425781 256.097656 100.605469 259.277344 100.605469 263.203125 Z M 100.605469 263.203125"/><path fill="#FFD6B4" d="M 232.695312 254.675781 C 234.210938 256.949219 243.425781 291.625 247.84375 308.675781 L 281.929688 295.414062 C 276.882812 288.464844 264.792969 271.160156 256.839844 257.519531 C 246.898438 240.464844 247.84375 231.941406 245.949219 224.359375 C 244.433594 218.296875 241.847656 210.464844 240.742188 207.308594 L 238.257812 201.621094 C 237.824219 200.636719 236.605469 200.277344 235.710938 200.875 C 235.050781 201.316406 234.773438 202.148438 235.042969 202.894531 L 236.953125 208.253906 L 236.953125 214.414062 L 231.746094 200.675781 L 226.925781 195.480469 C 226.144531 194.636719 224.886719 194.4375 223.878906 194.996094 C 222.539062 195.742188 222.179688 197.507812 223.121094 198.714844 L 227.960938 204.941406 L 229.855469 213.464844 L 222.277344 203.992188 L 213.925781 199.632812 C 212.570312 198.925781 210.894531 199.542969 210.328125 200.964844 C 209.851562 202.160156 210.320312 203.523438 211.433594 204.167969 L 218.492188 208.253906 L 223.699219 215.835938 L 213.757812 211.097656 L 208.960938 211.097656 C 207.949219 211.097656 207.128906 211.917969 207.128906 212.933594 C 207.128906 213.796875 207.734375 214.542969 208.578125 214.722656 L 213.757812 215.835938 L 220.386719 221.992188 L 225.59375 235.253906 L 220.386719 233.359375 L 214.769531 223.734375 C 214.179688 222.71875 212.960938 222.257812 211.847656 222.628906 C 210.550781 223.0625 209.808594 224.476562 210.144531 225.804688 C 210.449219 227.011719 210.863281 228.707031 211.390625 230.992188 C 212.808594 237.152344 216.125 242.359375 217.542969 244.253906 C 218.964844 246.152344 230.800781 251.835938 232.695312 254.675781 Z M 232.695312 254.675781"/><g clip-path="url(#e)"><path fill="#A6A6A6" d="M 242.582031 310.230469 L 243.429688 312.609375 C 243.8125 313.671875 244.785156 314.410156 245.910156 314.488281 L 257.113281 315.261719 C 257.554688 315.292969 258 315.21875 258.410156 315.046875 L 290.660156 301.460938 C 292.28125 300.777344 292.898438 298.792969 291.949219 297.308594 L 287.5 290.351562 C 286.746094 289.175781 285.25 288.71875 283.972656 289.277344 L 244.121094 306.667969 C 242.75 307.265625 242.078125 308.820312 242.582031 310.230469 Z M 242.582031 310.230469"/></g><g clip-path="url(#f)"><path fill="#A6A6A6" d="M 52.300781 305.414062 L 78.367188 314.671875 C 78.671875 314.777344 78.992188 314.835938 79.316406 314.835938 L 97.429688 314.835938 C 98.507812 314.835938 99.488281 314.226562 99.972656 313.261719 L 100.125 312.957031 C 100.882812 311.4375 100.144531 309.589844 98.542969 309.015625 L 56.753906 293.960938 C 55.328125 293.449219 53.753906 294.144531 53.171875 295.542969 L 50.628906 301.644531 C 50 303.148438 50.765625 304.871094 52.300781 305.414062 Z M 52.300781 305.414062"/></g><path fill="#D9D9D9" d="M 57.996094 249.941406 C 57.996094 254.910156 53.96875 258.941406 49.003906 258.941406 C 44.035156 258.941406 40.007812 254.910156 40.007812 249.941406 C 40.007812 244.96875 44.035156 240.941406 49.003906 240.941406 C 53.96875 240.941406 57.996094 244.96875 57.996094 249.941406 Z M 57.996094 249.941406"/></svg>