<svg xmlns="http://www.w3.org/2000/svg" width="810" viewBox="0 0 810 810" height="810" version="1.0"><defs><clipPath id="a"><path d="M 617 342 L 803.324219 342 L 803.324219 468 L 617 468 Z M 617 342"/></clipPath><clipPath id="b"><path d="M 6.824219 342 L 193 342 L 193 468 L 6.824219 468 Z M 6.824219 342"/></clipPath></defs><path fill="#231F20" d="M 410.972656 228.542969 C 508.3125 228.542969 587.457031 307.695312 587.457031 405.015625 C 587.457031 502.308594 508.316406 581.5 410.972656 581.5 C 313.648438 581.5 234.449219 502.304688 234.449219 405.015625 C 234.449219 307.695312 313.648438 228.542969 410.972656 228.542969 M 410.972656 105.789062 C 245.667969 105.789062 111.6875 239.785156 111.6875 405.015625 C 111.6875 570.296875 245.667969 704.238281 410.972656 704.238281 C 576.21875 704.238281 710.25 570.296875 710.25 405.015625 C 710.25 239.785156 576.253906 105.789062 410.972656 105.789062 Z M 410.972656 105.789062"/><path fill="#231F20" d="M 468.523438 147.101562 C 468.523438 169.207031 450.683594 187.019531 428.648438 187.019531 L 383.746094 187.019531 C 361.695312 187.019531 343.828125 169.207031 343.828125 147.101562 L 343.828125 40.855469 C 343.828125 18.808594 361.675781 0.914062 383.746094 0.914062 L 428.648438 0.914062 C 450.667969 0.914062 468.523438 18.804688 468.523438 40.855469 Z M 468.523438 147.101562"/><path fill="#231F20" d="M 468.523438 769.203125 C 468.523438 791.238281 450.683594 809.085938 428.648438 809.085938 L 383.746094 809.085938 C 361.695312 809.085938 343.828125 791.285156 343.828125 769.203125 L 343.828125 662.945312 C 343.828125 640.867188 361.675781 623.066406 383.746094 623.066406 L 428.648438 623.066406 C 450.667969 623.066406 468.523438 640.835938 468.523438 662.949219 Z M 468.523438 769.203125"/><path fill="#231F20" d="M 267.867188 176.351562 C 283.460938 191.933594 283.425781 217.171875 267.867188 232.738281 L 236.105469 264.460938 C 220.546875 280.066406 195.292969 280.066406 179.667969 264.460938 L 104.511719 189.328125 C 88.925781 173.707031 88.925781 148.507812 104.511719 132.96875 L 136.242188 101.164062 C 151.847656 85.589844 177.078125 85.589844 192.695312 101.164062 Z M 267.867188 176.351562"/><path fill="#231F20" d="M 707.828125 616.222656 C 723.480469 631.851562 723.414062 657.035156 707.828125 672.570312 L 676.074219 704.367188 C 660.492188 719.964844 635.269531 719.964844 619.6875 704.367188 L 544.511719 629.238281 C 528.929688 613.59375 528.929688 588.359375 544.511719 572.796875 L 576.269531 541.0625 C 591.851562 525.480469 617.039062 525.480469 632.65625 541.0625 Z M 707.828125 616.222656"/><path fill="#231F20" d="M 184.46875 541.027344 C 200.078125 525.449219 225.347656 525.449219 240.925781 541.027344 L 272.65625 572.761719 C 288.25 588.355469 288.261719 613.542969 272.65625 629.238281 L 197.484375 704.296875 C 181.875 719.925781 156.65625 719.925781 141.078125 704.296875 L 109.316406 672.566406 C 93.753906 657 93.707031 631.785156 109.316406 616.1875 Z M 184.46875 541.027344"/><path fill="#231F20" d="M 624.441406 101.160156 C 640.042969 85.554688 665.261719 85.589844 680.828125 101.160156 L 712.632812 132.882812 C 728.203125 148.507812 728.203125 173.707031 712.632812 189.328125 L 637.445312 264.464844 C 621.84375 280.066406 596.605469 280.066406 581.023438 264.464844 L 549.285156 232.738281 C 533.683594 217.175781 533.652344 191.933594 549.285156 176.292969 Z M 624.441406 101.160156"/><g clip-path="url(#a)"><path fill="#231F20" d="M 657.09375 467.355469 C 635.042969 467.355469 617.203125 449.457031 617.203125 427.425781 L 617.203125 382.550781 C 617.203125 360.527344 635.007812 342.652344 657.09375 342.652344 L 763.367188 342.652344 C 785.4375 342.652344 803.324219 360.511719 803.324219 382.550781 L 803.324219 427.472656 C 803.324219 449.453125 785.453125 467.386719 763.367188 467.386719 Z M 657.09375 467.355469"/></g><g clip-path="url(#b)"><path fill="#231F20" d="M 46.699219 467.355469 C 24.65625 467.355469 6.824219 449.457031 6.824219 427.425781 L 6.824219 382.550781 C 6.824219 360.527344 24.65625 342.652344 46.699219 342.652344 L 153.023438 342.652344 C 175.085938 342.652344 192.898438 360.511719 192.898438 382.550781 L 192.898438 427.472656 C 192.898438 449.453125 175.085938 467.386719 153.023438 467.386719 Z M 46.699219 467.355469"/></g></svg>