<svg xmlns="http://www.w3.org/2000/svg" width="810" viewBox="0 0 810 810" height="810" version="1.0"><defs><clipPath id="a"><path d="M 50.625 0 L 759.375 0 L 759.375 810 L 50.625 810 Z M 50.625 0"/></clipPath></defs><g clip-path="url(#a)"><path d="M 202.5 135 L 506.25 135 C 515.566406 135 523.125 127.441406 523.125 118.125 L 523.125 84.375 C 523.125 56.464844 500.410156 33.75 472.5 33.75 L 412.628906 33.75 C 400.679688 13.164062 378.574219 0 354.375 0 C 330.175781 0 308.070312 13.164062 296.121094 33.75 L 236.25 33.75 C 208.339844 33.75 185.625 56.464844 185.625 84.375 L 185.625 118.125 C 185.625 127.441406 193.183594 135 202.5 135 Z M 573.75 438.75 C 471.421875 438.75 388.125 522.011719 388.125 624.375 C 388.125 726.738281 471.421875 810 573.75 810 C 676.078125 810 759.375 726.738281 759.375 624.375 C 759.375 522.011719 676.078125 438.75 573.75 438.75 Z M 641.25 641.25 L 506.25 641.25 C 496.933594 641.25 489.375 633.691406 489.375 624.375 C 489.375 615.0625 496.933594 607.5 506.25 607.5 L 641.25 607.5 C 650.566406 607.5 658.125 615.0625 658.125 624.375 C 658.125 633.691406 650.566406 641.25 641.25 641.25 Z M 354.375 624.375 C 354.375 503.414062 452.789062 405 573.75 405 C 594.808594 405 615.902344 408.105469 636.421875 414.214844 C 641.554688 415.800781 647.089844 414.789062 651.308594 411.582031 C 655.59375 408.410156 658.089844 403.382812 658.089844 398.046875 L 658.089844 118.125 C 658.125 90.214844 635.410156 67.5 607.5 67.5 L 573.75 67.5 C 564.433594 67.5 556.875 75.0625 556.875 84.375 L 556.875 118.125 C 556.875 146.039062 534.160156 168.75 506.25 168.75 L 202.5 168.75 C 174.589844 168.75 151.875 146.039062 151.875 118.125 L 151.875 84.375 C 151.875 75.0625 144.316406 67.5 135 67.5 L 101.25 67.5 C 73.339844 67.5 50.625 90.214844 50.625 118.125 L 50.625 759.375 C 50.625 787.289062 73.339844 810 101.25 810 L 408.542969 810 C 408.78125 810 409.050781 810.035156 409.21875 810 C 418.535156 810 426.09375 802.441406 426.09375 793.125 C 426.09375 786.984375 422.820312 781.652344 417.960938 778.679688 C 376.921875 737.304688 354.375 682.628906 354.375 624.375 Z M 354.375 624.375"/></g></svg>