<svg xmlns="http://www.w3.org/2000/svg" width="810" viewBox="0 0 810 810" height="810" version="1.0"><defs><clipPath id="a"><path d="M 0 29.453125 L 810 29.453125 L 810 780.203125 L 0 780.203125 Z M 0 29.453125"/></clipPath></defs><path d="M 250.941406 578.078125 C 249.042969 578.078125 247.164062 577.894531 245.304688 577.523438 C 243.445312 577.152344 241.636719 576.605469 239.886719 575.878906 C 238.132812 575.152344 236.46875 574.265625 234.894531 573.210938 C 233.316406 572.15625 231.855469 570.960938 230.515625 569.621094 L 153.472656 492.636719 C 152.800781 491.96875 152.167969 491.269531 151.566406 490.539062 C 150.964844 489.808594 150.402344 489.046875 149.875 488.261719 C 149.347656 487.476562 148.863281 486.664062 148.414062 485.828125 C 147.96875 484.996094 147.5625 484.140625 147.199219 483.265625 C 146.839844 482.394531 146.519531 481.503906 146.246094 480.597656 C 145.96875 479.691406 145.738281 478.773438 145.554688 477.847656 C 145.371094 476.917969 145.230469 475.984375 145.136719 475.042969 C 145.046875 474.101562 145 473.15625 145 472.210938 C 145 471.261719 145.046875 470.320312 145.136719 469.378906 C 145.230469 468.433594 145.371094 467.5 145.554688 466.574219 C 145.738281 465.644531 145.96875 464.726562 146.246094 463.820312 C 146.519531 462.917969 146.839844 462.027344 147.199219 461.152344 C 147.5625 460.277344 147.96875 459.421875 148.414062 458.589844 C 148.863281 457.753906 149.347656 456.945312 149.875 456.15625 C 150.402344 455.371094 150.964844 454.613281 151.566406 453.878906 C 152.167969 453.148438 152.800781 452.449219 153.472656 451.78125 L 230.515625 374.769531 C 231.183594 374.101562 231.886719 373.464844 232.617188 372.867188 C 233.347656 372.265625 234.109375 371.703125 234.894531 371.175781 C 235.683594 370.648438 236.492188 370.164062 237.328125 369.71875 C 238.164062 369.273438 239.019531 368.867188 239.890625 368.503906 C 240.765625 368.144531 241.65625 367.824219 242.5625 367.550781 C 243.46875 367.273438 244.386719 367.042969 245.316406 366.859375 C 246.242188 366.675781 247.179688 366.535156 248.121094 366.445312 C 249.0625 366.351562 250.007812 366.304688 250.953125 366.304688 C 251.902344 366.304688 252.84375 366.351562 253.789062 366.445312 C 254.730469 366.535156 255.664062 366.675781 256.59375 366.859375 C 257.523438 367.042969 258.4375 367.273438 259.34375 367.550781 C 260.25 367.824219 261.140625 368.144531 262.015625 368.503906 C 262.890625 368.867188 263.746094 369.273438 264.582031 369.71875 C 265.414062 370.164062 266.226562 370.648438 267.011719 371.175781 C 267.800781 371.703125 268.558594 372.265625 269.292969 372.867188 C 270.023438 373.464844 270.722656 374.101562 271.390625 374.769531 C 272.0625 375.441406 272.695312 376.140625 273.296875 376.871094 C 273.898438 377.605469 274.460938 378.363281 274.984375 379.152344 C 275.511719 379.9375 275.996094 380.75 276.441406 381.582031 C 276.886719 382.417969 277.292969 383.273438 277.65625 384.148438 C 278.015625 385.023438 278.335938 385.910156 278.609375 386.816406 C 278.882812 387.722656 279.113281 388.640625 279.296875 389.570312 C 279.480469 390.496094 279.617188 391.433594 279.710938 392.375 C 279.804688 393.316406 279.847656 394.257812 279.847656 395.207031 C 279.847656 396.152344 279.800781 397.097656 279.707031 398.039062 C 279.613281 398.980469 279.472656 399.914062 279.289062 400.84375 C 279.101562 401.769531 278.871094 402.6875 278.597656 403.59375 C 278.320312 404.496094 278 405.386719 277.640625 406.261719 C 277.277344 407.136719 276.871094 407.988281 276.421875 408.824219 C 275.976562 409.65625 275.488281 410.46875 274.964844 411.253906 C 274.4375 412.039062 273.871094 412.800781 273.269531 413.53125 C 272.667969 414.261719 272.035156 414.960938 271.363281 415.628906 L 214.742188 472.195312 L 271.363281 528.789062 C 272.367188 529.792969 273.292969 530.867188 274.140625 532.007812 C 274.984375 533.148438 275.742188 534.34375 276.414062 535.59375 C 277.082031 536.847656 277.65625 538.140625 278.132812 539.480469 C 278.613281 540.816406 278.988281 542.179688 279.265625 543.574219 C 279.542969 544.964844 279.71875 546.371094 279.789062 547.789062 C 279.855469 549.207031 279.820312 550.621094 279.683594 552.035156 C 279.542969 553.449219 279.300781 554.84375 278.957031 556.21875 C 278.609375 557.597656 278.167969 558.941406 277.625 560.253906 C 277.078125 561.566406 276.441406 562.832031 275.710938 564.046875 C 274.980469 565.265625 274.164062 566.425781 273.265625 567.523438 C 272.363281 568.621094 271.386719 569.644531 270.332031 570.597656 C 269.28125 571.554688 268.164062 572.425781 266.984375 573.214844 C 265.800781 574.003906 264.570312 574.699219 263.285156 575.308594 C 262.003906 575.914062 260.679688 576.425781 259.320312 576.835938 C 257.964844 577.25 256.582031 577.558594 255.175781 577.765625 C 253.773438 577.976562 252.359375 578.078125 250.941406 578.078125 Z M 250.941406 578.078125"/><path d="M 559.058594 578.078125 C 557.640625 578.078125 556.226562 577.976562 554.820312 577.765625 C 553.417969 577.558594 552.035156 577.246094 550.675781 576.835938 C 549.316406 576.421875 547.996094 575.914062 546.710938 575.304688 C 545.425781 574.699219 544.195312 574 543.015625 573.210938 C 541.832031 572.421875 540.714844 571.550781 539.664062 570.597656 C 538.613281 569.644531 537.636719 568.617188 536.734375 567.519531 C 535.832031 566.421875 535.015625 565.265625 534.289062 564.046875 C 533.558594 562.832031 532.921875 561.566406 532.375 560.253906 C 531.832031 558.941406 531.390625 557.597656 531.042969 556.21875 C 530.699219 554.84375 530.457031 553.449219 530.316406 552.035156 C 530.179688 550.621094 530.144531 549.207031 530.210938 547.789062 C 530.28125 546.371094 530.457031 544.964844 530.734375 543.574219 C 531.011719 542.179688 531.386719 540.816406 531.867188 539.480469 C 532.34375 538.140625 532.917969 536.847656 533.585938 535.59375 C 534.257812 534.34375 535.015625 533.148438 535.859375 532.007812 C 536.707031 530.867188 537.632812 529.792969 538.636719 528.789062 L 595.257812 472.195312 L 538.636719 415.628906 C 537.964844 414.960938 537.332031 414.261719 536.730469 413.53125 C 536.128906 412.796875 535.566406 412.039062 535.042969 411.253906 C 534.515625 410.46875 534.027344 409.65625 533.582031 408.824219 C 533.136719 407.988281 532.730469 407.136719 532.371094 406.261719 C 532.007812 405.386719 531.6875 404.5 531.414062 403.59375 C 531.136719 402.6875 530.90625 401.773438 530.722656 400.84375 C 530.539062 399.917969 530.398438 398.980469 530.304688 398.039062 C 530.214844 397.097656 530.167969 396.15625 530.167969 395.210938 C 530.164062 394.265625 530.210938 393.320312 530.304688 392.378906 C 530.398438 391.4375 530.535156 390.503906 530.71875 389.574219 C 530.902344 388.648438 531.132812 387.730469 531.40625 386.824219 C 531.683594 385.921875 532 385.03125 532.363281 384.15625 C 532.722656 383.28125 533.128906 382.429688 533.574219 381.59375 C 534.019531 380.761719 534.503906 379.949219 535.03125 379.164062 C 535.554688 378.375 536.117188 377.617188 536.71875 376.886719 C 537.316406 376.15625 537.953125 375.453125 538.621094 374.785156 C 539.289062 374.117188 539.992188 373.480469 540.722656 372.882812 C 541.453125 372.28125 542.210938 371.71875 543 371.191406 C 543.785156 370.667969 544.597656 370.179688 545.429688 369.734375 C 546.265625 369.289062 547.121094 368.882812 547.992188 368.519531 C 548.867188 368.160156 549.757812 367.839844 550.664062 367.566406 C 551.566406 367.289062 552.484375 367.0625 553.414062 366.875 C 554.339844 366.691406 555.277344 366.550781 556.21875 366.457031 C 557.160156 366.367188 558.105469 366.320312 559.050781 366.320312 C 559.996094 366.320312 560.941406 366.363281 561.882812 366.457031 C 562.824219 366.550781 563.757812 366.6875 564.6875 366.871094 C 565.613281 367.054688 566.53125 367.285156 567.4375 367.558594 C 568.34375 367.832031 569.234375 368.152344 570.109375 368.511719 C 570.980469 368.875 571.835938 369.277344 572.671875 369.722656 C 573.507812 370.167969 574.316406 370.65625 575.105469 371.179688 C 575.890625 371.707031 576.652344 372.269531 577.382812 372.867188 C 578.113281 373.46875 578.816406 374.101562 579.484375 374.769531 L 656.527344 451.78125 C 657.199219 452.449219 657.832031 453.148438 658.433594 453.878906 C 659.035156 454.613281 659.597656 455.371094 660.125 456.15625 C 660.652344 456.945312 661.136719 457.753906 661.585938 458.589844 C 662.03125 459.421875 662.4375 460.277344 662.796875 461.152344 C 663.160156 462.027344 663.480469 462.917969 663.753906 463.820312 C 664.03125 464.726562 664.261719 465.644531 664.445312 466.570312 C 664.628906 467.5 664.769531 468.433594 664.863281 469.378906 C 664.953125 470.320312 665 471.261719 665 472.210938 C 665 473.15625 664.953125 474.101562 664.863281 475.042969 C 664.769531 475.984375 664.628906 476.917969 664.445312 477.847656 C 664.261719 478.773438 664.03125 479.691406 663.753906 480.597656 C 663.480469 481.503906 663.160156 482.390625 662.796875 483.265625 C 662.4375 484.140625 662.03125 484.996094 661.585938 485.828125 C 661.136719 486.664062 660.652344 487.476562 660.125 488.261719 C 659.597656 489.046875 659.035156 489.808594 658.433594 490.539062 C 657.832031 491.269531 657.199219 491.96875 656.527344 492.636719 L 579.484375 569.621094 C 578.140625 570.960938 576.683594 572.15625 575.105469 573.210938 C 573.527344 574.265625 571.863281 575.15625 570.109375 575.878906 C 568.359375 576.605469 566.554688 577.15625 564.691406 577.523438 C 562.832031 577.894531 560.957031 578.078125 559.058594 578.078125 Z M 559.058594 578.078125"/><path d="M 366.464844 578.078125 C 365.851562 578.078125 365.238281 578.058594 364.628906 578.019531 C 364.019531 577.980469 363.410156 577.921875 362.800781 577.84375 C 362.195312 577.765625 361.589844 577.667969 360.988281 577.554688 C 360.386719 577.4375 359.792969 577.300781 359.199219 577.148438 C 358.605469 576.992188 358.019531 576.820312 357.4375 576.628906 C 356.855469 576.4375 356.28125 576.226562 355.714844 576 C 355.144531 575.773438 354.585938 575.527344 354.035156 575.261719 C 353.480469 575 352.9375 574.71875 352.402344 574.417969 C 351.867188 574.121094 351.34375 573.808594 350.828125 573.476562 C 350.3125 573.144531 349.8125 572.796875 349.320312 572.433594 C 348.824219 572.070312 348.34375 571.691406 347.878906 571.296875 C 347.410156 570.902344 346.953125 570.496094 346.511719 570.070312 C 346.070312 569.648438 345.640625 569.210938 345.226562 568.761719 C 344.8125 568.3125 344.410156 567.847656 344.027344 567.371094 C 343.640625 566.898438 343.269531 566.410156 342.917969 565.910156 C 342.5625 565.410156 342.226562 564.902344 341.902344 564.382812 C 341.582031 563.859375 341.277344 563.332031 340.988281 562.789062 C 340.699219 562.25 340.429688 561.703125 340.175781 561.144531 C 339.921875 560.589844 339.6875 560.023438 339.472656 559.453125 C 339.253906 558.878906 339.054688 558.300781 338.875 557.714844 C 338.695312 557.132812 338.53125 556.542969 338.390625 555.945312 C 338.246094 555.351562 338.121094 554.753906 338.015625 554.148438 C 337.914062 553.546875 337.828125 552.941406 337.761719 552.332031 C 337.695312 551.726562 337.648438 551.113281 337.621094 550.503906 C 337.59375 549.890625 337.585938 549.28125 337.59375 548.667969 C 337.605469 548.058594 337.636719 547.445312 337.6875 546.835938 C 337.738281 546.226562 337.808594 545.621094 337.894531 545.015625 C 337.984375 544.410156 338.09375 543.804688 338.21875 543.207031 C 338.347656 542.609375 338.492188 542.015625 338.660156 541.425781 C 338.824219 540.835938 339.007812 540.253906 339.207031 539.675781 C 339.410156 539.097656 339.632812 538.527344 339.871094 537.964844 C 340.109375 537.398438 340.363281 536.84375 340.636719 536.296875 L 417.652344 382.277344 C 418.078125 381.433594 418.546875 380.609375 419.050781 379.808594 C 419.558594 379.007812 420.101562 378.234375 420.6875 377.484375 C 421.269531 376.738281 421.886719 376.023438 422.539062 375.335938 C 423.191406 374.648438 423.878906 373.996094 424.597656 373.378906 C 425.3125 372.757812 426.058594 372.175781 426.832031 371.628906 C 427.609375 371.085938 428.40625 370.578125 429.234375 370.109375 C 430.058594 369.644531 430.902344 369.21875 431.769531 368.832031 C 432.636719 368.449219 433.519531 368.109375 434.417969 367.808594 C 435.316406 367.511719 436.230469 367.257812 437.15625 367.050781 C 438.078125 366.84375 439.011719 366.679688 439.953125 366.566406 C 440.894531 366.449219 441.835938 366.378906 442.785156 366.355469 C 443.730469 366.332031 444.679688 366.355469 445.625 366.421875 C 446.570312 366.492188 447.507812 366.609375 448.441406 366.769531 C 449.375 366.929688 450.300781 367.136719 451.214844 367.390625 C 452.128906 367.644531 453.027344 367.9375 453.910156 368.28125 C 454.796875 368.621094 455.660156 369.003906 456.507812 369.429688 C 457.355469 369.855469 458.179688 370.320312 458.980469 370.828125 C 459.78125 371.332031 460.554688 371.878906 461.300781 372.460938 C 462.050781 373.042969 462.765625 373.660156 463.453125 374.3125 C 464.140625 374.964844 464.792969 375.652344 465.414062 376.367188 C 466.03125 377.085938 466.613281 377.832031 467.160156 378.605469 C 467.707031 379.378906 468.214844 380.179688 468.679688 381.003906 C 469.148438 381.828125 469.574219 382.671875 469.957031 383.539062 C 470.34375 384.402344 470.683594 385.285156 470.980469 386.1875 C 471.28125 387.085938 471.53125 387.996094 471.742188 388.921875 C 471.949219 389.847656 472.109375 390.777344 472.226562 391.71875 C 472.34375 392.660156 472.414062 393.601562 472.4375 394.550781 C 472.460938 395.496094 472.4375 396.441406 472.371094 397.386719 C 472.300781 398.332031 472.183594 399.269531 472.023438 400.203125 C 471.859375 401.136719 471.652344 402.0625 471.402344 402.972656 C 471.148438 403.886719 470.851562 404.785156 470.511719 405.671875 C 470.171875 406.554688 469.789062 407.417969 469.363281 408.265625 L 392.347656 562.257812 C 391.746094 563.445312 391.0625 564.585938 390.300781 565.679688 C 389.542969 566.773438 388.710938 567.8125 387.804688 568.789062 C 386.902344 569.769531 385.933594 570.683594 384.902344 571.527344 C 383.871094 572.371094 382.789062 573.144531 381.652344 573.835938 C 380.511719 574.53125 379.332031 575.148438 378.113281 575.679688 C 376.890625 576.210938 375.636719 576.65625 374.351562 577.015625 C 373.066406 577.375 371.765625 577.640625 370.445312 577.820312 C 369.125 578 367.796875 578.085938 366.464844 578.078125 Z M 366.464844 578.078125"/><g clip-path="url(#a)"><path d="M 780.542969 780.203125 L 29.457031 780.203125 C 28.507812 780.203125 27.566406 780.15625 26.625 780.066406 C 25.683594 779.972656 24.746094 779.835938 23.820312 779.648438 C 22.890625 779.464844 21.976562 779.234375 21.070312 778.960938 C 20.164062 778.6875 19.273438 778.367188 18.398438 778.007812 C 17.527344 777.644531 16.671875 777.242188 15.835938 776.792969 C 15.003906 776.347656 14.191406 775.863281 13.40625 775.339844 C 12.617188 774.8125 11.859375 774.25 11.128906 773.648438 C 10.398438 773.050781 9.695312 772.414062 9.027344 771.746094 C 8.359375 771.078125 7.722656 770.378906 7.125 769.648438 C 6.523438 768.917969 5.960938 768.15625 5.433594 767.371094 C 4.910156 766.585938 4.425781 765.773438 3.976562 764.941406 C 3.53125 764.105469 3.128906 763.253906 2.765625 762.378906 C 2.402344 761.503906 2.085938 760.617188 1.8125 759.710938 C 1.535156 758.804688 1.308594 757.890625 1.121094 756.960938 C 0.9375 756.035156 0.800781 755.101562 0.707031 754.160156 C 0.613281 753.21875 0.566406 752.273438 0.566406 751.328125 L 0.566406 58.328125 C 0.566406 57.382812 0.613281 56.441406 0.707031 55.5 C 0.800781 54.558594 0.9375 53.625 1.121094 52.695312 C 1.308594 51.769531 1.535156 50.851562 1.8125 49.949219 C 2.085938 49.042969 2.402344 48.152344 2.765625 47.28125 C 3.128906 46.40625 3.53125 45.550781 3.976562 44.71875 C 4.425781 43.882812 4.910156 43.074219 5.433594 42.289062 C 5.960938 41.5 6.523438 40.742188 7.125 40.011719 C 7.722656 39.28125 8.359375 38.582031 9.027344 37.910156 C 9.695312 37.242188 10.398438 36.609375 11.128906 36.007812 C 11.859375 35.410156 12.617188 34.847656 13.40625 34.320312 C 14.191406 33.796875 15.003906 33.308594 15.835938 32.863281 C 16.671875 32.417969 17.527344 32.015625 18.398438 31.652344 C 19.273438 31.289062 20.164062 30.972656 21.070312 30.699219 C 21.976562 30.421875 22.890625 30.195312 23.820312 30.007812 C 24.746094 29.824219 25.683594 29.6875 26.625 29.59375 C 27.566406 29.5 28.507812 29.453125 29.457031 29.453125 L 780.542969 29.453125 C 781.492188 29.453125 782.433594 29.5 783.375 29.59375 C 784.316406 29.6875 785.253906 29.824219 786.179688 30.007812 C 787.109375 30.195312 788.023438 30.421875 788.929688 30.699219 C 789.835938 30.972656 790.726562 31.289062 791.601562 31.652344 C 792.472656 32.015625 793.328125 32.417969 794.164062 32.863281 C 794.996094 33.308594 795.808594 33.796875 796.59375 34.320312 C 797.382812 34.847656 798.140625 35.410156 798.871094 36.007812 C 799.601562 36.609375 800.304688 37.242188 800.972656 37.910156 C 801.640625 38.582031 802.277344 39.28125 802.875 40.011719 C 803.476562 40.742188 804.039062 41.5 804.5625 42.289062 C 805.089844 43.074219 805.574219 43.882812 806.023438 44.71875 C 806.46875 45.550781 806.871094 46.40625 807.234375 47.28125 C 807.597656 48.152344 807.914062 49.042969 808.1875 49.949219 C 808.464844 50.851562 808.691406 51.769531 808.878906 52.695312 C 809.0625 53.625 809.199219 54.558594 809.292969 55.5 C 809.386719 56.441406 809.433594 57.382812 809.433594 58.328125 L 809.433594 751.328125 C 809.433594 752.273438 809.386719 753.21875 809.292969 754.160156 C 809.199219 755.101562 809.0625 756.035156 808.878906 756.960938 C 808.691406 757.890625 808.464844 758.804688 808.1875 759.710938 C 807.914062 760.617188 807.597656 761.503906 807.234375 762.378906 C 806.871094 763.253906 806.46875 764.105469 806.023438 764.941406 C 805.574219 765.773438 805.089844 766.585938 804.5625 767.371094 C 804.039062 768.15625 803.476562 768.917969 802.875 769.648438 C 802.277344 770.378906 801.640625 771.078125 800.972656 771.746094 C 800.304688 772.414062 799.601562 773.050781 798.871094 773.648438 C 798.140625 774.25 797.382812 774.8125 796.59375 775.339844 C 795.808594 775.863281 794.996094 776.347656 794.164062 776.792969 C 793.328125 777.242188 792.472656 777.644531 791.601562 778.007812 C 790.726562 778.367188 789.835938 778.6875 788.929688 778.960938 C 788.023438 779.234375 787.109375 779.464844 786.179688 779.648438 C 785.253906 779.835938 784.316406 779.972656 783.375 780.066406 C 782.433594 780.15625 781.492188 780.203125 780.542969 780.203125 Z M 58.34375 722.453125 L 751.65625 722.453125 L 751.65625 87.203125 L 58.34375 87.203125 Z M 58.34375 722.453125"/></g><path d="M 780.542969 260.453125 L 29.457031 260.453125 C 28.507812 260.453125 27.566406 260.410156 26.625 260.316406 C 25.683594 260.222656 24.746094 260.085938 23.820312 259.898438 C 22.890625 259.714844 21.976562 259.484375 21.070312 259.210938 C 20.164062 258.9375 19.273438 258.617188 18.398438 258.257812 C 17.527344 257.894531 16.671875 257.492188 15.835938 257.046875 C 15.003906 256.597656 14.191406 256.113281 13.40625 255.589844 C 12.617188 255.0625 11.859375 254.5 11.128906 253.898438 C 10.398438 253.300781 9.695312 252.664062 9.027344 251.996094 C 8.359375 251.328125 7.722656 250.628906 7.125 249.898438 C 6.523438 249.167969 5.960938 248.40625 5.433594 247.621094 C 4.910156 246.835938 4.425781 246.023438 3.976562 245.191406 C 3.53125 244.355469 3.128906 243.503906 2.765625 242.628906 C 2.402344 241.753906 2.085938 240.867188 1.8125 239.960938 C 1.535156 239.054688 1.308594 238.140625 1.121094 237.210938 C 0.9375 236.285156 0.800781 235.351562 0.707031 234.410156 C 0.613281 233.46875 0.566406 232.523438 0.566406 231.578125 C 0.566406 230.632812 0.613281 229.691406 0.707031 228.75 C 0.800781 227.808594 0.9375 226.875 1.121094 225.945312 C 1.308594 225.019531 1.535156 224.101562 1.8125 223.199219 C 2.085938 222.292969 2.402344 221.402344 2.765625 220.53125 C 3.128906 219.65625 3.53125 218.800781 3.976562 217.96875 C 4.425781 217.132812 4.910156 216.324219 5.433594 215.539062 C 5.960938 214.75 6.523438 213.992188 7.125 213.261719 C 7.722656 212.53125 8.359375 211.832031 9.027344 211.160156 C 9.695312 210.492188 10.398438 209.859375 11.128906 209.257812 C 11.859375 208.660156 12.617188 208.097656 13.40625 207.570312 C 14.191406 207.046875 15.003906 206.558594 15.835938 206.113281 C 16.671875 205.667969 17.527344 205.265625 18.398438 204.902344 C 19.273438 204.539062 20.164062 204.222656 21.070312 203.949219 C 21.976562 203.671875 22.890625 203.445312 23.820312 203.257812 C 24.746094 203.074219 25.683594 202.9375 26.625 202.84375 C 27.566406 202.75 28.507812 202.703125 29.457031 202.703125 L 780.542969 202.703125 C 781.492188 202.703125 782.433594 202.75 783.375 202.84375 C 784.316406 202.9375 785.253906 203.074219 786.179688 203.257812 C 787.109375 203.445312 788.023438 203.671875 788.929688 203.949219 C 789.835938 204.222656 790.726562 204.539062 791.601562 204.902344 C 792.472656 205.265625 793.328125 205.667969 794.164062 206.113281 C 794.996094 206.558594 795.808594 207.046875 796.59375 207.570312 C 797.382812 208.097656 798.140625 208.660156 798.871094 209.257812 C 799.601562 209.859375 800.304688 210.492188 800.972656 211.160156 C 801.640625 211.832031 802.277344 212.53125 802.875 213.261719 C 803.476562 213.992188 804.039062 214.75 804.5625 215.539062 C 805.089844 216.324219 805.574219 217.132812 806.023438 217.96875 C 806.46875 218.800781 806.871094 219.65625 807.234375 220.53125 C 807.597656 221.402344 807.914062 222.292969 808.1875 223.199219 C 808.464844 224.101562 808.691406 225.019531 808.878906 225.945312 C 809.0625 226.875 809.199219 227.808594 809.292969 228.75 C 809.386719 229.691406 809.433594 230.632812 809.433594 231.578125 C 809.433594 232.523438 809.386719 233.46875 809.292969 234.410156 C 809.199219 235.351562 809.0625 236.285156 808.878906 237.210938 C 808.691406 238.140625 808.464844 239.054688 808.1875 239.960938 C 807.914062 240.867188 807.597656 241.753906 807.234375 242.628906 C 806.871094 243.503906 806.46875 244.355469 806.023438 245.191406 C 805.574219 246.023438 805.089844 246.835938 804.5625 247.621094 C 804.039062 248.40625 803.476562 249.167969 802.875 249.898438 C 802.277344 250.628906 801.640625 251.328125 800.972656 251.996094 C 800.304688 252.664062 799.601562 253.300781 798.871094 253.898438 C 798.140625 254.5 797.382812 255.0625 796.59375 255.589844 C 795.808594 256.113281 794.996094 256.597656 794.164062 257.046875 C 793.328125 257.492188 792.472656 257.894531 791.601562 258.257812 C 790.726562 258.617188 789.835938 258.9375 788.929688 259.210938 C 788.023438 259.484375 787.109375 259.714844 786.179688 259.898438 C 785.253906 260.085938 784.316406 260.222656 783.375 260.316406 C 782.433594 260.410156 781.492188 260.453125 780.542969 260.453125 Z M 780.542969 260.453125"/><path d="M 520.550781 173.828125 C 518.613281 173.765625 516.6875 173.574219 514.773438 173.253906 C 512.953125 172.9375 511.222656 172.359375 509.574219 171.519531 C 507.71875 170.878906 505.976562 170.015625 504.347656 168.921875 L 500.042969 165.457031 C 499.378906 164.78125 498.75 164.074219 498.15625 163.335938 C 497.558594 162.597656 497 161.835938 496.480469 161.042969 C 495.960938 160.253906 495.480469 159.4375 495.039062 158.597656 C 494.597656 157.761719 494.195312 156.902344 493.839844 156.027344 C 493.480469 155.152344 493.164062 154.257812 492.894531 153.351562 C 492.621094 152.445312 492.394531 151.527344 492.210938 150.597656 C 492.027344 149.667969 491.890625 148.730469 491.800781 147.789062 C 491.707031 146.847656 491.664062 145.902344 491.664062 144.953125 C 491.664062 144.007812 491.707031 143.0625 491.800781 142.121094 C 491.890625 141.175781 492.027344 140.242188 492.210938 139.3125 C 492.394531 138.382812 492.621094 137.464844 492.894531 136.558594 C 493.164062 135.648438 493.480469 134.757812 493.839844 133.882812 C 494.195312 133.003906 494.597656 132.148438 495.039062 131.308594 C 495.480469 130.472656 495.960938 129.65625 496.480469 128.867188 C 497 128.074219 497.558594 127.308594 498.15625 126.574219 C 498.75 125.835938 499.378906 125.128906 500.042969 124.453125 C 501.058594 123.46875 502.144531 122.566406 503.292969 121.738281 C 504.445312 120.914062 505.648438 120.175781 506.902344 119.523438 C 508.160156 118.871094 509.457031 118.3125 510.792969 117.847656 C 512.132812 117.382812 513.496094 117.015625 514.886719 116.75 C 516.273438 116.480469 517.675781 116.316406 519.089844 116.25 C 520.507812 116.183594 521.917969 116.222656 523.328125 116.359375 C 524.734375 116.5 526.128906 116.738281 527.5 117.078125 C 528.875 117.417969 530.21875 117.855469 531.53125 118.390625 C 533.316406 118.976562 534.953125 119.839844 536.441406 120.988281 C 538.144531 122.144531 539.617188 123.296875 541.0625 124.453125 C 541.726562 125.128906 542.355469 125.835938 542.949219 126.574219 C 543.542969 127.308594 544.101562 128.074219 544.625 128.867188 C 545.144531 129.65625 545.625 130.472656 546.066406 131.308594 C 546.507812 132.148438 546.90625 133.003906 547.265625 133.882812 C 547.625 134.757812 547.941406 135.648438 548.210938 136.558594 C 548.484375 137.464844 548.710938 138.382812 548.894531 139.3125 C 549.074219 140.242188 549.210938 141.175781 549.304688 142.121094 C 549.394531 143.0625 549.441406 144.007812 549.441406 144.953125 C 549.441406 145.902344 549.394531 146.847656 549.304688 147.789062 C 549.210938 148.730469 549.074219 149.667969 548.894531 150.597656 C 548.710938 151.527344 548.484375 152.445312 548.210938 153.351562 C 547.941406 154.257812 547.625 155.152344 547.265625 156.027344 C 546.90625 156.902344 546.507812 157.761719 546.066406 158.597656 C 545.625 159.4375 545.144531 160.253906 544.625 161.042969 C 544.101562 161.835938 543.542969 162.597656 542.949219 163.335938 C 542.355469 164.074219 541.726562 164.78125 541.0625 165.457031 C 538.226562 168.015625 535.050781 170.039062 531.53125 171.519531 C 528.023438 173.011719 524.363281 173.785156 520.550781 173.828125 Z M 520.550781 173.828125"/><path d="M 607.214844 173.828125 C 605.277344 173.765625 603.351562 173.574219 601.4375 173.253906 C 599.617188 172.9375 597.886719 172.359375 596.238281 171.519531 C 594.382812 170.878906 592.640625 170.015625 591.011719 168.921875 C 589.511719 167.847656 588.074219 166.691406 586.707031 165.457031 C 584.003906 162.710938 581.980469 159.535156 580.640625 155.925781 C 579.878906 154.199219 579.300781 152.410156 578.914062 150.5625 C 578.523438 148.710938 578.328125 146.84375 578.328125 144.953125 C 578.328125 143.066406 578.523438 141.195312 578.914062 139.347656 C 579.300781 137.5 579.878906 135.710938 580.640625 133.980469 C 582.117188 130.457031 584.136719 127.28125 586.707031 124.453125 C 587.710938 123.441406 588.785156 122.507812 589.925781 121.65625 C 591.070312 120.800781 592.269531 120.035156 593.527344 119.359375 C 594.78125 118.683594 596.082031 118.105469 597.421875 117.621094 C 598.765625 117.136719 600.136719 116.757812 601.535156 116.476562 C 602.933594 116.195312 604.34375 116.019531 605.769531 115.949219 C 607.195312 115.875 608.617188 115.910156 610.035156 116.050781 C 611.457031 116.1875 612.859375 116.433594 614.242188 116.777344 C 615.625 117.125 616.976562 117.570312 618.292969 118.117188 C 619.613281 118.664062 620.882812 119.304688 622.105469 120.042969 C 623.328125 120.777344 624.488281 121.597656 625.589844 122.503906 C 626.691406 123.410156 627.71875 124.394531 628.675781 125.453125 C 629.628906 126.511719 630.5 127.636719 631.289062 128.824219 C 632.078125 130.011719 632.773438 131.253906 633.378906 132.542969 C 633.984375 133.835938 634.492188 135.164062 634.898438 136.53125 C 635.308594 137.898438 635.613281 139.285156 635.8125 140.699219 C 636.015625 142.109375 636.113281 143.527344 636.105469 144.953125 C 636.078125 146.847656 635.875 148.722656 635.496094 150.582031 C 635.117188 152.4375 634.566406 154.242188 633.851562 155.996094 C 633.132812 157.75 632.261719 159.421875 631.230469 161.011719 C 630.203125 162.601562 629.035156 164.082031 627.726562 165.457031 C 626.347656 166.691406 624.902344 167.847656 623.394531 168.921875 C 621.773438 170.011719 620.039062 170.878906 618.195312 171.519531 C 616.546875 172.355469 614.8125 172.933594 612.992188 173.253906 C 611.082031 173.585938 609.15625 173.777344 607.214844 173.828125 Z M 607.214844 173.828125"/><path d="M 693.878906 173.828125 C 692.933594 173.839844 691.984375 173.800781 691.039062 173.71875 C 690.09375 173.632812 689.15625 173.5 688.226562 173.324219 C 687.292969 173.144531 686.371094 172.921875 685.460938 172.652344 C 684.550781 172.382812 683.660156 172.070312 682.78125 171.710938 C 681.902344 171.351562 681.042969 170.949219 680.203125 170.507812 C 679.367188 170.0625 678.550781 169.578125 677.761719 169.054688 C 676.972656 168.527344 676.210938 167.964844 675.476562 167.367188 C 674.742188 166.765625 674.039062 166.128906 673.367188 165.457031 C 672.695312 164.789062 672.0625 164.085938 671.460938 163.351562 C 670.859375 162.617188 670.296875 161.855469 669.769531 161.066406 C 669.246094 160.277344 668.761719 159.460938 668.316406 158.625 C 667.871094 157.785156 667.472656 156.929688 667.113281 156.050781 C 666.753906 155.171875 666.441406 154.277344 666.171875 153.371094 C 665.902344 152.460938 665.675781 151.539062 665.5 150.609375 C 665.320312 149.675781 665.191406 148.738281 665.105469 147.792969 C 665.019531 146.847656 664.984375 145.902344 664.992188 144.953125 C 664.890625 141.113281 665.660156 137.457031 667.304688 133.980469 C 668.78125 130.457031 670.800781 127.28125 673.371094 124.453125 C 674.0625 123.816406 674.78125 123.210938 675.527344 122.644531 C 676.273438 122.074219 677.046875 121.539062 677.84375 121.039062 C 678.640625 120.542969 679.457031 120.082031 680.296875 119.660156 C 681.136719 119.238281 681.996094 118.855469 682.871094 118.515625 C 683.746094 118.171875 684.632812 117.871094 685.539062 117.613281 C 686.441406 117.355469 687.355469 117.136719 688.277344 116.964844 C 689.203125 116.789062 690.132812 116.660156 691.066406 116.570312 C 692.003906 116.484375 692.941406 116.441406 693.878906 116.441406 C 694.820312 116.441406 695.757812 116.484375 696.695312 116.570312 C 697.628906 116.660156 698.558594 116.789062 699.484375 116.964844 C 700.40625 117.136719 701.320312 117.355469 702.222656 117.613281 C 703.125 117.871094 704.015625 118.171875 704.890625 118.515625 C 705.765625 118.855469 706.625 119.238281 707.464844 119.660156 C 708.304688 120.082031 709.121094 120.542969 709.917969 121.039062 C 710.714844 121.539062 711.488281 122.074219 712.234375 122.644531 C 712.980469 123.210938 713.699219 123.816406 714.390625 124.453125 C 716.960938 127.28125 718.980469 130.457031 720.457031 133.980469 C 721.953125 137.488281 722.722656 141.144531 722.769531 144.953125 C 722.777344 145.902344 722.742188 146.847656 722.65625 147.792969 C 722.570312 148.738281 722.441406 149.675781 722.261719 150.609375 C 722.085938 151.539062 721.859375 152.460938 721.589844 153.371094 C 721.320312 154.277344 721.007812 155.171875 720.648438 156.050781 C 720.289062 156.929688 719.886719 157.785156 719.445312 158.625 C 719 159.460938 718.515625 160.277344 717.992188 161.066406 C 717.464844 161.855469 716.902344 162.617188 716.300781 163.351562 C 715.699219 164.085938 715.066406 164.789062 714.394531 165.457031 C 713.722656 166.128906 713.019531 166.765625 712.285156 167.363281 C 711.550781 167.964844 710.789062 168.527344 710 169.054688 C 709.210938 169.578125 708.394531 170.0625 707.554688 170.507812 C 706.71875 170.949219 705.859375 171.351562 704.980469 171.710938 C 704.101562 172.070312 703.207031 172.382812 702.300781 172.652344 C 701.390625 172.921875 700.46875 173.144531 699.535156 173.324219 C 698.605469 173.5 697.667969 173.632812 696.722656 173.71875 C 695.777344 173.800781 694.828125 173.839844 693.878906 173.828125 Z M 693.878906 173.828125"/></svg>