<svg xmlns="http://www.w3.org/2000/svg" width="810" viewBox="0 0 810 810" height="810" version="1.0"><path d="M 773.90625 353.289062 L 417.984375 6.996094 C 411.148438 0.351562 400.25 0.351562 393.417969 6.996094 L 37.492188 353.289062 C 30.515625 360.074219 30.386719 371.214844 37.152344 378.1875 C 43.9375 385.183594 55.105469 385.300781 62.058594 378.527344 L 405.699219 44.1875 L 749.363281 378.527344 C 752.78125 381.851562 757.207031 383.519531 761.636719 383.519531 C 766.226562 383.519531 770.804688 381.746094 774.269531 378.1875 C 781.023438 371.214844 780.882812 360.074219 773.90625 353.289062 Z M 773.90625 353.289062"/><path d="M 696.4375 468.625 C 686.714844 468.625 678.824219 476.515625 678.824219 486.234375 L 678.824219 742.851562 C 678.824219 760.648438 664.359375 775.125 646.554688 775.125 L 164.84375 775.125 C 147.042969 775.125 132.574219 760.648438 132.574219 742.851562 L 132.574219 486.234375 C 132.574219 476.515625 124.683594 468.625 114.960938 468.625 C 105.238281 468.625 97.34375 476.515625 97.34375 486.234375 L 97.34375 742.851562 C 97.34375 780.066406 127.617188 810.339844 164.84375 810.339844 L 646.542969 810.339844 C 683.769531 810.339844 714.042969 780.066406 714.042969 742.851562 L 714.042969 486.234375 C 714.054688 476.515625 706.164062 468.625 696.4375 468.625 Z M 696.4375 468.625"/></svg>