<svg xmlns="http://www.w3.org/2000/svg" width="810" viewBox="0 0 810 810" height="810" version="1.0"><defs><clipPath id="a"><path d="M 51.132812 0 L 759 0 L 759 810 L 51.132812 810 Z M 51.132812 0"/></clipPath></defs><g clip-path="url(#a)"><path d="M 336.65625 0 C 324.171875 0 313.828125 10.339844 313.828125 22.816406 L 313.828125 57.042969 C 313.828125 69.519531 324.171875 79.859375 336.65625 79.859375 L 359.480469 79.859375 L 359.480469 105.707031 C 185.746094 128.121094 51.335938 276.609375 51.335938 456.339844 C 51.335938 651.53125 209.867188 810 405.132812 810 C 600.398438 810 758.929688 651.53125 758.929688 456.339844 C 758.929688 365.738281 724.734375 283.117188 668.605469 220.503906 L 684.746094 204.371094 C 693.347656 208.871094 704.316406 207.625 711.492188 200.449219 L 724.289062 187.703125 L 724.289062 187.660156 C 733.117188 178.835938 733.117188 164.21875 724.289062 155.394531 L 683.363281 114.484375 C 678.949219 110.074219 673.109375 107.890625 667.222656 107.890625 C 661.339844 107.890625 655.5 110.074219 651.085938 114.484375 L 638.289062 127.277344 C 631.113281 134.449219 629.863281 145.414062 634.367188 154.015625 L 615.867188 172.507812 C 568.519531 137.347656 512.125 113.640625 450.78125 105.707031 L 450.78125 79.859375 L 473.609375 79.859375 C 486.089844 79.859375 496.433594 69.519531 496.433594 57.042969 L 496.433594 22.816406 C 496.433594 10.339844 486.089844 0 473.609375 0 Z M 336.65625 22.816406 L 473.609375 22.816406 L 473.609375 57.042969 L 336.65625 57.042969 Z M 382.304688 79.859375 L 427.957031 79.859375 L 427.957031 102.675781 L 382.304688 102.675781 Z M 405.132812 125.492188 C 588.046875 125.492188 736.101562 273.492188 736.101562 456.339844 C 736.101562 639.183594 588.046875 787.183594 405.132812 787.183594 C 222.214844 787.183594 74.160156 639.183594 74.160156 456.339844 C 74.160156 273.492188 222.214844 125.492188 405.132812 125.492188 Z M 667.222656 130.617188 L 708.148438 171.527344 L 695.355469 184.316406 L 654.429688 143.40625 Z M 405.132812 159.71875 C 398.84375 159.71875 393.71875 164.84375 393.71875 171.125 C 393.71875 177.410156 398.84375 182.535156 405.132812 182.535156 C 411.417969 182.535156 416.542969 177.410156 416.542969 171.125 C 416.542969 164.84375 411.417969 159.71875 405.132812 159.71875 Z M 331.394531 169.433594 C 331.125 169.433594 330.859375 169.433594 330.589844 169.476562 C 329.832031 169.523438 329.074219 169.613281 328.316406 169.835938 C 322.253906 171.484375 318.644531 177.722656 320.25 183.78125 C 321.898438 189.886719 328.140625 193.5 334.246094 191.847656 C 340.355469 190.246094 343.964844 184.007812 342.316406 177.902344 C 340.980469 172.953125 336.519531 169.476562 331.394531 169.433594 Z M 478.867188 169.476562 C 473.742188 169.523438 469.285156 172.953125 467.945312 177.902344 C 466.296875 184.007812 469.90625 190.246094 476.015625 191.894531 C 482.121094 193.542969 488.363281 189.933594 490.015625 183.828125 C 491.617188 177.722656 488.007812 171.484375 481.945312 169.878906 C 480.917969 169.566406 479.894531 169.433594 478.867188 169.476562 Z M 649.703125 170.949219 L 667.804688 189.042969 L 652.78125 204.058594 C 646.671875 198.042969 640.386719 192.292969 633.878906 186.769531 Z M 262.203125 197.910156 C 260.285156 197.953125 258.414062 198.488281 256.765625 199.46875 C 254.132812 200.941406 252.21875 203.4375 251.414062 206.378906 C 250.65625 209.320312 251.058594 212.4375 252.574219 215.023438 C 254.089844 217.652344 256.585938 219.566406 259.527344 220.371094 C 262.425781 221.128906 265.546875 220.726562 268.175781 219.210938 C 273.617188 216.046875 275.488281 209.09375 272.324219 203.613281 C 270.273438 200.003906 266.394531 197.820312 262.203125 197.910156 Z M 547.257812 197.953125 C 543.378906 198.132812 539.855469 200.273438 537.894531 203.613281 C 534.730469 209.09375 536.644531 216.046875 542.085938 219.210938 C 547.523438 222.375 554.523438 220.503906 557.644531 215.023438 C 560.808594 209.585938 558.9375 202.632812 553.496094 199.46875 C 551.582031 198.355469 549.441406 197.867188 547.257812 197.953125 Z M 203.535156 243.277344 C 200.457031 243.1875 197.472656 244.390625 195.289062 246.574219 C 190.828125 251.03125 190.828125 258.292969 195.289062 262.75 C 197.425781 264.890625 200.324219 266.09375 203.355469 266.09375 C 206.386719 266.09375 209.285156 264.890625 211.46875 262.75 C 215.882812 258.292969 215.882812 251.03125 211.46875 246.574219 C 209.332031 244.480469 206.523438 243.277344 203.535156 243.277344 Z M 607.039062 243.277344 C 603.964844 243.230469 600.976562 244.433594 598.792969 246.574219 C 594.378906 251.03125 594.378906 258.292969 598.792969 262.75 C 603.25 267.164062 610.515625 267.164062 614.976562 262.75 C 619.386719 258.292969 619.386719 251.03125 614.976562 246.574219 C 612.835938 244.480469 610.027344 243.277344 607.039062 243.277344 Z M 248.875 289.667969 L 233.003906 306.066406 L 365.585938 434.054688 C 361.796875 440.652344 359.480469 448.226562 359.480469 456.339844 C 359.480469 481.429688 380.03125 501.972656 405.132812 501.972656 C 413.558594 501.972656 421.359375 499.519531 428.136719 495.511719 L 451.140625 518.503906 L 467.320312 502.328125 L 444.316406 479.332031 C 448.332031 472.558594 450.78125 464.761719 450.78125 456.339844 C 450.78125 431.25 430.230469 410.703125 405.132812 410.703125 C 396.4375 410.703125 388.367188 413.289062 381.414062 417.613281 Z M 651.933594 302.324219 C 650.015625 302.367188 648.144531 302.902344 646.492188 303.839844 C 641.054688 307.003906 639.183594 313.957031 642.304688 319.4375 C 645.46875 324.875 652.46875 326.746094 657.90625 323.582031 C 660.535156 322.109375 662.453125 319.613281 663.257812 316.671875 C 664.015625 313.734375 663.613281 310.613281 662.097656 308.027344 C 660.003906 304.417969 656.125 302.234375 651.933594 302.324219 Z M 157.484375 302.324219 C 153.648438 302.546875 150.125 304.6875 148.164062 308.027344 C 146.648438 310.65625 146.246094 313.777344 147.007812 316.671875 C 147.808594 319.613281 149.726562 322.109375 152.3125 323.625 C 157.792969 326.789062 164.75 324.875 167.914062 319.4375 C 171.078125 314 169.207031 307.003906 163.722656 303.882812 C 161.851562 302.769531 159.667969 302.234375 157.484375 302.324219 Z M 129.441406 371.132812 C 124.3125 371.175781 119.855469 374.605469 118.519531 379.554688 C 116.867188 385.660156 120.480469 391.898438 126.585938 393.546875 C 132.695312 395.195312 138.9375 391.585938 140.542969 385.480469 C 142.191406 379.375 138.578125 373.136719 132.472656 371.488281 C 131.492188 371.21875 130.464844 371.085938 129.441406 371.132812 Z M 681.179688 371.132812 C 680.019531 371.085938 678.859375 371.21875 677.789062 371.53125 C 671.683594 373.179688 668.070312 379.421875 669.722656 385.527344 C 671.324219 391.585938 677.566406 395.195312 683.675781 393.589844 C 689.78125 391.941406 693.394531 385.703125 691.742188 379.597656 C 690.449219 374.742188 686.171875 371.308594 681.179688 371.132812 Z M 405.132812 433.519531 C 417.882812 433.519531 427.957031 443.59375 427.957031 456.339844 C 427.957031 469.082031 417.882812 479.15625 405.132812 479.15625 C 392.382812 479.15625 382.304688 469.082031 382.304688 456.339844 C 382.304688 443.59375 392.382812 433.519531 405.132812 433.519531 Z M 119.8125 444.929688 C 113.527344 444.929688 108.398438 450.054688 108.398438 456.339844 C 108.398438 462.621094 113.527344 467.746094 119.8125 467.746094 C 126.097656 467.746094 131.222656 462.621094 131.222656 456.339844 C 131.222656 450.054688 126.097656 444.929688 119.8125 444.929688 Z M 690.449219 444.929688 C 684.164062 444.929688 679.039062 450.054688 679.039062 456.339844 C 679.039062 462.621094 684.164062 467.746094 690.449219 467.746094 C 696.738281 467.746094 701.863281 462.621094 701.863281 456.339844 C 701.863281 450.054688 696.738281 444.929688 690.449219 444.929688 Z M 129.976562 518.726562 C 128.816406 518.726562 127.65625 518.816406 126.585938 519.128906 C 120.480469 520.777344 116.867188 527.015625 118.519531 533.121094 C 120.125 539.183594 126.363281 542.792969 132.472656 541.1875 C 138.578125 539.539062 142.191406 533.300781 140.542969 527.195312 C 139.25 522.382812 134.96875 518.949219 129.976562 518.726562 Z M 680.644531 518.773438 C 675.472656 518.816406 671.011719 522.292969 669.722656 527.238281 C 668.070312 533.34375 671.683594 539.585938 677.789062 541.1875 C 683.851562 542.835938 690.09375 539.226562 691.742188 533.167969 C 693.394531 527.0625 689.78125 520.824219 683.675781 519.171875 C 682.695312 518.90625 681.667969 518.773438 680.644531 518.773438 Z M 157.75 587.535156 C 155.832031 587.578125 154.003906 588.113281 152.3125 589.050781 C 146.871094 592.214844 145 599.167969 148.164062 604.648438 C 149.636719 607.234375 152.132812 609.148438 155.074219 609.949219 C 158.015625 610.753906 161.136719 610.351562 163.722656 608.792969 C 166.355469 607.320312 168.269531 604.828125 169.074219 601.886719 C 169.832031 598.945312 169.429688 595.824219 167.914062 593.238281 C 165.820312 589.628906 161.941406 587.445312 157.75 587.535156 Z M 651.664062 587.535156 C 647.785156 587.757812 644.265625 589.898438 642.304688 593.238281 C 639.183594 598.722656 641.054688 605.671875 646.492188 608.835938 C 649.125 610.351562 652.246094 610.753906 655.144531 609.996094 C 658.085938 609.195312 660.582031 607.277344 662.097656 604.648438 C 663.613281 602.0625 664.015625 598.945312 663.257812 596.003906 C 662.453125 593.0625 660.535156 590.566406 657.90625 589.09375 C 656.035156 587.980469 653.851562 587.445312 651.664062 587.535156 Z M 203.535156 646.582031 C 200.457031 646.582031 197.472656 647.785156 195.289062 649.925781 C 190.875 654.382812 190.875 661.644531 195.289062 666.101562 C 199.746094 670.515625 207.011719 670.515625 211.46875 666.101562 C 215.882812 661.644531 215.882812 654.382812 211.46875 649.925781 C 209.332031 647.832031 206.523438 646.628906 203.535156 646.582031 Z M 607.039062 646.582031 C 603.964844 646.582031 600.976562 647.785156 598.792969 649.925781 C 594.378906 654.382812 594.378906 661.644531 598.792969 666.101562 C 603.25 670.515625 610.515625 670.515625 614.976562 666.101562 C 619.386719 661.644531 619.386719 654.382812 614.976562 649.925781 C 612.835938 647.832031 610.027344 646.628906 607.039062 646.582031 Z M 547.480469 691.90625 C 545.605469 691.949219 543.734375 692.484375 542.085938 693.421875 C 536.601562 696.585938 534.730469 703.582031 537.894531 709.015625 C 541.058594 714.453125 548.015625 716.371094 553.496094 713.207031 C 556.082031 711.691406 558 709.195312 558.800781 706.253906 C 559.605469 703.359375 559.203125 700.238281 557.644531 697.609375 C 555.59375 694 551.667969 691.816406 547.480469 691.90625 Z M 261.9375 691.949219 C 258.011719 692.128906 254.492188 694.265625 252.574219 697.652344 C 249.410156 703.089844 251.324219 710.085938 256.765625 713.207031 C 262.203125 716.371094 269.203125 714.5 272.324219 709.0625 C 273.882812 706.433594 274.285156 703.3125 273.484375 700.417969 C 272.726562 697.476562 270.808594 694.980469 268.175781 693.464844 C 266.261719 692.351562 264.121094 691.859375 261.9375 691.949219 Z M 479.089844 720.425781 C 478.78125 720.425781 478.511719 720.425781 478.246094 720.46875 C 477.488281 720.515625 476.730469 720.648438 476.015625 720.828125 C 473.074219 721.585938 470.578125 723.5 469.0625 726.128906 C 467.542969 728.757812 467.144531 731.878906 467.902344 734.777344 C 468.703125 737.71875 470.621094 740.210938 473.25 741.726562 C 475.882812 743.242188 479.003906 743.644531 481.945312 742.839844 C 488.007812 741.238281 491.617188 735 490.015625 728.894531 C 488.675781 723.945312 484.21875 720.46875 479.089844 720.425781 Z M 331.171875 720.46875 C 326.042969 720.46875 321.585938 723.945312 320.25 728.894531 C 318.597656 735 322.210938 741.238281 328.316406 742.839844 C 334.425781 744.492188 340.667969 740.882812 342.316406 734.777344 C 343.921875 728.714844 340.308594 722.476562 334.203125 720.828125 C 333.222656 720.558594 332.195312 720.425781 331.171875 720.46875 Z M 405.132812 730.140625 C 398.84375 730.140625 393.71875 735.265625 393.71875 741.550781 C 393.71875 747.832031 398.84375 752.957031 405.132812 752.957031 C 411.417969 752.957031 416.542969 747.832031 416.542969 741.550781 C 416.542969 735.265625 411.417969 730.140625 405.132812 730.140625 Z M 405.132812 730.140625"/></g></svg>