<svg xmlns="http://www.w3.org/2000/svg" width="810" viewBox="0 0 810 810" height="810" version="1.0"><path d="M 430.539062 15.09375 C 195.015625 0.0390625 0.0390625 195.007812 15.09375 430.539062 C 27.539062 625.21875 184.789062 782.460938 379.46875 794.910156 C 614.992188 809.96875 809.96875 615 794.910156 379.46875 C 782.460938 184.789062 625.210938 27.539062 430.539062 15.09375 Z M 581.914062 598.875 C 597.28125 546.082031 606.457031 485.355469 607.6875 420.027344 L 765.292969 420.027344 C 761.835938 503.785156 729.683594 580.21875 678.421875 639.816406 C 654.90625 623.339844 622.03125 609.410156 581.914062 598.875 Z M 131.582031 639.816406 C 80.324219 580.21875 48.164062 503.785156 44.714844 420.027344 L 202.320312 420.027344 C 203.542969 485.355469 212.71875 546.082031 228.09375 598.875 C 187.960938 609.417969 155.085938 623.339844 131.582031 639.816406 Z M 228.007812 211.390625 C 212.679688 264.128906 203.535156 324.757812 202.3125 389.972656 L 44.714844 389.972656 C 48.148438 306.613281 80.015625 230.511719 130.847656 171.03125 C 154.765625 187.238281 187.871094 200.976562 228.007812 211.390625 Z M 389.972656 389.972656 L 232.367188 389.972656 C 233.660156 327.78125 242.910156 269.074219 258.019531 218.292969 C 298.640625 226.484375 343.6875 231.152344 389.972656 231.992188 Z M 389.972656 420.027344 L 389.972656 578.015625 C 343.589844 578.855469 298.550781 583.589844 258.082031 591.886719 C 242.933594 541.0625 233.667969 482.296875 232.367188 420.027344 Z M 420.027344 420.027344 L 577.632812 420.027344 C 576.339844 482.296875 567.066406 541.0625 551.925781 591.886719 C 511.433594 583.589844 466.402344 578.855469 420.027344 578.015625 Z M 420.027344 389.972656 L 420.027344 231.984375 C 466.3125 231.152344 511.359375 226.476562 551.980469 218.285156 C 567.089844 269.074219 576.339844 327.78125 577.632812 389.972656 Z M 420.027344 201.9375 L 420.027344 45.851562 C 469.386719 55.21875 513.546875 110.035156 542.503906 189.574219 C 504.738281 196.941406 462.96875 201.132812 420.027344 201.9375 Z M 389.972656 45.851562 L 389.972656 201.9375 C 347.03125 201.132812 305.261719 196.941406 267.496094 189.574219 C 296.453125 110.035156 340.613281 55.210938 389.972656 45.851562 Z M 389.972656 608.070312 L 389.972656 764.15625 C 340.644531 754.796875 296.515625 700.050781 267.554688 620.597656 C 305.191406 613.128906 346.949219 608.882812 389.972656 608.070312 Z M 420.027344 764.148438 L 420.027344 608.070312 C 463.046875 608.882812 504.792969 613.128906 542.445312 620.597656 C 513.484375 700.042969 469.355469 754.796875 420.027344 764.148438 Z M 607.6875 389.972656 C 606.464844 324.757812 597.320312 264.128906 581.996094 211.390625 C 622.136719 200.96875 655.242188 187.238281 679.152344 171.03125 C 729.984375 230.503906 761.851562 306.613281 765.285156 389.972656 Z M 658.375 148.617188 C 637.335938 161.949219 607.898438 173.707031 572.816406 182.707031 C 553.957031 129.390625 528.355469 86.003906 498.195312 56.601562 C 559.53125 73.027344 614.472656 105.230469 658.375 148.617188 Z M 237.191406 182.714844 C 202.109375 173.714844 172.667969 161.953125 151.628906 148.625 C 195.527344 105.230469 250.476562 73.035156 311.820312 56.609375 C 281.652344 86.003906 256.042969 129.398438 237.191406 182.714844 Z M 152.390625 662.109375 C 172.976562 648.585938 202.191406 636.660156 237.28125 627.546875 C 256.125 680.746094 281.695312 724.039062 311.8125 753.398438 C 250.820312 737.0625 196.164062 705.121094 152.390625 662.109375 Z M 572.71875 627.546875 C 607.800781 636.660156 637.023438 648.585938 657.609375 662.109375 C 613.835938 705.128906 559.183594 737.070312 498.1875 753.398438 C 528.304688 724.039062 553.867188 680.746094 572.71875 627.546875 Z M 572.71875 627.546875"/></svg>