<svg xmlns="http://www.w3.org/2000/svg" width="810" viewBox="0 0 810 810" height="810" version="1.0"><defs><clipPath id="a"><path d="M 30.925781 101 L 779.425781 101 L 779.425781 807 L 30.925781 807 Z M 30.925781 101"/></clipPath></defs><g clip-path="url(#a)"><path d="M 755.4375 101.824219 L 559.734375 101.824219 C 571.210938 124.746094 578.859375 150.417969 581.613281 177.769531 C 591.941406 182.46875 599.214844 192.832031 599.214844 204.949219 C 599.214844 217.472656 591.511719 228.183594 580.589844 232.652344 C 577.082031 234.066406 573.285156 234.875 569.273438 234.875 C 564.335938 234.875 559.734375 233.671875 555.621094 231.574219 C 545.949219 226.613281 539.324219 216.566406 539.324219 204.949219 C 539.324219 194.453125 544.753906 185.285156 552.964844 179.941406 C 549.960938 151.125 540.8125 124.484375 527.082031 101.824219 L 283.542969 101.824219 C 269.792969 124.511719 260.648438 151.191406 257.65625 180.039062 C 265.746094 185.402344 271.113281 194.527344 271.113281 204.949219 C 271.113281 216.566406 264.488281 226.613281 254.8125 231.574219 C 250.710938 233.671875 246.089844 234.875 241.171875 234.875 C 237.167969 234.875 233.34375 234.066406 229.863281 232.652344 C 218.941406 228.183594 211.242188 217.472656 211.242188 204.949219 C 211.242188 192.769531 218.554688 182.335938 229.011719 177.671875 C 231.757812 150.375 239.375 124.71875 250.847656 101.816406 L 54.890625 101.816406 L 30.917969 758.9375 C 30.917969 785.410156 52.386719 806.875 78.878906 806.875 L 731.457031 806.875 C 757.960938 806.875 779.445312 785.410156 779.445312 758.9375 Z M 755.4375 101.824219"/></g><path d="M 231.613281 200.070312 L 231.667969 200.597656 C 231.964844 206.214844 236.585938 210.617188 242.175781 210.617188 C 247.785156 210.617188 252.398438 206.222656 252.703125 200.597656 L 252.765625 199.296875 C 253.421875 102.765625 321.59375 24.464844 405.3125 24.464844 C 489.171875 24.464844 557.460938 103.0625 557.855469 199.855469 L 557.929688 200.597656 C 558.207031 206.214844 562.820312 210.609375 568.429688 210.609375 C 574.039062 210.609375 578.652344 206.214844 578.964844 200.589844 L 579.011719 199.71875 C 578.417969 91.285156 500.589844 3.3125 405.3125 3.3125 C 309.9375 3.3125 232.027344 91.492188 231.621094 199.863281 Z M 231.613281 200.070312"/></svg>