<?xml version="1.0" encoding="UTF-8"?><svg xmlns="http://www.w3.org/2000/svg" xmlns:xlink="http://www.w3.org/1999/xlink" contentScriptType="text/ecmascript" width="375" zoomAndPan="magnify" contentStyleType="text/css" viewBox="0 0 375 374.999991" height="374.999991" preserveAspectRatio="xMidYMid meet" version="1.0"><path fill="rgb(91.758728%, 39.219666%, 10.5896%)" d="M 186.675781 86.050781 C 154.15625 86.050781 127.703125 112.503906 127.703125 145.03125 C 127.703125 177.546875 154.15625 204 186.675781 204 C 219.199219 204 245.652344 177.546875 245.652344 145.03125 C 245.652344 112.503906 219.199219 86.050781 186.675781 86.050781 Z M 186.675781 219.011719 C 145.882812 219.011719 112.691406 185.820312 112.691406 145.03125 C 112.691406 104.226562 145.882812 71.039062 186.675781 71.039062 C 227.476562 71.039062 260.664062 104.226562 260.664062 145.03125 C 260.664062 185.820312 227.476562 219.011719 186.675781 219.011719 " fill-opacity="1" fill-rule="nonzero"/><path fill="rgb(91.758728%, 39.219666%, 10.5896%)" d="M 291 295.78125 C 287.796875 295.78125 284.835938 293.722656 283.832031 290.5 C 270.542969 247.738281 231.492188 219.011719 186.675781 219.011719 C 144.042969 219.011719 105.617188 245.921875 91.050781 285.96875 C 89.636719 289.867188 85.351562 291.867188 81.4375 290.453125 C 77.542969 289.039062 75.527344 284.734375 76.949219 280.835938 C 93.65625 234.875 137.753906 204 186.675781 204 C 238.101562 204 282.914062 236.972656 298.167969 286.046875 C 299.402344 290.003906 297.183594 294.214844 293.226562 295.445312 C 292.488281 295.671875 291.730469 295.78125 291 295.78125 " fill-opacity="1" fill-rule="nonzero"/><path fill="rgb(91.758728%, 39.219666%, 10.5896%)" d="M 187.496094 15.019531 C 92.394531 15.019531 15.015625 92.398438 15.015625 187.5 C 15.015625 282.601562 92.394531 359.980469 187.496094 359.980469 C 282.605469 359.980469 359.984375 282.601562 359.984375 187.5 C 359.984375 92.398438 282.605469 15.019531 187.496094 15.019531 Z M 187.496094 374.992188 C 84.109375 374.992188 0.00390625 290.882812 0.00390625 187.5 C 0.00390625 84.117188 84.109375 0.0078125 187.496094 0.0078125 C 290.878906 0.0078125 374.996094 84.117188 374.996094 187.5 C 374.996094 290.882812 290.878906 374.992188 187.496094 374.992188 " fill-opacity="1" fill-rule="nonzero"/></svg>