<svg xmlns="http://www.w3.org/2000/svg" xmlns:xlink="http://www.w3.org/1999/xlink" width="375" viewBox="0 0 375 375" height="375" version="1.0"><defs><clipPath id="d"><path d="M 80 140 L 266 140 L 266 240 L 80 240 Z M 80 140"/></clipPath><clipPath id="c"><path d="M0 0H356V241H0z"/></clipPath><clipPath id="g"><path d="M 343 34 L 343.800781 34 L 343.800781 35 L 343 35 Z M 343 34"/></clipPath><clipPath id="f"><path d="M0 0H344V105H0z"/></clipPath><mask id="b"><g filter="url(#a)"><path fill-opacity=".776" d="M-37.5 -37.5H412.5V412.5H-37.5z"/></g></mask><mask id="e"><g filter="url(#a)"><path fill-opacity=".259" d="M-37.5 -37.5H412.5V412.5H-37.5z"/></g></mask><filter x="0%" y="0%" width="100%" xmlns:xlink="http://www.w3.org/1999/xlink" xlink:type="simple" xlink:actuate="onLoad" height="100%" id="a" xlink:show="other"><feColorMatrix values="0 0 0 0 1 0 0 0 0 1 0 0 0 0 1 0 0 0 1 0" color-interpolation-filters="sRGB"/></filter></defs><g mask="url(#b)"><g><g clip-path="url(#c)" transform="translate(9 3)"><g clip-path="url(#d)"><path fill="#BFBFBF" d="M 172.265625 239.96875 C 145.472656 239.96875 118.675781 239.714844 91.886719 240.101562 C 82.640625 240.246094 79.699219 237.164062 80.691406 227.855469 C 82.734375 208.617188 85.105469 189.492188 88.808594 170.472656 C 90.980469 159.296875 96.992188 152.457031 107 148.355469 C 110.191406 147.050781 113.589844 146.214844 116.734375 144.816406 C 128.804688 139.441406 137.667969 138.488281 147.636719 151.785156 C 162.027344 170.976562 185.320312 168.554688 200.777344 148.605469 C 206.125 141.6875 209.886719 139.003906 219.660156 142.019531 C 231.074219 145.539062 240.316406 151.519531 249.964844 157.671875 C 255.195312 161.003906 255.84375 166.285156 256.601562 171.042969 C 259.761719 190.882812 262.292969 210.824219 264.933594 230.742188 C 266.113281 239.609375 260.136719 240.007812 253.714844 239.992188 C 226.566406 239.925781 199.414062 239.960938 172.265625 239.96875 Z M 172.265625 239.96875"/></g><path fill="#BFBFBF" d="M 224.050781 48.808594 C 223.441406 52.910156 222.933594 57.03125 222.191406 61.113281 C 221.578125 64.464844 221.640625 66.453125 224.632812 69.71875 C 229.578125 75.101562 228.140625 82.625 222.03125 87.152344 C 215.191406 92.222656 211.117188 98.820312 207.132812 106.085938 C 199.566406 119.882812 189.585938 132.574219 172.375 132.367188 C 155.917969 132.15625 145.789062 120.277344 138.203125 106.804688 C 133.828125 99.023438 129.871094 91.53125 121.847656 86.238281 C 116.0625 82.429688 114.136719 75.117188 120.472656 69.523438 C 124.6875 65.800781 123.21875 61.675781 122.363281 58.246094 C 115.667969 31.304688 134.882812 13.210938 156.207031 5.632812 C 180.09375 -2.839844 207.898438 9.144531 219.953125 31.800781 C 223.546875 38.5625 223.546875 38.5625 224.050781 48.808594 Z M 224.050781 48.808594"/><path fill="#BFBFBF" d="M 104.644531 73.550781 C 103.710938 84.65625 105.996094 95.011719 112.558594 104.09375 C 116.074219 108.964844 114.121094 111.035156 109.335938 111.867188 C 106.304688 112.386719 103.117188 112.480469 100.039062 112.238281 C 90.996094 111.503906 83.566406 113.855469 79.648438 122.699219 C 77.605469 127.3125 72.832031 129.484375 69.664062 128.246094 C 60.90625 124.800781 50.601562 125.972656 43.144531 118.222656 C 36.605469 111.4375 26.660156 114.894531 18.472656 112.480469 C 12.929688 110.84375 9.480469 108.464844 13.105469 103.375 C 20.519531 92.957031 20.3125 81.367188 19.980469 69.671875 C 19.40625 49.523438 28.492188 36.710938 46.574219 27.253906 C 70.667969 14.644531 94.847656 33.96875 101.851562 52.261719 C 104.429688 59 105.84375 66.171875 104.644531 73.550781 Z M 104.644531 73.550781"/><path fill="#BFBFBF" d="M 300.84375 13.359375 C 303.027344 24.585938 313.5 29.464844 319.023438 38.292969 C 325.421875 48.539062 329.613281 58.421875 326.105469 70.402344 C 324.726562 75.113281 323.222656 79.789062 325.050781 84.65625 C 326.078125 87.386719 325.105469 90.289062 323.441406 91.339844 C 313.285156 97.769531 310.847656 109.929688 302.925781 118.027344 C 287.546875 133.753906 266.527344 130.679688 256.800781 110.929688 C 253.542969 104.308594 251.394531 97.265625 243.207031 93.96875 C 239.40625 92.4375 236.230469 86.371094 237.988281 82.359375 C 240.917969 75.648438 239.285156 69.691406 237.996094 63.445312 C 234.582031 46.929688 254.042969 25.164062 271.425781 21.960938 C 279.039062 20.566406 285.941406 13.054688 294.796875 18.5625 C 295.429688 18.949219 298.480469 15.441406 300.84375 13.359375 Z M 300.84375 13.359375"/><path fill="#BFBFBF" d="M 313.375 225.023438 C 303.621094 225.03125 293.84375 224.703125 284.113281 225.144531 C 277.597656 225.4375 276.023438 222.851562 275.644531 216.703125 C 274.6875 201.117188 272.355469 185.664062 269.636719 170.257812 C 267.5 158.132812 262.003906 148.855469 251.4375 142.53125 C 249.515625 141.378906 246.113281 140.738281 247.261719 137.574219 C 248.144531 135.128906 251.0625 134.933594 253.5625 134.683594 C 262.503906 133.785156 271.941406 137.480469 276.722656 142.453125 C 284.242188 150.285156 289.058594 146.296875 293.960938 142.375 C 313.621094 126.671875 343.601562 137.078125 347.632812 162.125 C 350.476562 179.792969 351.320312 197.785156 352.84375 215.644531 C 353.386719 221.953125 350.675781 225.332031 343.703125 225.09375 C 333.601562 224.753906 323.488281 225.007812 313.375 225.023438 Z M 313.375 225.023438"/><path fill="#BFBFBF" d="M 71.195312 153.703125 C 68.617188 157.058594 67.0625 159.078125 65.257812 161.417969 C 66.496094 161.480469 67.820312 161.953125 68.367188 161.496094 C 75.484375 155.589844 80.464844 148.226562 82.976562 139.269531 C 83.515625 137.351562 83.386719 134.589844 86.523438 135.566406 C 88.78125 136.277344 91.097656 137.414062 92.839844 138.976562 C 94.292969 140.277344 93.554688 142.351562 92.015625 143.484375 C 70.960938 158.953125 74.449219 183.109375 71.253906 204.445312 C 68.167969 225.058594 69.335938 225.648438 48.550781 224.972656 C 35.488281 224.558594 22.328125 227.046875 9.277344 223.105469 C 4.867188 221.78125 3.527344 221.097656 4.859375 216.4375 C 9.632812 199.714844 9.632812 182.269531 11.996094 165.179688 C 14.421875 147.613281 20.566406 141.261719 31.835938 137.980469 C 35.082031 137.03125 38.195312 136.839844 38.722656 139.800781 C 41.496094 155.398438 53.0625 153.707031 64.109375 153.382812 C 65.824219 153.328125 67.554688 153.53125 71.195312 153.703125 Z M 71.195312 153.703125"/></g></g></g><g mask="url(#e)"><g><g clip-path="url(#f)" transform="translate(15 266)"><g><g><g><path d="M 26.203125 -23.09375 C 26.203125 -22.550781 26.132812 -21.875 26 -21.0625 L 22.28125 -21.0625 C 22.363281 -21.550781 22.40625 -21.984375 22.40625 -22.359375 C 22.40625 -23.742188 21.921875 -24.632812 20.953125 -25.03125 C 19.984375 -25.4375 18.332031 -25.640625 16 -25.640625 C 12.457031 -25.640625 10.140625 -25.078125 9.046875 -23.953125 C 8.003906 -22.859375 7.484375 -21.289062 7.484375 -19.25 C 7.484375 -18.84375 7.53125 -18.492188 7.625 -18.203125 C 7.726562 -17.921875 7.894531 -17.6875 8.125 -17.5 C 8.363281 -17.3125 8.578125 -17.148438 8.765625 -17.015625 C 8.953125 -16.890625 9.242188 -16.796875 9.640625 -16.734375 C 10.046875 -16.679688 10.347656 -16.644531 10.546875 -16.625 C 10.753906 -16.613281 11.09375 -16.59375 11.5625 -16.5625 C 12.039062 -16.53125 12.351562 -16.515625 12.5 -16.515625 C 12.789062 -16.515625 13.226562 -16.515625 13.8125 -16.515625 C 14.40625 -16.515625 14.847656 -16.503906 15.140625 -16.484375 C 16.148438 -16.453125 16.925781 -16.414062 17.46875 -16.375 C 18.019531 -16.332031 18.710938 -16.25 19.546875 -16.125 C 20.378906 -16.007812 21.023438 -15.835938 21.484375 -15.609375 C 21.953125 -15.378906 22.429688 -15.066406 22.921875 -14.671875 C 23.410156 -14.285156 23.765625 -13.773438 23.984375 -13.140625 C 24.203125 -12.515625 24.3125 -11.769531 24.3125 -10.90625 C 24.3125 -9.3125 24.066406 -7.734375 23.578125 -6.171875 C 23.085938 -4.617188 22.347656 -3.351562 21.359375 -2.375 C 19.546875 -0.5625 16.257812 0.34375 11.5 0.34375 C 8.15625 0.34375 5.625 -0.109375 3.90625 -1.015625 C 2.195312 -1.921875 1.34375 -3.472656 1.34375 -5.671875 C 1.34375 -6.160156 1.398438 -6.863281 1.515625 -7.78125 L 5.3125 -7.78125 C 5.226562 -7.375 5.1875 -6.898438 5.1875 -6.359375 C 5.1875 -5.035156 5.691406 -4.171875 6.703125 -3.765625 C 7.710938 -3.359375 9.359375 -3.15625 11.640625 -3.15625 C 15.179688 -3.15625 17.523438 -3.734375 18.671875 -4.890625 C 19.828125 -6.046875 20.40625 -7.734375 20.40625 -9.953125 C 20.40625 -10.296875 20.375 -10.597656 20.3125 -10.859375 C 20.257812 -11.117188 20.15625 -11.347656 20 -11.546875 C 19.84375 -11.742188 19.707031 -11.914062 19.59375 -12.0625 C 19.476562 -12.207031 19.269531 -12.320312 18.96875 -12.40625 C 18.664062 -12.5 18.441406 -12.570312 18.296875 -12.625 C 18.148438 -12.6875 17.875 -12.726562 17.46875 -12.75 C 17.070312 -12.78125 16.804688 -12.800781 16.671875 -12.8125 C 16.546875 -12.832031 16.234375 -12.847656 15.734375 -12.859375 C 15.242188 -12.878906 14.941406 -12.890625 14.828125 -12.890625 C 14.546875 -12.890625 14.125 -12.890625 13.5625 -12.890625 C 13 -12.890625 12.570312 -12.90625 12.28125 -12.9375 C 11.21875 -12.957031 10.347656 -13.003906 9.671875 -13.078125 C 8.992188 -13.148438 8.226562 -13.300781 7.375 -13.53125 C 6.519531 -13.769531 5.847656 -14.070312 5.359375 -14.4375 C 4.867188 -14.8125 4.453125 -15.335938 4.109375 -16.015625 C 3.765625 -16.703125 3.59375 -17.519531 3.59375 -18.46875 C 3.59375 -19.9375 3.816406 -21.40625 4.265625 -22.875 C 4.710938 -24.34375 5.378906 -25.523438 6.265625 -26.421875 C 8.054688 -28.242188 11.359375 -29.15625 16.171875 -29.15625 C 19.515625 -29.15625 22.019531 -28.695312 23.6875 -27.78125 C 25.363281 -26.875 26.203125 -25.3125 26.203125 -23.09375 Z M 26.203125 -23.09375" transform="translate(1.315 34.199)"/></g></g></g><g><g><g><path d="M 20.40625 -14.75 C 20.40625 -12.582031 20.222656 -10.75 19.859375 -9.25 L 5.015625 -9.25 C 4.816406 -8.039062 4.71875 -7.164062 4.71875 -6.625 C 4.71875 -5.257812 5.09375 -4.289062 5.84375 -3.71875 C 6.59375 -3.144531 7.890625 -2.859375 9.734375 -2.859375 C 10.484375 -2.859375 11.128906 -2.894531 11.671875 -2.96875 C 12.222656 -3.039062 12.785156 -3.175781 13.359375 -3.375 C 13.941406 -3.570312 14.421875 -3.898438 14.796875 -4.359375 C 15.171875 -4.828125 15.414062 -5.40625 15.53125 -6.09375 L 18.984375 -6.09375 C 18.441406 -1.800781 15.3125 0.34375 9.59375 0.34375 C 6.488281 0.34375 4.300781 -0.226562 3.03125 -1.375 C 1.757812 -2.53125 1.125 -4.28125 1.125 -6.625 C 1.125 -8.601562 1.441406 -10.851562 2.078125 -13.375 C 2.710938 -15.90625 3.59375 -17.734375 4.71875 -18.859375 C 6.332031 -20.472656 8.8125 -21.28125 12.15625 -21.28125 C 15.207031 -21.28125 17.34375 -20.707031 18.5625 -19.5625 C 19.789062 -18.425781 20.40625 -16.820312 20.40625 -14.75 Z M 16.953125 -14.65625 C 16.953125 -15.894531 16.59375 -16.78125 15.875 -17.3125 C 15.15625 -17.851562 13.914062 -18.125 12.15625 -18.125 C 10.019531 -18.125 8.484375 -17.664062 7.546875 -16.75 C 6.609375 -15.84375 5.953125 -14.382812 5.578125 -12.375 L 16.6875 -12.375 C 16.863281 -13.40625 16.953125 -14.164062 16.953125 -14.65625 Z M 16.953125 -14.65625" transform="translate(29.121 34.199)"/></g></g></g><g><g><g><path d="M 9.421875 -30.140625 L 4.109375 0 L 0.4375 0 L 5.75 -30.140625 Z M 9.421875 -30.140625" transform="translate(52.214 34.199)"/></g></g></g><g><g><g><path d="M 20.40625 -14.75 C 20.40625 -12.582031 20.222656 -10.75 19.859375 -9.25 L 5.015625 -9.25 C 4.816406 -8.039062 4.71875 -7.164062 4.71875 -6.625 C 4.71875 -5.257812 5.09375 -4.289062 5.84375 -3.71875 C 6.59375 -3.144531 7.890625 -2.859375 9.734375 -2.859375 C 10.484375 -2.859375 11.128906 -2.894531 11.671875 -2.96875 C 12.222656 -3.039062 12.785156 -3.175781 13.359375 -3.375 C 13.941406 -3.570312 14.421875 -3.898438 14.796875 -4.359375 C 15.171875 -4.828125 15.414062 -5.40625 15.53125 -6.09375 L 18.984375 -6.09375 C 18.441406 -1.800781 15.3125 0.34375 9.59375 0.34375 C 6.488281 0.34375 4.300781 -0.226562 3.03125 -1.375 C 1.757812 -2.53125 1.125 -4.28125 1.125 -6.625 C 1.125 -8.601562 1.441406 -10.851562 2.078125 -13.375 C 2.710938 -15.90625 3.59375 -17.734375 4.71875 -18.859375 C 6.332031 -20.472656 8.8125 -21.28125 12.15625 -21.28125 C 15.207031 -21.28125 17.34375 -20.707031 18.5625 -19.5625 C 19.789062 -18.425781 20.40625 -16.820312 20.40625 -14.75 Z M 16.953125 -14.65625 C 16.953125 -15.894531 16.59375 -16.78125 15.875 -17.3125 C 15.15625 -17.851562 13.914062 -18.125 12.15625 -18.125 C 10.019531 -18.125 8.484375 -17.664062 7.546875 -16.75 C 6.609375 -15.84375 5.953125 -14.382812 5.578125 -12.375 L 16.6875 -12.375 C 16.863281 -13.40625 16.953125 -14.164062 16.953125 -14.65625 Z M 16.953125 -14.65625" transform="translate(62.117 34.199)"/></g></g></g><g><g><g><path d="M 20.5 -16.125 C 20.5 -15.75 20.457031 -15.316406 20.375 -14.828125 L 16.90625 -14.828125 C 16.9375 -14.972656 16.953125 -15.21875 16.953125 -15.5625 C 16.953125 -16.257812 16.691406 -16.796875 16.171875 -17.171875 C 15.648438 -17.546875 15.101562 -17.769531 14.53125 -17.84375 C 13.957031 -17.914062 13.238281 -17.953125 12.375 -17.953125 C 10.15625 -17.953125 8.539062 -17.445312 7.53125 -16.4375 C 6.6875 -15.601562 6.035156 -14.175781 5.578125 -12.15625 C 5.117188 -10.132812 4.890625 -8.316406 4.890625 -6.703125 C 4.890625 -5.378906 5.25 -4.425781 5.96875 -3.84375 C 6.6875 -3.269531 7.941406 -2.984375 9.734375 -2.984375 C 10.421875 -2.984375 11.023438 -3.007812 11.546875 -3.0625 C 12.066406 -3.125 12.617188 -3.253906 13.203125 -3.453125 C 13.796875 -3.660156 14.28125 -3.988281 14.65625 -4.4375 C 15.03125 -4.882812 15.273438 -5.4375 15.390625 -6.09375 L 18.90625 -6.09375 C 18.382812 -1.800781 15.269531 0.34375 9.5625 0.34375 C 6.5 0.34375 4.328125 -0.21875 3.046875 -1.34375 C 1.765625 -2.46875 1.125 -4.226562 1.125 -6.625 C 1.125 -8.664062 1.441406 -10.910156 2.078125 -13.359375 C 2.710938 -15.816406 3.59375 -17.617188 4.71875 -18.765625 C 6.300781 -20.441406 8.804688 -21.28125 12.234375 -21.28125 C 17.742188 -21.28125 20.5 -19.5625 20.5 -16.125 Z M 20.5 -16.125" transform="translate(85.21 34.199)"/></g></g></g><g><g><g><path d="M 18.34375 -20.9375 L 17.78125 -17.78125 L 8.515625 -17.78125 L 6.625 -7 C 6.476562 -6.375 6.40625 -5.8125 6.40625 -5.3125 C 6.40625 -4.425781 6.660156 -3.785156 7.171875 -3.390625 C 7.691406 -3.003906 8.546875 -2.8125 9.734375 -2.8125 C 11.054688 -2.8125 12.046875 -3.0625 12.703125 -3.5625 C 13.367188 -4.070312 13.804688 -4.914062 14.015625 -6.09375 L 17.4375 -6.09375 C 17.03125 -3.789062 16.160156 -2.140625 14.828125 -1.140625 C 13.503906 -0.148438 11.734375 0.34375 9.515625 0.34375 C 7.378906 0.34375 5.707031 -0.0703125 4.5 -0.90625 C 3.289062 -1.738281 2.6875 -2.992188 2.6875 -4.671875 C 2.6875 -5.128906 2.726562 -5.632812 2.8125 -6.1875 L 4.84375 -17.78125 L 1.390625 -17.78125 L 1.953125 -20.9375 L 5.40625 -20.9375 L 6.828125 -28.84375 L 10.515625 -28.84375 L 9.078125 -20.9375 Z M 18.34375 -20.9375" transform="translate(107.74 34.199)"/></g></g></g><g><g><g><path d="M 20.109375 -15.65625 C 20.109375 -14.96875 19.921875 -13.539062 19.546875 -11.375 L 17.515625 0 L 14.140625 0 L 14.484375 -2.03125 C 12.898438 -0.445312 10.566406 0.34375 7.484375 0.34375 C 5.285156 0.34375 3.535156 -0.078125 2.234375 -0.921875 C 0.941406 -1.773438 0.296875 -3.113281 0.296875 -4.9375 C 0.296875 -7.414062 0.988281 -9.34375 2.375 -10.71875 C 3.238281 -11.59375 4.257812 -12.164062 5.4375 -12.4375 C 6.625 -12.707031 8.195312 -12.84375 10.15625 -12.84375 L 16.125 -12.84375 C 16.363281 -14.3125 16.484375 -15.148438 16.484375 -15.359375 C 16.484375 -16.453125 16.144531 -17.171875 15.46875 -17.515625 C 14.789062 -17.859375 13.644531 -18.03125 12.03125 -18.03125 C 9.863281 -18.03125 8.335938 -17.765625 7.453125 -17.234375 C 6.578125 -16.703125 6.039062 -15.929688 5.84375 -14.921875 L 2.25 -14.921875 C 2.476562 -16.191406 2.898438 -17.265625 3.515625 -18.140625 C 4.140625 -19.023438 4.925781 -19.679688 5.875 -20.109375 C 6.832031 -20.546875 7.816406 -20.847656 8.828125 -21.015625 C 9.835938 -21.191406 11.003906 -21.28125 12.328125 -21.28125 C 17.515625 -21.28125 20.109375 -19.40625 20.109375 -15.65625 Z M 15.703125 -9.78125 L 10.15625 -9.78125 C 9.46875 -9.78125 8.953125 -9.769531 8.609375 -9.75 C 8.265625 -9.738281 7.738281 -9.660156 7.03125 -9.515625 C 6.320312 -9.367188 5.78125 -9.148438 5.40625 -8.859375 C 5.03125 -8.578125 4.679688 -8.140625 4.359375 -7.546875 C 4.046875 -6.953125 3.890625 -6.222656 3.890625 -5.359375 C 3.890625 -4.554688 4.242188 -3.929688 4.953125 -3.484375 C 5.660156 -3.035156 6.675781 -2.8125 8 -2.8125 C 9.4375 -2.8125 10.617188 -2.941406 11.546875 -3.203125 C 12.472656 -3.460938 13.203125 -3.914062 13.734375 -4.5625 C 14.265625 -5.207031 14.660156 -5.894531 14.921875 -6.625 C 15.179688 -7.363281 15.441406 -8.414062 15.703125 -9.78125 Z M 15.703125 -9.78125" transform="translate(137.665 34.199)"/></g></g></g><g><g><g><path d="M 26.984375 -23.140625 C 26.984375 -22.390625 26.925781 -21.695312 26.8125 -21.0625 L 23.046875 -21.0625 C 23.109375 -21.695312 23.140625 -22.1875 23.140625 -22.53125 C 23.140625 -23.769531 22.582031 -24.597656 21.46875 -25.015625 C 20.363281 -25.429688 18.785156 -25.640625 16.734375 -25.640625 C 13.617188 -25.640625 11.367188 -24.953125 9.984375 -23.578125 C 9.210938 -22.796875 8.601562 -21.695312 8.15625 -20.28125 C 7.707031 -18.875 7.265625 -16.914062 6.828125 -14.40625 C 6.285156 -11.195312 6.015625 -9.003906 6.015625 -7.828125 C 6.015625 -6.097656 6.453125 -4.894531 7.328125 -4.21875 C 8.210938 -3.539062 9.820312 -3.203125 12.15625 -3.203125 C 13.1875 -3.203125 14.117188 -3.28125 14.953125 -3.4375 C 15.796875 -3.59375 16.507812 -3.789062 17.09375 -4.03125 C 17.6875 -4.28125 18.222656 -4.648438 18.703125 -5.140625 C 19.179688 -5.628906 19.5625 -6.101562 19.84375 -6.5625 C 20.132812 -7.03125 20.414062 -7.660156 20.6875 -8.453125 C 20.96875 -9.242188 21.175781 -9.957031 21.3125 -10.59375 C 21.457031 -11.226562 21.632812 -12.078125 21.84375 -13.140625 L 13.890625 -13.140625 L 14.453125 -16.515625 L 26.03125 -16.515625 L 23.09375 0 L 19.984375 0 L 20.453125 -2.59375 C 18.347656 -0.632812 15.304688 0.34375 11.328125 0.34375 C 9.398438 0.34375 7.800781 0.148438 6.53125 -0.234375 C 5.257812 -0.628906 4.320312 -1.203125 3.71875 -1.953125 C 3.113281 -2.703125 2.703125 -3.484375 2.484375 -4.296875 C 2.265625 -5.117188 2.15625 -6.109375 2.15625 -7.265625 C 2.15625 -8.910156 2.429688 -11.304688 2.984375 -14.453125 C 3.535156 -17.503906 4.113281 -19.929688 4.71875 -21.734375 C 5.320312 -23.535156 6.1875 -25 7.3125 -26.125 C 9.332031 -28.144531 12.660156 -29.15625 17.296875 -29.15625 C 20.441406 -29.15625 22.84375 -28.691406 24.5 -27.765625 C 26.15625 -26.835938 26.984375 -25.296875 26.984375 -23.140625 Z M 26.984375 -23.140625" transform="translate(170.531 34.199)"/></g></g></g><g><g><g><path d="M 19.203125 -16.390625 C 19.203125 -15.929688 19.160156 -15.441406 19.078125 -14.921875 L 15.53125 -14.921875 C 15.582031 -15.179688 15.609375 -15.515625 15.609375 -15.921875 C 15.609375 -16.671875 15.34375 -17.195312 14.8125 -17.5 C 14.28125 -17.800781 13.421875 -17.953125 12.234375 -17.953125 C 10.335938 -17.953125 8.851562 -17.203125 7.78125 -15.703125 C 7.007812 -14.609375 6.390625 -12.820312 5.921875 -10.34375 L 4.109375 0 L 0.4375 0 L 4.109375 -20.9375 L 7.484375 -20.9375 L 7.09375 -18.90625 C 8.59375 -20.488281 10.550781 -21.28125 12.96875 -21.28125 C 17.125 -21.28125 19.203125 -19.648438 19.203125 -16.390625 Z M 19.203125 -16.390625" transform="translate(199.332 34.199)"/></g></g></g><g><g><g><path d="M 21.15625 -14.3125 C 21.15625 -13.1875 21.023438 -11.90625 20.765625 -10.46875 C 20.410156 -8.507812 20.023438 -6.914062 19.609375 -5.6875 C 19.191406 -4.457031 18.578125 -3.351562 17.765625 -2.375 C 16.960938 -1.394531 15.90625 -0.695312 14.59375 -0.28125 C 13.28125 0.132812 11.644531 0.34375 9.6875 0.34375 C 6.539062 0.34375 4.328125 -0.207031 3.046875 -1.3125 C 1.765625 -2.425781 1.125 -4.195312 1.125 -6.625 C 1.125 -7.738281 1.253906 -9.019531 1.515625 -10.46875 C 1.859375 -12.425781 2.238281 -14.015625 2.65625 -15.234375 C 3.070312 -16.460938 3.679688 -17.566406 4.484375 -18.546875 C 5.296875 -19.535156 6.359375 -20.238281 7.671875 -20.65625 C 8.984375 -21.070312 10.617188 -21.28125 12.578125 -21.28125 C 15.722656 -21.28125 17.9375 -20.722656 19.21875 -19.609375 C 20.507812 -18.503906 21.15625 -16.738281 21.15625 -14.3125 Z M 17.390625 -14.1875 C 17.390625 -15.539062 17.035156 -16.503906 16.328125 -17.078125 C 15.617188 -17.660156 14.367188 -17.953125 12.578125 -17.953125 C 10.242188 -17.953125 8.570312 -17.460938 7.5625 -16.484375 C 6.53125 -15.472656 5.738281 -13.25 5.1875 -9.8125 C 4.988281 -8.40625 4.890625 -7.382812 4.890625 -6.75 C 4.890625 -5.394531 5.238281 -4.425781 5.9375 -3.84375 C 6.644531 -3.269531 7.894531 -2.984375 9.6875 -2.984375 C 12.019531 -2.984375 13.691406 -3.472656 14.703125 -4.453125 C 15.742188 -5.460938 16.535156 -7.679688 17.078125 -11.109375 C 17.285156 -12.523438 17.390625 -13.550781 17.390625 -14.1875 Z M 17.390625 -14.1875" transform="translate(218.835 34.199)"/></g></g></g><g><g><g><path d="M 21.328125 -20.9375 L 17.640625 0 L 14.3125 0 L 14.65625 -2.03125 C 13.21875 -0.445312 11.054688 0.34375 8.171875 0.34375 C 5.660156 0.34375 3.859375 -0.203125 2.765625 -1.296875 C 1.671875 -2.390625 1.125 -3.660156 1.125 -5.109375 C 1.125 -5.828125 1.328125 -7.394531 1.734375 -9.8125 L 3.671875 -20.9375 L 7.390625 -20.9375 L 5.453125 -10.125 C 5.109375 -8.332031 4.9375 -7.003906 4.9375 -6.140625 C 4.9375 -5.191406 5.226562 -4.441406 5.8125 -3.890625 C 6.40625 -3.347656 7.507812 -3.078125 9.125 -3.078125 C 10.164062 -3.078125 11.066406 -3.238281 11.828125 -3.5625 C 12.585938 -3.894531 13.175781 -4.253906 13.59375 -4.640625 C 14.019531 -5.035156 14.40625 -5.6875 14.75 -6.59375 C 15.09375 -7.5 15.3125 -8.203125 15.40625 -8.703125 C 15.507812 -9.210938 15.679688 -10.070312 15.921875 -11.28125 L 17.640625 -20.9375 Z M 21.328125 -20.9375" transform="translate(242.663 34.199)"/></g></g></g><g><g><g><path d="M 21.328125 -15 C 21.328125 -11.800781 20.957031 -9.078125 20.21875 -6.828125 C 19.476562 -4.578125 18.609375 -2.953125 17.609375 -1.953125 C 16.765625 -1.109375 15.84375 -0.515625 14.84375 -0.171875 C 13.851562 0.171875 12.550781 0.34375 10.9375 0.34375 C 7.851562 0.34375 5.675781 -0.359375 4.40625 -1.765625 L 2.640625 8.265625 L -1.03125 8.265625 L 4.109375 -20.9375 L 7.53125 -20.9375 L 7.140625 -18.640625 C 8.804688 -20.398438 11.113281 -21.28125 14.0625 -21.28125 C 16.707031 -21.28125 18.578125 -20.757812 19.671875 -19.71875 C 20.773438 -18.6875 21.328125 -17.113281 21.328125 -15 Z M 17.46875 -14.0625 C 17.46875 -15.351562 17.222656 -16.300781 16.734375 -16.90625 C 16.242188 -17.507812 15.207031 -17.8125 13.625 -17.8125 C 11.226562 -17.8125 9.453125 -17.28125 8.296875 -16.21875 C 7.410156 -15.351562 6.742188 -14.003906 6.296875 -12.171875 C 5.847656 -10.335938 5.625 -8.585938 5.625 -6.921875 C 5.625 -5.503906 6.019531 -4.5 6.8125 -3.90625 C 7.601562 -3.320312 8.9375 -3.03125 10.8125 -3.03125 C 12.601562 -3.03125 13.929688 -3.460938 14.796875 -4.328125 C 15.628906 -5.160156 16.28125 -6.578125 16.75 -8.578125 C 17.226562 -10.585938 17.46875 -12.414062 17.46875 -14.0625 Z M 17.46875 -14.0625" transform="translate(265.929 34.199)"/></g></g></g><g><g><g><path d="M 18.34375 -20.9375 L 17.78125 -17.78125 L 8.515625 -17.78125 L 6.625 -7 C 6.476562 -6.375 6.40625 -5.8125 6.40625 -5.3125 C 6.40625 -4.425781 6.660156 -3.785156 7.171875 -3.390625 C 7.691406 -3.003906 8.546875 -2.8125 9.734375 -2.8125 C 11.054688 -2.8125 12.046875 -3.0625 12.703125 -3.5625 C 13.367188 -4.070312 13.804688 -4.914062 14.015625 -6.09375 L 17.4375 -6.09375 C 17.03125 -3.789062 16.160156 -2.140625 14.828125 -1.140625 C 13.503906 -0.148438 11.734375 0.34375 9.515625 0.34375 C 7.378906 0.34375 5.707031 -0.0703125 4.5 -0.90625 C 3.289062 -1.738281 2.6875 -2.992188 2.6875 -4.671875 C 2.6875 -5.128906 2.726562 -5.632812 2.8125 -6.1875 L 4.84375 -17.78125 L 1.390625 -17.78125 L 1.953125 -20.9375 L 5.40625 -20.9375 L 6.828125 -28.84375 L 10.515625 -28.84375 L 9.078125 -20.9375 Z M 18.34375 -20.9375" transform="translate(300.005 34.199)"/></g></g></g><g><g><g><path d="M 21.15625 -14.3125 C 21.15625 -13.1875 21.023438 -11.90625 20.765625 -10.46875 C 20.410156 -8.507812 20.023438 -6.914062 19.609375 -5.6875 C 19.191406 -4.457031 18.578125 -3.351562 17.765625 -2.375 C 16.960938 -1.394531 15.90625 -0.695312 14.59375 -0.28125 C 13.28125 0.132812 11.644531 0.34375 9.6875 0.34375 C 6.539062 0.34375 4.328125 -0.207031 3.046875 -1.3125 C 1.765625 -2.425781 1.125 -4.195312 1.125 -6.625 C 1.125 -7.738281 1.253906 -9.019531 1.515625 -10.46875 C 1.859375 -12.425781 2.238281 -14.015625 2.65625 -15.234375 C 3.070312 -16.460938 3.679688 -17.566406 4.484375 -18.546875 C 5.296875 -19.535156 6.359375 -20.238281 7.671875 -20.65625 C 8.984375 -21.070312 10.617188 -21.28125 12.578125 -21.28125 C 15.722656 -21.28125 17.9375 -20.722656 19.21875 -19.609375 C 20.507812 -18.503906 21.15625 -16.738281 21.15625 -14.3125 Z M 17.390625 -14.1875 C 17.390625 -15.539062 17.035156 -16.503906 16.328125 -17.078125 C 15.617188 -17.660156 14.367188 -17.953125 12.578125 -17.953125 C 10.242188 -17.953125 8.570312 -17.460938 7.5625 -16.484375 C 6.53125 -15.472656 5.738281 -13.25 5.1875 -9.8125 C 4.988281 -8.40625 4.890625 -7.382812 4.890625 -6.75 C 4.890625 -5.394531 5.238281 -4.425781 5.9375 -3.84375 C 6.644531 -3.269531 7.894531 -2.984375 9.6875 -2.984375 C 12.019531 -2.984375 13.691406 -3.472656 14.703125 -4.453125 C 15.742188 -5.460938 16.535156 -7.679688 17.078125 -11.109375 C 17.285156 -12.523438 17.390625 -13.550781 17.390625 -14.1875 Z M 17.390625 -14.1875" transform="translate(319.855 34.199)"/></g></g></g><g><g><g><path d="M 21.328125 -15 C 21.328125 -11.800781 20.957031 -9.078125 20.21875 -6.828125 C 19.476562 -4.578125 18.609375 -2.953125 17.609375 -1.953125 C 16.765625 -1.109375 15.84375 -0.515625 14.84375 -0.171875 C 13.851562 0.171875 12.550781 0.34375 10.9375 0.34375 C 7.851562 0.34375 5.675781 -0.359375 4.40625 -1.765625 L 2.640625 8.265625 L -1.03125 8.265625 L 4.109375 -20.9375 L 7.53125 -20.9375 L 7.140625 -18.640625 C 8.804688 -20.398438 11.113281 -21.28125 14.0625 -21.28125 C 16.707031 -21.28125 18.578125 -20.757812 19.671875 -19.71875 C 20.773438 -18.6875 21.328125 -17.113281 21.328125 -15 Z M 17.46875 -14.0625 C 17.46875 -15.351562 17.222656 -16.300781 16.734375 -16.90625 C 16.242188 -17.507812 15.207031 -17.8125 13.625 -17.8125 C 11.226562 -17.8125 9.453125 -17.28125 8.296875 -16.21875 C 7.410156 -15.351562 6.742188 -14.003906 6.296875 -12.171875 C 5.847656 -10.335938 5.625 -8.585938 5.625 -6.921875 C 5.625 -5.503906 6.019531 -4.5 6.8125 -3.90625 C 7.601562 -3.320312 8.9375 -3.03125 10.8125 -3.03125 C 12.601562 -3.03125 13.929688 -3.460938 14.796875 -4.328125 C 15.628906 -5.160156 16.28125 -6.578125 16.75 -8.578125 C 17.226562 -10.585938 17.46875 -12.414062 17.46875 -14.0625 Z M 17.46875 -14.0625" transform="translate(96.82 94.655)"/></g></g></g><g><g><g><path d="M 19.203125 -16.390625 C 19.203125 -15.929688 19.160156 -15.441406 19.078125 -14.921875 L 15.53125 -14.921875 C 15.582031 -15.179688 15.609375 -15.515625 15.609375 -15.921875 C 15.609375 -16.671875 15.34375 -17.195312 14.8125 -17.5 C 14.28125 -17.800781 13.421875 -17.953125 12.234375 -17.953125 C 10.335938 -17.953125 8.851562 -17.203125 7.78125 -15.703125 C 7.007812 -14.609375 6.390625 -12.820312 5.921875 -10.34375 L 4.109375 0 L 0.4375 0 L 4.109375 -20.9375 L 7.484375 -20.9375 L 7.09375 -18.90625 C 8.59375 -20.488281 10.550781 -21.28125 12.96875 -21.28125 C 17.125 -21.28125 19.203125 -19.648438 19.203125 -16.390625 Z M 19.203125 -16.390625" transform="translate(120.82 94.655)"/></g></g></g><g><g><g><path d="M 20.40625 -14.75 C 20.40625 -12.582031 20.222656 -10.75 19.859375 -9.25 L 5.015625 -9.25 C 4.816406 -8.039062 4.71875 -7.164062 4.71875 -6.625 C 4.71875 -5.257812 5.09375 -4.289062 5.84375 -3.71875 C 6.59375 -3.144531 7.890625 -2.859375 9.734375 -2.859375 C 10.484375 -2.859375 11.128906 -2.894531 11.671875 -2.96875 C 12.222656 -3.039062 12.785156 -3.175781 13.359375 -3.375 C 13.941406 -3.570312 14.421875 -3.898438 14.796875 -4.359375 C 15.171875 -4.828125 15.414062 -5.40625 15.53125 -6.09375 L 18.984375 -6.09375 C 18.441406 -1.800781 15.3125 0.34375 9.59375 0.34375 C 6.488281 0.34375 4.300781 -0.226562 3.03125 -1.375 C 1.757812 -2.53125 1.125 -4.28125 1.125 -6.625 C 1.125 -8.601562 1.441406 -10.851562 2.078125 -13.375 C 2.710938 -15.90625 3.59375 -17.734375 4.71875 -18.859375 C 6.332031 -20.472656 8.8125 -21.28125 12.15625 -21.28125 C 15.207031 -21.28125 17.34375 -20.707031 18.5625 -19.5625 C 19.789062 -18.425781 20.40625 -16.820312 20.40625 -14.75 Z M 16.953125 -14.65625 C 16.953125 -15.894531 16.59375 -16.78125 15.875 -17.3125 C 15.15625 -17.851562 13.914062 -18.125 12.15625 -18.125 C 10.019531 -18.125 8.484375 -17.664062 7.546875 -16.75 C 6.609375 -15.84375 5.953125 -14.382812 5.578125 -12.375 L 16.6875 -12.375 C 16.863281 -13.40625 16.953125 -14.164062 16.953125 -14.65625 Z M 16.953125 -14.65625" transform="translate(140.324 94.655)"/></g></g></g><g><g><g><path d="M 21.75 -20.9375 L 9.90625 0 L 6.234375 0 L 1.6875 -20.9375 L 5.453125 -20.9375 L 8.734375 -4.375 L 17.78125 -20.9375 Z M 21.75 -20.9375" transform="translate(163.416 94.655)"/></g></g></g><g><g><g><path d="M 9.21875 -27.5 C 9.21875 -26.726562 8.976562 -26.085938 8.5 -25.578125 C 8.019531 -25.078125 7.394531 -24.828125 6.625 -24.828125 C 5.375 -24.828125 4.75 -25.375 4.75 -26.46875 C 4.75 -27.25 4.988281 -27.890625 5.46875 -28.390625 C 5.945312 -28.898438 6.578125 -29.15625 7.359375 -29.15625 C 8.597656 -29.15625 9.21875 -28.601562 9.21875 -27.5 Z M 7.78125 -20.9375 L 4.109375 0 L 0.4375 0 L 4.109375 -20.9375 Z M 7.78125 -20.9375" transform="translate(184.65 94.655)"/></g></g></g><g><g><g><path d="M 20.40625 -14.75 C 20.40625 -12.582031 20.222656 -10.75 19.859375 -9.25 L 5.015625 -9.25 C 4.816406 -8.039062 4.71875 -7.164062 4.71875 -6.625 C 4.71875 -5.257812 5.09375 -4.289062 5.84375 -3.71875 C 6.59375 -3.144531 7.890625 -2.859375 9.734375 -2.859375 C 10.484375 -2.859375 11.128906 -2.894531 11.671875 -2.96875 C 12.222656 -3.039062 12.785156 -3.175781 13.359375 -3.375 C 13.941406 -3.570312 14.421875 -3.898438 14.796875 -4.359375 C 15.171875 -4.828125 15.414062 -5.40625 15.53125 -6.09375 L 18.984375 -6.09375 C 18.441406 -1.800781 15.3125 0.34375 9.59375 0.34375 C 6.488281 0.34375 4.300781 -0.226562 3.03125 -1.375 C 1.757812 -2.53125 1.125 -4.28125 1.125 -6.625 C 1.125 -8.601562 1.441406 -10.851562 2.078125 -13.375 C 2.710938 -15.90625 3.59375 -17.734375 4.71875 -18.859375 C 6.332031 -20.472656 8.8125 -21.28125 12.15625 -21.28125 C 15.207031 -21.28125 17.34375 -20.707031 18.5625 -19.5625 C 19.789062 -18.425781 20.40625 -16.820312 20.40625 -14.75 Z M 16.953125 -14.65625 C 16.953125 -15.894531 16.59375 -16.78125 15.875 -17.3125 C 15.15625 -17.851562 13.914062 -18.125 12.15625 -18.125 C 10.019531 -18.125 8.484375 -17.664062 7.546875 -16.75 C 6.609375 -15.84375 5.953125 -14.382812 5.578125 -12.375 L 16.6875 -12.375 C 16.863281 -13.40625 16.953125 -14.164062 16.953125 -14.65625 Z M 16.953125 -14.65625" transform="translate(194.336 94.655)"/></g></g></g><g><g><g><path d="M 30.96875 -20.9375 L 21.28125 0 L 17.390625 0 L 15.609375 -16.6875 L 7.921875 0 L 4.15625 0 L 1.859375 -20.9375 L 5.359375 -20.9375 L 6.828125 -4.5 L 14.453125 -20.9375 L 18.125 -20.9375 L 19.9375 -4.5 L 27.15625 -20.9375 Z M 30.96875 -20.9375" transform="translate(217.429 94.655)"/></g></g></g></g></g></g></svg>